<svg width="24" height="24" viewBox="0 0 24 24" fill="none" xmlns="http://www.w3.org/2000/svg">
<g clip-path="url(#clip0_5545_1598)">
<g clip-path="url(#clip1_5545_1598)">
<path d="M23.3334 11.3333C23.3334 17.5927 18.2594 22.6667 12.0001 22.6667C5.74075 22.6667 0.666748 17.5927 0.666748 11.3333C0.666748 5.074 5.74142 0 12.0001 0C18.2587 0 23.3334 5.07467 23.3334 11.3333Z" fill="#F8E09E"/>
<path d="M12.0001 18.0907C14.2234 18.0907 15.6981 18.3494 17.5227 18.704C17.9394 18.784 18.7501 18.704 18.7501 17.4767C18.7501 15.022 15.9301 11.954 12.0001 11.954C8.07005 11.954 5.25005 15.022 5.25005 17.4767C5.25005 18.704 6.06072 18.7847 6.47739 18.704C8.30139 18.3494 9.77672 18.0907 12.0001 18.0907ZM4.44539 12.592C4.31313 12.5923 4.18416 12.5508 4.07679 12.4736C3.96943 12.3964 3.88912 12.2873 3.84727 12.1618C3.80543 12.0363 3.80417 11.9009 3.84368 11.7747C3.8832 11.6485 3.96147 11.5379 4.06739 11.4587C4.15739 11.3914 5.92539 10.0847 8.38405 9.61202C6.82539 8.83069 5.09605 8.81402 5.07405 8.81402C4.99137 8.81393 4.9095 8.79756 4.83314 8.76584C4.75678 8.73411 4.68742 8.68766 4.62901 8.62912C4.51105 8.51091 4.44488 8.35069 4.44505 8.18369C4.44523 8.01669 4.51174 7.8566 4.62995 7.73864C4.74816 7.62068 4.90839 7.55451 5.07539 7.55469C5.21472 7.55469 8.50805 7.57869 10.5574 9.62802C10.6452 9.71612 10.7049 9.82823 10.7291 9.95023C10.7533 10.0722 10.7408 10.1986 10.6932 10.3136C10.6457 10.4285 10.5652 10.5268 10.4619 10.596C10.3586 10.6652 10.2371 10.7024 10.1127 10.7027C7.20805 10.7027 4.84739 12.448 4.82405 12.4654C4.71502 12.5477 4.58205 12.5922 4.44539 12.592ZM19.5547 12.592C19.4192 12.5922 19.2873 12.5485 19.1787 12.4674C19.1547 12.4494 16.7787 10.704 13.8887 10.704C13.7639 10.7047 13.6418 10.6681 13.5378 10.599C13.4339 10.5299 13.3529 10.4315 13.3052 10.3161C13.2575 10.2008 13.2452 10.0739 13.2699 9.95158C13.2947 9.82926 13.3553 9.71708 13.4441 9.62935C15.4941 7.57935 18.7874 7.55602 18.9261 7.55602C19.0931 7.55584 19.2533 7.62201 19.3715 7.73998C19.4897 7.85794 19.5562 8.01802 19.5564 8.18502C19.5566 8.35202 19.4904 8.51225 19.3724 8.63046C19.2545 8.74867 19.0944 8.81518 18.9274 8.81535C18.9047 8.81535 17.1747 8.83202 15.6167 9.61335C18.0754 10.0854 19.8434 11.392 19.9334 11.46C20.0388 11.5394 20.1166 11.65 20.1557 11.776C20.1949 11.902 20.1934 12.0372 20.1515 12.1623C20.1097 12.2875 20.0295 12.3963 19.9224 12.4734C19.8153 12.5505 19.6867 12.592 19.5547 12.592Z" fill="#65471B"/>
<path d="M17.1414 21.5247V16.7907C17.1414 15.062 14.5487 13.334 11.9561 13.334C9.36341 13.334 6.77075 15.0627 6.77075 16.7907V21.5247C3.83541 21.7573 1.86475 22.1813 1.86475 22.6667C1.86475 23.4033 6.38275 24 11.9561 24C17.5294 24 22.0474 23.4033 22.0474 22.6667C22.0474 22.1813 20.0767 21.7573 17.1414 21.5247Z" fill="#92BC92"/>
<path d="M10.5833 16.3088C11.0381 16.3088 11.4067 15.9402 11.4067 15.4854C11.4067 15.0307 11.0381 14.6621 10.5833 14.6621C10.1286 14.6621 9.76001 15.0307 9.76001 15.4854C9.76001 15.9402 10.1286 16.3088 10.5833 16.3088Z" fill="#689C68"/>
<path d="M13.7987 17.9167C14.2534 17.9167 14.622 17.5481 14.622 17.0934C14.622 16.6386 14.2534 16.27 13.7987 16.27C13.344 16.27 12.9753 16.6386 12.9753 17.0934C12.9753 17.5481 13.344 17.9167 13.7987 17.9167Z" fill="#689C68"/>
<path d="M14.968 20.4748C15.0408 20.026 14.736 19.603 14.2872 19.5302C13.8384 19.4573 13.4154 19.7621 13.3426 20.211C13.2697 20.6598 13.5746 21.0827 14.0234 21.1556C14.4722 21.2284 14.8951 20.9236 14.968 20.4748Z" fill="#689C68"/>
<path d="M11.2329 21.8872C11.337 21.2457 10.9014 20.6413 10.2599 20.5372C9.61847 20.4331 9.01406 20.8687 8.90995 21.5102C8.80584 22.1516 9.24144 22.756 9.8829 22.8601C10.5244 22.9643 11.1288 22.5286 11.2329 21.8872Z" fill="#689C68"/>
</g>
</g>
<defs>
<clipPath id="clip0_5545_1598">
<rect width="24" height="24" fill="white"/>
</clipPath>
<clipPath id="clip1_5545_1598">
<rect width="24" height="24" fill="white"/>
</clipPath>
</defs>
</svg>
