<svg width="26" height="26" viewBox="0 0 26 26" fill="none" xmlns="http://www.w3.org/2000/svg">
<g clip-path="url(#clip0_5545_1585)">
<g clip-path="url(#clip1_5545_1585)">
<path d="M12.9999 0C8.21375 0 4.33325 0.969944 4.33325 2.16667V23.6167H21.6666V2.16667C21.6666 0.969944 17.7861 0 12.9999 0Z" fill="#E1E8ED"/>
<path d="M4.33325 17.8389V23.6166C4.33325 24.8134 8.21375 26 12.9999 26C17.7861 26 21.6666 24.8134 21.6666 23.6166V17.8389H4.33325Z" fill="#C76B6B"/>
<path d="M21.6666 17.8389C21.6666 19.0356 17.7861 20.2222 12.9999 20.2222C8.21375 20.2222 4.33325 19.0356 4.33325 17.8389C4.33325 16.6422 8.21375 15.8889 12.9999 15.8889C17.7861 15.8889 21.6666 16.6422 21.6666 17.8389Z" fill="#FA9595"/>
<path d="M15.8572 9.23567C15.9229 9.62856 15.6253 10.0056 15.1913 10.0561C14.7031 10.1132 14.2127 10.1435 13.7216 10.1623V11.5554C13.7216 11.747 13.6455 11.9307 13.51 12.0661C13.3746 12.2016 13.1909 12.2777 12.9993 12.2777C12.8078 12.2777 12.6241 12.2016 12.4886 12.0661C12.3532 11.9307 12.2771 11.747 12.2771 11.5554V10.1616C11.786 10.1454 11.2957 10.11 10.8074 10.0554C10.3733 10.0048 10.0765 9.62856 10.1415 9.23495C10.175 9.04541 10.28 8.87597 10.4348 8.7616C10.5897 8.64723 10.7825 8.59667 10.9735 8.62034C11.4068 8.67089 11.8416 8.69906 12.2764 8.71639V7.22211C12.2764 7.03057 12.3525 6.84687 12.4879 6.71143C12.6234 6.57598 12.8071 6.49989 12.9986 6.49989C13.1902 6.49989 13.3739 6.57598 13.5093 6.71143C13.6447 6.84687 13.7208 7.03057 13.7208 7.22211V8.71711C14.1561 8.70082 14.5907 8.66878 15.0237 8.62106C15.215 8.59699 15.4082 8.64737 15.5633 8.76178C15.7184 8.87618 15.8236 9.04585 15.8572 9.23567ZM19.248 2.16656C17.9986 1.73539 15.6716 1.44434 13.0001 1.44434C10.3286 1.44434 8.00155 1.73539 6.75211 2.16656H5.77783V2.88878C5.77783 3.68684 9.01122 4.33322 13.0001 4.33322C16.9889 4.33322 20.2223 3.68684 20.2223 2.88878V2.16656H19.248Z" fill="#99AAB5"/>
<path d="M13.0001 3.61106C16.9888 3.61106 20.2223 2.96436 20.2223 2.16661C20.2223 1.36887 16.9888 0.722168 13.0001 0.722168C9.01133 0.722168 5.77783 1.36887 5.77783 2.16661C5.77783 2.96436 9.01133 3.61106 13.0001 3.61106Z" fill="#CCD6DD"/>
<path d="M10.1111 0.722168V1.8055C10.1111 2.20417 11.4046 2.52772 13 2.52772C14.5954 2.52772 15.8889 2.20417 15.8889 1.8055V0.722168H10.1111Z" fill="#99AAB5"/>
<path d="M13 1.44444C14.5955 1.44444 15.8889 1.12109 15.8889 0.722222C15.8889 0.32335 14.5955 0 13 0C11.4045 0 10.1111 0.32335 10.1111 0.722222C10.1111 1.12109 11.4045 1.44444 13 1.44444Z" fill="#CCD6DD"/>
<path d="M11.1786 23.4881C10.7388 23.4397 10.4376 23.062 10.5041 22.6691C10.5387 22.4799 10.644 22.3108 10.7986 22.1963C10.9533 22.0818 11.1456 22.0303 11.3368 22.0523C12.4425 22.1737 13.5583 22.1737 14.6641 22.0523C14.8552 22.0303 15.0476 22.0818 15.2022 22.1963C15.3568 22.3108 15.4621 22.4799 15.4968 22.6691C15.5625 23.062 15.2613 23.4397 14.8222 23.4881C13.6114 23.6217 12.3895 23.6217 11.1786 23.4881Z" fill="white"/>
</g>
</g>
<defs>
<clipPath id="clip0_5545_1585">
<rect width="26" height="26" fill="white"/>
</clipPath>
<clipPath id="clip1_5545_1585">
<rect width="26" height="26" fill="white"/>
</clipPath>
</defs>
</svg>
