<svg width="24" height="24" viewBox="0 0 24 24" fill="none" xmlns="http://www.w3.org/2000/svg">
<g clip-path="url(#clip0_5545_1610)">
<g clip-path="url(#clip1_5545_1610)">
<path d="M24 12C24 18.6273 18.6273 24 12 24C5.37333 24 0 18.6273 0 12C0 5.37333 5.37333 0 12 0C18.6273 0 24 5.37333 24 12Z" fill="#F8E09E"/>
<ellipse cx="12" cy="7.5" rx="6" ry="3.5" fill="#F18F8F" fill-opacity="0.5"/>
<path d="M4.66724 9.99992C4.52409 10.0001 4.38469 9.95419 4.26965 9.86899C4.15462 9.7838 4.07006 9.66384 4.02849 9.52686C3.98692 9.38988 3.99054 9.24316 4.03882 9.1084C4.0871 8.97364 4.17747 8.858 4.29657 8.77859C4.38524 8.71992 6.49724 7.33325 9.33324 7.33325C9.51005 7.33325 9.67962 7.40349 9.80464 7.52851C9.92967 7.65354 9.99991 7.82311 9.99991 7.99992C9.99991 8.17673 9.92967 8.3463 9.80464 8.47132C9.67962 8.59635 9.51005 8.66659 9.33324 8.66659C6.89657 8.66659 5.05457 9.87592 5.03657 9.88792C4.9272 9.96085 4.7987 9.99982 4.66724 9.99992ZM19.3326 9.99992C19.2016 9.99975 19.0736 9.96103 18.9646 9.88859C18.9459 9.87659 17.0852 8.66659 14.6666 8.66659C14.4898 8.66659 14.3202 8.59635 14.1952 8.47132C14.0701 8.3463 13.9999 8.17673 13.9999 7.99992C13.9999 7.82311 14.0701 7.65354 14.1952 7.52851C14.3202 7.40349 14.4898 7.33325 14.6666 7.33325C17.5026 7.33325 19.6146 8.71992 19.7032 8.77859C19.8223 8.858 19.9127 8.97364 19.961 9.1084C20.0093 9.24316 20.0129 9.38988 19.9713 9.52686C19.9298 9.66384 19.8452 9.7838 19.7302 9.86899C19.6151 9.95419 19.4757 10.0001 19.3326 9.99992Z" fill="#664500"/>
<path d="M18 14.7273L24 12C24 11.56 23.9727 11.1273 23.9273 10.7L18 13.394V12.6666C18 12.313 17.8595 11.9739 17.6095 11.7238C17.3594 11.4738 17.0203 11.3333 16.6667 11.3333H7.33333C6.97971 11.3333 6.64057 11.4738 6.39052 11.7238C6.14048 11.9739 6 12.313 6 12.6666V13.394L0.0733333 10.7C0.0273333 11.1273 0 11.56 0 12L6 14.7273V17.758L1.03133 16.8546C1.25867 17.368 1.52533 17.8593 1.82 18.3313L6 19.0913V20C6 20.3536 6.14048 20.6927 6.39052 20.9428C6.64057 21.1928 6.97971 21.3333 7.33333 21.3333H16.6667C17.0203 21.3333 17.3594 21.1928 17.6095 20.9428C17.8595 20.6927 18 20.3536 18 20V19.0913L22.1807 18.3306C22.4747 17.8586 22.7413 17.3673 22.9687 16.854L18 17.758V14.7273Z" fill="#F5F8FA"/>
</g>
</g>
<defs>
<clipPath id="clip0_5545_1610">
<rect width="24" height="24" fill="white"/>
</clipPath>
<clipPath id="clip1_5545_1610">
<rect width="24" height="24" fill="white"/>
</clipPath>
</defs>
</svg>
