<svg width="24" height="24" viewBox="0 0 24 24" fill="none" xmlns="http://www.w3.org/2000/svg">
<g clip-path="url(#clip0_5545_1664)">
<g clip-path="url(#clip1_5545_1664)">
<path d="M15.2366 0.505436L5.24991 4.68277L13.6079 11.1714C15.3632 12.6541 17.8592 13.1294 20.1212 12.1834C23.3386 10.8381 24.8519 7.13277 23.5026 3.9081C22.1546 0.68277 18.4532 -0.840564 15.2366 0.505436ZM8.59524 12.4548L1.36658 6.8561L0.0912432 15.6861C-0.0913587 16.6507 -0.003829 17.647 0.344167 18.565C0.692163 19.483 1.28709 20.287 2.06324 20.8881C3.1832 21.7332 4.59101 22.103 5.9817 21.9174C7.37238 21.7318 8.63395 21.0057 9.49308 19.8965C10.3522 18.7873 10.7397 17.3843 10.5717 15.9914C10.4036 14.5984 9.69353 13.3278 8.59524 12.4548ZM18.8212 17.1314L13.3839 14.0048L13.3619 20.1534C13.3032 21.4868 13.9646 22.8068 15.1952 23.5141C15.6119 23.7538 16.0719 23.9086 16.5487 23.9696C17.0255 24.0306 17.5096 23.9966 17.9732 23.8694C18.4367 23.7423 18.8705 23.5246 19.2495 23.229C19.6285 22.9333 19.9452 22.5655 20.1812 22.1468C21.1806 20.3841 20.5739 18.1381 18.8212 17.1314Z" fill="#6EACFF"/>
</g>
</g>
<defs>
<clipPath id="clip0_5545_1664">
<rect width="24" height="24" fill="white"/>
</clipPath>
<clipPath id="clip1_5545_1664">
<rect width="24" height="24" fill="white"/>
</clipPath>
</defs>
</svg>
