<svg width="26" height="26" viewBox="0 0 26 26" fill="none" xmlns="http://www.w3.org/2000/svg">
<path d="M1.01777 10.6052C0.786205 11.1232 0.562768 16.1444 3.52636 19.5508C5.73839 22.0919 8.73042 23.1319 12.671 23.2802C16.6117 23.4285 20.4162 22.1062 22.2443 20.0119C25.5451 16.2277 25.1998 11.6716 25.0271 10.9932C24.5904 9.27475 21.1535 8.06006 13.1321 8.06006C5.67339 8.06412 1.61089 9.27881 1.01777 10.6052Z" fill="#6EA8FE"/>
<path d="M19.0349 10.1543C19.1182 10.134 20.668 10.3046 20.6985 10.2843C20.729 10.264 21.383 8.74461 21.383 8.74461C21.383 8.74461 20.8001 8.62273 20.5198 8.56992C20.2394 8.52117 19.0349 10.1543 19.0349 10.1543Z" fill="#527FC1"/>
<path d="M6.78229 20.4973C6.46339 20.8812 4.56823 19.7843 3.30683 17.2209C2.20183 14.9763 2.23026 13.7576 2.43745 13.5646C2.70964 13.3107 3.50589 13.5463 3.68667 14.1252C3.93042 14.9052 3.92229 15.8091 4.77339 17.4748C6.06729 20.0077 7.05448 20.1702 6.78229 20.4973Z" fill="#E0EBF6"/>
<path d="M2.49222 10.983C2.60597 12.214 6.71519 12.9574 13.2152 13.0671C19.7152 13.1768 23.8285 12.2708 23.8285 11.1191C23.8285 9.96741 19.5222 9.14475 13.4894 9.08991C7.4566 9.03507 2.38254 9.80491 2.49222 10.983Z" fill="#527FC1"/>
<path d="M19.559 12.7866L20.9666 9.70318L19.169 9.43506L16.8899 9.78646L15.3848 13.0527C15.3848 13.0527 16.8899 13.0304 17.7857 12.9633C18.6815 12.8943 19.559 12.7866 19.559 12.7866Z" fill="#3D6196"/>
<path d="M16.7863 13.0224C16.7863 13.0224 19.9063 9.6749 21.6755 7.84271C23.4447 6.01053 25.0068 4.62115 25.0372 4.08084C25.0758 3.38615 23.7494 3.0835 23.7494 3.0835L15.3847 12.3846L15.1633 13.0488C15.1633 13.0488 15.7646 13.0651 16.0632 13.0488C16.3658 13.0326 16.7863 13.0224 16.7863 13.0224Z" fill="#9D9C9C"/>
<path d="M23.721 3.07129C23.721 3.07129 24.6939 3.28457 24.6513 3.65426C24.5964 4.13363 24.2085 4.53785 23.7331 5.02738C23.2578 5.51691 16.0631 13.0468 16.0631 13.0468L15.3786 13.0671L15.2974 12.7177L23.721 3.07129Z" fill="#E0E0E0"/>
<path d="M13.8491 13.0731C13.8491 13.0731 16.4349 9.85156 18.6957 7.16422C20.9565 4.47687 22.0533 3.01234 22.3702 2.91687C22.6871 2.8214 24.2654 3.11797 24.3222 3.31906C24.4035 3.59937 24.2979 3.88172 23.4752 4.73484C22.6526 5.58797 15.5391 13.063 15.5391 13.063C15.5391 13.063 15.1715 13.0752 14.8119 13.0772C14.4524 13.0792 13.8491 13.0731 13.8491 13.0731Z" fill="#C8C8C8"/>
<path d="M22.4595 3.4287C21.9923 3.5973 20.4404 5.27308 20.8487 5.44776C21.1778 5.58995 22.1853 4.48901 22.7215 4.18433C23.2578 3.87964 23.5787 4.02386 23.6356 3.77808C23.6945 3.53026 22.9389 3.25401 22.4595 3.4287Z" fill="white"/>
</svg>
