<svg width="24" height="24" viewBox="0 0 24 24" fill="none" xmlns="http://www.w3.org/2000/svg">
<g clip-path="url(#clip0_5545_1619)">
<g clip-path="url(#clip1_5545_1619)">
<path d="M12 24C18.6274 24 24 18.6274 24 12C24 5.37258 18.6274 0 12 0C5.37258 0 0 5.37258 0 12C0 18.6274 5.37258 24 12 24Z" fill="#F8E09E"/>
<path d="M15.2574 18.3234C14.2074 18.3234 13.6621 17.7921 13.2247 17.3654C12.8514 17.0021 12.5814 16.7394 12.0067 16.7394C11.4314 16.7394 11.1614 17.0028 10.7887 17.3654C10.3514 17.7921 9.80606 18.3234 8.75673 18.3234C7.7074 18.3234 7.1634 17.7921 6.72606 17.3654C6.35473 17.0028 6.08606 16.7408 5.51606 16.7394C5.10873 16.7408 4.8694 16.8681 4.63606 17.0594C4.51598 17.1528 4.36417 17.1956 4.21299 17.1787C4.06182 17.1617 3.92324 17.0864 3.82681 16.9687C3.73037 16.8511 3.68371 16.7004 3.69678 16.5489C3.70984 16.3973 3.78159 16.2568 3.89673 16.1574C4.34337 15.7759 4.91266 15.5683 5.50006 15.5728H5.53273C6.5674 15.5808 7.10673 16.1068 7.54073 16.5308C7.9134 16.8948 8.18273 17.1568 8.75673 17.1568C9.33206 17.1568 9.60206 16.8934 9.9754 16.5308C10.4127 16.1041 10.9581 15.5728 12.0074 15.5728C13.0567 15.5728 13.6021 16.1034 14.0394 16.5308C14.4134 16.8941 14.6827 17.1568 15.2581 17.1568C15.8334 17.1568 16.1034 16.8934 16.4767 16.5308C16.9141 16.1034 17.4594 15.5728 18.5094 15.5728C19.1181 15.5728 19.6227 15.7481 20.0981 16.1248C20.1599 16.1717 20.2117 16.2305 20.2504 16.2978C20.2892 16.365 20.3142 16.4393 20.3239 16.5163C20.3336 16.5933 20.3278 16.6715 20.3069 16.7462C20.286 16.821 20.2504 16.8908 20.2022 16.9516C20.154 17.0124 20.0941 17.063 20.0261 17.1004C19.9581 17.1378 19.8833 17.1612 19.8061 17.1693C19.7289 17.1774 19.6509 17.1701 19.5766 17.1477C19.5023 17.1252 19.4332 17.0882 19.3734 17.0388C19.1774 16.8834 18.9374 16.7394 18.5101 16.7394C17.9347 16.7394 17.6647 17.0028 17.2914 17.3654C16.8521 17.7928 16.3074 18.3234 15.2574 18.3234ZM7.59673 12.5834C6.93178 12.5827 6.29427 12.3183 5.82408 11.8481C5.3539 11.3779 5.08944 10.7404 5.08873 10.0754C5.08943 9.41041 5.35387 8.77284 5.82404 8.30254C6.29421 7.83225 6.93172 7.56764 7.59673 7.56676C8.4494 7.56676 9.14273 8.26009 9.14273 9.11276C9.14273 9.96542 8.4494 10.6588 7.59673 10.6588C7.44202 10.6588 7.29365 10.5973 7.18425 10.4879C7.07485 10.3785 7.0134 10.2301 7.0134 10.0754C7.0134 9.92071 7.07485 9.77234 7.18425 9.66294C7.29365 9.55355 7.44202 9.49209 7.59673 9.49209C7.69345 9.48635 7.78432 9.44389 7.85077 9.37338C7.91722 9.30287 7.95423 9.20964 7.95423 9.11276C7.95423 9.01587 7.91722 8.92264 7.85077 8.85213C7.78432 8.78162 7.69345 8.73916 7.59673 8.73342C7.24103 8.73395 6.90007 8.87553 6.64861 9.12711C6.39716 9.37869 6.25575 9.71973 6.2554 10.0754C6.2554 10.8148 6.8574 11.4168 7.59673 11.4168C8.8674 11.4168 9.90073 10.3834 9.90073 9.11276C9.90073 7.84209 8.8674 6.80876 7.59673 6.80876C6.73074 6.80982 5.90054 7.15434 5.28825 7.76675C4.67597 8.37916 4.33161 9.20943 4.33073 10.0754C4.33073 10.2301 4.26927 10.3785 4.15987 10.4879C4.05048 10.5973 3.90211 10.6588 3.7474 10.6588C3.59269 10.6588 3.44431 10.5973 3.33492 10.4879C3.22552 10.3785 3.16406 10.2301 3.16406 10.0754C3.1653 8.90012 3.63268 7.77331 4.46368 6.94218C5.29468 6.11106 6.42143 5.6435 7.59673 5.64209C9.51073 5.64209 11.0674 7.19876 11.0674 9.11276C11.0674 11.0268 9.5114 12.5834 7.59673 12.5834ZM16.4027 12.5834C14.4887 12.5834 12.9321 11.0268 12.9321 9.11276C12.9321 7.19876 14.4887 5.64209 16.4027 5.64209C17.7861 5.64209 18.9114 6.76742 18.9114 8.15009C18.9114 9.53276 17.7861 10.6588 16.4027 10.6588C15.5507 10.6588 14.8574 9.96542 14.8574 9.11276C14.8574 8.26009 15.5507 7.56676 16.4027 7.56676C16.5574 7.56676 16.7058 7.62821 16.8152 7.73761C16.9246 7.84701 16.9861 7.99538 16.9861 8.15009C16.9861 8.3048 16.9246 8.45317 16.8152 8.56257C16.7058 8.67196 16.5574 8.73342 16.4027 8.73342C16.306 8.73916 16.2151 8.78162 16.1487 8.85213C16.0822 8.92264 16.0452 9.01587 16.0452 9.11276C16.0452 9.20964 16.0822 9.30287 16.1487 9.37338C16.2151 9.44389 16.306 9.48635 16.4027 9.49209C16.7585 9.49156 17.0995 9.35 17.3511 9.09844C17.6026 8.84688 17.7442 8.50585 17.7447 8.15009C17.7442 7.79439 17.6026 7.45343 17.351 7.20197C17.0995 6.95052 16.7584 6.80911 16.4027 6.80876C15.7919 6.80946 15.2063 7.05243 14.7743 7.48436C14.3424 7.91629 14.0994 8.50191 14.0987 9.11276C14.0994 9.7236 14.3424 10.3092 14.7743 10.7412C15.2063 11.1731 15.7919 11.4161 16.4027 11.4168C17.2686 11.4157 18.0987 11.0713 18.711 10.459C19.3232 9.84673 19.6677 9.01663 19.6687 8.15076C19.6687 7.99605 19.7302 7.84767 19.8396 7.73828C19.949 7.62888 20.0974 7.56742 20.2521 7.56742C20.4068 7.56742 20.5551 7.62888 20.6645 7.73828C20.7739 7.84767 20.8354 7.99605 20.8354 8.15076C20.8361 10.5948 18.8467 12.5834 16.4027 12.5834Z" fill="#664500"/>
</g>
</g>
<defs>
<clipPath id="clip0_5545_1619">
<rect width="24" height="24" fill="white"/>
</clipPath>
<clipPath id="clip1_5545_1619">
<rect width="24" height="24" fill="white"/>
</clipPath>
</defs>
</svg>
