<svg width="24" height="24" viewBox="0 0 24 24" fill="none" xmlns="http://www.w3.org/2000/svg">
<g clip-path="url(#clip0_5545_1639)">
<g clip-path="url(#clip1_5545_1639)">
<path d="M12 24C18.6274 24 24 18.6274 24 12C24 5.37258 18.6274 0 12 0C5.37258 0 0 5.37258 0 12C0 18.6274 5.37258 24 12 24Z" fill="#6EACFF"/>
<path d="M7.98991 12.4587C8.91038 12.4587 9.65658 11.414 9.65658 10.1253C9.65658 8.83666 8.91038 7.79199 7.98991 7.79199C7.06943 7.79199 6.32324 8.83666 6.32324 10.1253C6.32324 11.414 7.06943 12.4587 7.98991 12.4587Z" fill="#396099"/>
<path d="M15.9899 12.4587C16.9104 12.4587 17.6566 11.414 17.6566 10.1253C17.6566 8.83666 16.9104 7.79199 15.9899 7.79199C15.0694 7.79199 14.3232 8.83666 14.3232 10.1253C14.3232 11.414 15.0694 12.4587 15.9899 12.4587Z" fill="#396099"/>
<path d="M16.6567 14.5554C17.364 14.5554 18.0423 14.8364 18.5424 15.3365C19.0425 15.8366 19.3234 16.5148 19.3234 17.2221C19.3234 17.9293 19.0425 18.6076 18.5424 19.1077C18.0423 19.6078 17.364 19.8888 16.6567 19.8888H7.3234C6.61616 19.8888 5.93788 19.6078 5.43779 19.1077C4.93769 18.6076 4.65674 17.9293 4.65674 17.2221C4.65674 16.5148 4.93769 15.8366 5.43779 15.3365C5.93788 14.8364 6.61616 14.5554 7.3234 14.5554H16.6567Z" fill="white"/>
<path d="M16.6567 13.8748H7.32332C5.48532 13.8748 3.98999 15.3701 3.98999 17.2081C3.98999 19.0461 5.48532 20.5414 7.32332 20.5414H16.6567C18.4947 20.5414 19.99 19.0461 19.99 17.2081C19.99 15.3701 18.4947 13.8748 16.6567 13.8748ZM16.6567 15.2081C17.1283 15.2095 17.5842 15.3775 17.9439 15.6825C18.3037 15.9875 18.5441 16.4097 18.6227 16.8748H16.3233V15.2081H16.6567ZM15.6567 15.2081V16.8748H13.6567V15.2081H15.6567ZM12.99 15.2081V16.8748H10.99V15.2081H12.99ZM10.3233 15.2081V16.8748H8.32332V15.2081H10.3233ZM7.32332 15.2081H7.65666V16.8748H5.35666C5.43528 16.4096 5.67577 15.9873 6.03564 15.6823C6.39551 15.3773 6.8516 15.2094 7.32332 15.2081ZM7.32332 19.2081C6.85172 19.2067 6.39579 19.0386 6.03605 18.7337C5.67632 18.4287 5.43592 18.0064 5.35732 17.5414H7.65666V19.2081H7.32332ZM8.32332 19.2081V17.5414H10.3233V19.2081H8.32332ZM10.99 19.2081V17.5414H12.99V19.2081H10.99ZM13.6567 19.2081V17.5414H15.6567V19.2081H13.6567ZM16.6567 19.2081H16.3233V17.5414H18.6227C18.5441 18.0064 18.3037 18.4287 17.9439 18.7337C17.5842 19.0386 17.1283 19.2067 16.6567 19.2081Z" fill="#396099"/>
<path d="M23.8374 10.1254C23.8374 9.82871 23.8067 11.6187 21.3361 12.388C20.3621 12.6914 20.4774 14.108 20.4927 14.4894C20.5461 15.806 20.7581 17.084 20.8241 17.4174C20.8907 17.7554 21.1621 18.8214 21.2254 19.1434C21.2954 19.498 21.3861 20.7474 21.4474 21.0587C21.5214 21.434 21.5907 21.704 21.6474 21.9907C21.7701 22.61 21.9301 23.056 22.2021 23.056C22.4747 23.056 22.4794 22.306 22.6014 21.6874C22.6581 21.4014 22.6727 21.1627 22.7467 20.788C22.8081 20.4787 22.9887 18.3607 23.0567 18.0174C23.1214 17.69 23.4807 16.3054 23.5461 15.9727C23.6127 15.6347 23.8121 14.31 23.8654 13.9867C24.1841 12.0554 23.8374 10.126 23.8374 10.1254ZM0.20874 14.25C0.20874 14.0567 0.617407 15.026 0.974074 15.242C1.43407 15.5207 1.79407 16.042 2.33407 16.5C2.87407 16.958 2.87274 17.816 2.85141 18.2294C2.76074 20 2.52741 21.762 2.47674 21.9794C2.42607 22.2 2.23807 23.8614 1.99007 23.8614C1.74207 23.8614 1.62141 23.276 1.52807 22.872L1.37807 22.2207C1.33141 22.0194 1.29807 21.8 1.24474 21.57C1.19674 21.3607 0.964074 19.8454 0.914074 19.628C0.863407 19.4074 0.643407 18.5327 0.59474 18.3227C0.541407 18.0914 0.51874 17.8667 0.468074 17.6647C0.250074 16.798 0.20874 14.2507 0.20874 14.25Z" fill="#BBDDF5"/>
<path d="M3.99076 7.58344C3.90321 7.58361 3.81648 7.56654 3.73553 7.5332C3.65458 7.49986 3.58099 7.4509 3.51896 7.38912C3.39369 7.26435 3.32311 7.09492 3.32276 6.91811C3.3224 6.74129 3.3923 6.57158 3.51707 6.44631C3.64185 6.32104 3.81128 6.25046 3.98809 6.25011C4.09209 6.24877 6.36742 6.19277 8.12476 3.85011C8.23084 3.70866 8.38877 3.61514 8.56381 3.59014C8.73884 3.56513 8.91664 3.61069 9.05809 3.71677C9.19954 3.82286 9.29305 3.98079 9.31806 4.15582C9.34306 4.33086 9.29751 4.50866 9.19142 4.65011C7.01609 7.55011 4.11342 7.58344 3.99076 7.58344ZM19.9908 7.58344C19.8681 7.58344 16.9661 7.55011 14.7908 4.65011C14.7353 4.58036 14.6943 4.50018 14.6703 4.41433C14.6464 4.32848 14.6399 4.2387 14.6512 4.15029C14.6625 4.06187 14.6915 3.97663 14.7363 3.8996C14.7811 3.82257 14.841 3.75532 14.9123 3.70181C14.9836 3.64831 15.0649 3.60965 15.1514 3.58811C15.2379 3.56658 15.3278 3.5626 15.4158 3.57643C15.5039 3.59025 15.5883 3.6216 15.664 3.6686C15.7398 3.71561 15.8053 3.77733 15.8568 3.85011C17.6174 6.19744 19.8981 6.24944 19.9941 6.25011C20.3608 6.25411 20.6568 6.55411 20.6548 6.92011C20.6546 7.09609 20.5845 7.26481 20.46 7.38919C20.3355 7.51357 20.1667 7.58344 19.9908 7.58344Z" fill="#396099"/>
<path d="M16.1774 0.750101C16.1774 0.750101 15.5167 0.469434 15.2994 0.402768C15.1081 0.344101 14.5041 0.218768 14.1307 0.146768C13.7141 0.0661009 13.2681 0.0701009 13.2681 0.0701009C13.2681 0.0701009 13.2481 0.338101 13.3441 0.753434C13.4214 1.0881 13.6134 1.5521 13.6494 1.79277C13.6887 2.05343 13.6947 2.36277 13.7434 2.69143C13.7861 2.97543 13.8287 3.2781 13.8747 3.5861C13.9194 3.88343 13.9961 4.1821 14.0407 4.4801C14.0874 4.78943 14.1087 5.09677 14.1521 5.3821C14.2014 5.71277 14.1454 6.0341 14.1847 6.2961C14.2654 6.83343 14.4067 7.5841 14.5594 7.5841C14.7121 7.5841 14.8467 6.90477 14.9274 6.36543C14.9667 6.10477 14.9094 5.9021 14.9587 5.57343C15.0014 5.28943 15.0374 5.00677 15.0841 4.69877C15.1287 4.40143 15.1647 4.11077 15.2094 3.81343C15.2561 3.5041 15.2501 3.20277 15.2927 2.91743C15.3421 2.58677 15.5347 2.17943 15.5741 1.91743C15.6534 1.3801 16.1774 0.750101 16.1774 0.750101ZM3.91675 6.25277C3.91675 6.25277 4.40408 6.14343 4.86808 6.04677C5.17008 5.9841 5.40941 5.74077 5.90341 5.56077C6.41741 5.37343 6.74808 5.21143 6.74808 5.21143C6.74808 5.21143 6.79008 6.08143 6.67541 6.51543C6.58275 6.86543 6.53408 7.31743 6.49142 7.56877C6.44475 7.84077 6.41875 8.16144 6.36008 8.50477C6.30941 8.80143 6.21608 9.11143 6.16075 9.4341C6.10741 9.74543 6.06475 10.1101 6.01142 10.4214C5.95608 10.7448 5.94141 11.0228 5.89008 11.3208C5.83075 11.6661 5.87541 11.7008 5.82808 11.9741C5.73141 12.5361 5.71808 12.4588 5.68675 12.7648C5.65541 13.0708 5.42408 13.1088 5.32408 12.8848C5.22408 12.6608 5.33008 12.5374 5.23341 11.9734C5.18675 11.7014 5.01541 10.9821 4.96008 10.6601C4.90675 10.3488 4.83475 9.86077 4.78141 9.54943C4.72608 9.2261 4.71208 8.70477 4.66075 8.4061C4.60141 8.06077 4.51075 7.84743 4.46408 7.5741C4.36741 7.01343 3.91675 6.25277 3.91675 6.25277Z" fill="#BBDDF5"/>
</g>
</g>
<defs>
<clipPath id="clip0_5545_1639">
<rect width="24" height="24" fill="white"/>
</clipPath>
<clipPath id="clip1_5545_1639">
<rect width="24" height="24" fill="white"/>
</clipPath>
</defs>
</svg>
