<svg width="24" height="24" viewBox="0 0 24 24" fill="none" xmlns="http://www.w3.org/2000/svg">
<g clip-path="url(#clip0_5546_4625)">
<g clip-path="url(#clip1_5546_4625)">
<path d="M12 24C18.6274 24 24 18.6274 24 12C24 5.37258 18.6274 0 12 0C5.37258 0 0 5.37258 0 12C0 18.6274 5.37258 24 12 24Z" fill="#C76B6B"/>
<path d="M17.4167 19.5074C17.3978 19.5079 17.3789 19.5056 17.3607 19.5008C11.7447 18.2061 6.69667 19.4861 6.646 19.4994C6.60901 19.5088 6.57037 19.5098 6.53296 19.5021C6.49556 19.4945 6.46036 19.4786 6.43 19.4554C6.40002 19.4318 6.37575 19.4018 6.35901 19.3675C6.34227 19.3332 6.3335 19.2956 6.33333 19.2574C6.33333 17.1388 8.80867 14.6761 12 14.6761C15.1913 14.6761 17.6667 17.1388 17.6667 19.2574C17.6667 19.3237 17.6403 19.3873 17.5934 19.4342C17.5466 19.4811 17.483 19.5074 17.4167 19.5074ZM19.3333 8.00009C15.6307 8.00009 14.132 5.08876 14.07 4.96476C13.9905 4.80678 13.9771 4.62369 14.0326 4.45579C14.0881 4.28788 14.208 4.1489 14.366 4.06942C14.524 3.98995 14.7071 3.97648 14.875 4.03199C15.0429 4.0875 15.1819 4.20744 15.2613 4.36542C15.3113 4.46276 16.4753 6.66676 19.3333 6.66676C19.5101 6.66676 19.6797 6.73699 19.8047 6.86202C19.9298 6.98704 20 7.15661 20 7.33342C20 7.51023 19.9298 7.6798 19.8047 7.80483C19.6797 7.92985 19.5101 8.00009 19.3333 8.00009ZM4.66667 8.00009C4.48986 8.00009 4.32029 7.92985 4.19526 7.80483C4.07024 7.6798 4 7.51023 4 7.33342C4 7.15661 4.07024 6.98704 4.19526 6.86202C4.32029 6.73699 4.48986 6.66676 4.66667 6.66676C8.05533 6.66676 8.664 4.58676 8.68867 4.49809C8.73527 4.32859 8.8465 4.18414 8.99845 4.09576C9.15041 4.00738 9.33096 3.98212 9.50133 4.02542C9.85467 4.11809 10.0687 4.47409 9.98 4.82876C9.94733 4.95809 9.136 8.00009 4.66667 8.00009Z" fill="#292F33"/>
<path d="M7.99992 13.3334C8.92039 13.3334 9.66659 12.2887 9.66659 11.0001C9.66659 9.71142 8.92039 8.66675 7.99992 8.66675C7.07944 8.66675 6.33325 9.71142 6.33325 11.0001C6.33325 12.2887 7.07944 13.3334 7.99992 13.3334Z" fill="#292F33"/>
<path d="M15.9999 13.3334C16.9204 13.3334 17.6666 12.2887 17.6666 11.0001C17.6666 9.71142 16.9204 8.66675 15.9999 8.66675C15.0794 8.66675 14.3333 9.71142 14.3333 11.0001C14.3333 12.2887 15.0794 13.3334 15.9999 13.3334Z" fill="#292F33"/>
<path d="M12.4194 15.3859V15.9372L11.6921 15.9379V15.3799C10.1741 15.4645 8.89809 16.1546 8.05542 17.0572L8.06075 17.3646C8.11809 19.3192 9.44742 21.2326 12.0554 21.2326C14.6548 21.2326 15.9834 19.3319 16.0494 17.3839L16.0554 17.1945C15.1267 16.1392 13.8214 15.4899 12.4194 15.3859Z" fill="#F4ABBA"/>
<path d="M11.9999 15.366C11.8952 15.366 11.7946 15.3753 11.6919 15.3806V18.3453C11.6919 18.4417 11.7302 18.5341 11.7983 18.6022C11.8665 18.6704 11.9589 18.7086 12.0552 18.7086C12.1516 18.7086 12.244 18.6704 12.3121 18.6022C12.3803 18.5341 12.4186 18.4417 12.4186 18.3453V15.3866C12.2793 15.3743 12.1397 15.3674 11.9999 15.366Z" fill="#C76B6B"/>
<path d="M19.275 8.625C19.075 9.5625 19.075 10.0312 19.275 10.2656C19.475 10.5 19.675 10.5 19.875 10.5C20.075 10.5 20.275 10.5 20.475 10.2656C20.675 10.0312 20.675 9.09375 20.475 8.625" stroke="#FAFAFA" stroke-opacity="0.980392" stroke-width="0.5" stroke-linecap="round"/>
<path d="M21.5156 11.25C21.3281 12 21.3281 12.375 21.5156 12.5625C21.7031 12.75 21.8906 12.75 22.0781 12.75C22.2656 12.75 22.4531 12.75 22.6406 12.5625C22.8281 12.375 22.8281 11.625 22.6406 11.25" stroke="#FAFAFA" stroke-opacity="0.980392" stroke-width="0.5" stroke-linecap="round"/>
</g>
</g>
<defs>
<clipPath id="clip0_5546_4625">
<rect width="24" height="24" fill="white"/>
</clipPath>
<clipPath id="clip1_5546_4625">
<rect width="24" height="24" fill="white"/>
</clipPath>
</defs>
</svg>
