<svg width="26" height="26" viewBox="0 0 26 26" fill="none" xmlns="http://www.w3.org/2000/svg">
<g clip-path="url(#clip0_5545_1626)">
<g clip-path="url(#clip1_5545_1626)">
<path d="M15.5116 18.5153L7.48413 10.4874L8.82008 9.15161L16.8476 17.1791L15.5116 18.5153Z" fill="#262627"/>
<path d="M11.7813 10.5625C11.5782 10.4947 11.375 10.1968 12.1875 9.54683C13.2032 8.73433 12.3907 9.3437 13.6094 8.5312C14.8282 7.7187 15.4376 7.92183 16.2501 7.7187C17.0626 7.51558 17.6719 7.10933 18.4844 6.29683C19.1268 5.65449 19.7032 5.48433 20.9219 5.68745L22.7501 5.89058" stroke="#E6E6E6" stroke-linecap="round"/>
<path d="M6.12025 14.9074C6.77838 17.4424 5.49463 18.2711 4.82635 18.6632C4.15807 19.0552 3.72338 19.1852 2.8926 19.4736C2.46604 19.6219 2.06182 19.8677 1.71651 20.213C0.544474 21.385 0.507911 23.2436 1.63119 24.3669C2.75447 25.4902 4.61307 25.4536 5.7851 24.2816C6.13041 23.9363 6.37619 23.5341 6.52447 23.1055C6.81291 22.2727 6.94494 21.84 7.33494 21.1718C7.72697 20.5035 8.55572 19.2197 11.0907 19.8779C13.4957 20.5014 14.686 20.1988 15.7321 19.1527L16.4715 18.4133L16.4674 18.4093L25.0576 9.42707C25.1856 9.29911 25.2424 9.06145 25.1003 8.92129C24.9581 8.77911 24.7042 8.87051 24.5904 8.97004L15.8642 17.3205C15.726 17.4525 15.5087 17.4505 15.3746 17.3144C15.2406 17.1804 15.2385 16.963 15.3685 16.8249L23.721 8.09254C23.8449 7.96661 23.9059 7.72692 23.7637 7.58473C23.6215 7.44254 23.3696 7.52786 23.2538 7.63145L14.5256 15.9819C14.3874 16.1139 14.1701 16.1119 14.036 15.9758C13.902 15.8418 13.8999 15.6244 14.0299 15.4863L22.3824 6.75395C22.5023 6.63004 22.5693 6.38832 22.4271 6.24614C22.2849 6.10395 22.0371 6.18317 21.9193 6.29286L13.189 14.6454C13.0509 14.7774 12.8335 14.7754 12.6995 14.6393C12.5654 14.5052 12.5634 14.2879 12.6934 14.1497L21.0459 5.41739C21.1596 5.29754 21.2328 5.05176 21.0906 4.90957C20.9484 4.76739 20.7026 4.84051 20.5828 4.95426L11.8504 13.3068C11.7123 13.4388 11.4949 13.4368 11.3609 13.3007C11.2268 13.1666 11.2248 12.9493 11.3548 12.8111L19.7053 4.07879C19.8149 3.96098 19.8942 3.71114 19.752 3.57098C19.6098 3.42879 19.3681 3.49582 19.2442 3.61567L10.5118 11.9682C10.3737 12.1002 10.1563 12.0982 10.0223 11.9621C9.88822 11.828 9.88619 11.6107 10.0162 11.4725L18.3667 2.74223C18.4703 2.62645 18.5556 2.37457 18.4134 2.23239C18.2712 2.0902 18.0315 2.15317 17.9056 2.27504L9.17525 10.6316C9.03713 10.7636 8.81979 10.7616 8.68572 10.6255C8.55166 10.4915 8.54963 10.2741 8.67963 10.136L17.0281 1.40567C17.1276 1.29192 17.217 1.03801 17.0768 0.895824C16.9346 0.753637 16.699 0.810512 16.571 0.938481L7.58885 9.52864L7.58479 9.52457L6.84541 10.2639C5.79932 11.3141 5.49463 12.5024 6.12025 14.9074ZM4.41807 21.5821C4.58976 21.7544 4.68617 21.9878 4.68617 22.2311C4.68617 22.4743 4.58976 22.7077 4.41807 22.88C4.24572 23.0517 4.01236 23.1481 3.76908 23.1481C3.52581 23.1481 3.29245 23.0517 3.1201 22.88C2.9484 22.7077 2.852 22.4743 2.852 22.2311C2.852 21.9878 2.9484 21.7544 3.1201 21.5821C3.29245 21.4104 3.52581 21.314 3.76908 21.314C4.01236 21.314 4.24572 21.4104 4.41807 21.5821Z" fill="#A2805B"/>
<path d="M17.2656 17.6719C17.4688 17.5365 18.2406 17.1437 18.0781 15.8437C17.875 14.2187 20.7188 13.4062 18.2813 13.6094C17.6974 13.658 17.4688 13.8125 16.25 13.4062L14.8281 13C14.0156 12.7969 13.981 12.745 13.6094 12.1875C13.2031 11.5781 13.4062 11.375 13.8125 10.9687L14.625 10.3594L15.8438 9.54688" stroke="#E6E6E6" stroke-linecap="round"/>
<path d="M11.1719 5.68749C11.1719 5.28124 11.4969 4.42812 12.7969 4.26562C14.4219 4.06249 15.2125 4.80322 16.0469 4.875C17.5 5 18.263 4.40312 18.4844 4.0625C19.5 2.5 19.5 2.5 19.9062 1.42188L19.9531 0.960938L20 0.5" stroke="#E6E6E6" stroke-linecap="round"/>
<path d="M7.78786 11.0359C8.09051 11.3385 7.79598 11.7204 7.57051 12.1267C7.34504 12.5329 7.23536 13.5709 7.43239 14.7693C7.57661 15.6529 7.41817 16.3598 7.11145 16.896C6.88598 17.2881 6.55895 17.2474 6.81083 16.7193C7.0627 16.1892 7.06676 15.5717 6.93473 14.8465C6.73161 13.7374 6.42286 12.6324 6.72348 11.7773C6.88395 11.3203 7.39989 10.6479 7.78786 11.0359Z" fill="#FFEDBD"/>
<path d="M2.69544 23.3045C3.15654 23.7656 3.90404 23.7656 4.3631 23.3045C4.50044 23.167 4.60177 22.9977 4.6581 22.8117C4.71443 22.6257 4.72404 22.4287 4.68607 22.2381C4.68434 22.4789 4.58805 22.7094 4.41794 22.8799C4.2456 23.0516 4.01223 23.148 3.76896 23.148C3.52568 23.148 3.29232 23.0516 3.11997 22.8799C2.94828 22.7076 2.85188 22.4742 2.85188 22.2309C2.85188 21.9877 2.94828 21.7543 3.11997 21.582C3.29669 21.4052 3.52826 21.3159 3.76185 21.3138C3.57125 21.2753 3.37408 21.2847 3.18797 21.341C3.00187 21.3974 2.83264 21.499 2.69544 21.6368C2.58581 21.7462 2.49884 21.8762 2.4395 22.0193C2.38015 22.1624 2.34961 22.3157 2.34961 22.4706C2.34961 22.6255 2.38015 22.7789 2.4395 22.922C2.49884 23.0651 2.58581 23.195 2.69544 23.3045Z" fill="#262627"/>
<path d="M2.7321 23.8692C2.02116 23.5341 1.77335 22.8373 1.87694 22.1305C1.98053 21.4256 2.26694 20.8792 3.1871 20.6964C3.29272 20.6761 3.39632 20.6395 3.39632 20.5034C3.39632 20.3633 3.23585 20.3125 3.13225 20.3125C2.13085 20.3125 1.45444 21.1575 1.31022 22.1447C1.166 23.1319 1.70428 24.1434 2.52085 24.4644C2.73007 24.5456 3.03475 24.5598 3.09975 24.3344C3.17491 24.0622 2.87632 23.9362 2.7321 23.8692Z" fill="#FFEDBD"/>
</g>
</g>
<defs>
<clipPath id="clip0_5545_1626">
<rect width="26" height="26" fill="white"/>
</clipPath>
<clipPath id="clip1_5545_1626">
<rect width="26" height="26" fill="white"/>
</clipPath>
</defs>
</svg>
