<svg width="25" height="24" viewBox="0 0 25 24" fill="none" xmlns="http://www.w3.org/2000/svg">
<g clip-path="url(#clip0_6546_1974)">
<path d="M6.01055 11.5069C6.01055 11.5069 6.0593 10.5731 5.21742 10.65C4.36992 10.7269 4.67742 11.8781 4.67742 11.8781L6.01055 11.5069Z" fill="#AFAFAF"/>
<path d="M9.60504 17.5857L8.48191 17.7169C8.48191 17.7169 8.53816 19.9819 8.38816 20.2257C8.23816 20.4694 7.26504 21.0863 7.26504 21.0863C7.26504 21.0863 7.17129 21.4238 7.69629 21.6113C8.22129 21.7988 9.25066 21.7238 9.25066 21.7238L10.73 18.1088L9.60504 17.5857ZM17.7332 17.7544C17.6207 17.7732 16.16 18.2794 16.16 18.2794C16.16 18.2794 16.685 20.2088 16.3663 20.5257C16.0475 20.8426 15.4682 21.1069 15.8225 21.3488C16.1788 21.5926 17.5644 21.5551 17.9394 21.1613C18.3144 20.7676 18.3519 20.4488 18.3707 20.0569C18.3894 19.6632 18.3332 17.6794 18.3332 17.6794L17.7332 17.7544Z" fill="#52443D"/>
<path d="M9.28249 18.7614C9.28249 18.7614 9.43624 20.6157 9.24124 20.8689C9.04437 21.122 8.21562 21.6545 8.18749 21.7539C8.15937 21.8514 8.17437 22.4851 9.26937 22.4701C10.3644 22.4551 11.0956 22.322 11.5719 21.7464C12.05 21.1707 11.9937 19.4364 11.9937 19.4364C11.9937 19.4364 14.0019 19.3801 14.6337 19.3107C15.2656 19.2414 16.0531 19.1851 16.0531 19.1851C16.0531 19.1851 16.2631 20.0551 16.1506 20.3795C16.0381 20.702 15.6312 20.9832 15.7437 21.0957C15.8562 21.2082 16.4037 21.0545 16.5575 20.6326C16.7112 20.2107 16.5856 19.1026 16.5856 19.1026C16.5856 19.1026 17.4706 18.977 18.0181 18.8645C18.5656 18.752 18.8469 18.7107 18.8469 18.7107C18.8469 18.7107 19.0719 20.0026 18.9875 20.4095C18.9031 20.8164 17.8925 21.7576 18.2562 21.842C18.6219 21.9264 19.3025 22.0595 19.97 21.8982C20.4969 21.7707 20.9694 21.2682 21.0162 20.957C21.0369 20.8164 21.0537 20.537 21.0575 20.2764C21.065 19.8826 20.9806 17.0532 20.9806 17.0532L10.91 12.7407L9.46249 12.5026C9.46249 12.5026 9.01249 12.3057 8.67687 12.152C8.33937 11.9982 7.93249 11.8857 7.93249 11.8857C7.93249 11.8857 7.93249 10.9445 7.48249 10.9032C7.03249 10.862 6.73812 11.4376 6.73812 11.4376L5.53062 11.6757L3.50937 12.6376L2.66749 14.1676L1.85374 14.2651C1.85374 14.2651 0.758743 14.4414 0.631243 14.9532C0.516868 15.4201 0.813118 15.572 0.813118 15.572C0.813118 15.572 0.833743 15.8739 0.961243 16.0707C1.08874 16.2676 1.30624 16.3032 1.30624 16.3032C1.30624 16.3032 1.50687 16.6295 1.75624 16.7382C2.30374 16.9764 2.72749 16.8639 3.30124 16.8226C3.89187 16.7814 4.60812 16.7251 4.60812 16.7251C4.60812 16.7251 5.89999 17.2876 6.68749 17.6101C7.47499 17.9326 8.31687 18.3264 8.31687 18.3264C8.31687 18.3264 8.32999 19.7739 8.21937 20.1807C8.10687 20.5876 7.12437 20.8689 7.15249 21.0789C7.18062 21.2889 7.68687 21.0657 7.99437 20.897C8.30187 20.7282 8.51374 20.4751 8.58499 20.237C8.65437 19.9989 8.66937 18.4257 8.66937 18.4257L9.28249 18.7614Z" fill="#5F5243"/>
<path d="M21.74 16.603L21.365 17.6099C21.365 17.6099 21.6219 18.1349 22.0494 18.5362C22.4244 18.8905 22.6662 19.048 23.06 19.0424C23.6412 19.033 24.605 18.3262 24.3669 18.0449C24.1719 17.8162 23.4406 17.1937 23.4406 17.1937L21.74 16.603Z" fill="#DDD3D0"/>
<path d="M15.7155 10.6443C18.6086 10.7849 20.2943 12.0918 20.8849 13.3274C21.4755 14.5631 21.6855 15.1818 21.8824 15.4912C22.0793 15.8006 23.6524 17.3737 23.6524 17.3737C23.6524 17.3737 23.2943 17.7281 22.5424 17.8518C21.9386 17.9493 21.4886 17.8237 21.4886 17.8237C21.4886 17.8237 21.3724 17.6662 21.2786 17.5237C21.213 17.4262 21.1099 17.2893 20.928 17.4112C20.6918 17.5687 20.1424 18.4124 19.2011 18.4687C18.0705 18.5362 16.9961 18.1312 16.9961 18.1312C16.9961 18.1312 17.0374 18.6506 16.9268 18.6787C16.8143 18.7068 16.0211 18.4181 15.6911 18.2362C15.4193 18.0862 14.778 17.6399 14.778 17.6399C14.778 17.6399 15.0874 18.6224 15.003 18.7218C14.9186 18.8193 14.3074 18.6374 13.893 18.2999C13.6136 18.0731 12.5018 17.1056 12.5018 17.1056C12.5018 17.1056 12.8393 18.1312 12.7549 18.2437C12.6705 18.3562 11.9093 18.0187 11.3786 17.3587C10.803 16.6424 10.4805 15.8981 10.2555 14.8031C10.0455 13.7756 9.96114 13.4118 9.83364 13.0481C9.70614 12.6843 9.46802 12.5006 9.46802 12.5006C9.46802 12.5006 10.1149 12.5287 10.353 12.4031C10.5874 12.2737 13.1299 10.5168 15.7155 10.6443Z" fill="#806D63"/>
<path d="M9.74565 15.8962C9.73252 16.0087 7.46564 15.9937 6.84689 16.0218C6.22814 16.0499 4.82939 16.4006 4.25377 16.4718C3.67814 16.5412 2.72377 16.7249 2.27377 16.6537C1.82377 16.5843 1.78252 16.4718 1.79564 16.4006C1.80877 16.3312 2.34314 16.4081 2.45564 16.2468C2.56814 16.0856 2.44814 15.9093 2.28689 16.0012C2.12564 16.0931 1.77689 16.1493 1.55189 16.1212C1.32689 16.0931 1.19189 15.8962 1.19189 15.7762C1.19189 15.6562 1.52939 15.6187 1.66439 15.4837C1.84439 15.3037 1.94939 15.0712 1.92127 14.6737C1.90252 14.4112 1.81814 14.2893 1.87064 14.2612C1.94564 14.2199 2.14252 14.2049 2.31502 13.7606C2.45564 13.4006 2.74064 12.7331 3.27502 12.3318C3.87689 11.8799 4.38877 11.5931 5.36377 11.4468C6.31814 11.3043 6.39689 11.3793 6.39689 11.3793C6.39689 11.3793 6.70627 10.4943 7.56314 10.6481C8.42002 10.8018 8.14627 11.9381 8.14627 11.9381L7.76189 11.8781C7.76189 11.8781 7.87252 11.3024 7.46377 11.2312C7.05689 11.1618 6.88064 11.7018 6.88064 11.7018C6.88064 11.7018 5.37877 11.8499 4.76752 12.2137C4.09252 12.6168 2.66002 13.8149 3.05377 14.6793C3.44752 15.5437 5.27939 14.6924 5.59627 14.4824C5.91314 14.2724 6.85065 13.6012 7.41502 13.7399C7.97752 13.8787 8.16127 14.3156 8.68439 14.7749C8.99377 15.0506 9.76627 15.7143 9.74565 15.8962Z" fill="#DDD3D0"/>
<path d="M5.01313 14.0212C4.89313 14.3381 4.61938 14.4768 4.28188 14.3924C3.99126 14.3193 3.83188 13.8168 4.02875 13.4512C4.205 13.1231 4.54813 13.1062 4.80126 13.1981C5.08251 13.3012 5.1425 13.6799 5.01313 14.0212Z" fill="#191919"/>
<path d="M4.51819 13.7326C4.43756 13.8807 4.25006 13.9839 4.12069 13.8676C4.02881 13.7851 4.06819 13.5826 4.18444 13.4045C4.30069 13.2264 4.50131 13.1851 4.57069 13.2732C4.66069 13.3895 4.59506 13.5939 4.51819 13.7326Z" fill="#E1E1E1"/>
<path d="M6.82426 21.1912C6.84113 21.3599 7.44863 21.4368 7.42051 21.1068C7.39238 20.7768 6.80363 20.9868 6.82426 21.1912Z" fill="#DFDFDF"/>
<path d="M7.18259 21.7182C7.26509 21.8794 7.94009 21.7257 7.77884 21.3957C7.61759 21.0657 7.07009 21.5007 7.18259 21.7182ZM7.82946 22.1325C7.89696 22.2957 8.65821 22.0407 8.51759 21.795C8.37696 21.5494 7.70196 21.8307 7.82946 22.1325Z" fill="#DFDFDF"/>
<path d="M8.15199 22.5319C8.26636 22.7251 9.05011 22.3988 8.81949 22.1382C8.58886 21.8776 8.03199 22.3294 8.15199 22.5319Z" fill="#DFDFDF"/>
<path d="M15.3988 21.3113C15.4531 21.4594 16.0231 21.3188 15.9613 21.1144C15.8994 20.91 15.3425 21.1556 15.3988 21.3113ZM15.8825 21.6619C15.9931 21.7444 16.5219 21.4088 16.2763 21.2756C16.0306 21.1425 15.7156 21.5363 15.8825 21.6619ZM16.445 21.7594C16.6738 21.8288 17.0844 21.4013 16.7956 21.3169C16.5088 21.2325 16.2838 21.7106 16.445 21.7594ZM18.4813 21.5569C18.3181 21.42 17.8063 21.7181 17.9619 21.9225C18.1156 22.125 18.6988 21.7388 18.4813 21.5569ZM18.4719 22.2469C18.7138 22.3781 19.1825 21.7706 18.9125 21.69C18.6425 21.6113 18.2788 22.1419 18.4719 22.2469ZM19.4581 21.7538C19.1581 21.7106 18.7981 22.2656 19.1206 22.2881C19.4431 22.3106 19.745 21.795 19.4581 21.7538Z" fill="#E0E0E0"/>
<path d="M12.8356 15.9282C12.7774 15.9282 12.7174 15.9019 12.6781 15.8513L12.2562 15.3169C12.1887 15.2307 12.2018 15.1051 12.2899 15.0376C12.3762 14.9701 12.5018 14.9851 12.5693 15.0713L12.9912 15.6057C13.0142 15.635 13.0285 15.6702 13.0325 15.7073C13.0365 15.7444 13.03 15.7818 13.0138 15.8154C12.9976 15.849 12.9723 15.8773 12.9408 15.8973C12.9093 15.9172 12.8728 15.9279 12.8356 15.9282ZM15.0818 16.1663C15.0368 16.1663 14.9918 16.1513 14.9562 16.1213L14.2531 15.5457C14.1668 15.4763 14.1556 15.3507 14.2249 15.2644C14.2943 15.1801 14.4199 15.1669 14.5062 15.2363L15.2093 15.8119C15.2414 15.838 15.2646 15.8734 15.2757 15.9133C15.2868 15.9531 15.2853 15.9954 15.2713 16.0343C15.2573 16.0733 15.2315 16.1069 15.1976 16.1305C15.1636 16.1542 15.1232 16.1667 15.0818 16.1663ZM15.8974 14.3963C15.8581 14.3963 15.8187 14.3851 15.7831 14.3607L15.0799 13.8694C14.9899 13.8057 14.9674 13.6819 15.0312 13.5919C15.0949 13.5019 15.2187 13.4794 15.3087 13.5432L16.0118 14.0344C16.1018 14.0982 16.1243 14.2219 16.0606 14.3119C16.0212 14.3663 15.9593 14.3963 15.8974 14.3963ZM18.0312 13.8019C17.9899 13.8019 17.9487 13.7888 17.9149 13.7644L17.1987 13.2451C17.1558 13.2139 17.127 13.167 17.1185 13.1147C17.1101 13.0623 17.1227 13.0087 17.1537 12.9657C17.2174 12.8757 17.3431 12.8569 17.4331 12.9207L18.1493 13.4401C18.2393 13.5057 18.2581 13.6294 18.1943 13.7194C18.1549 13.7738 18.0931 13.8019 18.0312 13.8019ZM18.4249 15.6038C18.3931 15.6038 18.3612 15.5963 18.3312 15.5813L17.6993 15.2438C17.6528 15.2187 17.618 15.1763 17.6025 15.1258C17.5871 15.0752 17.5922 15.0206 17.6168 14.9738C17.6693 14.8763 17.7893 14.8407 17.8868 14.8913L18.5187 15.2288C18.6162 15.2813 18.6518 15.4013 18.6012 15.4988C18.5656 15.5663 18.4962 15.6038 18.4249 15.6038ZM20.1912 14.3738C20.1586 14.37 20.1275 14.3577 20.1012 14.3382L19.5181 13.9238C19.4968 13.9087 19.4787 13.8895 19.4648 13.8673C19.4509 13.8452 19.4415 13.8205 19.4371 13.7948C19.4328 13.769 19.4336 13.7426 19.4394 13.7171C19.4452 13.6917 19.456 13.6676 19.4712 13.6463C19.4863 13.625 19.5055 13.6069 19.5277 13.593C19.5498 13.5791 19.5745 13.5697 19.6002 13.5654C19.626 13.561 19.6524 13.5618 19.6778 13.5676C19.7033 13.5735 19.7274 13.5843 19.7487 13.5994L20.3318 14.0138C20.4218 14.0776 20.4424 14.2032 20.3787 14.2913C20.3356 14.3532 20.2624 14.3832 20.1912 14.3738Z" fill="#C0ACA1"/>
</g>
<defs>
<clipPath id="clip0_6546_1974">
<rect width="24" height="24" fill="white" transform="translate(0.5)"/>
</clipPath>
</defs>
</svg>
