<svg width="24" height="12" viewBox="0 0 24 12" fill="none" xmlns="http://www.w3.org/2000/svg">
<path d="M5.40557 0.89653C5.40557 0.89653 5.45432 -0.0372197 4.61244 0.0396553C3.76494 0.11653 4.07244 1.26778 4.07244 1.26778L5.40557 0.89653Z" fill="#AFAFAF"/>
<path d="M9.00006 6.9751L7.87693 7.10635C7.87693 7.10635 7.93318 9.37135 7.78318 9.6151C7.63318 9.85885 6.66006 10.4757 6.66006 10.4757C6.66006 10.4757 6.56631 10.8132 7.09131 11.0007C7.61631 11.1882 8.64568 11.1132 8.64568 11.1132L10.1251 7.49822L9.00006 6.9751ZM17.1282 7.14385C17.0157 7.1626 15.5551 7.66885 15.5551 7.66885C15.5551 7.66885 16.0801 9.59822 15.7613 9.9151C15.4426 10.232 14.8632 10.4963 15.2176 10.7382C15.5738 10.982 16.9594 10.9445 17.3344 10.5507C17.7094 10.157 17.7469 9.83822 17.7657 9.44635C17.7844 9.0526 17.7282 7.06885 17.7282 7.06885L17.1282 7.14385Z" fill="#52443D"/>
<path d="M8.67751 8.15077C8.67751 8.15077 8.83126 10.0051 8.63626 10.2583C8.43939 10.5114 7.61064 11.0439 7.58251 11.1433C7.55439 11.2408 7.56939 11.8745 8.66439 11.8595C9.75939 11.8445 10.4906 11.7114 10.9669 11.1358C11.445 10.5601 11.3888 8.82577 11.3888 8.82577C11.3888 8.82577 13.3969 8.76952 14.0288 8.70014C14.6606 8.63077 15.4481 8.57452 15.4481 8.57452C15.4481 8.57452 15.6581 9.44452 15.5456 9.76889C15.4331 10.0914 15.0263 10.3726 15.1388 10.4851C15.2513 10.5976 15.7988 10.4439 15.9525 10.022C16.1063 9.60014 15.9806 8.49202 15.9806 8.49202C15.9806 8.49202 16.8656 8.36639 17.4131 8.25389C17.9606 8.14139 18.2419 8.10014 18.2419 8.10014C18.2419 8.10014 18.4669 9.39202 18.3825 9.79889C18.2981 10.2058 17.2875 11.147 17.6513 11.2314C18.0169 11.3158 18.6975 11.4489 19.365 11.2876C19.8919 11.1601 20.3644 10.6576 20.4113 10.3464C20.4319 10.2058 20.4488 9.92639 20.4525 9.66577C20.46 9.27202 20.3756 6.44264 20.3756 6.44264L10.305 2.13014L8.85751 1.89202C8.85751 1.89202 8.40751 1.69514 8.07189 1.54139C7.73439 1.38764 7.32751 1.27514 7.32751 1.27514C7.32751 1.27514 7.32751 0.333893 6.87751 0.292643C6.42751 0.251393 6.13314 0.827018 6.13314 0.827018L4.92564 1.06514L2.90439 2.02702L2.06251 3.55702L1.24876 3.65452C1.24876 3.65452 0.153762 3.83077 0.0262623 4.34264C-0.0881127 4.80952 0.208137 4.96139 0.208137 4.96139C0.208137 4.96139 0.228762 5.26327 0.356262 5.46014C0.483762 5.65702 0.701262 5.69264 0.701262 5.69264C0.701262 5.69264 0.901887 6.01889 1.15126 6.12764C1.69876 6.36577 2.12251 6.25327 2.69626 6.21202C3.28689 6.17077 4.00314 6.11452 4.00314 6.11452C4.00314 6.11452 5.29501 6.67702 6.08251 6.99952C6.87001 7.32202 7.71189 7.71577 7.71189 7.71577C7.71189 7.71577 7.72501 9.16327 7.61439 9.57014C7.50189 9.97702 6.51939 10.2583 6.54751 10.4683C6.57564 10.6783 7.08189 10.4551 7.38939 10.2864C7.69689 10.1176 7.90876 9.86452 7.98001 9.62639C8.04939 9.38827 8.06439 7.81514 8.06439 7.81514L8.67751 8.15077Z" fill="#5F5243"/>
<path d="M21.135 5.99268L20.76 6.99955C20.76 6.99955 21.0169 7.52455 21.4444 7.9258C21.8194 8.28018 22.0613 8.43767 22.455 8.43205C23.0363 8.42267 24 7.7158 23.7619 7.43455C23.5669 7.2058 22.8356 6.5833 22.8356 6.5833L21.135 5.99268Z" fill="#DDD3D0"/>
<path d="M15.1105 0.0339567C18.0037 0.174582 19.6893 1.48146 20.2799 2.71708C20.8705 3.95271 21.0805 4.57146 21.2774 4.88083C21.4743 5.19021 23.0474 6.76333 23.0474 6.76333C23.0474 6.76333 22.6893 7.11771 21.9374 7.24146C21.3337 7.33896 20.8837 7.21333 20.8837 7.21333C20.8837 7.21333 20.7674 7.05583 20.6737 6.91333C20.608 6.81583 20.5049 6.67896 20.323 6.80083C20.0868 6.95833 19.5374 7.80208 18.5962 7.85833C17.4655 7.92583 16.3912 7.52083 16.3912 7.52083C16.3912 7.52083 16.4324 8.04021 16.3218 8.06833C16.2093 8.09646 15.4162 7.80771 15.0862 7.62583C14.8143 7.47583 14.173 7.02958 14.173 7.02958C14.173 7.02958 14.4824 8.01208 14.398 8.11146C14.3137 8.20896 13.7024 8.02708 13.288 7.68958C13.0087 7.46271 11.8968 6.49521 11.8968 6.49521C11.8968 6.49521 12.2343 7.52083 12.1499 7.63333C12.0655 7.74583 11.3043 7.40833 10.7737 6.74833C10.198 6.03208 9.87554 5.28771 9.65054 4.19271C9.44054 3.16521 9.35616 2.80146 9.22866 2.43771C9.10116 2.07396 8.86304 1.89021 8.86304 1.89021C8.86304 1.89021 9.50991 1.91833 9.74804 1.79271C9.98241 1.66333 12.5249 -0.0935433 15.1105 0.0339567Z" fill="#806D63"/>
<path d="M9.14067 5.28609C9.12754 5.39859 6.86066 5.38358 6.24191 5.41171C5.62316 5.43984 4.22441 5.79046 3.64879 5.86171C3.07316 5.93109 2.11879 6.11484 1.66879 6.04358C1.21879 5.97421 1.17754 5.86171 1.19066 5.79046C1.20379 5.72109 1.73816 5.79796 1.85066 5.63671C1.96316 5.47546 1.84316 5.29921 1.68191 5.39108C1.52066 5.48296 1.17191 5.53921 0.946914 5.51109C0.721914 5.48296 0.586914 5.28609 0.586914 5.16609C0.586914 5.04609 0.924414 5.00859 1.05941 4.87359C1.23941 4.69359 1.34441 4.46109 1.31629 4.06359C1.29754 3.80109 1.21316 3.67921 1.26566 3.65108C1.34066 3.60983 1.53754 3.59484 1.71004 3.15046C1.85066 2.79046 2.13566 2.12296 2.67004 1.72171C3.27191 1.26983 3.78379 0.98296 4.75879 0.83671C5.71316 0.69421 5.79191 0.76921 5.79191 0.76921C5.79191 0.76921 6.10129 -0.115789 6.95816 0.0379605C7.81504 0.191711 7.54129 1.32796 7.54129 1.32796L7.15691 1.26796C7.15691 1.26796 7.26754 0.692336 6.85879 0.621086C6.45191 0.551711 6.27566 1.09171 6.27566 1.09171C6.27566 1.09171 4.77379 1.23984 4.16254 1.60359C3.48754 2.00671 2.05504 3.20484 2.44879 4.06921C2.84254 4.93359 4.67441 4.08233 4.99129 3.87233C5.30816 3.66234 6.24566 2.99109 6.81004 3.12984C7.37254 3.26859 7.55629 3.70546 8.07941 4.16484C8.38879 4.44046 9.16129 5.10421 9.14067 5.28609Z" fill="#DDD3D0"/>
<path d="M4.40815 3.41084C4.28815 3.72772 4.0144 3.86647 3.6769 3.78209C3.38627 3.70897 3.2269 3.20647 3.42377 2.84084C3.60002 2.51272 3.94315 2.49584 4.19627 2.58772C4.47752 2.69084 4.53752 3.06959 4.40815 3.41084Z" fill="#191919"/>
<path d="M3.91321 3.12227C3.83258 3.27039 3.64508 3.37352 3.51571 3.25727C3.42383 3.17477 3.46321 2.97227 3.57946 2.79414C3.69571 2.61602 3.89633 2.57477 3.96571 2.66289C4.05571 2.77914 3.99008 2.98352 3.91321 3.12227Z" fill="#E1E1E1"/>
<path d="M6.21928 10.5808C6.23615 10.7496 6.84365 10.8264 6.81553 10.4964C6.7874 10.1664 6.19865 10.3764 6.21928 10.5808Z" fill="#DFDFDF"/>
<path d="M6.57761 11.1076C6.66011 11.2688 7.33511 11.1151 7.17386 10.7851C7.01261 10.4551 6.46511 10.8901 6.57761 11.1076ZM7.22448 11.5219C7.29198 11.6851 8.05323 11.4301 7.91261 11.1844C7.77198 10.9388 7.09698 11.2201 7.22448 11.5219Z" fill="#DFDFDF"/>
<path d="M7.54701 11.9213C7.66138 12.1145 8.44513 11.7882 8.21451 11.5276C7.98388 11.267 7.42701 11.7188 7.54701 11.9213Z" fill="#DFDFDF"/>
<path d="M14.7938 10.7009C14.8482 10.849 15.4182 10.7084 15.3563 10.504C15.2944 10.2997 14.7375 10.5453 14.7938 10.7009ZM15.2775 11.0515C15.3882 11.134 15.9169 10.7984 15.6713 10.6653C15.4257 10.5322 15.1107 10.9259 15.2775 11.0515ZM15.84 11.149C16.0688 11.2184 16.4794 10.7909 16.1907 10.7065C15.9038 10.6222 15.6788 11.1003 15.84 11.149ZM17.8763 10.9465C17.7132 10.8097 17.2013 11.1078 17.3569 11.3122C17.5107 11.5147 18.0938 11.1284 17.8763 10.9465ZM17.8669 11.6365C18.1088 11.7678 18.5775 11.1603 18.3075 11.0797C18.0375 11.0009 17.6738 11.5315 17.8669 11.6365ZM18.8532 11.1434C18.5532 11.1003 18.1932 11.6553 18.5157 11.6778C18.8382 11.7003 19.14 11.1847 18.8532 11.1434Z" fill="#E0E0E0"/>
<path d="M12.2306 5.31758C12.1725 5.31758 12.1125 5.29133 12.0731 5.24071L11.6512 4.70633C11.5837 4.62008 11.5968 4.49446 11.685 4.42696C11.7712 4.35946 11.8968 4.37446 11.9643 4.46071L12.3862 4.99508C12.4092 5.02443 12.4235 5.05964 12.4275 5.09671C12.4315 5.13377 12.425 5.17121 12.4088 5.20479C12.3926 5.23837 12.3673 5.26673 12.3358 5.28667C12.3043 5.3066 12.2679 5.31731 12.2306 5.31758ZM14.4768 5.55571C14.4318 5.55571 14.3868 5.54071 14.3512 5.51071L13.6481 4.93508C13.5618 4.86571 13.5506 4.74008 13.62 4.65383C13.6893 4.56946 13.815 4.55633 13.9012 4.62571L14.6043 5.20133C14.6364 5.22741 14.6597 5.26282 14.6708 5.30267C14.6819 5.34251 14.6803 5.38483 14.6663 5.42375C14.6523 5.46268 14.6265 5.49629 14.5926 5.51993C14.5586 5.54357 14.5182 5.55607 14.4768 5.55571ZM15.2925 3.78571C15.2531 3.78571 15.2137 3.77446 15.1781 3.75008L14.475 3.25883C14.385 3.19508 14.3625 3.07133 14.4262 2.98133C14.49 2.89133 14.6137 2.86883 14.7037 2.93258L15.4068 3.42383C15.4968 3.48758 15.5193 3.61133 15.4556 3.70133C15.4162 3.75571 15.3543 3.78571 15.2925 3.78571ZM17.4262 3.19133C17.385 3.19133 17.3437 3.17821 17.31 3.15383L16.5937 2.63446C16.5508 2.60329 16.522 2.55641 16.5136 2.50405C16.5051 2.4517 16.5178 2.39814 16.5487 2.35508C16.6125 2.26508 16.7381 2.24633 16.8281 2.31008L17.5443 2.82946C17.6343 2.89508 17.6531 3.01883 17.5893 3.10883C17.55 3.16321 17.4881 3.19133 17.4262 3.19133ZM17.82 4.99321C17.7881 4.99321 17.7562 4.98571 17.7262 4.97071L17.0943 4.63321C17.0478 4.60815 17.013 4.56573 16.9975 4.51518C16.9821 4.46462 16.9872 4.41 17.0118 4.36321C17.0643 4.26571 17.1843 4.23008 17.2818 4.28071L17.9137 4.61821C18.0112 4.67071 18.0468 4.79071 17.9962 4.88821C17.9606 4.95571 17.8912 4.99321 17.82 4.99321ZM19.5862 3.76321C19.5536 3.75941 19.5226 3.74713 19.4962 3.72758L18.9131 3.31321C18.8918 3.29806 18.8737 3.27888 18.8598 3.25673C18.8459 3.23459 18.8365 3.20993 18.8322 3.18417C18.8278 3.1584 18.8286 3.13202 18.8344 3.10655C18.8403 3.08108 18.8511 3.05701 18.8662 3.03571C18.8813 3.01441 18.9005 2.9963 18.9227 2.98242C18.9448 2.96854 18.9695 2.95915 18.9952 2.9548C19.021 2.95044 19.0474 2.95121 19.0729 2.95705C19.0983 2.96289 19.1224 2.97369 19.1437 2.98883L19.7268 3.40321C19.8168 3.46696 19.8375 3.59258 19.7737 3.68071C19.7306 3.74258 19.6575 3.77258 19.5862 3.76321Z" fill="#C0ACA1"/>
</svg>
