<svg width="25" height="24" viewBox="0 0 25 24" fill="none" xmlns="http://www.w3.org/2000/svg">
<path d="M5.3844 13.2731C5.3844 13.2731 5.44627 13.9913 5.74815 14.1244C6.0519 14.2575 6.32752 14.2369 6.4719 14.115C6.61627 13.9931 6.8319 13.3594 6.8319 13.3594L6.11002 13.3125L5.3844 13.2731Z" fill="#FFF9ED"/>
<path d="M5.04869 11.7713C5.02619 11.7713 5.00182 11.7675 4.97932 11.7581C4.97557 11.7563 4.50869 11.5838 3.94994 11.4975C3.41744 11.415 2.96557 11.4244 2.96182 11.4244C2.85494 11.43 2.75932 11.34 2.75744 11.2294C2.75557 11.1188 2.84182 11.0269 2.95244 11.025C2.97307 11.025 3.44182 11.0156 4.00994 11.1019C4.60994 11.1938 5.09744 11.3756 5.11807 11.3831C5.22119 11.4225 5.27369 11.5369 5.23619 11.6419C5.20619 11.7206 5.12932 11.7713 5.04869 11.7713ZM2.85119 12.7781C2.77994 12.7781 2.71057 12.7388 2.67307 12.6713C2.62057 12.5738 2.65807 12.4519 2.75557 12.3994C2.77619 12.3881 3.26557 12.1294 3.79619 12.0056C4.32119 11.8819 4.86682 11.865 4.88932 11.865C4.99807 11.8613 5.09182 11.9494 5.09557 12.06C5.09932 12.1706 5.01119 12.2625 4.90057 12.2663C4.89494 12.2663 4.37182 12.2831 3.88807 12.3956C3.40807 12.5081 2.94682 12.7519 2.94307 12.7538C2.91494 12.7706 2.88307 12.7781 2.85119 12.7781ZM3.27307 13.9069C3.23172 13.9067 3.19144 13.8937 3.15775 13.8697C3.12406 13.8458 3.0986 13.812 3.08485 13.773C3.0711 13.734 3.06973 13.6917 3.08093 13.6519C3.09214 13.6121 3.11537 13.5767 3.14744 13.5506C3.16432 13.5375 3.55057 13.2263 3.97432 12.9394C4.39994 12.6506 5.03369 12.3113 5.05994 12.2963C5.15744 12.2438 5.27932 12.2813 5.33182 12.3788C5.38432 12.4763 5.34682 12.5981 5.24932 12.6506C5.24369 12.6544 4.60619 12.9956 4.19932 13.2713C3.92578 13.4587 3.65934 13.6564 3.40057 13.8638C3.36119 13.8938 3.31807 13.9069 3.27307 13.9069ZM11.5606 6.71439C11.5606 8.00252 10.7862 9.04314 9.48869 9.04314C8.19119 9.04314 6.94244 8.34189 6.90682 6.79689C6.87681 5.50876 7.60244 4.52814 8.96182 4.37064C10.5199 4.18876 11.5606 5.42627 11.5606 6.71439Z" fill="#E6C18E"/>
<path d="M15.2299 18.5306C15.2299 18.5306 14.0337 18.6431 13.5818 18.8475C13.1299 19.05 12.8374 19.4343 13.0174 19.6818C13.1974 19.9293 13.7843 19.6143 14.4856 19.5918C15.1849 19.5693 16.2012 19.6818 16.8106 19.5468C17.4199 19.4118 17.5999 18.8925 17.6918 18.6656C17.7818 18.4406 15.2299 18.5306 15.2299 18.5306ZM9.43619 18.5906L9.00681 18.7706C9.00681 18.7706 8.66369 18.8456 8.50244 19.1475C8.32244 19.4868 8.84931 19.5168 9.14181 19.5168C9.43431 19.5168 9.55619 19.4568 9.55619 19.4568C9.55619 19.4568 9.70619 19.6293 10.0456 19.6518C10.3849 19.6743 10.7899 19.6293 10.9943 19.4943C11.1968 19.3593 11.1743 18.975 11.1743 18.975L9.43619 18.5906Z" fill="#FFCBCA"/>
<path d="M9.5263 15.4313C9.5263 15.4313 9.00693 15.0469 9.00693 15.4763C9.00693 15.9056 9.3013 17.2369 9.3013 17.4619C9.3013 17.6869 8.95068 18.0319 8.88693 18.4031C8.82693 18.7575 8.96943 18.9675 9.4138 18.9825C9.84318 18.9975 10.1807 18.795 10.1807 18.795L10.9026 16.605L9.5263 15.4313Z" fill="#E6C18E"/>
<path d="M10.0381 7.79252C10.0381 7.79252 10.2031 5.38502 12.4081 5.28002C14.3019 5.19002 15.365 6.77814 15.095 8.47127C14.825 10.1644 13.2444 10.4344 13.2444 10.4344C13.2444 10.4344 14.4631 10.4231 15.0838 10.4906C15.7494 10.5638 17.7144 10.8638 18.6163 12.3525C19.52 13.8431 19.6775 15.4444 19.1581 16.8C18.7063 17.9794 18.0294 18.3806 17.6675 18.5156C17.3056 18.6506 16.3138 18.8325 15.8844 18.8325C15.455 18.8325 14.5531 18.2456 14.5531 18.2456L12.4306 18.3581C12.4306 18.3581 11.6656 18.9488 11.4163 19.0613C11.1688 19.1738 10.0213 19.3256 9.58252 19.0425C9.33127 18.8813 9.60877 18.5606 9.69877 17.9963C9.78877 17.4319 9.82627 17.3194 9.81127 17.1C9.79627 16.8825 9.0669 16.2338 8.79502 15.4219C8.62815 14.9231 8.43315 14.1581 8.43315 14.1581L8.36565 13.7963L7.0119 13.4344C7.0119 13.4344 6.42502 13.6594 5.92815 13.5469C5.43127 13.4344 5.16127 13.05 5.0019 12.7125C4.8444 12.3731 4.80877 11.7206 4.83315 11.5069C4.86502 11.2388 5.49315 10.2769 6.4869 9.34877C7.2969 8.59314 8.08627 8.16752 8.85315 7.98752C9.62002 7.80752 10.0381 7.79252 10.0381 7.79252Z" fill="#FCDCAF"/>
<path d="M13.8012 6.70124C13.2818 6.15936 12.1756 6.06936 11.4762 6.88124C10.8912 7.55999 10.9681 8.56124 11.4762 9.07124C12.0181 9.61311 13.2162 9.66374 13.8687 8.86874C14.3881 8.23686 14.2756 7.19811 13.8012 6.70124Z" fill="#FFCBCA"/>
<path d="M12.2806 18.0712C12.2806 18.0712 11.9075 18.4312 11.6338 18.6056C11.0544 18.975 10.55 18.945 10.565 19.155C10.5706 19.245 11.2569 19.2525 11.7763 18.9825C12.23 18.7462 12.4381 18.5456 12.4381 18.5456L14.7481 18.5231C14.7481 18.5231 15.38 18.9525 16.1619 18.975C17.5606 19.0162 18.1175 18.4556 18.4344 18.1406C18.7513 17.8237 19.0888 17.1994 18.8188 17.3812C18.5488 17.5612 17.6131 18.3806 16.7113 18.4275C16.0213 18.4631 15.3575 18.375 14.9 17.8031C14.6263 17.46 14.5794 16.9312 14.7313 16.245C14.9638 15.1987 15.8169 14.8144 16.2444 14.9137C17.0188 15.0937 17.0188 14.6119 16.2369 14.3419C15.3875 14.0475 14.4069 14.5819 14.0394 15.975C13.7244 17.1694 14.2438 17.9812 14.2438 17.9812C14.2438 17.9812 12.5506 17.9812 12.2806 18.0712Z" fill="#E6C18E"/>
<path d="M9.08192 11.0588C8.96379 11.4 8.57754 11.565 8.30004 11.4656C8.02067 11.3663 7.91754 10.9875 8.03942 10.6463C8.16129 10.305 8.48567 10.11 8.76504 10.2113C9.04442 10.3106 9.24879 10.5769 9.08192 11.0588Z" fill="#2A2A2A"/>
<path d="M4.87255 12.2644L5.36567 12.2625L5.98255 11.7056C5.98255 11.7056 5.66567 11.3737 5.39567 11.2837C5.12567 11.1937 4.95317 11.22 4.95317 11.22C4.95317 11.22 4.79192 11.4356 4.7788 11.7356C4.76755 12.0019 4.87255 12.2644 4.87255 12.2644Z" fill="#FFCBCA"/>
<path d="M9.54879 13.5225C10.3832 13.4212 11.1744 13.0481 11.5194 12.5625C11.7725 12.2062 11.9863 11.8406 12.2113 11.9906C12.4363 12.1406 12.0875 12.6806 11.6619 13.0519C11.2513 13.41 10.4732 13.9294 9.50191 13.9481C8.66941 13.965 7.88004 13.9144 7.40941 13.7906C6.98004 13.6781 6.50566 13.4662 6.50566 13.4662C6.50566 13.4662 6.15879 13.6762 5.91879 13.5712C5.67879 13.4662 5.15191 13.2769 5.01504 12.8944C4.96629 12.7537 4.75816 12.3187 4.92504 12.2775C5.19504 12.21 5.18754 12.375 5.24191 12.5025C5.29441 12.63 5.37691 12.8944 5.49691 12.9844C5.61691 13.0744 5.93379 13.3462 6.11379 13.3462C6.29379 13.3462 7.13754 13.2112 7.13754 13.2112C7.13754 13.2112 8.53816 13.6462 9.54879 13.5225Z" fill="#E6C18E"/>
<path d="M6.07252 11.6756C5.92252 11.5781 5.77814 11.7356 5.59064 11.8781C5.40314 12.0206 5.22877 12.1181 5.09377 12.1256C4.95877 12.1331 4.70939 12.1331 4.73189 12.3431C4.75439 12.5531 4.97189 12.5306 5.13127 12.5156C5.28877 12.5006 5.63564 12.3731 5.79314 12.2456C5.95252 12.12 6.31814 11.835 6.07252 11.6756ZM5.13877 12.8493C4.98689 12.9787 5.10877 13.1193 5.30377 13.3162C5.52877 13.5412 5.87564 13.6743 6.13064 13.6856C6.47002 13.7006 6.85252 13.5806 7.17689 13.2637C7.48252 12.9656 7.16939 12.7143 6.89002 12.8568C6.61064 12.9993 6.25064 13.2112 6.12314 13.2037C5.93564 13.1925 5.61877 12.9787 5.52127 12.9168C5.42564 12.8568 5.29064 12.7218 5.13877 12.8493Z" fill="#434B55"/>
<circle cx="19.5531" cy="15.5625" r="1.3125" fill="#FCDCAF"/>
</svg>
