<svg width="25" height="24" viewBox="0 0 25 24" fill="none" xmlns="http://www.w3.org/2000/svg">
<path d="M9.06683 16.9613L12.0762 18.7556C12.0762 18.7556 17.1706 20.6025 17.8306 20.55C18.4906 20.4975 21.38 20.2463 21.4343 20.0081C21.4943 19.74 20.6825 18.7538 20.6825 18.7538C20.6825 18.7538 22.8725 17.5669 22.8462 17.2763C22.8068 16.8281 22.0025 16.4325 22.0025 16.4325C22.0025 16.4325 23.5437 14.3081 23.4668 14.1094C23.2812 13.635 22.2125 13.6481 22.2125 13.6481C22.2125 13.6481 23.7162 12.0319 23.6637 11.76C23.5587 11.2181 21.5 11.0213 21.5 11.0213C21.5 11.0213 22.5687 9.99189 22.385 9.60939C22.19 9.20439 19.6531 9.01501 19.6531 9.01501C19.6531 9.01501 20.6862 7.50564 20.5512 7.32564C20.1818 6.83814 17.015 7.08751 17.015 7.08751C17.015 7.08751 17.45 5.72814 17.2137 5.61001C17.0412 5.52376 14.5081 6.63939 14.5081 6.63939C14.5081 6.63939 14.4818 5.37189 14.0862 5.45064C13.6906 5.52939 11.6318 7.78689 11.6318 7.78689C11.6318 7.78689 10.6418 6.32251 10.4581 6.32251C10.2743 6.32251 9.0987 7.80001 9.0987 7.80001C9.0987 7.80001 8.41245 6.21564 8.06933 6.21564C7.7262 6.21564 6.61808 8.69626 6.61808 8.69626C6.61808 8.69626 5.4162 7.35001 5.23245 7.45501C5.04683 7.56001 4.81058 8.55001 4.75808 9.07876C4.70558 9.60751 4.6137 10.3856 4.6137 10.3856C4.6137 10.3856 3.64995 10.1081 3.5187 10.0031C3.38745 9.89814 2.89808 9.52876 2.71433 9.67314C2.5887 9.77251 2.95245 10.755 3.21495 11.2575C3.55433 11.9025 4.29683 12.8156 4.29683 12.8156L9.06683 16.9613Z" fill="#6D4A37"/>
<path d="M8.74249 14.5763L6.17749 18.0169C6.17749 18.0169 6.04999 18.9713 5.92624 19.2188C5.80249 19.4644 4.74687 20.49 5.20437 20.8238C5.66187 21.1575 6.76249 21.0525 7.12249 20.5781C7.52374 20.0494 8.00187 19.0463 8.00187 19.0463C8.00187 19.0463 9.19812 18.6244 9.53374 18.1144C9.86749 17.6044 9.97437 17.1281 9.97437 16.8994C9.97437 16.6706 10.0456 16.0556 10.0269 15.7913C10.0081 15.5269 9.76249 14.4713 9.76249 14.4713L8.74249 14.5763Z" fill="#F7BB86"/>
<path d="M3.86746 11.2069C3.86746 11.2069 5.42559 10.5731 6.42871 10.7588C7.43184 10.9444 9.14746 12.1313 9.99309 13.3725C10.8387 14.6138 11.6037 15.96 12.8168 16.9088C14.0318 17.8594 14.9806 18.7838 16.4337 19.3631C17.885 19.9444 19.2575 19.7981 19.7337 19.7719C20.21 19.7456 21.3181 19.785 21.3181 19.6538C21.3181 19.5225 20.4743 18.1219 20.4743 18.1219C20.4743 18.1219 22.6381 17.25 22.7187 17.0663C22.7993 16.8825 21.7418 15.9581 21.7418 15.9581C21.7418 15.9581 23.3262 14.0306 23.2737 13.8994C23.2212 13.7681 21.6368 13.2656 21.6368 13.2656C21.6368 13.2656 23.4312 11.8406 23.4312 11.55C23.4312 11.2594 21.3725 10.9688 21.2131 10.7063C21.0556 10.4419 22.2425 9.67689 22.2425 9.49126C22.2425 9.30564 19.1281 8.83126 19.0756 8.67376C19.0231 8.51626 20.3693 7.38001 20.2906 7.19626C20.2118 7.01064 17.9937 6.87939 17.4668 6.87939C16.9381 6.87939 16.3325 7.01064 16.1993 6.87939C16.0681 6.74814 17.0712 5.90251 17.2025 5.66439C17.3337 5.42626 16.0681 5.87626 15.3818 6.06001C14.6956 6.24564 14.0618 6.69376 13.9043 6.50814C13.7468 6.32251 14.405 5.47876 14.09 5.45251C13.7731 5.42626 12.7437 6.21751 12.4268 6.56064C12.11 6.90376 11.5025 7.53751 11.5025 7.53751C11.5025 7.53751 10.8162 6.55126 10.7375 6.63939C10.6325 6.75751 9.99871 7.85439 9.81309 7.90689C9.62746 7.95939 8.49309 6.45564 8.36184 6.45564C8.23059 6.45564 6.98934 8.75251 6.98934 8.75251C6.98934 8.75251 5.77434 7.74939 5.59059 7.67064C5.42746 7.60126 5.08996 10.2581 5.08996 10.2581C5.08996 10.2581 4.24621 10.1794 3.87496 10.0463C3.50371 9.91314 2.76684 9.43876 2.71434 9.67689C2.66184 9.91501 3.05746 10.4681 3.29559 10.7325C3.53371 10.9969 3.86746 11.2069 3.86746 11.2069Z" fill="#865B52"/>
<path d="M8.45939 13.5563C8.45939 13.5563 7.67189 11.985 6.01814 11.775C4.36439 11.565 3.49814 13.2919 3.04064 13.5206C2.58314 13.7494 1.58002 13.6444 1.43939 14.4713C1.29877 15.2981 1.77314 16.2319 2.70689 16.9181C3.63877 17.6044 4.73002 18.0975 6.47189 18.1144C8.21377 18.1313 9.15127 16.6688 9.30502 15.7031C9.37627 15.2625 9.37627 14.7356 9.37627 14.7356C9.37627 14.7356 10.625 14.4019 11.0131 12.8888C11.3994 11.3756 9.95564 11.2763 9.25252 12.1144C8.61877 12.87 8.45939 13.5563 8.45939 13.5563Z" fill="#FED3B4"/>
<path d="M11.0206 19.2712C11.0206 19.2712 7.58934 21.33 7.91934 21.5025C8.24934 21.675 8.50059 21.8456 9.30496 21.5025C10.1093 21.1594 11.5493 20.1562 11.5493 20.1562C11.5493 20.1562 12.5393 20.4469 13.5031 20.4862C14.4668 20.5256 16.1825 20.6044 16.1825 20.6044L17.0131 19.575L11.8793 18.4012L11.0206 19.2712Z" fill="#F6BA84"/>
<path d="M11.6544 17.0269C12.7494 17.2387 13.9775 17.6344 14.915 18.03C15.8525 18.4256 17.8757 19.3594 17.9113 20.2744C17.9375 20.9606 17.4369 21.3956 17.0525 21.5287C16.6138 21.6806 15.1513 21.885 14.5982 21.5944C14.0432 21.3037 13.8988 20.8031 14.5982 20.4337C15.2975 20.0644 16.2613 20.0906 16.1957 19.7475C16.13 19.4044 14.81 19.8 13.6757 19.695C12.6763 19.6012 11.3394 19.4962 11.3394 19.4962C11.3394 19.4962 10.475 20.2856 9.94066 20.7637C9.32003 21.3187 8.78566 21.8437 8.00003 21.6075C7.34003 21.4087 7.10191 21 7.37941 20.7356C7.65691 20.4712 8.02628 20.1937 8.13128 20.0625C8.23628 19.9312 8.39566 19.575 8.39566 19.575C8.39566 19.575 8.19691 19.3631 8.03941 19.1662C7.88191 18.9675 7.81441 18.81 7.81441 18.81C7.81441 18.81 8.80441 18.2681 9.17378 17.8987C9.54316 17.5294 9.88628 16.8825 9.88628 16.83C9.88628 16.7775 10.6007 16.8244 11.6544 17.0269Z" fill="#FFD1B7"/>
<path d="M6.25623 14.1375C6.27873 14.5219 6.42873 14.9419 6.94248 14.9419C7.45811 14.9419 7.53686 14.4675 7.49748 14.0438C7.45811 13.62 7.24623 13.2525 6.85061 13.2656C6.45311 13.2788 6.22998 13.6875 6.25623 14.1375Z" fill="#000304"/>
<path d="M8.97504 13.9388C9.20566 14.2781 9.68754 14.0438 9.99129 13.7006C10.295 13.3575 10.4544 12.9731 10.2163 12.7106C9.93879 12.4069 9.47754 12.7369 9.26566 12.975C9.05379 13.2131 8.77629 13.6481 8.97504 13.9388Z" fill="#F27CB6"/>
<path d="M2.46872 15.4031C2.46872 15.4031 3.02372 14.9025 3.04997 14.6381C3.07622 14.3737 2.7856 14.19 2.28497 14.0569C1.78435 13.9256 1.42622 13.8712 1.37372 14.4262C1.32122 14.9812 1.70372 15.1912 1.70372 15.1912C1.70372 15.1912 1.61185 15.3487 1.54622 15.39C1.4806 15.4312 1.45247 15.5681 1.4806 15.6281C1.57247 15.8269 1.7056 15.7462 1.78435 15.72C1.8631 15.6937 1.96997 15.5756 1.96997 15.5756C1.96997 15.5756 2.22122 16.3931 2.81372 16.5919C3.42497 16.7962 3.93497 16.3537 4.0681 16.2225C4.19935 16.0912 4.13372 15.7069 3.76435 15.8794C3.44935 16.0256 3.48685 16.1962 3.0256 16.1175C2.56435 16.0387 2.46872 15.4031 2.46872 15.4031Z" fill="#4B4C4D"/>
<path d="M5.57379 20.0588C5.71629 20.1581 5.58317 20.49 5.50254 20.5594C5.42379 20.6306 5.23067 20.8931 5.02817 20.7525C4.82567 20.6119 4.97567 20.2856 5.09942 20.1713C5.22317 20.0569 5.39754 19.935 5.57379 20.0588ZM8.11629 20.64C8.29254 20.7694 8.20442 21.045 8.03754 21.1763C7.87067 21.3075 7.57817 21.54 7.39442 21.3431C7.18254 21.1144 7.57067 20.7975 7.65879 20.7281C7.74692 20.6569 7.94942 20.5163 8.11629 20.64ZM8.83067 20.9475C8.99192 21.0863 8.88504 21.2888 8.73317 21.4406C8.56629 21.6075 8.28504 21.7575 8.11817 21.6169C7.95129 21.4763 8.24192 21.1594 8.35629 21.0713C8.47067 20.9831 8.64504 20.7881 8.83067 20.9475ZM14.5044 20.8406C14.3713 20.9438 14.1088 21.21 14.3188 21.4031C14.5307 21.5963 14.8475 21.3244 14.9432 21.2175C15.0407 21.1125 15.2075 20.9175 15.0482 20.7431C14.8925 20.5688 14.6638 20.7188 14.5044 20.8406ZM14.9619 21.6769C15.0988 21.8306 15.3575 21.6863 15.5244 21.5194C15.6032 21.4406 15.7532 21.2119 15.5863 21.0619C15.4757 20.9625 15.2338 21.0356 15.05 21.2194C14.8663 21.4031 14.8307 21.5288 14.9619 21.6769Z" fill="#F47DAD"/>
<path d="M7.44318 9.43875C7.16568 10.0987 7.86505 10.3894 8.14255 9.82125C8.42005 9.25312 8.68443 8.6325 8.8288 8.10562C8.94693 7.67812 8.63005 7.51125 8.35443 7.94812C8.07693 8.38312 7.64005 8.97 7.44318 9.43875Z" fill="#9D6C5B"/>
<path d="M11.1519 8.91C10.7901 9.21 9.93131 10.1944 9.67443 10.5469C9.23943 11.1413 9.99131 11.6419 10.3738 11.115C10.7563 10.5863 11.3638 9.55688 11.5626 9.255C11.7594 8.94938 11.4688 8.64563 11.1519 8.91Z" fill="#C5886F"/>
<path d="M11.8119 7.95937C11.5625 8.19749 11.8382 8.72437 12.2994 8.38124C12.7607 8.03812 13.0119 7.82624 13.25 7.57687C13.4882 7.32562 13.3157 7.04812 12.9463 7.22062C12.5769 7.39312 12.0894 7.69687 11.8119 7.95937Z" fill="#6F4B3B"/>
<path d="M12.6049 9.02999C12.0499 9.47624 12.6837 10.1381 13.1731 9.74249C13.6606 9.34687 14.5718 8.46187 14.9149 8.10562C15.2581 7.74937 15.0481 7.35374 14.5456 7.68374C14.1218 7.95937 13.1449 8.59312 12.6049 9.02999Z" fill="#9D6C5B"/>
<path d="M12.1681 11.8275C11.6 12.2756 12.1512 12.9806 12.7887 12.4481C13.4356 11.9063 14.3469 11.1281 14.7687 10.6931C15.14 10.3106 14.7819 9.95438 14.2944 10.2975C13.8669 10.5956 12.8731 11.2706 12.1681 11.8275Z" fill="#C5886F"/>
<path d="M16.4056 10.3481C15.7193 10.7306 16.1806 11.325 16.7093 11.0344C17.1237 10.8075 18.4118 9.96561 18.5974 9.79311C18.7831 9.62061 18.6706 9.31311 18.3593 9.42374C17.9899 9.55686 16.8406 10.1062 16.4056 10.3481Z" fill="#9D6C5B"/>
<path d="M15.8244 8.60626C15.2825 9.01501 15.785 9.64876 16.2594 9.29251C16.6213 9.02251 17.6319 7.94626 17.7913 7.76064C17.9507 7.57501 17.8044 7.31251 17.5138 7.50939C17.2625 7.68189 16.2932 8.25376 15.8244 8.60626Z" fill="#6F4B3B"/>
<path d="M18.0293 11.1544C17.5868 11.4019 14.0787 13.3256 13.595 13.6481C12.9612 14.07 13.49 14.955 14.1106 14.5462C14.6187 14.2125 18.0875 11.835 18.3612 11.655C18.8206 11.3512 18.5693 10.8506 18.0293 11.1544ZM16.1281 14.8237C15.4418 15.1144 15.7981 15.84 16.3925 15.615C16.9868 15.39 18.8075 14.6381 19.2293 14.3869C19.6512 14.1356 19.4543 13.6875 19.0718 13.8187C18.6893 13.9519 16.8612 14.5125 16.1281 14.8237Z" fill="#C5886F"/>
<path d="M19.3232 11.9981C18.8488 12.2756 19.205 12.75 19.6269 12.5663C19.9419 12.4294 20.4707 12.1575 20.6563 12.0244C20.8419 11.8931 20.7744 11.5088 20.3919 11.6288C20.1275 11.7113 19.685 11.7881 19.3232 11.9981Z" fill="#6F4B3B"/>
<path d="M17.7781 16.3669C17.2531 16.4681 17.3862 17.2744 17.9356 17.1844C18.6743 17.0662 20.03 16.6256 20.285 16.5637C20.615 16.485 20.6937 15.9431 20.0337 16.035C19.4412 16.1212 18.3987 16.2487 17.7781 16.3669ZM18.8862 17.9381C18.3575 17.9119 18.3312 18.6375 18.9387 18.6375C19.3475 18.6375 19.625 18.6112 19.9025 18.5587C20.2437 18.4931 20.2587 18.0844 19.8368 18.03C19.5612 17.9962 19.2181 17.955 18.8862 17.9381Z" fill="#C5886F"/>
<path d="M20.2719 14.4281C19.8894 14.5856 20.0731 15.1144 20.4838 14.9831C20.8194 14.8744 21.1569 14.7187 21.4475 14.5612C21.6894 14.43 21.5788 14.0606 21.275 14.1262C20.9713 14.19 20.5512 14.3119 20.2719 14.4281Z" fill="#9D6C5B"/>
</svg>
