<svg width="25" height="24" viewBox="0 0 25 24" fill="none" xmlns="http://www.w3.org/2000/svg">
<path d="M8.00181 17.9026C8.00181 17.9026 8.45931 19.7851 8.38806 20.0495C8.31681 20.3138 7.01556 20.5238 6.25806 20.912C5.76118 21.167 4.96056 21.7351 5.44806 22.1945C5.71243 22.4438 6.45118 21.8138 8.66931 21.6863C10.9212 21.557 11.3187 21.7407 11.2024 21.2645C11.0881 20.7901 10.4899 20.7357 9.98743 20.5257C9.82056 20.4563 9.62743 20.3457 9.54681 20.2257C9.46993 20.1113 9.58243 18.167 9.58243 18.167L8.00181 17.9026Z" fill="#FFD668"/>
<path d="M12.1549 19.2224C12.1549 19.2224 12.2074 21.1255 12.2074 21.2474C12.2074 21.4255 11.7724 21.6393 11.1256 21.7837C10.4787 21.928 9.19807 22.168 9.18119 22.9874C9.16994 23.4918 11.6412 22.8093 13.0531 22.8299C14.4649 22.8505 15.3706 23.0362 15.3049 22.4437C15.2524 21.9693 14.5174 21.7537 14.1218 21.6674C13.7262 21.5812 13.5462 21.388 13.5349 21.1518C13.5274 20.998 13.5612 19.2637 13.5612 19.2637L12.1549 19.2224Z" fill="#FFD668"/>
<path d="M8.35427 1.50183L10.053 1.38745C10.053 1.38745 10.998 1.69308 11.8961 2.99433C13.0886 4.72495 12.9311 7.88995 12.9311 7.88995L16.2049 16.6181L16.6005 19.5037C16.6005 19.5037 13.6718 19.965 10.803 19.5918C7.42427 19.1512 3.94052 16.0893 3.99302 11.5143C4.04552 6.93933 7.67177 2.52183 7.67177 2.52183L8.35427 1.50183Z" fill="#F5625C"/>
<path d="M4.46573 3.17446C4.46573 3.17446 3.1626 3.57946 2.79323 5.04009C2.42385 6.50071 3.04073 7.86009 3.3126 7.95196C3.4176 7.98759 3.74385 7.32759 3.74385 7.32759C3.74385 7.32759 4.20135 7.85634 4.4301 7.97821C4.65885 8.10196 4.77323 8.19384 4.97573 8.18071C5.37135 8.15446 5.9526 7.00134 5.93573 6.22696L6.13823 2.43384L4.46573 3.17446Z" fill="#484848"/>
<path d="M6.09687 5.26684C6.09687 5.26684 7.68499 5.00247 8.31874 4.45684C8.95249 3.91122 9.69124 3.41809 9.93687 2.43372C10.0869 1.83372 10.0944 1.41372 10.0944 1.41372C10.0944 1.41372 7.87999 0.129342 5.87374 1.18497C3.86749 2.24059 4.34187 3.67497 4.34187 3.67497L6.09687 5.26684Z" fill="#F5625C"/>
<path d="M6.03127 5.47876C6.03127 5.47876 4.7469 6.23626 4.60627 6.34126C4.46565 6.44626 4.00627 6.67501 3.79627 6.85126C3.46252 7.13251 3.16252 7.76626 3.28627 7.92563C3.41002 8.08313 3.58627 7.59188 4.07752 7.29188C4.56877 6.99188 5.4144 6.51751 5.64315 6.39376C5.8719 6.27001 5.94315 6.20063 5.94315 6.20063L6.03127 5.47876Z" fill="#FFEFE6"/>
<path d="M6.46812 5.14864C6.55625 4.96302 6.59562 4.53739 5.9975 3.78927C5.29437 2.90989 4.30812 2.87427 4.30812 2.87427L4.20312 3.22677L5.29437 4.31802L5.9 5.62489C5.9 5.62489 6.28625 5.53114 6.46812 5.14864Z" fill="#A02A1B"/>
<path d="M3.47949 3.82494C3.47949 3.82494 4.28949 3.87744 4.85199 4.37056C5.18574 4.66306 5.69012 5.28931 5.81387 5.57244C5.93762 5.85556 6.35949 5.07181 6.02574 4.54306C5.69199 4.01431 5.29262 3.48369 4.55387 3.22681C4.02137 3.04306 3.51512 3.49119 3.47949 3.82494Z" fill="#FFCEE3"/>
<path d="M9.7794 4.86384C9.7794 4.86384 9.12877 3.21009 7.79002 3.27947C6.44002 3.35072 6.2319 4.35384 6.29377 4.95197C6.36502 5.64384 6.82252 6.02634 7.87815 5.99072C8.93565 5.95322 9.7794 4.86384 9.7794 4.86384Z" fill="#FFE7D3"/>
<path d="M8.79511 4.65182C8.79511 5.07932 8.33011 5.46182 7.90636 5.46182C7.48448 5.46182 7.14136 5.11495 7.14136 4.68745C7.14136 4.25995 7.38698 3.78932 7.98511 3.75557C8.61698 3.7162 8.79511 4.22432 8.79511 4.65182Z" fill="#312F2A"/>
<path d="M16.6963 15.1406C16.6963 15.1406 17.1182 16.0912 18.7382 17.1469C20.1125 18.0431 20.78 18.5906 21.7307 18.9244C22.6813 19.2581 22.7169 19.3463 22.6813 19.5225C22.6457 19.6988 21.1682 20.8425 19.5482 20.7019C17.93 20.5613 17.1557 19.9275 16.6625 19.5938C16.1694 19.26 15.2375 16.9012 15.2375 16.9012L16.6963 15.1406Z" fill="#41C074"/>
<path d="M12.9387 7.84497C12.9387 7.84497 10.6943 8.50497 9.70995 10.0012C8.88495 11.2537 8.95807 13.3837 9.79807 14.9643C10.8368 16.9181 12.9837 18.3075 14.1274 18.8362C15.2712 19.365 16.8368 19.6275 17.5231 19.5581C18.2093 19.4887 16.9081 14.7543 15.6574 12.2193C14.4387 9.74622 12.9387 7.84497 12.9387 7.84497Z" fill="#FFDF88"/>
</svg>
