<svg width="25" height="24" viewBox="0 0 25 24" fill="none" xmlns="http://www.w3.org/2000/svg">
<path d="M18.095 15.2194C18.095 15.2194 19.0718 14.2425 20.1012 14.5331C21.1306 14.8238 21.7906 15.3506 21.8693 16.4344C21.9481 17.5181 21.6893 18.3281 20.8662 18.8625C19.8106 19.5488 18.5431 19.1006 18.5431 19.1006L18.095 15.2194Z" fill="#ECF0F2"/>
<path d="M11.7856 7.98749C11.7856 7.98749 12.5506 6.32437 12.4981 4.07999C12.4456 1.83562 11.9431 0.648745 10.8181 0.69187C9.5862 0.74062 9.2037 2.72624 9.2262 4.37062C9.25245 6.37687 9.9837 7.88999 9.9837 7.88999L11.7856 7.98749ZM9.25245 14.5762L7.36995 14.7337C7.36995 14.7337 7.43182 14.9269 7.41307 15.1031C7.3962 15.2794 7.3512 15.7181 7.3512 15.7181L9.72682 17.5837L14.2493 15.0675L13.0343 14.2406L9.25245 14.5762Z" fill="#A8A8A8"/>
<path d="M4.14874 12.1781C4.10132 12.1781 4.05569 12.1601 4.02102 12.1277C3.98635 12.0954 3.96523 12.0511 3.9619 12.0038C3.95857 11.9565 3.97329 11.9097 4.00309 11.8728C4.03288 11.8359 4.07555 11.8117 4.12249 11.805C4.14311 11.8013 4.63061 11.7338 5.16311 11.715C5.75186 11.6963 5.90936 11.6906 6.41936 11.7881C6.52061 11.8069 6.58811 11.9063 6.56749 12.0075C6.54686 12.1088 6.44936 12.1744 6.34811 12.1556C5.88124 12.0656 5.74624 12.0694 5.17624 12.0881C4.66436 12.105 4.18061 12.1744 4.17499 12.1744C4.16561 12.1763 4.15811 12.1781 4.14874 12.1781ZM3.95561 13.4794C3.87124 13.4794 3.79436 13.4213 3.77374 13.3369C3.74936 13.2356 3.81124 13.1344 3.91249 13.11C3.93874 13.1025 4.57249 12.9488 4.96249 12.8794C5.35061 12.8081 6.05186 12.7238 6.08186 12.72C6.10631 12.7166 6.13119 12.7182 6.15502 12.7246C6.17885 12.731 6.20114 12.7422 6.22056 12.7574C6.23999 12.7726 6.25615 12.7916 6.26807 12.8132C6.28 12.8348 6.28746 12.8586 6.28999 12.8831C6.29321 12.9076 6.29152 12.9324 6.28503 12.9561C6.27853 12.9799 6.26736 13.0021 6.25217 13.0215C6.23698 13.0409 6.21807 13.057 6.19655 13.069C6.17503 13.081 6.15134 13.0886 6.12686 13.0913C6.11936 13.0913 5.40686 13.1794 5.02999 13.2488C4.65311 13.3181 4.00811 13.4738 4.00249 13.4756C3.98374 13.4775 3.97061 13.4794 3.95561 13.4794Z" fill="#8E9395"/>
<path d="M15.6743 16.2657L9.04057 20.4375C9.04057 20.4375 7.66807 21.9863 7.97557 22.3125C8.13869 22.485 8.77994 22.6388 9.33869 22.515C10.1393 22.3388 10.8349 20.64 10.8349 20.64C10.8349 20.64 10.4824 23.0513 11.0281 23.1563C11.5737 23.2613 12.3649 23.13 12.7174 22.4794C13.0699 21.8288 13.1918 21.0357 13.5087 20.7019C13.8256 20.3682 14.1068 20.1207 14.1068 20.1207C14.1068 20.1207 14.2831 20.3325 14.3881 20.4732C14.4931 20.6138 14.6881 20.8069 14.6881 20.8069C14.6881 20.8069 13.8649 21.3169 13.5799 21.7219C13.2893 22.1363 13.3493 22.6257 13.7731 22.7963C14.3881 23.0419 17.0468 21.9694 17.0468 21.9694L16.5181 16.0744L15.6743 16.2657Z" fill="#A8A8A8"/>
<path d="M14.6544 12.2888C14.6544 12.2888 14.7426 11.655 14.6188 11.0738C14.4951 10.4925 14.1444 9.82502 14.1444 9.82502C14.1444 9.82502 15.4476 9.33189 16.3794 8.48814C17.4144 7.55064 18.9482 5.79564 19.0888 4.35189C19.2294 2.90814 18.3669 1.60689 16.0963 2.97939C13.8257 4.35189 12.1738 7.74939 12.1738 7.74939C12.1738 7.74939 10.3794 6.99189 8.91881 7.78502C7.45819 8.57814 6.68381 10.6181 6.61256 10.7588C6.54131 10.8994 5.63756 11.31 5.52131 12.5531C5.40693 13.785 6.09506 14.4806 7.12256 14.7525C7.83881 14.9419 8.49506 14.7881 8.49506 14.7881C8.49506 14.7881 9.04069 15.4031 10.4488 15.3863C11.8569 15.3694 13.0176 14.6288 13.0176 14.6288C13.0176 14.6288 12.7532 15.6319 11.4857 16.1775C10.5351 16.5863 9.37443 16.53 8.52881 16.1606C7.68318 15.7913 7.38506 15.3694 7.38506 15.3694C7.38506 15.3694 7.08506 16.7419 7.38506 17.5688C7.68506 18.3956 8.26444 19.5394 8.22881 20.4019C8.19319 21.2644 7.64006 21.8981 7.91193 22.2488C8.06381 22.4456 8.69006 22.6106 9.17944 22.0913C10.0063 21.2119 9.97443 20.2163 10.2707 20.1731C10.8857 20.085 10.5876 21.8794 10.5707 22.2488C10.5538 22.6181 10.5013 23.085 10.9044 23.1469C11.7669 23.2781 11.9076 22.9538 12.2769 22.0913C12.6463 21.2288 12.6032 20.7806 12.9801 20.2613C13.2876 19.8394 13.8069 19.5581 13.8069 19.5581C13.8069 19.5581 13.7094 18.3881 14.0976 17.7713C14.4838 17.1563 15.2507 16.6706 15.8132 16.8825C16.3757 17.0944 15.1363 17.2425 14.7313 18.1238C14.4351 18.7688 14.4932 19.4344 14.9169 19.8919C15.3388 20.3494 15.8488 20.7356 15.8488 20.7356C15.8488 20.7356 13.8313 21.4631 13.6494 22.2056C13.5182 22.7419 13.7376 22.9894 14.9694 22.8656C16.2013 22.7419 17.7669 22.32 18.3838 21.5456C18.9988 20.7713 19.7863 18.2325 19.1319 16.38C18.6032 14.8838 18.2263 14.2238 16.8707 13.2563C15.5169 12.2888 14.6544 12.2888 14.6544 12.2888Z" fill="#DFDFDF"/>
<path d="M13.5987 8.24252C13.2687 7.90127 13.8444 6.69377 15.1475 5.3044C16.4506 3.91502 17.3469 3.4744 17.7875 3.79127C18.2281 4.10815 17.5944 5.46377 16.3437 6.78377C15.3087 7.87502 14.1444 8.80502 13.5987 8.24252Z" fill="#FFB0B1"/>
<path d="M9.43629 8.17123C9.92379 8.27623 9.50191 8.98873 9.09316 9.67498C8.68441 10.3612 8.38066 10.7175 8.47254 11.0475C8.56441 11.3775 9.27691 12.0112 9.23754 12.7631C9.19816 13.515 8.56441 14.3737 7.37754 14.28C6.19066 14.1862 5.71441 13.2769 5.91316 12.2869C6.07066 11.5031 6.87691 11.1394 7.08691 10.755C7.29879 10.3725 7.64754 9.72936 8.01129 9.19686C8.52691 8.44873 8.94691 8.06623 9.43629 8.17123Z" fill="white"/>
<path d="M11.7951 11.092C11.8431 10.6024 11.5914 10.1771 11.2327 10.1419C10.8741 10.1066 10.5444 10.4749 10.4963 10.9645C10.4483 11.454 10.7 11.8794 11.0587 11.9146C11.4173 11.9498 11.747 11.5815 11.7951 11.092Z" fill="#2F3030"/>
<path d="M6.99122 11.8575C6.99122 11.8575 7.57997 11.3737 7.80872 11.6118C8.03747 11.85 7.1131 12.4218 7.1131 12.4218C7.1131 12.4218 7.02497 12.8531 7.28935 12.8962C7.55372 12.9393 7.58935 12.3768 7.8781 12.5268C8.16872 12.6768 7.90435 13.425 7.39435 13.4325C7.0906 13.4381 6.9106 13.2131 6.9106 13.2131C6.9106 13.2131 6.82997 13.38 6.5581 13.3537C6.10997 13.3106 5.8981 12.4012 6.23185 12.4125C6.49622 12.4218 6.33685 12.8437 6.58435 12.8437C6.8656 12.8437 6.75122 12.3431 6.75122 12.3431C6.75122 12.3431 6.13622 11.7 6.4081 11.4712C6.68372 11.2425 6.99122 11.8575 6.99122 11.8575Z" fill="#2F3030"/>
<path d="M11.0993 12.9862C11.0768 12.9862 11.0562 12.9825 11.0337 12.975C11.0262 12.9731 10.355 12.7237 9.92371 12.63L8.90371 12.4106C8.80246 12.3881 8.73871 12.2887 8.75933 12.1875C8.77996 12.0862 8.88121 12.0225 8.98246 12.0431L10.0025 12.2625C10.46 12.3619 11.135 12.6112 11.1631 12.6225C11.2606 12.6581 11.3093 12.7669 11.2737 12.8644C11.2609 12.9003 11.2372 12.9313 11.206 12.9531C11.1747 12.9749 11.1374 12.9865 11.0993 12.9862ZM10.8875 14.2369C10.8537 14.2369 10.82 14.2275 10.7881 14.2087C10.7825 14.205 10.205 13.8469 9.67058 13.5544C9.33722 13.3721 8.99422 13.2082 8.64308 13.0631C8.6203 13.0539 8.59957 13.0403 8.58206 13.023C8.56455 13.0058 8.55061 12.9852 8.54104 12.9626C8.53146 12.94 8.52644 12.9157 8.52625 12.8911C8.52607 12.8665 8.53072 12.8421 8.53996 12.8194C8.54919 12.7966 8.56282 12.7759 8.58007 12.7583C8.59731 12.7408 8.61784 12.7269 8.64047 12.7173C8.66311 12.7077 8.68741 12.7027 8.71198 12.7025C8.73656 12.7024 8.76093 12.707 8.78371 12.7162C8.80433 12.7237 9.30121 12.9262 9.85058 13.2281C10.3943 13.5262 10.9793 13.89 10.985 13.8937C11.0731 13.9481 11.0993 14.0644 11.045 14.1525C11.0131 14.205 10.9512 14.2369 10.8875 14.2369Z" fill="#8E9395"/>
</svg>
