<svg width="25" height="24" viewBox="0 0 25 24" fill="none" xmlns="http://www.w3.org/2000/svg">
<path d="M21.6313 11.1018C21.6313 11.1018 22.37 10.6874 22.5557 10.5824C22.7413 10.4774 23.4182 10.0536 23.6638 10.4249C23.8082 10.6424 23.5325 11.2574 23.0919 11.8986C22.6907 12.4855 21.7569 13.6911 21.7044 13.9293C21.6519 14.1674 21.9125 15.1218 21.9913 15.4911C22.07 15.8605 22.3175 16.7493 22.2107 17.0924C22.1038 17.4355 21.5675 18.3768 20.195 18.3599C19.1038 18.3468 18.7869 18.0261 18.7513 17.8311C18.725 17.6905 18.6463 17.2236 18.6463 17.2236C18.6463 17.2236 17.7482 17.7786 17.3263 17.9886C16.9044 18.1986 15.7682 18.7799 15.7682 18.7799C15.7682 18.7799 15.9875 19.783 16.0232 20.188C16.0588 20.593 16.1844 21.1724 15.9707 21.5605C15.7775 21.913 15.1738 22.5018 13.7525 22.4924C12.6425 22.4849 12.3632 22.1399 12.1869 21.9299C12.0107 21.718 11.975 20.7149 11.975 20.5049C11.975 20.2949 11.9394 19.5543 11.9394 19.5543C11.9394 19.5543 10.4357 19.4793 9.52817 19.4136C8.70692 19.3536 7.62317 19.228 7.62317 19.228C7.62317 19.228 7.66254 19.6649 7.70192 19.9799C7.73754 20.2611 7.74504 20.8499 7.45067 21.1368C7.05504 21.523 6.03317 21.5511 5.47067 21.4968C4.90817 21.4443 4.12442 21.1536 3.89567 20.6436C3.66692 20.1336 3.96692 19.4643 4.08879 19.078C4.19754 18.7386 4.38879 18.2511 4.31754 18.1105C4.24629 17.9699 3.56004 17.7936 2.57567 16.8074C1.58942 15.8211 0.301293 12.3974 3.19067 10.0143C6.09504 7.62176 11.405 10.2205 11.6863 10.3968C11.975 10.5768 21.6313 11.1018 21.6313 11.1018Z" fill="#CAD969"/>
<path d="M12.9219 4.73997C10.31 4.85622 8.35062 6.14997 7.37749 7.56372C6.79624 8.40747 6.50562 9.01497 6.50562 9.01497C6.50562 9.01497 7.40749 9.04122 8.22124 9.47622C9.15874 9.97685 10.2462 10.5187 10.9606 12.8756C11.4987 14.6568 11.7069 16.35 13.1056 16.7231C14.69 17.145 18.3856 16.935 20.1537 15.2193C21.9219 13.5037 22.265 12.21 21.8169 10.5206C21.3687 8.83122 19.3475 5.82372 16.5369 5.0306C15.3237 4.68747 14.1087 4.68747 12.9219 4.73997Z" fill="#6E823A"/>
<path d="M21.4869 9.62256C21.4081 9.43693 21.2431 9.15381 21.2431 9.15381C21.2431 9.15381 21.23 9.53818 21.1962 9.74068C21.1437 10.0707 20.9619 10.7569 20.8569 10.6557C20.6694 10.4738 19.7825 9.35818 19.3606 8.73756C19.04 8.26506 17.9356 7.02943 17.9094 6.62631C17.8962 6.42756 18.1475 5.75443 18.1475 5.75443C18.1475 5.75443 17.9187 5.62318 17.7069 5.50318C17.5419 5.41131 17.3019 5.31006 17.3019 5.31006C17.3019 5.31006 17.1575 6.22881 16.9981 6.40131C16.8575 6.55318 16.0006 6.88881 15.335 7.14006C14.5306 7.44381 13.7506 7.83943 13.46 7.89193C13.205 7.93881 11.7556 7.62756 11.21 7.52256C10.5237 7.39131 9.48874 7.09881 9.25062 6.92818C8.97312 6.72943 8.67499 6.21943 8.67499 6.21943C8.67499 6.21943 8.50812 6.33381 8.34124 6.46506C8.17624 6.59443 7.96249 6.85131 7.96249 6.85131C7.96249 6.85131 8.39562 7.28631 8.41999 7.44756C8.45374 7.67256 8.18187 7.97818 7.95874 8.26881C7.82374 8.44318 7.44312 9.17818 7.44312 9.17818C7.44312 9.17818 7.62499 9.19506 7.84624 9.29631C8.07687 9.40318 8.29249 9.51381 8.29249 9.51381C8.29249 9.51381 8.84937 8.22006 9.21124 8.10193C9.52062 8.00068 10.3925 8.28756 11.0262 8.41881C11.9244 8.60443 12.8337 8.76943 13.025 9.01318C13.2237 9.26443 13.4112 10.2657 13.5931 11.1113C13.7919 12.0376 14.3075 14.4413 14.1875 14.6251C14.0694 14.8107 13.1187 14.7432 12.5769 14.6776C12.1175 14.6213 11.375 14.3476 11.375 14.3476C11.375 14.3476 11.4837 14.7432 11.5194 14.8482C11.5719 15.0001 11.7369 15.4219 11.7369 15.4219C11.7369 15.4219 12.8 15.8907 15.9406 15.6001C19.0812 15.3094 20.6337 13.1701 21.0744 12.2213C21.6631 10.9501 21.7381 10.2732 21.7381 10.2732C21.7381 10.2732 21.5656 9.80818 21.4869 9.62256ZM18.6219 13.7269C17.8269 14.2276 15.7719 14.7563 15.4006 14.5576C15.1044 14.3982 14.6619 11.9438 14.45 10.8488C14.315 10.1476 13.9906 9.08256 14.1856 8.75068C14.3169 8.52568 15.0837 8.19006 15.65 7.92568C16.1881 7.67631 16.9569 7.33881 17.1819 7.36506C17.5006 7.40256 18.185 8.51256 18.8712 9.46318C19.5575 10.4138 20.3094 11.4038 20.3225 11.7469C20.3394 12.0919 19.4412 13.2132 18.6219 13.7269Z" fill="#484E23"/>
<ellipse cx="3.65149" cy="13.0535" rx="0.75" ry="0.9375" transform="rotate(10 3.65149 13.0535)" fill="#2F3030"/>
<ellipse cx="0.75" cy="0.9375" rx="0.75" ry="0.9375" transform="matrix(-0.984808 0.173648 0.173648 0.984808 7.97729 12)" fill="#2F3030"/>
</svg>
