<svg width="41" height="39" viewBox="0 0 41 39" fill="none" xmlns="http://www.w3.org/2000/svg">
<path d="M21.402 30.9039L20.499 30.3599L19.596 30.9039L9.9012 36.7441L9.8828 36.7552L9.86469 36.7667C9.73071 36.852 9.66018 36.8541 9.60629 36.8496C9.45742 36.8372 9.37597 36.7971 9.30891 36.745C9.17745 36.6427 9.07602 36.5189 8.99633 36.3519L7.41688 37.1055L8.99633 36.3519C8.99126 36.3413 8.98729 36.3302 8.98538 36.3078C8.98323 36.2825 8.98252 36.225 9.0051 36.126C9.00524 36.1254 9.00538 36.1248 9.00552 36.1242L11.5742 25.0906L11.8139 24.0608L11.0138 23.3696L2.44488 15.9664C2.29821 15.8316 2.27479 15.7481 2.26658 15.71C2.23825 15.5784 2.24669 15.4746 2.28807 15.3601C2.3508 15.1865 2.42499 15.093 2.49528 15.0313C2.50401 15.0247 2.58788 14.9662 2.83266 14.9273L14.1107 13.939L15.1612 13.847L15.5706 12.8752L19.9508 2.4796L19.9535 2.47317C20.0109 2.33533 20.0636 2.2963 20.1115 2.26899C20.2854 2.16981 20.4075 2.14844 20.499 2.14844C20.5905 2.14844 20.7126 2.16981 20.8865 2.26899C20.9344 2.2963 20.9871 2.33533 21.0445 2.47317L21.0445 2.47318L21.0472 2.4796L25.4274 12.8752L25.8368 13.847L26.8873 13.939L38.1631 14.9271C38.4099 14.967 38.495 15.0257 38.5036 15.0321C38.5709 15.0912 38.6462 15.1847 38.7112 15.3635C38.7536 15.4801 38.7615 15.5834 38.7338 15.7123C38.7261 15.7478 38.7042 15.8295 38.5565 15.9636L29.9842 23.3696L29.1841 24.0608L29.4238 25.0906L31.9927 36.1254C31.9929 36.1259 31.993 36.1264 31.9931 36.127C32.0326 36.2991 32.0039 36.3485 32.0008 36.3538C32.0007 36.354 32.0006 36.3542 32.0006 36.3542C31.9209 36.5218 31.8207 36.6432 31.6929 36.742C31.6241 36.7952 31.5392 36.8368 31.3859 36.8501C31.3364 36.8544 31.2694 36.8538 31.1371 36.7692L31.1171 36.7564L31.0968 36.7441L21.402 30.9039Z" stroke="#FCEC72" stroke-width="3.5"/>
</svg>
