<svg width="25" height="24" viewBox="0 0 25 24" fill="none" xmlns="http://www.w3.org/2000/svg">
<path d="M5.38428 13.2729C5.38428 13.2729 5.44615 13.9911 5.74803 14.1242C6.05178 14.2573 6.3274 14.2367 6.47178 14.1148C6.61615 13.9929 6.83178 13.3592 6.83178 13.3592L6.1099 13.3123L5.38428 13.2729Z" fill="#FFF9ED"/>
<path d="M5.04881 11.771C5.02631 11.771 5.00194 11.7673 4.97944 11.7579C4.97569 11.756 4.50881 11.5835 3.95006 11.4973C3.41756 11.4148 2.96569 11.4241 2.96194 11.4241C2.85506 11.4298 2.75944 11.3398 2.75756 11.2291C2.75569 11.1185 2.84194 11.0266 2.95256 11.0248C2.97319 11.0248 3.44194 11.0154 4.01006 11.1016C4.61006 11.1935 5.09756 11.3754 5.11819 11.3829C5.22131 11.4223 5.27381 11.5366 5.23631 11.6416C5.20631 11.7204 5.12944 11.771 5.04881 11.771ZM2.85131 12.7779C2.78006 12.7779 2.71069 12.7385 2.67319 12.671C2.62069 12.5735 2.65819 12.4516 2.75569 12.3991C2.77631 12.3879 3.26569 12.1291 3.79631 12.0054C4.32131 11.8816 4.86694 11.8648 4.88944 11.8648C4.99819 11.861 5.09194 11.9491 5.09569 12.0598C5.09944 12.1704 5.01131 12.2623 4.90069 12.266C4.89506 12.266 4.37194 12.2829 3.88819 12.3954C3.40819 12.5079 2.94694 12.7516 2.94319 12.7535C2.91506 12.7704 2.88319 12.7779 2.85131 12.7779ZM3.27319 13.9066C3.23184 13.9064 3.19157 13.8935 3.15787 13.8695C3.12418 13.8455 3.09872 13.8117 3.08497 13.7727C3.07122 13.7337 3.06985 13.6915 3.08106 13.6517C3.09226 13.6119 3.11549 13.5765 3.14756 13.5504C3.16444 13.5373 3.55069 13.226 3.97444 12.9391C4.40006 12.6504 5.03381 12.311 5.06006 12.296C5.15756 12.2435 5.27944 12.281 5.33194 12.3785C5.38444 12.476 5.34694 12.5979 5.24944 12.6504C5.24381 12.6541 4.60631 12.9954 4.19944 13.271C3.9259 13.4585 3.65946 13.6561 3.40069 13.8635C3.36131 13.8935 3.31819 13.9066 3.27319 13.9066ZM11.5607 6.71415C11.5607 8.00227 10.7863 9.0429 9.48881 9.0429C8.19131 9.0429 6.94256 8.34165 6.90694 6.79665C6.87694 5.50852 7.60256 4.5279 8.96194 4.3704C10.5201 4.18852 11.5607 5.42602 11.5607 6.71415Z" fill="#E6C18E"/>
<path d="M15.2299 18.5305C15.2299 18.5305 14.0337 18.643 13.5818 18.8473C13.1299 19.0498 12.8374 19.4342 13.0174 19.6817C13.1974 19.9292 13.7843 19.6142 14.4856 19.5917C15.1849 19.5692 16.2012 19.6817 16.8106 19.5467C17.4199 19.4117 17.5999 18.8923 17.6918 18.6655C17.7818 18.4405 15.2299 18.5305 15.2299 18.5305ZM9.43619 18.5905L9.00681 18.7705C9.00681 18.7705 8.66369 18.8455 8.50244 19.1473C8.32244 19.4867 8.84931 19.5167 9.14181 19.5167C9.43431 19.5167 9.55619 19.4567 9.55619 19.4567C9.55619 19.4567 9.70619 19.6292 10.0456 19.6517C10.3849 19.6742 10.7899 19.6292 10.9943 19.4942C11.1968 19.3592 11.1743 18.9748 11.1743 18.9748L9.43619 18.5905Z" fill="#FFCBCA"/>
<path d="M9.52618 15.4312C9.52618 15.4312 9.00681 15.0468 9.00681 15.4762C9.00681 15.9056 9.30118 17.2368 9.30118 17.4618C9.30118 17.6868 8.95056 18.0318 8.88681 18.4031C8.82681 18.7574 8.96931 18.9674 9.41368 18.9824C9.84306 18.9974 10.1806 18.7949 10.1806 18.7949L10.9024 16.6049L9.52618 15.4312Z" fill="#E6C18E"/>
<path d="M10.0381 7.79252C10.0381 7.79252 10.2031 5.38502 12.4081 5.28002C14.3019 5.19002 15.365 6.77814 15.095 8.47127C14.825 10.1644 13.2444 10.4344 13.2444 10.4344C13.2444 10.4344 14.4631 10.4231 15.0838 10.4906C15.7494 10.5638 17.7144 10.8638 18.6163 12.3525C19.52 13.8431 19.6775 15.4444 19.1581 16.8C18.7063 17.9794 18.0294 18.3806 17.6675 18.5156C17.3056 18.6506 16.3138 18.8325 15.8844 18.8325C15.455 18.8325 14.5531 18.2456 14.5531 18.2456L12.4306 18.3581C12.4306 18.3581 11.6656 18.9488 11.4163 19.0613C11.1688 19.1738 10.0213 19.3256 9.58252 19.0425C9.33127 18.8813 9.60877 18.5606 9.69877 17.9963C9.78877 17.4319 9.82627 17.3194 9.81127 17.1C9.79627 16.8825 9.0669 16.2338 8.79502 15.4219C8.62815 14.9231 8.43315 14.1581 8.43315 14.1581L8.36565 13.7963L7.0119 13.4344C7.0119 13.4344 6.42502 13.6594 5.92815 13.5469C5.43127 13.4344 5.16127 13.05 5.0019 12.7125C4.8444 12.3731 4.80877 11.7206 4.83315 11.5069C4.86502 11.2388 5.49315 10.2769 6.4869 9.34877C7.2969 8.59314 8.08627 8.16752 8.85315 7.98752C9.62002 7.80752 10.0381 7.79252 10.0381 7.79252Z" fill="#FCDCAF"/>
<path d="M13.8013 6.70142C13.282 6.15955 12.1757 6.06955 11.4763 6.88142C10.8913 7.56017 10.9682 8.56142 11.4763 9.07142C12.0182 9.6133 13.2163 9.66392 13.8688 8.86892C14.3882 8.23705 14.2757 7.1983 13.8013 6.70142Z" fill="#FFCBCA"/>
<path d="M12.2806 18.0713C12.2806 18.0713 11.9075 18.4313 11.6338 18.6057C11.0544 18.9751 10.55 18.9451 10.565 19.1551C10.5706 19.2451 11.2569 19.2526 11.7763 18.9826C12.23 18.7463 12.4381 18.5457 12.4381 18.5457L14.7481 18.5232C14.7481 18.5232 15.38 18.9526 16.1619 18.9751C17.5606 19.0163 18.1175 18.4557 18.4344 18.1407C18.7513 17.8238 19.0888 17.1994 18.8188 17.3813C18.5488 17.5613 17.6131 18.3807 16.7113 18.4276C16.0213 18.4632 15.3575 18.3751 14.9 17.8032C14.6263 17.4601 14.5794 16.9313 14.7313 16.2451C14.9638 15.1988 15.8169 14.8144 16.2444 14.9138C17.0188 15.0938 17.0188 14.6119 16.2369 14.3419C15.3875 14.0476 14.4069 14.5819 14.0394 15.9751C13.7244 17.1694 14.2438 17.9813 14.2438 17.9813C14.2438 17.9813 12.5506 17.9813 12.2806 18.0713Z" fill="#E6C18E"/>
<path d="M9.0818 11.0588C8.96367 11.4001 8.57742 11.5651 8.29992 11.4657C8.02054 11.3663 7.91742 10.9876 8.0393 10.6463C8.16117 10.3051 8.48555 10.1101 8.76492 10.2113C9.0443 10.3107 9.24867 10.577 9.0818 11.0588Z" fill="#2A2A2A"/>
<path d="M4.87243 12.2642L5.36555 12.2624L5.98243 11.7055C5.98243 11.7055 5.66555 11.3736 5.39555 11.2836C5.12555 11.1936 4.95305 11.2199 4.95305 11.2199C4.95305 11.2199 4.7918 11.4355 4.77868 11.7355C4.76743 12.0017 4.87243 12.2642 4.87243 12.2642Z" fill="#FFCBCA"/>
<path d="M9.54879 13.5225C10.3832 13.4212 11.1744 13.0481 11.5194 12.5625C11.7725 12.2062 11.9863 11.8406 12.2113 11.9906C12.4363 12.1406 12.0875 12.6806 11.6619 13.0519C11.2513 13.41 10.4732 13.9294 9.50191 13.9481C8.66941 13.965 7.88004 13.9144 7.40941 13.7906C6.98004 13.6781 6.50566 13.4662 6.50566 13.4662C6.50566 13.4662 6.15879 13.6762 5.91879 13.5712C5.67879 13.4662 5.15191 13.2769 5.01504 12.8944C4.96629 12.7537 4.75816 12.3187 4.92504 12.2775C5.19504 12.21 5.18754 12.375 5.24191 12.5025C5.29441 12.63 5.37691 12.8944 5.49691 12.9844C5.61691 13.0744 5.93379 13.3462 6.11379 13.3462C6.29379 13.3462 7.13754 13.2112 7.13754 13.2112C7.13754 13.2112 8.53816 13.6462 9.54879 13.5225Z" fill="#E6C18E"/>
<path d="M6.07252 11.6757C5.92252 11.5782 5.77814 11.7357 5.59064 11.8782C5.40314 12.0207 5.22877 12.1182 5.09377 12.1257C4.95877 12.1332 4.70939 12.1332 4.73189 12.3432C4.75439 12.5532 4.97189 12.5307 5.13127 12.5157C5.28877 12.5007 5.63564 12.3732 5.79314 12.2457C5.95252 12.1201 6.31814 11.8351 6.07252 11.6757ZM5.13877 12.8495C4.98689 12.9788 5.10877 13.1195 5.30377 13.3163C5.52877 13.5413 5.87564 13.6745 6.13064 13.6857C6.47002 13.7007 6.85252 13.5807 7.17689 13.2638C7.48252 12.9657 7.16939 12.7145 6.89002 12.857C6.61064 12.9995 6.25064 13.2113 6.12314 13.2038C5.93564 13.1926 5.61877 12.9788 5.52127 12.917C5.42564 12.857 5.29064 12.722 5.13877 12.8495Z" fill="#434B55"/>
<circle cx="19.553" cy="15.5625" r="1.3125" fill="#FCDCAF"/>
</svg>
