<svg width="24" height="24" viewBox="0 0 24 24" fill="none" xmlns="http://www.w3.org/2000/svg">
<path d="M8.56683 16.9612L11.5762 18.7555C11.5762 18.7555 16.6706 20.6024 17.3306 20.5499C17.9906 20.4974 20.88 20.2462 20.9343 20.008C20.9943 19.7399 20.1825 18.7537 20.1825 18.7537C20.1825 18.7537 22.3725 17.5668 22.3462 17.2762C22.3068 16.828 21.5025 16.4324 21.5025 16.4324C21.5025 16.4324 23.0437 14.308 22.9668 14.1093C22.7812 13.6349 21.7125 13.648 21.7125 13.648C21.7125 13.648 23.2162 12.0318 23.1637 11.7599C23.0587 11.218 21 11.0212 21 11.0212C21 11.0212 22.0687 9.9918 21.885 9.60929C21.69 9.20429 19.1531 9.01492 19.1531 9.01492C19.1531 9.01492 20.1862 7.50554 20.0512 7.32554C19.6818 6.83804 16.515 7.08742 16.515 7.08742C16.515 7.08742 16.95 5.72804 16.7137 5.60992C16.5412 5.52367 14.0081 6.63929 14.0081 6.63929C14.0081 6.63929 13.9818 5.37179 13.5862 5.45054C13.1906 5.52929 11.1318 7.78679 11.1318 7.78679C11.1318 7.78679 10.1418 6.32242 9.95808 6.32242C9.77433 6.32242 8.5987 7.79992 8.5987 7.79992C8.5987 7.79992 7.91245 6.21555 7.56933 6.21555C7.2262 6.21555 6.11808 8.69617 6.11808 8.69617C6.11808 8.69617 4.9162 7.34992 4.73245 7.45492C4.54683 7.55992 4.31058 8.54992 4.25808 9.07867C4.20558 9.60742 4.1137 10.3855 4.1137 10.3855C4.1137 10.3855 3.14995 10.108 3.0187 10.003C2.88745 9.89804 2.39808 9.52867 2.21433 9.67305C2.0887 9.77242 2.45245 10.7549 2.71495 11.2574C3.05433 11.9024 3.79683 12.8155 3.79683 12.8155L8.56683 16.9612Z" fill="#6D4A37"/>
<path d="M8.24249 14.5762L5.67749 18.0168C5.67749 18.0168 5.54999 18.9712 5.42624 19.2187C5.30249 19.4643 4.24687 20.4899 4.70437 20.8237C5.16187 21.1574 6.26249 21.0524 6.62249 20.5781C7.02374 20.0493 7.50187 19.0462 7.50187 19.0462C7.50187 19.0462 8.69812 18.6243 9.03374 18.1143C9.36749 17.6043 9.47437 17.1281 9.47437 16.8993C9.47437 16.6706 9.54562 16.0556 9.52687 15.7912C9.50812 15.5268 9.26249 14.4712 9.26249 14.4712L8.24249 14.5762Z" fill="#F7BB86"/>
<path d="M3.36758 11.2069C3.36758 11.2069 4.92571 10.5732 5.92883 10.7588C6.93196 10.9444 8.64758 12.1313 9.49321 13.3725C10.3388 14.6138 11.1038 15.96 12.317 16.9088C13.532 17.8594 14.4807 18.7838 15.9338 19.3632C17.3851 19.9444 18.7576 19.7982 19.2338 19.7719C19.7101 19.7457 20.8182 19.785 20.8182 19.6538C20.8182 19.5225 19.9745 18.1219 19.9745 18.1219C19.9745 18.1219 22.1382 17.25 22.2188 17.0663C22.2995 16.8825 21.242 15.9582 21.242 15.9582C21.242 15.9582 22.8263 14.0307 22.7738 13.8994C22.7213 13.7682 21.137 13.2657 21.137 13.2657C21.137 13.2657 22.9313 11.8407 22.9313 11.55C22.9313 11.2594 20.8726 10.9688 20.7132 10.7063C20.5557 10.4419 21.7426 9.67692 21.7426 9.49129C21.7426 9.30567 18.6282 8.83129 18.5757 8.67379C18.5232 8.51629 19.8695 7.38004 19.7907 7.19629C19.712 7.01067 17.4938 6.87942 16.967 6.87942C16.4382 6.87942 15.8326 7.01067 15.6995 6.87942C15.5682 6.74817 16.5713 5.90254 16.7026 5.66442C16.8338 5.42629 15.5682 5.87629 14.882 6.06004C14.1957 6.24567 13.562 6.69379 13.4045 6.50817C13.247 6.32254 13.9051 5.47879 13.5901 5.45254C13.2732 5.42629 12.2438 6.21754 11.927 6.56067C11.6101 6.90379 11.0026 7.53754 11.0026 7.53754C11.0026 7.53754 10.3163 6.55129 10.2376 6.63942C10.1326 6.75754 9.49883 7.85442 9.31321 7.90692C9.12758 7.95942 7.99321 6.45567 7.86196 6.45567C7.73071 6.45567 6.48946 8.75254 6.48946 8.75254C6.48946 8.75254 5.27446 7.74942 5.09071 7.67067C4.92758 7.60129 4.59008 10.2582 4.59008 10.2582C4.59008 10.2582 3.74633 10.1794 3.37508 10.0463C3.00383 9.91317 2.26696 9.43879 2.21446 9.67692C2.16196 9.91504 2.55758 10.4682 2.79571 10.7325C3.03383 10.9969 3.36758 11.2069 3.36758 11.2069Z" fill="#865B52"/>
<path d="M7.95939 13.5564C7.95939 13.5564 7.17189 11.9851 5.51814 11.7751C3.86439 11.5651 2.99814 13.292 2.54064 13.5207C2.08314 13.7495 1.08002 13.6445 0.939393 14.4714C0.798768 15.2982 1.27314 16.232 2.20689 16.9182C3.13877 17.6045 4.23002 18.0976 5.97189 18.1145C7.71377 18.1314 8.65127 16.6689 8.80502 15.7032C8.87627 15.2626 8.87627 14.7357 8.87627 14.7357C8.87627 14.7357 10.125 14.402 10.5131 12.8889C10.8994 11.3757 9.45564 11.2764 8.75252 12.1145C8.11877 12.8701 7.95939 13.5564 7.95939 13.5564Z" fill="#FED3B4"/>
<path d="M10.5206 19.2714C10.5206 19.2714 7.08934 21.3301 7.41934 21.5026C7.74934 21.6751 8.00059 21.8457 8.80496 21.5026C9.60934 21.1595 11.0493 20.1564 11.0493 20.1564C11.0493 20.1564 12.0393 20.447 13.0031 20.4864C13.9668 20.5257 15.6825 20.6045 15.6825 20.6045L16.5131 19.5751L11.3793 18.4014L10.5206 19.2714Z" fill="#F6BA84"/>
<path d="M11.1543 17.0268C12.2493 17.2387 13.4774 17.6343 14.4149 18.0299C15.3524 18.4256 17.3755 19.3593 17.4112 20.2743C17.4374 20.9605 16.9368 21.3955 16.5524 21.5287C16.1137 21.6805 14.6512 21.8849 14.098 21.5943C13.543 21.3037 13.3987 20.8031 14.098 20.4337C14.7974 20.0643 15.7612 20.0905 15.6955 19.7474C15.6299 19.4043 14.3099 19.7999 13.1755 19.6949C12.1762 19.6012 10.8393 19.4962 10.8393 19.4962C10.8393 19.4962 9.97491 20.2855 9.44054 20.7637C8.81991 21.3187 8.28554 21.8437 7.49991 21.6074C6.83991 21.4087 6.60179 20.9999 6.87929 20.7355C7.15679 20.4712 7.52616 20.1937 7.63116 20.0624C7.73616 19.9312 7.89554 19.5749 7.89554 19.5749C7.89554 19.5749 7.69679 19.3631 7.53929 19.1662C7.38179 18.9674 7.31429 18.8099 7.31429 18.8099C7.31429 18.8099 8.30429 18.268 8.67366 17.8987C9.04304 17.5293 9.38616 16.8824 9.38616 16.8299C9.38616 16.7774 10.1005 16.8243 11.1543 17.0268Z" fill="#FFD1B7"/>
<path d="M5.75623 14.1376C5.77873 14.522 5.92873 14.942 6.44248 14.942C6.95811 14.942 7.03686 14.4676 6.99748 14.0438C6.95811 13.6201 6.74623 13.2526 6.35061 13.2657C5.95311 13.2788 5.72998 13.6876 5.75623 14.1376Z" fill="#000304"/>
<path d="M8.47504 13.9388C8.70566 14.2782 9.18754 14.0438 9.49129 13.7007C9.79504 13.3576 9.95441 12.9732 9.71629 12.7107C9.43879 12.407 8.97754 12.737 8.76566 12.9751C8.55379 13.2132 8.27629 13.6482 8.47504 13.9388Z" fill="#F27CB6"/>
<path d="M1.96885 15.4031C1.96885 15.4031 2.52385 14.9025 2.5501 14.6381C2.57635 14.3737 2.28572 14.19 1.7851 14.0569C1.28447 13.9256 0.926346 13.8712 0.873846 14.4262C0.821346 14.9812 1.20385 15.1912 1.20385 15.1912C1.20385 15.1912 1.11197 15.3487 1.04635 15.39C0.980721 15.4312 0.952596 15.5681 0.980721 15.6281C1.0726 15.8269 1.20572 15.7462 1.28447 15.72C1.36322 15.6937 1.4701 15.5756 1.4701 15.5756C1.4701 15.5756 1.72135 16.3931 2.31385 16.5919C2.9251 16.7962 3.4351 16.3537 3.56822 16.2225C3.69947 16.0912 3.63385 15.7069 3.26447 15.8794C2.94947 16.0256 2.98697 16.1962 2.52572 16.1175C2.06447 16.0387 1.96885 15.4031 1.96885 15.4031Z" fill="#4B4C4D"/>
<path d="M5.07367 20.0587C5.21617 20.1581 5.08305 20.49 5.00242 20.5594C4.92367 20.6306 4.73055 20.8931 4.52805 20.7525C4.32555 20.6119 4.47555 20.2856 4.5993 20.1712C4.72305 20.0569 4.89742 19.935 5.07367 20.0587ZM7.61617 20.64C7.79242 20.7694 7.7043 21.045 7.53742 21.1762C7.37055 21.3075 7.07805 21.54 6.8943 21.3431C6.68242 21.1144 7.07055 20.7975 7.15867 20.7281C7.2468 20.6569 7.4493 20.5162 7.61617 20.64ZM8.33055 20.9475C8.4918 21.0862 8.38492 21.2887 8.23305 21.4406C8.06617 21.6075 7.78492 21.7575 7.61805 21.6169C7.45117 21.4762 7.7418 21.1594 7.85617 21.0712C7.97055 20.9831 8.14492 20.7881 8.33055 20.9475ZM14.0043 20.8406C13.8712 20.9437 13.6087 21.21 13.8187 21.4031C14.0305 21.5962 14.3474 21.3244 14.443 21.2175C14.5405 21.1125 14.7074 20.9175 14.548 20.7431C14.3924 20.5687 14.1637 20.7187 14.0043 20.8406ZM14.4618 21.6769C14.5987 21.8306 14.8574 21.6862 15.0243 21.5194C15.103 21.4406 15.253 21.2119 15.0862 21.0619C14.9755 20.9625 14.7337 21.0356 14.5499 21.2194C14.3662 21.4031 14.3305 21.5287 14.4618 21.6769Z" fill="#F47DAD"/>
<path d="M6.94306 9.43881C6.66556 10.0988 7.36493 10.3894 7.64243 9.82131C7.91993 9.25318 8.18431 8.63256 8.32868 8.10568C8.44681 7.67818 8.12993 7.51131 7.85431 7.94818C7.57681 8.38318 7.13993 8.97006 6.94306 9.43881Z" fill="#9D6C5B"/>
<path d="M10.6519 8.90988C10.2901 9.20988 9.43131 10.1943 9.17443 10.5468C8.73943 11.1411 9.49131 11.6418 9.87381 11.1149C10.2563 10.5861 10.8638 9.55676 11.0626 9.25488C11.2594 8.94926 10.9688 8.64551 10.6519 8.90988Z" fill="#C5886F"/>
<path d="M11.3118 7.95934C11.0624 8.19746 11.338 8.72434 11.7993 8.38121C12.2605 8.03809 12.5118 7.82621 12.7499 7.57684C12.988 7.32559 12.8155 7.04809 12.4462 7.22059C12.0768 7.39309 11.5893 7.69684 11.3118 7.95934Z" fill="#6F4B3B"/>
<path d="M12.1051 9.03003C11.5501 9.47628 12.1838 10.1381 12.6732 9.74253C13.1607 9.3469 14.0719 8.4619 14.4151 8.10565C14.7582 7.7494 14.5482 7.35377 14.0457 7.68377C13.6219 7.9594 12.6451 8.59315 12.1051 9.03003Z" fill="#9D6C5B"/>
<path d="M11.6682 11.8275C11.1001 12.2756 11.6514 12.9806 12.2889 12.4481C12.9357 11.9062 13.847 11.1281 14.2689 10.6931C14.6401 10.3106 14.282 9.95435 13.7945 10.2975C13.367 10.5956 12.3732 11.2706 11.6682 11.8275Z" fill="#C5886F"/>
<path d="M15.9057 10.3482C15.2194 10.7307 15.6807 11.3251 16.2094 11.0345C16.6238 10.8076 17.9119 9.9657 18.0976 9.7932C18.2832 9.6207 18.1707 9.3132 17.8594 9.42383C17.4901 9.55695 16.3407 10.1063 15.9057 10.3482Z" fill="#9D6C5B"/>
<path d="M15.3244 8.60623C14.7825 9.01498 15.285 9.64873 15.7594 9.29248C16.1213 9.02248 17.1319 7.94623 17.2913 7.76061C17.4507 7.57498 17.3044 7.31248 17.0138 7.50936C16.7625 7.68186 15.7932 8.25373 15.3244 8.60623Z" fill="#6F4B3B"/>
<path d="M17.5293 11.1544C17.0868 11.4019 13.5787 13.3257 13.095 13.6482C12.4612 14.07 12.99 14.955 13.6106 14.5463C14.1187 14.2125 17.5875 11.835 17.8612 11.655C18.3206 11.3513 18.0693 10.8507 17.5293 11.1544ZM15.6281 14.8238C14.9418 15.1144 15.2981 15.84 15.8925 15.615C16.4868 15.39 18.3075 14.6382 18.7293 14.3869C19.1512 14.1357 18.9543 13.6875 18.5718 13.8188C18.1893 13.9519 16.3612 14.5125 15.6281 14.8238Z" fill="#C5886F"/>
<path d="M18.823 11.9982C18.3487 12.2757 18.7049 12.7501 19.1268 12.5664C19.4418 12.4295 19.9705 12.1576 20.1562 12.0245C20.3418 11.8932 20.2743 11.5089 19.8918 11.6289C19.6274 11.7114 19.1849 11.7882 18.823 11.9982Z" fill="#6F4B3B"/>
<path d="M17.2782 16.367C16.7532 16.4682 16.8863 17.2745 17.4357 17.1845C18.1745 17.0664 19.5301 16.6257 19.7851 16.5639C20.1151 16.4851 20.1938 15.9432 19.5338 16.0351C18.9413 16.1214 17.8988 16.2489 17.2782 16.367ZM18.3863 17.9382C17.8576 17.912 17.8313 18.6376 18.4388 18.6376C18.8476 18.6376 19.1251 18.6114 19.4026 18.5589C19.7438 18.4932 19.7588 18.0845 19.337 18.0301C19.0613 17.9964 18.7182 17.9551 18.3863 17.9382Z" fill="#C5886F"/>
<path d="M19.7719 14.428C19.3894 14.5855 19.5731 15.1143 19.9838 14.983C20.3194 14.8743 20.6569 14.7187 20.9475 14.5612C21.1894 14.4299 21.0788 14.0605 20.775 14.1262C20.4713 14.1899 20.0512 14.3118 19.7719 14.428Z" fill="#9D6C5B"/>
</svg>
