<svg width="31" height="25" viewBox="0 0 31 25" fill="none" xmlns="http://www.w3.org/2000/svg">
<path d="M22.5431 0.289999C22.6631 0.249999 22.9831 0.239999 23.5031 0.26C24.0431 0.26 24.4131 0.289999 24.6131 0.349999C24.8131 0.409999 25.1031 0.599999 25.4831 0.919999C25.8631 1.22 26.0531 1.42 26.0531 1.52C26.0531 1.6 26.1031 1.75 26.2031 1.97C26.3031 2.21 26.3631 2.54 26.3831 2.96C26.4231 3.4 26.5131 3.73 26.6531 3.95C26.8331 4.19 26.9531 4.46 27.0131 4.76C27.0731 5.06 27.1031 5.57 27.1031 6.29C27.1231 7.05 27.1731 7.56 27.2531 7.82C27.3331 8.08 27.5231 8.32 27.8231 8.54C27.9831 8.68 28.1331 8.89 28.2731 9.17C28.4131 9.45 28.5831 9.69 28.7831 9.89C28.9831 10.11 29.0831 10.25 29.0831 10.31C29.0831 10.37 29.2031 10.56 29.4431 10.88C29.6831 11.2 29.8031 11.5 29.8031 11.78C29.8031 12.06 29.8431 12.28 29.9231 12.44C30.0231 12.62 30.0731 13.21 30.0731 14.21C30.0731 15.21 30.0231 15.92 29.9231 16.34C29.8231 16.72 29.7631 17.05 29.7431 17.33C29.7431 17.59 29.6331 17.91 29.4131 18.29C29.2131 18.67 29.0631 19.02 28.9631 19.34C28.8831 19.66 28.7331 19.92 28.5131 20.12C28.2731 20.34 28.1031 20.56 28.0031 20.78C27.8631 21 27.7031 21.16 27.5231 21.26C27.3431 21.38 27.1131 21.55 26.8331 21.77C26.5131 21.99 26.0531 22.25 25.4531 22.55C24.8531 22.85 24.4631 23.07 24.2831 23.21C23.7431 23.67 23.2331 23.94 22.7531 24.02C22.3731 24.1 22.0231 24.23 21.7031 24.41C21.1631 24.73 20.4731 24.86 19.6331 24.8C19.1931 24.78 18.5831 24.77 17.8031 24.77C16.7431 24.77 15.7131 24.76 14.7131 24.74C14.4531 24.74 14.2331 24.75 14.0531 24.77C13.7131 24.79 13.2031 24.76 12.5231 24.68C11.8631 24.62 11.4631 24.55 11.3231 24.47C11.1031 24.37 10.8231 24.29 10.4831 24.23C10.1631 24.17 9.90309 24.1 9.70309 24.02C9.50309 23.94 9.18309 23.9 8.74309 23.9C8.32309 23.9 7.99309 23.83 7.75309 23.69C7.55309 23.55 7.30309 23.43 7.00309 23.33C6.80309 23.27 6.47309 23.11 6.01309 22.85C5.57309 22.59 5.29309 22.4 5.17309 22.28C4.87309 21.92 4.45309 21.61 3.91309 21.35C3.67309 21.23 3.55309 21.15 3.55309 21.11C3.55309 21.05 3.36309 20.82 2.98309 20.42C2.34309 19.72 1.89309 19.11 1.63309 18.59C1.37309 18.05 1.18309 17.32 1.06309 16.4C0.963086 15.68 0.913086 14.96 0.913086 14.24C0.913086 13.5 0.963086 13.04 1.06309 12.86C1.14309 12.7 1.21309 12.4 1.27309 11.96C1.33309 11.52 1.41309 11.25 1.51309 11.15C1.61309 11.05 1.73309 10.84 1.87309 10.52C1.99309 10.2 2.11309 9.98 2.23309 9.86C2.37309 9.72 2.48309 9.53 2.56309 9.29C2.64309 9.07 2.82309 8.81 3.10309 8.51C3.64309 7.99 3.96309 7.65 4.06309 7.49C4.18309 7.33 4.24309 7.16 4.24309 6.98C4.24309 6.68 4.38309 6.05 4.66309 5.09C4.96309 4.11 5.19309 3.51 5.35309 3.29C5.43309 3.15 5.49309 2.98 5.53309 2.78C5.57309 2.6 5.66309 2.43 5.80309 2.27C5.94309 2.13 6.08309 1.93 6.22309 1.67C6.36309 1.39 6.52309 1.21 6.70309 1.13C6.90309 1.03 7.37309 0.909999 8.11309 0.769999C8.35309 0.729999 8.62309 0.649999 8.92309 0.529998C9.20309 0.409999 9.42309 0.389999 9.58309 0.469999C9.76309 0.529999 9.97309 0.6 10.2131 0.68C10.3731 0.719999 10.5331 0.829999 10.6931 1.01C10.8731 1.19 10.9631 1.34 10.9631 1.46C10.9631 1.5 11.0431 1.6 11.2031 1.76C11.3631 1.94 11.4531 2.1 11.4731 2.24C11.5531 2.66 11.6931 3.18 11.8931 3.8C12.1131 4.42 12.2631 4.78 12.3431 4.88C12.5231 5.06 12.7931 5.17 13.1531 5.21C13.5131 5.23 13.8131 5.18 14.0531 5.06C14.1531 5 14.4131 4.96 14.8331 4.94C15.1931 4.94 15.4931 4.93 15.7331 4.91C15.9131 4.89 16.3231 4.93 16.9631 5.03C17.6031 5.13 18.0331 5.21 18.2531 5.27C18.5131 5.35 18.7031 5.37 18.8231 5.33C18.9431 5.31 19.1231 5.14 19.3631 4.82C19.6231 4.48 19.7831 4.2 19.8431 3.98C19.9831 3.46 20.2031 3.04 20.5031 2.72C20.6031 2.6 20.6731 2.47 20.7131 2.33C20.7531 2.15 20.8631 1.9 21.0431 1.58C21.2231 1.24 21.3631 1.04 21.4631 0.98C22.0231 0.579999 22.3831 0.349999 22.5431 0.289999ZM9.19309 3.23C9.03309 3.05 8.86309 2.97 8.68309 2.99C8.50309 2.99 8.26309 3.09 7.96309 3.29C7.74309 3.45 7.59309 3.64 7.51309 3.86C7.43309 4.08 7.31309 4.3 7.15309 4.52C6.99309 4.76 6.91309 4.97 6.91309 5.15C6.91309 5.69 6.80309 6.41 6.58309 7.31C6.54309 7.53 6.44309 7.78 6.28309 8.06C6.14309 8.34 6.01309 8.53 5.89309 8.63C5.79309 8.71 5.70309 8.89 5.62309 9.17C5.54309 9.45 5.36309 9.74 5.08309 10.04C4.28309 10.88 3.82309 11.38 3.70309 11.54C3.60309 11.68 3.55309 11.85 3.55309 12.05C3.55309 12.27 3.50309 12.5 3.40309 12.74C3.32309 12.98 3.30309 13.22 3.34309 13.46C3.38309 13.7 3.37309 13.98 3.31309 14.3C3.25309 14.62 3.24309 15.12 3.28309 15.8C3.34309 16.46 3.43309 16.92 3.55309 17.18C3.65309 17.42 3.71309 17.64 3.73309 17.84C3.77309 18.04 3.85309 18.18 3.97309 18.26C4.13309 18.4 4.44309 18.73 4.90309 19.25C5.16309 19.55 5.46309 19.75 5.80309 19.85C6.34309 20.01 6.93309 20.38 7.57309 20.96C7.99309 21.34 8.57309 21.64 9.31309 21.86C10.0731 22.1 10.8431 22.2 11.6231 22.16C11.9231 22.16 12.3231 22.18 12.8231 22.22C13.3231 22.28 13.6431 22.34 13.7831 22.4C14.3231 22.62 14.7031 22.68 14.9231 22.58C15.1231 22.52 15.4831 22.48 16.0031 22.46C16.5231 22.44 16.8931 22.47 17.1131 22.55C17.3331 22.61 17.6831 22.63 18.1631 22.61C18.6631 22.59 18.9531 22.54 19.0331 22.46C19.1731 22.28 19.0531 22.08 18.6731 21.86C18.4331 21.74 18.2531 21.6 18.1331 21.44C17.6731 20.8 17.3131 20.35 17.0531 20.09C16.7931 19.83 16.6631 19.64 16.6631 19.52C16.6631 19.4 16.6131 19.26 16.5131 19.1C16.4131 18.94 16.3431 18.8 16.3031 18.68C16.2831 18.56 16.2131 18.43 16.0931 18.29C15.9731 18.17 15.8531 18.01 15.7331 17.81C15.6531 17.63 15.5531 17.44 15.4331 17.24C15.3131 17.04 15.2531 16.79 15.2531 16.49C15.2531 16.19 15.2031 15.97 15.1031 15.83C15.0031 15.67 14.9531 15.52 14.9531 15.38C14.9531 15.24 14.9131 15.06 14.8331 14.84C14.7531 14.6 14.7031 13.98 14.6831 12.98C14.6431 11.28 14.6331 10.22 14.6531 9.8C14.6931 9.36 14.8031 8.97 14.9831 8.63C15.2231 8.17 15.2231 7.83 14.9831 7.61C14.7431 7.37 14.3231 7.3 13.7231 7.4C12.6031 7.64 11.7531 7.63 11.1731 7.37C10.6131 7.11 10.2631 6.6 10.1231 5.84C10.0631 5.42 9.97309 5.04 9.85309 4.7C9.71309 4.3 9.61309 4.01 9.55309 3.83C9.49309 3.61 9.37309 3.41 9.19309 3.23ZM20.8031 14.27C20.6831 14.17 20.6031 14.13 20.5631 14.15C20.2231 14.21 20.0031 14.31 19.9031 14.45C19.8231 14.57 19.8031 14.79 19.8431 15.11C19.8631 15.31 19.9231 15.45 20.0231 15.53C20.1231 15.59 20.3331 15.63 20.6531 15.65C21.0731 15.67 21.2831 15.53 21.2831 15.23C21.2831 15.07 21.2231 14.89 21.1031 14.69C21.0031 14.49 20.9031 14.35 20.8031 14.27ZM9.43309 13.67C9.83309 13.57 10.1831 13.66 10.4831 13.94C10.7831 14.22 10.9331 14.55 10.9331 14.93C10.9331 15.31 10.7931 15.65 10.5131 15.95C10.4131 16.05 10.1631 16.09 9.76309 16.07C9.38309 16.03 9.12309 15.95 8.98309 15.83C8.62309 15.57 8.50309 15.17 8.62309 14.63C8.74309 14.09 9.01309 13.77 9.43309 13.67Z" fill="#6EA8FE"/>
</svg>
