<svg width="15" height="15" viewBox="0 0 15 15" fill="none" xmlns="http://www.w3.org/2000/svg">
<path d="M6.92344 14.3372L6.74344 14.2153C5.84258 13.585 5.00547 12.8682 4.24406 12.075C2.90625 10.6734 1.40625 8.5725 1.40625 6.09281C1.40625 3.04219 3.88219 0 7.5 0C11.1178 0 13.5938 3.04219 13.5938 6.09375C13.5938 8.57344 12.0938 10.6744 10.7559 12.0741C9.99453 12.8672 9.15742 13.5841 8.25656 14.2144C8.18031 14.2675 8.12031 14.3081 8.07656 14.3363C7.88625 14.4628 7.69219 14.5828 7.5 14.7047C7.30781 14.5828 7.11375 14.4628 6.92344 14.3372ZM7.5 7.96875C7.99728 7.96875 8.47419 7.77121 8.82582 7.41958C9.17746 7.06794 9.375 6.59103 9.375 6.09375C9.375 5.59647 9.17746 5.11956 8.82582 4.76792C8.47419 4.41629 7.99728 4.21875 7.5 4.21875C7.00272 4.21875 6.52581 4.41629 6.17417 4.76792C5.82254 5.11956 5.625 5.59647 5.625 6.09375C5.625 6.59103 5.82254 7.06794 6.17417 7.41958C6.52581 7.77121 7.00272 7.96875 7.5 7.96875Z" fill="#737373"/>
</svg>
