<svg width="20" height="20" viewBox="0 0 20 20" fill="none" xmlns="http://www.w3.org/2000/svg">
<g clip-path="url(#clip0_4122_2612)">
<path d="M6 14.5C6 14.5 13 15.5 16 18.5H17C17.2652 18.5 17.5196 18.3946 17.7071 18.2071C17.8946 18.0196 18 17.7652 18 17.5V11.437C18.4298 11.3265 18.8106 11.0762 19.0825 10.7255C19.3544 10.3749 19.502 9.94374 19.502 9.5C19.502 9.05626 19.3544 8.62512 19.0825 8.27445C18.8106 7.92378 18.4298 7.6735 18 7.563V1.5C18 1.23478 17.8946 0.98043 17.7071 0.792893C17.5196 0.605357 17.2652 0.5 17 0.5H16C13 3.5 6 4.5 6 4.5H2C1.46957 4.5 0.960859 4.71071 0.585786 5.08579C0.210714 5.46086 0 5.96957 0 6.5V12.5C0 13.0304 0.210714 13.5391 0.585786 13.9142C0.960859 14.2893 1.46957 14.5 2 14.5H3L4 19.5H6V14.5ZM8 6.161C8.683 6.015 9.527 5.811 10.44 5.544C12.118 5.05 14.25 4.273 16 3.074V15.925C14.25 14.727 12.117 13.95 10.44 13.456C9.63455 13.2206 8.82066 13.0152 8 12.84V6.161ZM2 6.5H6V12.5H2V6.5Z" fill="#737373"/>
</g>
<defs>
<clipPath id="clip0_4122_2612">
<rect width="20" height="19" fill="white" transform="translate(0 0.5)"/>
</clipPath>
</defs>
</svg>
