<svg width="36" height="24" viewBox="0 0 36 24" fill="none" xmlns="http://www.w3.org/2000/svg">
<path d="M22.5 12C23.88 12 24.99 10.88 24.99 9.5C24.99 8.12 23.88 7 22.5 7C21.12 7 20 8.12 20 9.5C20 10.88 21.12 12 22.5 12ZM15 11C16.66 11 17.99 9.66 17.99 8C17.99 6.34 16.66 5 15 5C13.34 5 12 6.34 12 8C12 9.66 13.34 11 15 11ZM22.5 14C20.67 14 17 14.92 17 16.75V19H28V16.75C28 14.92 24.33 14 22.5 14ZM15 13C12.67 13 8 14.17 8 16.5V19H15V16.75C15 15.9 15.33 14.41 17.37 13.28C16.5 13.1 15.66 13 15 13Z" fill="#737373"/>
</svg>
