<svg width="20" height="20" viewBox="0 0 20 20" fill="none" xmlns="http://www.w3.org/2000/svg">
<path d="M14.6626 12.6828C14.6626 12.6828 15.4767 11.8687 16.3345 12.1109C17.1923 12.3531 17.7423 12.7922 17.8079 13.6953C17.8735 14.5984 17.6579 15.2734 16.972 15.7187C16.0923 16.2906 15.036 15.9172 15.036 15.9172L14.6626 12.6828Z" fill="#ECF0F2"/>
<path d="M9.40478 6.65632C9.40478 6.65632 10.0423 5.27038 9.99854 3.40007C9.95479 1.52975 9.53603 0.540692 8.59853 0.576629C7.57197 0.617254 7.25322 2.27194 7.27197 3.64225C7.29385 5.31413 7.90322 6.57507 7.90322 6.57507L9.40478 6.65632ZM7.29385 12.1469L5.7251 12.2782C5.7251 12.2782 5.77666 12.4391 5.76103 12.586C5.74697 12.7329 5.70947 13.0985 5.70947 13.0985L7.68916 14.6532L11.4579 12.5563L10.4454 11.8673L7.29385 12.1469Z" fill="#A8A8A8"/>
<path d="M3.04056 10.1486C3.00104 10.1485 2.96301 10.1335 2.93412 10.1065C2.90523 10.0796 2.88763 10.0427 2.88486 10.0033C2.88208 9.96386 2.89435 9.92485 2.91918 9.89412C2.94401 9.86338 2.97956 9.84319 3.01868 9.83762C3.03587 9.83449 3.44212 9.77824 3.88587 9.76262C4.37649 9.74699 4.50774 9.74231 4.93274 9.82356C5.01712 9.83918 5.07337 9.92199 5.05618 10.0064C5.03899 10.0907 4.95774 10.1454 4.87337 10.1298C4.48431 10.0548 4.37181 10.0579 3.89681 10.0736C3.47024 10.0876 3.06712 10.1454 3.06243 10.1454C3.05462 10.147 3.04837 10.1486 3.04056 10.1486ZM2.87962 11.2329C2.80931 11.2329 2.74524 11.1845 2.72806 11.1142C2.70774 11.0298 2.75931 10.9454 2.84368 10.9251C2.86556 10.9189 3.39368 10.7907 3.71868 10.7329C4.04212 10.6736 4.62649 10.6032 4.65149 10.6001C4.67186 10.5973 4.6926 10.5986 4.71245 10.6039C4.73231 10.6093 4.75089 10.6186 4.76707 10.6313C4.78326 10.6439 4.79673 10.6598 4.80667 10.6778C4.81661 10.6958 4.82282 10.7156 4.82493 10.7361C4.82761 10.7564 4.82621 10.7771 4.82079 10.7969C4.81538 10.8167 4.80607 10.8352 4.79341 10.8513C4.78075 10.8675 4.765 10.881 4.74707 10.8909C4.72913 10.9009 4.70939 10.9072 4.68899 10.9095C4.68274 10.9095 4.08899 10.9829 3.77493 11.0407C3.46087 11.0986 2.92337 11.2282 2.91868 11.2298C2.90306 11.2314 2.89212 11.2329 2.87962 11.2329Z" fill="#8E9395"/>
<path d="M12.6454 13.5546L7.1173 17.0312C7.1173 17.0312 5.97355 18.3218 6.2298 18.5937C6.36574 18.7375 6.90012 18.8656 7.36574 18.7625C8.03293 18.6156 8.61262 17.2 8.61262 17.2C8.61262 17.2 8.31887 19.2093 8.77355 19.2968C9.22824 19.3843 9.88762 19.275 10.1814 18.7328C10.4751 18.1906 10.5767 17.5296 10.8407 17.2515C11.1048 16.9734 11.3392 16.7671 11.3392 16.7671C11.3392 16.7671 11.4861 16.9437 11.5736 17.0609C11.6611 17.1781 11.8236 17.339 11.8236 17.339C11.8236 17.339 11.1376 17.764 10.9001 18.1015C10.6579 18.4468 10.7079 18.8546 11.0611 18.9968C11.5736 19.2015 13.7892 18.3078 13.7892 18.3078L13.3486 13.3953L12.6454 13.5546Z" fill="#A8A8A8"/>
<path d="M11.7953 10.2406C11.7953 10.2406 11.8688 9.71247 11.7657 9.2281C11.6625 8.74372 11.3703 8.18747 11.3703 8.18747C11.3703 8.18747 12.4563 7.77654 13.2328 7.07341C14.0953 6.29216 15.3735 4.82966 15.4907 3.62654C15.6078 2.42341 14.8891 1.33904 12.9969 2.48279C11.1047 3.62654 9.72815 6.45779 9.72815 6.45779C9.72815 6.45779 8.23284 5.82654 7.01566 6.48747C5.79847 7.14841 5.15315 8.84841 5.09378 8.9656C5.0344 9.08279 4.28128 9.42497 4.1844 10.4609C4.08909 11.4875 4.66253 12.0672 5.51878 12.2937C6.11565 12.4515 6.66253 12.3234 6.66253 12.3234C6.66253 12.3234 7.11722 12.8359 8.29066 12.8218C9.46409 12.8078 10.4313 12.1906 10.4313 12.1906C10.4313 12.1906 10.211 13.0265 9.15472 13.4812C8.36253 13.8218 7.39534 13.775 6.69065 13.4672C5.98597 13.1594 5.73753 12.8078 5.73753 12.8078C5.73753 12.8078 5.48753 13.9515 5.73753 14.6406C5.98753 15.3297 6.47034 16.2828 6.44065 17.0015C6.41097 17.7203 5.95003 18.2484 6.17659 18.5406C6.30315 18.7047 6.82503 18.8422 7.23284 18.4094C7.92191 17.6765 7.89534 16.8468 8.14222 16.8109C8.65472 16.7375 8.40628 18.2328 8.39222 18.5406C8.37815 18.8484 8.33441 19.2375 8.67034 19.289C9.38909 19.3984 9.50628 19.1281 9.81409 18.4094C10.1219 17.6906 10.086 17.3172 10.4 16.8843C10.6563 16.5328 11.0891 16.2984 11.0891 16.2984C11.0891 16.2984 11.0078 15.3234 11.3313 14.8094C11.6532 14.2969 12.2922 13.8922 12.761 14.0687C13.2297 14.2453 12.1969 14.3687 11.8594 15.1031C11.6125 15.6406 11.661 16.1953 12.0141 16.5765C12.3657 16.9578 12.7907 17.2797 12.7907 17.2797C12.7907 17.2797 11.1094 17.8859 10.9578 18.5047C10.8485 18.9515 11.0313 19.1578 12.0578 19.0547C13.0844 18.9515 14.3891 18.6 14.9032 17.9547C15.4157 17.3094 16.0719 15.1937 15.5266 13.65C15.086 12.4031 14.7719 11.8531 13.6422 11.0468C12.5141 10.2406 11.7953 10.2406 11.7953 10.2406Z" fill="#DFDFDF"/>
<path d="M10.9157 6.8687C10.6407 6.58432 11.1204 5.57807 12.2063 4.42026C13.2922 3.26245 14.0391 2.89526 14.4063 3.15932C14.7735 3.42339 14.2454 4.55307 13.2032 5.65307C12.3407 6.56245 11.3704 7.33745 10.9157 6.8687Z" fill="#FFB0B1"/>
<path d="M7.44678 6.80943C7.85303 6.89693 7.50147 7.49068 7.16085 8.06255C6.82022 8.63443 6.5671 8.9313 6.64366 9.2063C6.72022 9.4813 7.31397 10.0094 7.28116 10.636C7.24835 11.2626 6.72022 11.9782 5.73116 11.9001C4.7421 11.8219 4.34522 11.0641 4.51085 10.2391C4.6421 9.58599 5.31397 9.28287 5.48897 8.96255C5.66553 8.6438 5.95616 8.10787 6.25928 7.66412C6.68897 7.04068 7.03897 6.72193 7.44678 6.80943Z" fill="white"/>
<path d="M9.41262 9.24335C9.45267 8.83541 9.24286 8.48093 8.94399 8.45159C8.64512 8.42225 8.37038 8.72916 8.33033 9.1371C8.29028 9.54503 8.50009 9.89952 8.79896 9.92886C9.09783 9.9582 9.37258 9.65129 9.41262 9.24335Z" fill="#2F3030"/>
<path d="M5.40933 9.88122C5.40933 9.88122 5.89996 9.47809 6.09058 9.67653C6.28121 9.87497 5.51089 10.3515 5.51089 10.3515C5.51089 10.3515 5.43746 10.7109 5.65777 10.7468C5.87808 10.7828 5.90777 10.314 6.14839 10.439C6.39058 10.564 6.17027 11.1875 5.74527 11.1937C5.49214 11.1984 5.34214 11.0109 5.34214 11.0109C5.34214 11.0109 5.27496 11.15 5.04839 11.1281C4.67496 11.0922 4.49839 10.3343 4.77652 10.3437C4.99683 10.3515 4.86402 10.7031 5.07027 10.7031C5.30464 10.7031 5.20933 10.2859 5.20933 10.2859C5.20933 10.2859 4.69683 9.74997 4.92339 9.55934C5.15308 9.36872 5.40933 9.88122 5.40933 9.88122Z" fill="#2F3030"/>
<path d="M8.83271 10.8219C8.81396 10.8219 8.79678 10.8188 8.77803 10.8125C8.77178 10.8109 8.2124 10.6031 7.85303 10.525L7.00303 10.3422C6.91865 10.3234 6.86553 10.2406 6.88271 10.1563C6.8999 10.0719 6.98428 10.0188 7.06865 10.0359L7.91865 10.2188C8.2999 10.3016 8.8624 10.5094 8.88584 10.5188C8.96709 10.5484 9.00771 10.6391 8.97803 10.7203C8.96733 10.7502 8.9476 10.7761 8.92156 10.7943C8.89553 10.8125 8.86448 10.8221 8.83271 10.8219ZM8.65615 11.8641C8.62803 11.8641 8.5999 11.8563 8.57334 11.8406C8.56865 11.8375 8.0874 11.5391 7.64209 11.2953C7.36429 11.1435 7.07845 11.0068 6.78584 10.8859C6.76686 10.8782 6.74958 10.8669 6.73499 10.8525C6.7204 10.8381 6.70878 10.821 6.7008 10.8022C6.69282 10.7833 6.68864 10.7631 6.68848 10.7426C6.68833 10.7221 6.69221 10.7018 6.6999 10.6828C6.7076 10.6638 6.71895 10.6466 6.73333 10.632C6.7477 10.6174 6.7648 10.6058 6.78367 10.5978C6.80253 10.5898 6.82278 10.5856 6.84326 10.5855C6.86374 10.5853 6.88405 10.5892 6.90303 10.5969C6.92021 10.6031 7.33428 10.7719 7.79209 11.0234C8.24521 11.2719 8.73271 11.575 8.7374 11.5781C8.81084 11.6234 8.83272 11.7203 8.7874 11.7938C8.76084 11.8375 8.70928 11.8641 8.65615 11.8641Z" fill="#8E9395"/>
</svg>
