<svg width="20" height="18" viewBox="0 0 20 18" fill="none" xmlns="http://www.w3.org/2000/svg">
<path d="M4.50001 3.95829C4.50001 1.93246 6.14084 0.291626 8.16668 0.291626C10.1925 0.291626 11.8333 1.93246 11.8333 3.95829C11.8333 5.98413 10.1925 7.62496 8.16668 7.62496C6.14084 7.62496 4.50001 5.98413 4.50001 3.95829ZM10 13.3083C10 12.4283 10.4583 11.6033 11.1 11.0533V10.8333C11.1 10.4758 11.1642 10.1366 11.265 9.80663C10.3208 9.58663 9.27584 9.45829 8.16668 9.45829C4.11501 9.45829 0.833344 11.0991 0.833344 13.125V14.9583H10V13.3083ZM19.1667 13.4V16.6083C19.1667 17.1583 18.6167 17.7083 17.975 17.7083H12.9333C12.3833 17.7083 11.8333 17.1583 11.8333 16.5166V13.3083C11.8333 12.7583 12.3833 12.2083 12.9333 12.2083V10.8333C12.9333 9.54996 14.2167 8.54163 15.5 8.54163C16.7833 8.54163 18.0667 9.54996 18.0667 10.8333V12.2083C18.6167 12.2083 19.1667 12.7583 19.1667 13.4ZM16.875 10.8333C16.875 10.1 16.2333 9.64163 15.5 9.64163C14.7667 9.64163 14.125 10.1 14.125 10.8333V12.2083H16.875V10.8333Z" fill="#737373"/>
</svg>
