<svg width="18" height="18" viewBox="0 0 18 18" fill="none" xmlns="http://www.w3.org/2000/svg">
<path d="M8.56088 14.5232L4.41088 17.0232C4.22754 17.1399 4.03588 17.1899 3.83588 17.1732C3.63588 17.1566 3.46088 17.0899 3.31088 16.9732C3.16088 16.8566 3.04421 16.7109 2.96088 16.5362C2.87754 16.3616 2.86088 16.1656 2.91088 15.9482L4.01088 11.2232L0.335876 8.04824C0.169209 7.89824 0.0652091 7.72724 0.0238758 7.53524C-0.0174575 7.34324 -0.00512426 7.15591 0.0608757 6.97324C0.126876 6.79058 0.226876 6.64058 0.360876 6.52324C0.494876 6.40591 0.678209 6.33091 0.910876 6.29824L5.76088 5.87324L7.63588 1.42324C7.71921 1.22324 7.84854 1.07324 8.02388 0.973242C8.19921 0.873242 8.37821 0.823242 8.56088 0.823242C8.74354 0.823242 8.92254 0.873242 9.09788 0.973242C9.27321 1.07324 9.40254 1.22324 9.48588 1.42324L11.3609 5.87324L16.2109 6.29824C16.4442 6.33158 16.6275 6.40658 16.7609 6.52324C16.8942 6.63991 16.9942 6.78991 17.0609 6.97324C17.1275 7.15658 17.1402 7.34424 17.0989 7.53624C17.0575 7.72824 16.9532 7.89891 16.7859 8.04824L13.1109 11.2232L14.2109 15.9482C14.2609 16.1649 14.2442 16.3609 14.1609 16.5362C14.0775 16.7116 13.9609 16.8572 13.8109 16.9732C13.6609 17.0892 13.4859 17.1559 13.2859 17.1732C13.0859 17.1906 12.8942 17.1406 12.7109 17.0232L8.56088 14.5232Z" fill="#FCEC72"/>
</svg>
