<svg width="123" height="53" viewBox="0 0 123 53" fill="none" xmlns="http://www.w3.org/2000/svg">
<path d="M11.4695 10.48C11.8108 10.3947 12.7495 10.3733 14.2855 10.416C15.8642 10.4587 16.9095 10.544 17.4215 10.672C17.8908 10.8 18.3602 10.8 18.8295 10.672C19.7255 10.5013 20.4935 10.672 21.1335 11.184C21.5175 11.5253 21.8375 11.6533 22.0935 11.568C22.7762 11.3973 23.5442 12.016 24.3975 13.424C25.2508 14.832 25.5708 16.0053 25.3575 16.944C25.2295 17.3707 25.2295 17.776 25.3575 18.16C25.4855 18.672 25.5068 20.144 25.4215 22.576C25.3788 23.7707 25.1655 24.6667 24.7815 25.264C24.3975 25.8613 23.7362 26.288 22.7975 26.544C21.7308 26.8853 20.9202 27.1627 20.3655 27.376C19.5548 27.7173 17.7628 27.8667 14.9895 27.824C13.9228 27.7813 12.6215 27.888 11.0855 28.144C10.6162 28.2293 10.0402 28.3147 9.3575 28.4C8.7175 28.4853 8.37617 28.5493 8.3335 28.592C7.65083 28.6773 7.20283 29.232 6.9895 30.256C6.77617 31.2373 6.81883 32.304 7.1175 33.456C7.41617 34.5653 7.92817 35.312 8.6535 35.696C9.0375 35.8667 9.78417 35.952 10.8935 35.952C11.9602 35.952 12.7068 36.016 13.1335 36.144C13.5175 36.272 14.7122 36.272 16.7175 36.144C18.7228 36.016 20.1095 36.0373 20.8775 36.208C21.6455 36.3787 22.0722 36.4213 22.1575 36.336C22.4988 36.1227 22.9895 36.5067 23.6295 37.488C24.0135 38.128 24.2268 38.5973 24.2695 38.896C24.3122 39.152 24.1842 39.3867 23.8855 39.6C23.5868 39.7707 23.2028 40.0907 22.7335 40.56C22.4348 40.8587 22.2002 41.0293 22.0295 41.072C21.9015 41.1147 21.5602 41.1147 21.0055 41.072C20.3228 40.9867 19.8108 41.008 19.4695 41.136C19.1708 41.264 17.9335 41.328 15.7575 41.328C13.5815 41.328 12.4082 41.264 12.2375 41.136C12.0668 41.008 11.4908 40.9653 10.5095 41.008C9.4855 41.008 8.7815 40.9013 8.3975 40.688C8.0135 40.432 7.5015 40.304 6.8615 40.304C5.75217 40.304 5.04817 39.984 4.7495 39.344C4.6215 39.088 4.28017 38.7467 3.7255 38.32C3.17083 37.8933 2.78683 37.424 2.5735 36.912C2.23217 36.0587 1.91217 35.2907 1.6135 34.608C0.930833 32.944 0.9095 31.5147 1.5495 30.32C1.84817 29.68 2.10417 28.8907 2.3175 27.952C2.53083 27.0133 2.68017 26.4373 2.7655 26.224C2.8935 26.0107 3.25617 25.648 3.8535 25.136C4.83483 24.24 5.66683 23.728 6.3495 23.6C6.90417 23.5147 7.45883 23.3653 8.0135 23.152C8.61083 22.9387 9.20817 22.832 9.8055 22.832C10.3602 22.832 10.8722 22.7467 11.3415 22.576C11.8108 22.4053 13.0482 22.32 15.0535 22.32C17.0162 22.32 18.2108 22.2133 18.6375 22C19.0642 21.744 19.2775 21.04 19.2775 19.888C19.3202 19.4187 19.4055 19.056 19.5335 18.8C19.7895 18.3733 19.8535 17.84 19.7255 17.2C19.6402 16.56 19.4268 16.0907 19.0855 15.792C18.7442 15.536 17.9335 15.3653 16.6535 15.28C15.4162 15.152 14.4135 15.1733 13.6455 15.344C13.1335 15.472 12.5148 15.6 11.7895 15.728C11.1922 15.7707 10.6802 15.856 10.2535 15.984C9.69883 16.112 9.14417 16.112 8.5895 15.984C7.9495 15.8133 7.3735 15.8133 6.8615 15.984C5.02683 16.496 3.8535 16.1333 3.3415 14.896C2.74417 13.5307 2.97883 12.5493 4.0455 11.952C4.08817 11.9093 4.2375 11.824 4.4935 11.696C4.7495 11.568 4.9415 11.4613 5.0695 11.376C5.62417 11.0773 7.16017 10.864 9.6775 10.736C10.4882 10.6933 11.0855 10.608 11.4695 10.48ZM34.1895 11.44C34.6588 11.0133 35.2988 11.0133 36.1095 11.44C36.5788 11.696 36.9202 11.824 37.1335 11.824C37.4748 11.824 37.7308 12.1227 37.9015 12.72C38.0722 13.2747 38.2428 14.3627 38.4135 15.984C38.4562 16.5387 38.4135 17.8187 38.2855 19.824C38.2002 21.8293 38.1575 22.96 38.1575 23.216C38.1575 23.5573 38.1575 24.048 38.1575 24.688C38.1148 25.456 38.0935 26.3093 38.0935 27.248C38.0935 28.1867 38.0082 28.912 37.8375 29.424C37.6668 29.8933 37.6455 30.5547 37.7735 31.408C37.9015 32.2187 37.9442 32.944 37.9015 33.584C37.8162 34.1813 37.8375 34.6507 37.9655 34.992C38.0935 35.376 38.0935 36.3787 37.9655 38C37.8802 39.6213 37.7522 40.5813 37.5815 40.88C36.9415 41.776 36.3655 42.352 35.8535 42.608C35.3415 42.8213 34.7655 42.7787 34.1255 42.48C33.7415 42.2667 33.4642 42.0533 33.2935 41.84C33.1655 41.584 33.1015 41.2213 33.1015 40.752C33.1015 40.1973 32.9948 39.664 32.7815 39.152C32.5682 38.512 32.5042 37.9787 32.5895 37.552C32.6322 37.1253 32.5682 36.2293 32.3975 34.864C32.1842 33.4987 32.1628 32.6453 32.3335 32.304C32.6322 31.7493 32.6748 30.9813 32.4615 30C32.3335 29.5307 32.3762 29.0613 32.5895 28.592C32.8028 28.08 32.8668 27.3973 32.7815 26.544C32.6108 25.264 32.6108 23.792 32.7815 22.128C33.1655 18.8427 33.2935 16.4107 33.1655 14.832C33.1228 14.192 33.1868 13.5307 33.3575 12.848C33.5708 12.1653 33.8482 11.696 34.1895 11.44ZM52.731 1.2C53.499 1.072 54.4377 1.02933 55.547 1.072C57.083 1.11466 58.7683 1.15733 60.603 1.2C62.9923 1.24266 64.4003 1.30666 64.827 1.392C65.339 1.47733 65.9363 1.41333 66.619 1.2C67.259 1.02933 67.835 0.986664 68.347 1.072C68.8163 1.15733 69.371 1.2 70.011 1.2C70.523 1.2 70.8857 1.28533 71.099 1.456C71.3123 1.584 71.611 1.92533 71.995 2.48C72.3363 2.94933 72.5283 3.46133 72.571 4.016C72.6137 4.57067 72.4857 4.99733 72.187 5.296C71.291 6.192 68.3257 6.36267 63.291 5.808C60.6883 5.552 58.683 5.552 57.275 5.808C56.635 5.936 55.8457 5.95733 54.907 5.872C53.9683 5.78667 53.4137 5.808 53.243 5.936C53.0723 6.10666 52.091 6.08533 50.299 5.872C49.7443 5.78667 49.2963 5.808 48.955 5.936C48.4003 6.192 47.9737 6.14933 47.675 5.808C47.3763 5.46666 47.163 4.80533 47.035 3.824C46.9497 3.184 47.355 2.56533 48.251 1.968C49.1897 1.328 50.043 1.09333 50.811 1.264C51.2803 1.392 51.9203 1.37066 52.731 1.2ZM58.555 8.624C58.7683 8.496 60.0483 8.47467 62.395 8.56C64.7417 8.60266 66.299 8.70933 67.067 8.88C67.9203 9.05066 68.6883 9.30666 69.371 9.648C70.0963 9.98933 70.5017 10.288 70.587 10.544C70.715 11.184 70.3523 11.824 69.499 12.464C68.6457 13.0613 67.6643 13.4667 66.555 13.68C65.4457 13.8933 64.379 13.872 63.355 13.616C62.331 13.3173 59.9417 13.2747 56.187 13.488C55.931 13.488 55.5257 13.4453 54.971 13.36C54.1177 13.1467 53.4137 13.2747 52.859 13.744C52.347 14.2133 52.1123 14.896 52.155 15.792C52.1977 16.3893 52.6243 16.88 53.435 17.264C54.2883 17.648 55.1417 17.7333 55.995 17.52C56.4643 17.392 57.147 17.4133 58.043 17.584C58.8963 17.712 60.027 17.7547 61.435 17.712C62.9283 17.6267 64.9123 17.392 67.387 17.008C67.771 16.9653 68.1977 17.0293 68.667 17.2C69.1363 17.3707 69.563 17.4133 69.947 17.328C70.1603 17.2853 70.3097 17.3067 70.395 17.392C70.4803 17.4347 70.587 17.584 70.715 17.84C71.1417 18.8213 71.0563 19.7387 70.459 20.592C69.9043 21.4453 69.115 21.8507 68.091 21.808C67.4083 21.808 66.5763 21.9147 65.595 22.128C64.571 22.2987 63.3977 22.3413 62.075 22.256C60.7523 22.1707 59.7923 22.192 59.195 22.32C58.4697 22.4907 57.4457 22.4267 56.123 22.128C55.6537 22.0427 55.0777 22.0427 54.395 22.128C53.755 22.2133 53.0937 22.128 52.411 21.872C51.771 21.616 51.2377 21.5093 50.811 21.552C50.0003 21.68 49.0617 21.2747 47.995 20.336C46.971 19.3973 46.459 18.5227 46.459 17.712C46.459 17.2427 46.3737 16.7733 46.203 16.304C45.947 15.664 45.883 14.6613 46.011 13.296C46.1817 11.888 46.4377 10.9707 46.779 10.544C47.3763 9.776 48.1443 9.392 49.083 9.392C49.6377 9.43466 50.171 9.37066 50.683 9.2C51.5363 8.85867 53.563 8.73067 56.763 8.816C57.787 8.816 58.3843 8.752 58.555 8.624ZM61.755 25.52C62.395 25.5627 62.9497 25.52 63.419 25.392C63.931 25.264 64.4643 25.2213 65.019 25.264C66.0857 25.392 68.3257 25.3707 71.739 25.2C72.635 25.1573 73.1897 25.1573 73.403 25.2C73.6163 25.2 73.851 25.3067 74.107 25.52C74.4483 25.8613 74.811 25.9893 75.195 25.904C75.835 25.776 76.3257 26.2453 76.667 27.312C77.0083 28.336 76.9017 29.04 76.347 29.424C74.6403 30.5333 73.147 30.9173 71.867 30.576C71.3123 30.448 70.3523 30.384 68.987 30.384C67.6217 30.384 66.6403 30.448 66.043 30.576C65.5737 30.704 65.083 30.6827 64.571 30.512C64.1017 30.3413 62.7577 30.3413 60.539 30.512C58.3203 30.64 56.507 30.6827 55.099 30.64C53.7763 30.64 52.8377 30.6827 52.283 30.768C51.7283 30.9387 51.0883 30.9173 50.363 30.704C49.6803 30.448 48.763 30.32 47.611 30.32C46.6297 30.32 45.9683 30.256 45.627 30.128C45.3283 30 45.051 29.6587 44.795 29.104C44.3257 28.1653 44.3683 27.3973 44.923 26.8C45.5203 26.16 46.5443 25.7973 47.995 25.712C49.3177 25.6267 50.0217 25.6267 50.107 25.712C50.1923 25.7547 50.619 25.6907 51.387 25.52C52.7097 25.264 54.523 25.3493 56.827 25.776C58.1923 26.0747 59.3017 26.0533 60.155 25.712C60.5817 25.4987 61.115 25.4347 61.755 25.52ZM58.747 32.432C58.8323 32.304 59.9203 32.2827 62.011 32.368C64.1443 32.4533 65.3177 32.5387 65.531 32.624C65.8723 32.752 66.491 32.8587 67.387 32.944C69.8617 33.2 71.419 33.968 72.059 35.248C72.4003 35.888 72.571 36.4213 72.571 36.848C72.6137 37.232 72.5283 37.872 72.315 38.768C72.1017 39.6213 71.8883 40.1973 71.675 40.496C71.4617 40.7947 71.0563 41.072 70.459 41.328C69.9897 41.4987 69.499 41.6907 68.987 41.904C67.707 42.4587 66.0643 42.8213 64.059 42.992C62.1817 43.0773 60.539 43.376 59.131 43.888C58.3203 44.144 57.1897 44.208 55.739 44.08C55.1417 43.9947 54.7577 43.9733 54.587 44.016C54.459 44.016 54.2883 44.1227 54.075 44.336C53.7763 44.6347 53.5843 44.9973 53.499 45.424C53.4563 45.808 53.5417 46.1067 53.755 46.32C54.2243 46.7467 55.5683 47.0667 57.787 47.28C60.0057 47.4933 61.7337 47.472 62.971 47.216C63.867 47.0027 64.955 46.896 66.235 46.896C67.515 46.8107 68.3897 46.7253 68.859 46.64C69.2857 46.512 69.755 46.5333 70.267 46.704C70.7363 46.8747 71.1843 46.9387 71.611 46.896C71.995 46.8107 72.251 46.8533 72.379 47.024C72.5497 47.1947 72.7417 47.6853 72.955 48.496C73.1683 49.3067 73.211 49.8613 73.083 50.16C72.955 50.5013 72.507 50.8853 71.739 51.312C71.1843 51.6533 70.779 51.8453 70.523 51.888C70.267 51.9733 69.6697 52.0373 68.731 52.08C64.507 52.1653 62.331 52.2507 62.203 52.336C61.947 52.5067 61.435 52.6133 60.667 52.656C59.899 52.6987 59.3443 52.6773 59.003 52.592C58.4483 52.4213 57.723 52.336 56.827 52.336C55.9737 52.336 55.291 52.208 54.779 51.952C54.267 51.7387 53.7977 51.632 53.371 51.632C52.4323 51.632 51.707 51.3547 51.195 50.8C50.9817 50.544 50.619 50.288 50.107 50.032C49.3817 49.648 48.891 49.0293 48.635 48.176C48.507 47.7493 48.2937 47.3227 47.995 46.896C47.6537 46.384 47.483 45.616 47.483 44.592C47.483 43.5253 47.6537 42.7147 47.995 42.16C48.5497 41.2213 49.2323 40.6667 50.043 40.496C50.555 40.368 50.8963 40.2613 51.067 40.176C51.7923 39.5787 52.8377 39.2587 54.203 39.216C57.0617 39.1307 59.003 38.9387 60.027 38.64C60.539 38.4693 61.0937 38.4693 61.691 38.64C62.2883 38.768 62.6723 38.7893 62.843 38.704C62.843 38.704 62.9283 38.6613 63.099 38.576C63.2697 38.4907 63.3977 38.4267 63.483 38.384C63.7817 38.2133 64.123 38.128 64.507 38.128C64.891 38.128 65.2323 38.0213 65.531 37.808C65.8297 37.5947 65.979 37.3813 65.979 37.168C65.979 36.9973 65.6163 36.9547 64.891 37.04C64.123 37.0827 63.5043 37.0187 63.035 36.848C62.523 36.6773 61.7123 36.6987 60.603 36.912C59.7497 37.04 57.8297 37.104 54.843 37.104C51.8563 37.104 50.235 37.04 49.979 36.912C49.595 36.656 49.4457 36.08 49.531 35.184C49.6163 34.2453 49.8937 33.5627 50.363 33.136C50.619 32.88 50.9603 32.7307 51.387 32.688C51.8137 32.6453 53.1577 32.6027 55.419 32.56C57.595 32.4747 58.7043 32.432 58.747 32.432Z" fill="#6EA8FE"/>
<path d="M100.198 6.576C100.326 6.40533 101.563 6.46933 103.91 6.768C105.275 6.98133 106.128 7.51466 106.47 8.368C106.854 9.17867 106.598 9.94667 105.702 10.672C105.36 10.928 105.062 11.0987 104.806 11.184C104.55 11.2267 103.888 11.2693 102.822 11.312C99.9628 11.4827 98.5122 11.8667 98.4695 12.464C98.4695 12.72 98.6188 13.0613 98.9175 13.488C99.3868 14.0853 99.7068 14.8747 99.8775 15.856C100.048 16.8373 100.027 17.648 99.8135 18.288C99.6428 18.8 99.5575 19.6747 99.5575 20.912C99.5575 22.1493 99.6428 22.832 99.8135 22.96C100.027 23.1307 100.624 23.2373 101.606 23.28C103.056 23.3653 103.995 23.7067 104.422 24.304C104.891 24.9013 104.784 25.6693 104.102 26.608C103.718 27.12 103.334 27.4613 102.95 27.632C102.566 27.76 102.011 27.7813 101.286 27.696C99.5788 27.5253 97.9148 27.6533 96.2935 28.08C95.3122 28.336 94.6508 28.4853 94.3095 28.528C94.0108 28.5707 93.5415 28.5493 92.9015 28.464C91.4935 28.2933 90.5975 28.208 90.2135 28.208C89.8295 28.1653 89.4028 28.2293 88.9335 28.4C88.3362 28.5707 87.6108 28.6347 86.7575 28.592C84.5815 28.3787 83.3015 28.208 82.9175 28.08C82.5762 27.952 82.2562 27.5253 81.9575 26.8C81.7015 26.032 81.7015 25.3707 81.9575 24.816C82.2135 24.2187 82.6615 23.856 83.3015 23.728C83.9842 23.6 84.4962 23.216 84.8375 22.576C85.2215 21.936 85.3922 21.1253 85.3495 20.144C85.3495 18.2667 85.4988 16.368 85.7975 14.448C85.9682 13.552 85.8402 12.9547 85.4135 12.656C85.0295 12.3147 84.1975 12.144 82.9175 12.144C82.0642 12.144 81.5095 12.08 81.2535 11.952C81.0402 11.824 80.7842 11.4613 80.4855 10.864C79.8882 9.62667 79.9095 8.73067 80.5495 8.176C81.2322 7.57867 82.6188 7.25867 84.7095 7.216C86.5868 7.17333 87.8242 7.06666 88.4215 6.896C89.7015 6.55467 90.6188 6.55467 91.1735 6.896C91.4295 7.06666 91.8562 7.088 92.4535 6.96C93.0082 6.832 94.4162 6.74666 96.6775 6.704C98.8962 6.704 100.07 6.66133 100.198 6.576ZM94.6935 11.696C94.6082 11.6107 94.3522 11.5467 93.9255 11.504C93.5415 11.4187 93.2855 11.44 93.1575 11.568C93.1148 11.6107 92.7735 11.6747 92.1335 11.76C91.2802 11.888 90.7255 12.3787 90.4695 13.232C90.2562 14.0427 90.1495 15.9627 90.1495 18.992C90.1495 21.3813 90.2775 22.8107 90.5335 23.28C90.8322 23.7493 91.5575 23.8133 92.7095 23.472C93.7335 23.1307 94.3308 22.768 94.5015 22.384C94.6722 21.9573 94.7788 20.6987 94.8215 18.608C94.8642 16.2613 94.8855 15.0453 94.8855 14.96C94.9282 14.7893 94.9495 14.384 94.9495 13.744V12.464C94.9495 12.1653 94.8642 11.9093 94.6935 11.696ZM117.542 9.264C117.84 9.008 118.118 8.85866 118.374 8.816C118.672 8.77333 119.142 8.85867 119.782 9.072C120.379 9.24267 120.784 9.47733 120.998 9.776C121.211 10.0747 121.446 10.7573 121.702 11.824C122 13.1467 122.107 15.7707 122.022 19.696C121.936 23.5787 121.723 25.904 121.382 26.672C121.168 27.0987 120.678 27.3973 119.91 27.568C119.184 27.696 118.544 27.632 117.99 27.376C117.478 27.12 117.008 26.3947 116.582 25.2C116.198 23.9627 116.091 22.9173 116.262 22.064C116.39 21.296 116.475 19.696 116.518 17.264C116.603 14.832 116.582 13.1253 116.454 12.144C116.326 11.1627 116.688 10.2027 117.542 9.264ZM110.63 9.776C112.208 9.392 113.446 9.86133 114.342 11.184C115.238 12.5067 115.494 14.2133 115.11 16.304C114.683 18.3093 114.512 20.1013 114.597 21.68C114.726 23.5147 114.534 24.944 114.022 25.968C113.552 26.9493 112.827 27.44 111.846 27.44C111.59 27.44 111.312 27.312 111.014 27.056C110.715 26.8 110.566 26.5653 110.566 26.352C110.566 26.1387 110.438 25.84 110.182 25.456C109.968 25.1147 109.904 24.5173 109.99 23.664C110.075 22.2987 109.926 21.424 109.542 21.04C109.158 20.6133 108.304 20.4 106.982 20.4C106 20.4 105.296 20.3147 104.87 20.144C104.443 19.9733 104.123 19.632 103.91 19.12C103.568 18.48 103.462 17.9893 103.59 17.648C103.76 17.264 104.208 16.9013 104.934 16.56C105.446 16.304 105.894 16.048 106.278 15.792C106.662 15.5787 107.11 15.408 107.622 15.28C108.518 15.0667 109.094 14.7253 109.35 14.256C109.648 13.7867 109.755 12.9973 109.67 11.888C109.584 11.1627 109.606 10.6507 109.734 10.352C109.904 10.0533 110.203 9.86133 110.63 9.776ZM102.438 32.112C102.992 31.856 103.398 31.7707 103.654 31.856C103.952 31.9413 104.23 32.1973 104.486 32.624C104.656 32.9653 104.891 33.1787 105.19 33.264C105.872 33.52 106.064 34.2667 105.766 35.504C105.638 36.144 105.616 36.6133 105.702 36.912C105.787 37.168 106.064 37.4453 106.534 37.744C106.96 38.0427 107.302 38.2773 107.558 38.448C107.942 38.7467 108.71 39.1733 109.862 39.728C111.483 40.4533 112.635 40.9867 113.318 41.328C114.427 41.8827 115.088 42.16 115.302 42.16C115.942 42.16 116.411 42.672 116.71 43.696C117.051 44.6773 117.008 45.4027 116.582 45.872C115.515 47.024 114.256 47.28 112.806 46.64C112.294 46.4267 111.888 46.32 111.59 46.32C111.291 46.32 110.779 46.128 110.054 45.744C109.328 45.36 108.71 44.976 108.198 44.592C107.686 44.208 107.195 43.9093 106.726 43.696C106.342 43.5253 105.872 43.1413 105.318 42.544C104.763 41.9467 103.974 41.4773 102.95 41.136C101.883 40.7947 101.179 40.6453 100.838 40.688C100.496 40.7307 99.9842 41.0293 99.3015 41.584C98.7895 41.968 98.2348 42.3307 97.6375 42.672C96.9548 43.0987 96.2722 43.5893 95.5895 44.144C94.9495 44.656 94.3948 44.9547 93.9255 45.04C93.4562 45.1253 93.0082 45.296 92.5815 45.552C91.9415 46.0213 91.1522 46.064 90.2135 45.68C89.3175 45.2533 88.8695 44.6773 88.8695 43.952C88.8695 43.4827 89.1255 42.8853 89.6375 42.16C90.1922 41.392 90.7468 40.88 91.3015 40.624C91.7282 40.368 92.1548 40.0693 92.5815 39.728C93.0508 39.3013 93.8188 38.8747 94.8855 38.448C95.2695 38.32 95.8242 37.8933 96.5495 37.168C97.2748 36.4853 97.8722 36.0587 98.3415 35.888C98.6402 35.76 99.1522 35.3547 99.8775 34.672C100.646 33.9467 101.158 33.3707 101.414 32.944C101.627 32.6027 101.968 32.3253 102.438 32.112Z" fill="#AFA897"/>
</svg>
