<svg width="15" height="15" viewBox="0 0 15 15" fill="none" xmlns="http://www.w3.org/2000/svg">
<path d="M13.125 5.00008C13.4583 5.00008 13.75 5.12508 14 5.37508C14.25 5.62508 14.375 5.91674 14.375 6.25008V7.50008C14.375 7.57299 14.3671 7.65112 14.3512 7.73445C14.3354 7.81778 14.3121 7.89591 14.2812 7.96883L12.4062 12.3751C12.3125 12.5834 12.1562 12.7605 11.9375 12.9063C11.7188 13.0522 11.4896 13.1251 11.25 13.1251H6.25C5.90625 13.1251 5.61208 13.0028 5.3675 12.7582C5.12292 12.5136 5.00042 12.2192 5 11.8751V5.5157C5 5.34903 5.03396 5.19028 5.10188 5.03945C5.16979 4.88862 5.26083 4.7557 5.375 4.6407L8.76562 1.2657C8.92188 1.11987 9.10687 1.03133 9.32063 1.00008C9.53438 0.968825 9.74 1.00528 9.9375 1.10945C10.135 1.21362 10.2783 1.35945 10.3675 1.54695C10.4567 1.73445 10.4748 1.92716 10.4219 2.12508L9.71875 5.00008H13.125ZM2.5 13.1251C2.15625 13.1251 1.86208 13.0028 1.6175 12.7582C1.37292 12.5136 1.25042 12.2192 1.25 11.8751V6.25008C1.25 5.90633 1.3725 5.61216 1.6175 5.36758C1.8625 5.12299 2.15667 5.00049 2.5 5.00008C2.84333 4.99966 3.13771 5.12216 3.38313 5.36758C3.62854 5.61299 3.75083 5.90716 3.75 6.25008V11.8751C3.75 12.2188 3.62771 12.5132 3.38313 12.7582C3.13854 13.0032 2.84417 13.1255 2.5 13.1251Z" fill="#C76B6B"/>
</svg>
