<svg width="22" height="19" viewBox="0 0 22 19" fill="none" xmlns="http://www.w3.org/2000/svg">
<path d="M12.2989 1.14795L20.9329 16.1019C21.0646 16.33 21.1339 16.5886 21.1339 16.8519C21.1339 17.1152 21.0646 17.3739 20.9329 17.6019C20.8013 17.83 20.6119 18.0193 20.3839 18.151C20.1559 18.2826 19.8972 18.3519 19.6339 18.3519H2.36593C2.10263 18.3519 1.84397 18.2826 1.61594 18.151C1.38792 18.0193 1.19857 17.83 1.06692 17.6019C0.935271 17.3739 0.865965 17.1152 0.865967 16.8519C0.865968 16.5886 0.935278 16.33 1.06693 16.1019L9.70093 1.14795C10.2779 0.147949 11.7209 0.147949 12.2989 1.14795ZM10.9999 2.89795L3.23193 16.3519H18.7679L10.9999 2.89795ZM10.9999 12.9999C11.2651 12.9999 11.5195 13.1053 11.707 13.2928C11.8946 13.4804 11.9999 13.7347 11.9999 13.9999C11.9999 14.2652 11.8946 14.5195 11.707 14.7071C11.5195 14.8946 11.2651 14.9999 10.9999 14.9999C10.7347 14.9999 10.4804 14.8946 10.2928 14.7071C10.1053 14.5195 9.99993 14.2652 9.99993 13.9999C9.99993 13.7347 10.1053 13.4804 10.2928 13.2928C10.4804 13.1053 10.7347 12.9999 10.9999 12.9999ZM10.9999 5.99995C11.2651 5.99995 11.5195 6.10531 11.707 6.29284C11.8946 6.48038 11.9999 6.73473 11.9999 6.99995V10.9999C11.9999 11.2652 11.8946 11.5195 11.707 11.7071C11.5195 11.8946 11.2651 11.9999 10.9999 11.9999C10.7347 11.9999 10.4804 11.8946 10.2928 11.7071C10.1053 11.5195 9.99993 11.2652 9.99993 10.9999V6.99995C9.99993 6.73473 10.1053 6.48038 10.2928 6.29284C10.4804 6.10531 10.7347 5.99995 10.9999 5.99995Z" fill="#FCEC72"/>
</svg>
