<svg width="50" height="20" viewBox="0 0 50 20" fill="none" xmlns="http://www.w3.org/2000/svg">
<rect width="50" height="20" rx="10" fill="#98D298" fill-opacity="0.2"/>
<path d="M23.9746 6.08984V12.5352H23.0469V9.49805H21.2305V8.72656H23.0469V6.08984H23.9746ZM21.2891 6.74414C21.2793 9.0293 19.707 10.748 17.1973 11.5586L16.8066 10.8164C18.7549 10.1865 20.0781 8.99512 20.2734 7.51562H17.2559V6.74414H21.2891ZM24.1992 13.8926V14.6445H18.3398V11.8711H19.2773V13.8926H24.1992ZM32.1973 6.08008V8.28711H33.4668V9.03906H32.1973V11.2754H31.2695V6.08008H32.1973ZM29.7949 6.70508C29.7949 8.9707 28.2617 10.6016 25.6934 11.3438L25.3125 10.5918C27.3584 10.0107 28.623 8.87305 28.7891 7.45703H25.7031V6.70508H29.7949ZM29.4043 11.373C31.1719 11.373 32.2949 12.0273 32.2949 13.0918C32.2949 14.166 31.1719 14.8203 29.4043 14.8203C27.6465 14.8203 26.4941 14.166 26.5039 13.0918C26.4941 12.0273 27.6465 11.373 29.4043 11.373ZM29.4043 12.1055C28.1836 12.1055 27.4121 12.4766 27.4219 13.0918C27.4121 13.707 28.1836 14.0879 29.4043 14.0879C30.6152 14.0879 31.3867 13.707 31.3867 13.0918C31.3867 12.4766 30.6152 12.1055 29.4043 12.1055Z" fill="#98D298"/>
</svg>
