<?xml version="1.0" encoding="UTF-8"?>
<svg version="1.1" xmlns="http://www.w3.org/2000/svg" width="200" height="200">
<path d="M0 0 C10.13102515 7.32296926 16.36826191 17.21678355 19.25 29.3125 C20.59391506 41.78450647 19.59992583 53.7691155 11.8125 64 C9.55792524 67.0835692 9.55792524 67.0835692 9.5 70.796875 C10.26059016 73.09327221 11.13136347 75.17033368 12.25 77.3125 C13.42673198 79.66596396 13.41623866 81.1931033 13.4375 83.8125 C13.45167969 84.6065625 13.46585937 85.400625 13.48046875 86.21875 C13.25 88.3125 13.25 88.3125 11.25 90.3125 C8.5 90.47265625 8.5 90.47265625 5.25 90.375 C1.0939706 90.11451899 1.0939706 90.11451899 -2.75 91.3125 C-5.31787635 91.38190206 -7.86962318 91.30971807 -10.4375 91.25 C-12.77768893 91.15014219 -12.77768893 91.15014219 -14.75 92.3125 C-16.81979722 92.4098979 -18.89275719 92.44326859 -20.96484375 92.4453125 C-22.20814453 92.44660156 -23.45144531 92.44789063 -24.73242188 92.44921875 C-26.69018555 92.44341797 -26.69018555 92.44341797 -28.6875 92.4375 C-29.98880859 92.44136719 -31.29011719 92.44523437 -32.63085938 92.44921875 C-34.49774414 92.44728516 -34.49774414 92.44728516 -36.40234375 92.4453125 C-38.11925415 92.44362061 -38.11925415 92.44362061 -39.87084961 92.44189453 C-42.75 92.3125 -42.75 92.3125 -45.75 91.3125 C-48.61430864 91.01010965 -51.47919934 90.80484231 -54.3515625 90.59375 C-56.75 90.3125 -56.75 90.3125 -57.75 89.3125 C-58 86.4375 -58 86.4375 -57.75 83.3125 C-56.75 82.3125 -55.75 81.3125 -54.75 80.3125 C-53.9139933 77.48618882 -53.9139933 77.48618882 -54.75 74.3125 C-56.31287168 72.48016769 -58.03535841 70.91447685 -59.8046875 69.28125 C-68.09116215 60.89493831 -70.99270299 49.92916158 -71.1875 38.4375 C-71.07534091 25.42704567 -66.80038617 14.8026192 -57.87109375 5.31640625 C-42.1304917 -9.47021992 -18.20103677 -11.09367097 0 0 Z " fill="#F7E69D" transform="translate(126.75,61.6875)"/>
<path d="M0 0 C1.30565918 -0.00918457 1.30565918 -0.00918457 2.63769531 -0.01855469 C10.97689503 0.14309457 17.87034941 2.55999584 25.1875 6.5 C25.1875 7.49 25.1875 8.48 25.1875 9.5 C23.8675 9.17 22.5475 8.84 21.1875 8.5 C22.66497726 14.50840752 24.57992992 18.28296926 28.625 23 C34.48482949 29.8523739 37.68446044 35.5223428 37.5234375 44.65234375 C37.1875 46.5 37.1875 46.5 35.1875 48.5 C32.4375 48.66015625 32.4375 48.66015625 29.1875 48.5625 C25.0314706 48.30201899 25.0314706 48.30201899 21.1875 49.5 C18.61962365 49.56940206 16.06787682 49.49721807 13.5 49.4375 C11.15981107 49.33764219 11.15981107 49.33764219 9.1875 50.5 C7.11770278 50.5973979 5.04474281 50.63076859 2.97265625 50.6328125 C1.72935547 50.63410156 0.48605469 50.63539063 -0.79492188 50.63671875 C-2.75268555 50.63091797 -2.75268555 50.63091797 -4.75 50.625 C-6.05130859 50.62886719 -7.35261719 50.63273437 -8.69335938 50.63671875 C-9.93794922 50.63542969 -11.18253906 50.63414062 -12.46484375 50.6328125 C-14.18175415 50.63112061 -14.18175415 50.63112061 -15.93334961 50.62939453 C-18.8125 50.5 -18.8125 50.5 -21.8125 49.5 C-24.67680864 49.19760965 -27.54169934 48.99234231 -30.4140625 48.78125 C-32.8125 48.5 -32.8125 48.5 -33.8125 47.5 C-34.0625 44.625 -34.0625 44.625 -33.8125 41.5 C-32.8125 40.5 -31.8125 39.5 -30.8125 38.5 C-30.38172125 36.57806406 -29.95443951 34.65519062 -29.5546875 32.7265625 C-28.67501912 30.08755736 -27.34360988 28.42796182 -25.625 26.25 C-22.11723737 21.4002846 -22.56340259 17.56602654 -23.3828125 11.80859375 C-23.52460937 11.04675781 -23.66640625 10.28492187 -23.8125 9.5 C-24.4725 9.5 -25.1325 9.5 -25.8125 9.5 C-25.671875 7.671875 -25.671875 7.671875 -24.8125 5.5 C-17.20243869 0.83576887 -8.73283046 0.03400394 0 0 Z " fill="#93BB91" transform="translate(102.8125,103.5)"/>
<path d="M0 0 C0.87043945 -0.00612305 1.74087891 -0.01224609 2.63769531 -0.01855469 C10.97689503 0.14309457 17.87034941 2.55999584 25.1875 6.5 C25.1875 7.49 25.1875 8.48 25.1875 9.5 C24.548125 9.231875 23.90875 8.96375 23.25 8.6875 C22.239375 8.295625 21.22875 7.90375 20.1875 7.5 C19.5790625 7.24734375 18.970625 6.9946875 18.34375 6.734375 C7.35702527 2.55286036 -6.2731664 1.87181787 -17.23046875 6.52734375 C-19.10701596 7.48783513 -20.96183177 8.4905446 -22.8125 9.5 C-23.8025 9.5 -24.7925 9.5 -25.8125 9.5 C-25.671875 7.671875 -25.671875 7.671875 -24.8125 5.5 C-17.20243869 0.83576887 -8.73283046 0.03400394 0 0 Z " fill="#757674" transform="translate(102.8125,103.5)"/>
<path d="M0 0 C2.96175123 0.61277612 4.38058783 1.25372522 7 3 C9.48051222 2.73740217 9.48051222 2.73740217 12 2 C12.763125 1.814375 13.52625 1.62875 14.3125 1.4375 C14.869375 1.293125 15.42625 1.14875 16 1 C16 1.99 16 2.98 16 4 C14.68 4.33 13.36 4.66 12 5 C12 5.66 12 6.32 12 7 C14.97 7.99 17.94 8.98 21 10 C21.33 11.65 21.66 13.3 22 15 C19.29120665 16.35439668 16.99066732 16.06501451 14 16 C12 12.25 12 12.25 12 10 C9.7193293 8.78702351 9.7193293 8.78702351 7 8 C4.86644906 8.81669817 4.86644906 8.81669817 3 10 C2.01 10 1.02 10 0 10 C0 9.34 0 8.68 0 8 C2 6.375 2 6.375 4 5 C3.01 4.319375 3.01 4.319375 2 3.625 C1.34 3.08875 0.68 2.5525 0 2 C0 1.34 0 0.68 0 0 Z " fill="#7A7975" transform="translate(111,86)"/>
<path d="M0 0 C1.175625 0.5259375 1.175625 0.5259375 2.375 1.0625 C7.13169713 2.29268029 11.18890305 1.70359916 16 1 C16 1.66 16 2.32 16 3 C14.68 3.33 13.36 3.66 12 4 C12 4.66 12 5.32 12 6 C13.65 6.66 15.3 7.32 17 8 C17 8.66 17 9.32 17 10 C15.989375 9.649375 14.97875 9.29875 13.9375 8.9375 C10.07662622 7.8107552 6.94605414 8.19468283 3 9 C3.185625 9.804375 3.37125 10.60875 3.5625 11.4375 C3.706875 12.283125 3.85125 13.12875 4 14 C3 15 3 15 -0.5625 15.0625 C-1.696875 15.041875 -2.83125 15.02125 -4 15 C-4.625 13.125 -4.625 13.125 -5 11 C-4.34 10.34 -3.68 9.68 -3 9 C-2.01 9 -1.02 9 0 9 C0 8.34 0 7.68 0 7 C1.32 6.67 2.64 6.34 4 6 C4 5.34 4 4.68 4 4 C2.68 3.67 1.36 3.34 0 3 C0 2.01 0 1.02 0 0 Z " fill="#7A7975" transform="translate(72,87)"/>
<path d="M0 0 C0 1.32 0 2.64 0 4 C-2.70879335 5.35439668 -5.00933268 5.06501451 -8 5 C-8.66 3.68 -9.32 2.36 -10 1 C-6.21812119 -0.83691257 -4.05431692 -1.15837626 0 0 Z " fill="#70ACFB" transform="translate(133,97)"/>
<path d="M0 0 C3.625 0.375 3.625 0.375 7 1 C6.67 2.65 6.34 4.3 6 6 C3.69 6 1.38 6 -1 6 C-1.625 4.125 -1.625 4.125 -2 2 C-1.34 1.34 -0.68 0.68 0 0 Z " fill="#6FABFC" transform="translate(69,96)"/>
<path d="M0 0 C2.125 0.375 2.125 0.375 4 1 C4.33 2.65 4.66 4.3 5 6 C3.35 6.33 1.7 6.66 0 7 C-0.66 5.35 -1.32 3.7 -2 2 C-1.34 1.34 -0.68 0.68 0 0 Z " fill="#FCC24C" transform="translate(107,138)"/>
<path d="M0 0 C1.32 0 2.64 0 4 0 C5.125 3.75 5.125 3.75 4 6 C1.69 5.67 -0.62 5.34 -3 5 C-1.125 1.125 -1.125 1.125 0 0 Z " fill="#FAC24D" transform="translate(91,120)"/>
<path d="M0 0 C2.97 0.495 2.97 0.495 6 1 C5.34 2.65 4.68 4.3 4 6 C1.03 5.505 1.03 5.505 -2 5 C-1.34 3.35 -0.68 1.7 0 0 Z " fill="#FAB3BA" transform="translate(124,141)"/>
<path d="M0 0 C0.99 0.33 1.98 0.66 3 1 C2.67 2.32 2.34 3.64 2 5 C0.68 4.67 -0.64 4.34 -2 4 C-1.34 2.68 -0.68 1.36 0 0 Z " fill="#FAC24E" transform="translate(78,143)"/>
<path d="M0 0 C1.98 0.495 1.98 0.495 4 1 C3.67 2.32 3.34 3.64 3 5 C1.68 4.34 0.36 3.68 -1 3 C-0.67 2.01 -0.34 1.02 0 0 Z " fill="#FAB3BA" transform="translate(90,135)"/>
<path d="M0 0 C0.99 0.33 1.98 0.66 3 1 C2.67 2.32 2.34 3.64 2 5 C0.68 4.67 -0.64 4.34 -2 4 C-1.34 2.68 -0.68 1.36 0 0 Z " fill="#F3B3B7" transform="translate(106,113)"/>
</svg>
