<svg width="60" height="15" viewBox="0 0 60 15" fill="none" xmlns="http://www.w3.org/2000/svg">
<rect x="0.5" y="0.5" width="59" height="14" rx="7" fill="#EAEAEA"/>
<rect x="0.5" y="0.5" width="59" height="14" rx="7" stroke="url(#paint0_linear_5011_1812)"/>
<path d="M13.8984 3.92969V4.39844C13.8984 4.86328 13.8984 5.44141 13.7578 6.17969H14.6875V6.86719H8.23438V6.17969H12.8828C13.0078 5.53906 13.0273 5.03516 13.0312 4.61719H9.03125V3.92969H13.8984ZM13.8906 7.42969V9.34375H9.85156V9.94531H14.0703V10.625H8.98438V8.67969H13.0234V8.10938H8.97656V7.42969H13.8906ZM17.3906 5.00781C17.3906 5.67578 17.6758 6.47266 18.3672 6.95312C19.0508 6.48047 19.3359 5.69531 19.3359 5.00781V4.16406H20.2109V5.00781C20.2109 5.85938 20.625 6.73438 21.5859 7.13281L21.1172 7.78125C20.4492 7.49609 20.0117 6.96875 19.7734 6.32812C19.5234 6.99609 19.0742 7.57031 18.3594 7.875C17.6406 7.57031 17.1875 6.98438 16.9453 6.32031C16.6992 6.94922 16.2578 7.48828 15.6016 7.78125L15.1484 7.13281C16.0859 6.71875 16.5156 5.8125 16.5234 5.00781V4.16406H17.3906V5.00781ZM21.5859 9.07812V9.78906H15.1484V9.07812H21.5859ZM27.9609 3.63281V10.6953H27.0859V3.63281H27.9609ZM25.8516 4.38281C25.8516 6.48438 25.0391 8.27344 22.5625 9.44531L22.1094 8.75C23.957 7.87109 24.8164 6.67578 24.9688 5.07031H22.4688V4.38281H25.8516ZM34.4688 4.32031V8.94531H31.125V4.32031H34.4688ZM31.9766 5V8.25H33.6016V5H31.9766ZM36.4062 3.63281V6.34375H37.4922V7.07812H36.4062V10.6953H35.5391V3.63281H36.4062ZM41.4375 4.60156C41.4375 5.69531 42.5078 6.78906 43.9844 7.04688L43.5938 7.77344C42.4102 7.52344 41.4414 6.80859 40.9844 5.85938C40.5156 6.80078 39.5469 7.51953 38.3672 7.77344L37.9844 7.04688C39.4453 6.78125 40.5078 5.6875 40.5156 4.60156V4.07812H41.4375V4.60156ZM44.2422 9.07812V9.79688H37.7891V9.07812H44.2422ZM50.625 3.63281V10.7031H49.7656V6.89062H48.4375V6.1875H49.7656V3.63281H50.625ZM48.3281 4.24219V4.95312H45.8984V6.21875H48.0469V6.90625H45.8984V8.35938C46.9727 8.35547 47.7773 8.32031 48.6875 8.17188L48.7734 8.875C47.7422 9.03125 46.8438 9.07031 45.5781 9.07812H45.0234V4.24219H48.3281Z" fill="#262627"/>
<defs>
<linearGradient id="paint0_linear_5011_1812" x1="0" y1="7.5" x2="60" y2="7.5" gradientUnits="userSpaceOnUse">
<stop stop-color="#737373"/>
<stop offset="1" stop-color="#262627"/>
</linearGradient>
</defs>
</svg>
