<?xml version="1.0" encoding="UTF-8"?>
<svg version="1.1" xmlns="http://www.w3.org/2000/svg" width="200" height="200">
<path d="M0 0 C1.21317902 -0.01533279 1.21317902 -0.01533279 2.4508667 -0.03097534 C5.11745017 -0.05871506 7.78299665 -0.0568582 10.44970703 -0.05224609 C12.30909609 -0.06002352 14.16848161 -0.06869359 16.02786255 -0.07821655 C19.92331463 -0.09313001 23.81840416 -0.09256725 27.71386719 -0.08203125 C32.69646991 -0.07044853 37.67758406 -0.10428859 42.65994072 -0.1507206 C46.49997579 -0.18024318 50.33965441 -0.18193234 54.17978287 -0.17570114 C56.01614452 -0.17672539 57.8525267 -0.18716034 59.68877792 -0.20732498 C62.26224014 -0.23211556 64.83283078 -0.21844386 67.40625 -0.1953125 C68.15868988 -0.21059998 68.91112976 -0.22588745 69.68637085 -0.24163818 C74.95219223 -0.13747333 77.67887722 1.45928137 81.55478096 4.98223305 C82.83251953 6.54931641 82.83251953 6.54931641 83.27001953 9.42431641 C83.12564453 10.12556641 82.98126953 10.82681641 82.83251953 11.54931641 C83.78126953 11.81744141 84.73001953 12.08556641 85.70751953 12.36181641 C88.83251953 13.54931641 88.83251953 13.54931641 90.83251953 16.54931641 C91.26680086 20.18068033 91.15672527 23.83228357 91.14501953 27.48681641 C91.16113281 28.4890625 91.17724609 29.49130859 91.19384766 30.52392578 C91.19449219 31.49007812 91.19513672 32.45623047 91.19580078 33.45166016 C91.19878174 34.33329834 91.2017627 35.21493652 91.20483398 36.12329102 C90.75515741 39.05341309 89.8636385 40.41572222 87.83251953 42.54931641 C85.14501953 43.29931641 85.14501953 43.29931641 82.83251953 43.54931641 C82.73970703 44.87962891 82.73970703 44.87962891 82.64501953 46.23681641 C81.60371886 50.48211912 80.2569254 51.85360688 76.83251953 54.54931641 C73.88586238 55.04936031 71.51554328 55.24500714 68.57324219 55.2121582 C67.75470261 55.22252609 66.93616302 55.23289398 66.09281921 55.24357605 C63.39355974 55.27062537 60.6959278 55.26098807 57.99658203 55.24853516 C56.11477201 55.25444563 54.23296576 55.261693 52.35116577 55.2702179 C48.40855308 55.28209556 44.46650497 55.27539647 40.52392578 55.25610352 C35.480749 55.23324233 30.43925997 55.25996678 25.39624977 55.30116558 C21.50986355 55.32679194 17.62387836 55.32415015 13.7374382 55.31327248 C11.87876226 55.31178909 10.02005507 55.31943753 8.16145706 55.33652306 C5.55680616 55.35657669 2.95510292 55.33803685 0.35058594 55.30981445 C-0.41120468 55.32353088 -1.1729953 55.33724731 -1.95787048 55.35137939 C-7.27766112 55.23666743 -9.97550746 53.65607308 -13.83803749 50.03039265 C-16.92004367 46.5968598 -16.34692288 42.8011234 -16.37060547 38.43603516 C-16.37630554 37.62946976 -16.38200562 36.82290436 -16.38787842 35.99189758 C-16.39733242 34.28294183 -16.40386399 32.5739678 -16.40771484 30.86499023 C-16.41740367 28.25748599 -16.44841547 25.65077563 -16.47998047 23.04345703 C-16.48651232 21.38265442 -16.49176208 19.72184617 -16.49560547 18.06103516 C-16.51412567 16.89516121 -16.51412567 16.89516121 -16.53302002 15.70573425 C-16.50836558 9.67635947 -15.27086223 6.65546244 -11.06594849 2.44502258 C-7.36166235 0.0222813 -4.28327524 -0.02805452 0 0 Z " fill="#FEFEFE" transform="translate(62.16748046875,76.45068359375)"/>
<path d="M0 0 C1.21317902 -0.01533279 1.21317902 -0.01533279 2.4508667 -0.03097534 C5.11745017 -0.05871506 7.78299665 -0.0568582 10.44970703 -0.05224609 C12.30909609 -0.06002352 14.16848161 -0.06869359 16.02786255 -0.07821655 C19.92331463 -0.09313001 23.81840416 -0.09256725 27.71386719 -0.08203125 C32.69646991 -0.07044853 37.67758406 -0.10428859 42.65994072 -0.1507206 C46.49997579 -0.18024318 50.33965441 -0.18193234 54.17978287 -0.17570114 C56.01614452 -0.17672539 57.8525267 -0.18716034 59.68877792 -0.20732498 C62.26224014 -0.23211556 64.83283078 -0.21844386 67.40625 -0.1953125 C68.15868988 -0.21059998 68.91112976 -0.22588745 69.68637085 -0.24163818 C74.95219223 -0.13747333 77.67887722 1.45928137 81.55478096 4.98223305 C82.83251953 6.54931641 82.83251953 6.54931641 83.27001953 9.42431641 C83.12564453 10.12556641 82.98126953 10.82681641 82.83251953 11.54931641 C83.78126953 11.81744141 84.73001953 12.08556641 85.70751953 12.36181641 C88.83251953 13.54931641 88.83251953 13.54931641 90.83251953 16.54931641 C91.26680086 20.18068033 91.15672527 23.83228357 91.14501953 27.48681641 C91.16113281 28.4890625 91.17724609 29.49130859 91.19384766 30.52392578 C91.19449219 31.49007812 91.19513672 32.45623047 91.19580078 33.45166016 C91.19878174 34.33329834 91.2017627 35.21493652 91.20483398 36.12329102 C90.75515741 39.05341309 89.8636385 40.41572222 87.83251953 42.54931641 C85.14501953 43.29931641 85.14501953 43.29931641 82.83251953 43.54931641 C82.73970703 44.87962891 82.73970703 44.87962891 82.64501953 46.23681641 C81.60371886 50.48211912 80.2569254 51.85360688 76.83251953 54.54931641 C73.88586238 55.04936031 71.51554328 55.24500714 68.57324219 55.2121582 C67.75470261 55.22252609 66.93616302 55.23289398 66.09281921 55.24357605 C63.39355974 55.27062537 60.6959278 55.26098807 57.99658203 55.24853516 C56.11477201 55.25444563 54.23296576 55.261693 52.35116577 55.2702179 C48.40855308 55.28209556 44.46650497 55.27539647 40.52392578 55.25610352 C35.480749 55.23324233 30.43925997 55.25996678 25.39624977 55.30116558 C21.50986355 55.32679194 17.62387836 55.32415015 13.7374382 55.31327248 C11.87876226 55.31178909 10.02005507 55.31943753 8.16145706 55.33652306 C5.55680616 55.35657669 2.95510292 55.33803685 0.35058594 55.30981445 C-0.41120468 55.32353088 -1.1729953 55.33724731 -1.95787048 55.35137939 C-7.27766112 55.23666743 -9.97550746 53.65607308 -13.83803749 50.03039265 C-16.92004367 46.5968598 -16.34692288 42.8011234 -16.37060547 38.43603516 C-16.37630554 37.62946976 -16.38200562 36.82290436 -16.38787842 35.99189758 C-16.39733242 34.28294183 -16.40386399 32.5739678 -16.40771484 30.86499023 C-16.41740367 28.25748599 -16.44841547 25.65077563 -16.47998047 23.04345703 C-16.48651232 21.38265442 -16.49176208 19.72184617 -16.49560547 18.06103516 C-16.51412567 16.89516121 -16.51412567 16.89516121 -16.53302002 15.70573425 C-16.50836558 9.67635947 -15.27086223 6.65546244 -11.06594849 2.44502258 C-7.36166235 0.0222813 -4.28327524 -0.02805452 0 0 Z M-10.13000488 7.36317444 C-12.53627167 11.1260208 -12.89478428 14.02591627 -12.83154297 18.36181641 C-12.8363266 19.09376221 -12.84111023 19.82570801 -12.84603882 20.57983398 C-12.84942461 22.11948815 -12.84031465 23.65921551 -12.81933594 25.19873047 C-12.79254351 27.54379882 -12.81912037 29.88408285 -12.85107422 32.22900391 C-12.84776988 33.73161854 -12.84136312 35.23423023 -12.83154297 36.73681641 C-12.84166412 37.43073486 -12.85178528 38.12465332 -12.86221313 38.83959961 C-12.75654156 43.27064834 -11.67788316 45.97530961 -8.74570465 49.29516411 C-5.89791337 51.55819113 -2.68968881 51.35768153 0.7722168 51.27807617 C1.55656097 51.28377121 2.34090515 51.28946625 3.14901733 51.29533386 C5.73324518 51.30641921 8.3149242 51.27441279 10.89892578 51.24072266 C12.69823408 51.23714467 14.49754805 51.23578832 16.29685974 51.23655701 C20.06390575 51.23186923 23.83009367 51.20705506 27.59692383 51.16674805 C32.42478005 51.11574096 37.25169503 51.10430639 42.07978916 51.1065836 C45.79360434 51.10576779 49.50721386 51.08931386 53.22096062 51.06757927 C55.00114321 51.05803568 56.78134908 51.05212088 58.56155586 51.04989815 C61.04884658 51.04339124 63.53514047 51.01712842 66.0222168 50.98510742 C67.12497704 50.98714676 67.12497704 50.98714676 68.25001526 50.98922729 C72.36931567 50.9116975 74.89526317 50.54244955 77.83251953 47.54931641 C78.69603664 45.54789357 79.19551225 43.59662867 79.73095703 41.48681641 C81.38840381 38.57159087 83.8329836 37.84291681 86.83251953 36.54931641 C86.85941402 33.59092285 86.87930694 30.63277214 86.89501953 27.67431641 C86.90758789 26.41167969 86.90758789 26.41167969 86.92041016 25.12353516 C86.92524414 23.91503906 86.92524414 23.91503906 86.93017578 22.68212891 C86.93803101 21.56668701 86.93803101 21.56668701 86.94604492 20.42871094 C86.95038589 18.45799073 86.95038589 18.45799073 85.83251953 16.54931641 C84.86314453 16.32244141 83.89376953 16.09556641 82.89501953 15.86181641 C81.88439453 15.42869141 80.87376953 14.99556641 79.83251953 14.54931641 C78.64501953 11.11181641 78.64501953 11.11181641 77.83251953 7.54931641 C76.83835423 5.71075667 76.83835423 5.71075667 74.83251953 4.54931641 C72.16056801 4.23775425 69.71845816 4.108665 67.04394531 4.11352539 C66.25174591 4.10344955 65.45954651 4.09337372 64.64334106 4.08299255 C62.02136163 4.05446797 59.39995702 4.04863369 56.77783203 4.04541016 C54.95563519 4.03577166 53.1334407 4.02567938 51.31124878 4.01515198 C47.48967101 3.99717902 43.66829675 3.99163209 39.84667969 3.9934082 C34.95130026 3.99371301 30.05722693 3.95276716 25.16215706 3.90109158 C21.39771542 3.86772094 17.63358915 3.86165083 13.86901474 3.86323738 C12.06447728 3.85969816 10.25993158 3.84643318 8.4555397 3.82324028 C5.92939334 3.79381215 3.40607558 3.80247609 0.87988281 3.82055664 C0.13581177 3.80369812 -0.60825928 3.7868396 -1.37487793 3.76947021 C-5.33961969 3.84151397 -7.54262028 4.43402093 -10.13000488 7.36317444 Z " fill="#737373" transform="translate(62.16748046875,76.45068359375)"/>
<path d="M0 0 C0.77085938 0.04898438 1.54171875 0.09796875 2.3359375 0.1484375 C3.49996094 0.19871094 3.49996094 0.19871094 4.6875 0.25 C6.7109375 0.5234375 6.7109375 0.5234375 8.7109375 1.5234375 C8.7109375 13.4034375 8.7109375 25.2834375 8.7109375 37.5234375 C5.64663974 39.05558638 3.0943733 38.75282298 -0.2890625 38.5234375 C-4.8890625 36.3234375 -4.8890625 36.3234375 -6.2890625 33.5234375 C-6.5885196 28.92501559 -6.56719888 24.31795333 -6.6015625 19.7109375 C-6.63056641 18.42638672 -6.65957031 17.14183594 -6.68945312 15.81835938 C-6.69783203 14.58021484 -6.70621094 13.34207031 -6.71484375 12.06640625 C-6.72942627 10.93227295 -6.74400879 9.79813965 -6.7590332 8.62963867 C-6.11856099 4.39653325 -4.38797601 1.00339383 0 0 Z " fill="#C76B6B" transform="translate(60.2890625,84.4765625)"/>
</svg>
