<?xml version="1.0" encoding="UTF-8"?>
<svg version="1.1" xmlns="http://www.w3.org/2000/svg" width="200" height="200">
<path d="M0 0 C10.13102515 7.32296926 16.36826191 17.21678355 19.25 29.3125 C20.66557151 42.4495036 19.11180027 55.13994749 11.19921875 66.08203125 C2.99134424 75.4742083 -6.33605003 81.27773226 -18.75 83.3125 C-32.98398905 84.22628695 -45.37205453 81.65645729 -56.78515625 72.71875 C-66.0295189 64.10422304 -70.61885245 52.99827331 -71.15258789 40.49707031 C-71.38576287 26.7413774 -67.37350645 15.41148503 -57.87109375 5.31640625 C-42.1304917 -9.47021992 -18.20103677 -11.09367097 0 0 Z " fill="#F7E49D" transform="translate(126.75,61.6875)"/>
<path d="M0 0 C0.69779945 13.10312309 -1.12683652 24.84654039 -10 35 C-19.93778937 44.82138774 -30.46842924 50.05826315 -44.625 50.25 C-56.98897478 50.1210743 -68.62059225 46.3156459 -77.8125 37.75 C-86.98158721 27.72337226 -90.46369332 16.66317356 -90.10546875 3.23828125 C-90.07066406 2.49964844 -90.03585938 1.76101562 -90 1 C-88.75 1.83333333 -87.5 2.66666667 -86.25 3.5 C-85.02603516 4.30630859 -85.02603516 4.30630859 -83.77734375 5.12890625 C-81.80788457 6.45572896 -79.86478056 7.82205546 -77.94140625 9.21484375 C-76.90886719 9.94832031 -75.87632813 10.68179688 -74.8125 11.4375 C-73.84957031 12.13746094 -72.88664062 12.83742188 -71.89453125 13.55859375 C-66.93057665 16.03052256 -62.78757445 13.96202911 -57.75 12.4375 C-48.56506705 10.08386093 -38.27419892 9.99441388 -28.953125 11.74609375 C-23.93650756 12.06830732 -21.28024025 10.72431506 -17 8.3125 C-15.66666667 7.60026042 -14.33333333 6.88802083 -13 6.17578125 C-12.34902344 5.8195166 -11.69804687 5.46325195 -11.02734375 5.09619141 C-1.60222717 0 -1.60222717 0 0 0 Z " fill="#FEFEFD" transform="translate(146,95)"/>
<path d="M0 0 C2.82671401 0.98719211 4.76204797 2.82170136 7.046875 4.71484375 C9.63020833 4.63151042 9.63020833 4.63151042 12.046875 3.71484375 C13.1915625 3.43640625 13.1915625 3.43640625 14.359375 3.15234375 C14.91625 3.00796875 15.473125 2.86359375 16.046875 2.71484375 C16.046875 3.70484375 16.046875 4.69484375 16.046875 5.71484375 C14.726875 6.04484375 13.406875 6.37484375 12.046875 6.71484375 C12.046875 7.37484375 12.046875 8.03484375 12.046875 8.71484375 C12.68496094 8.885 13.32304688 9.05515625 13.98046875 9.23046875 C14.80675781 9.4728125 15.63304687 9.71515625 16.484375 9.96484375 C17.30808594 10.196875 18.13179687 10.42890625 18.98046875 10.66796875 C21.046875 11.71484375 21.046875 11.71484375 21.95703125 13.69921875 C21.98667969 14.364375 22.01632813 15.02953125 22.046875 15.71484375 C20.046875 17.71484375 20.046875 17.71484375 16.921875 17.83984375 C15.973125 17.79859375 15.024375 17.75734375 14.046875 17.71484375 C12.046875 13.96484375 12.046875 13.96484375 12.046875 11.71484375 C10.02201511 10.13299897 10.02201511 10.13299897 7.046875 9.71484375 C5.44898578 10.94376262 5.44898578 10.94376262 3.796875 12.58984375 C-0.48623471 16.18371741 -4.20871771 16.27103789 -9.578125 16.21484375 C-10.30676758 16.2082373 -11.03541016 16.20163086 -11.78613281 16.19482422 C-17.20079777 16.00857948 -21.84668142 15.17315084 -26.390625 12.02734375 C-29.87861778 10.24081086 -32.20566665 10.90656842 -35.953125 11.71484375 C-35.7675 12.51921875 -35.581875 13.32359375 -35.390625 14.15234375 C-35.24625 14.99796875 -35.101875 15.84359375 -34.953125 16.71484375 C-35.953125 17.71484375 -35.953125 17.71484375 -39.515625 17.77734375 C-40.65 17.75671875 -41.784375 17.73609375 -42.953125 17.71484375 C-43.578125 15.83984375 -43.578125 15.83984375 -43.953125 13.71484375 C-43.293125 13.05484375 -42.633125 12.39484375 -41.953125 11.71484375 C-40.963125 11.71484375 -39.973125 11.71484375 -38.953125 11.71484375 C-38.953125 11.05484375 -38.953125 10.39484375 -38.953125 9.71484375 C-37.633125 9.38484375 -36.313125 9.05484375 -34.953125 8.71484375 C-34.953125 8.05484375 -34.953125 7.39484375 -34.953125 6.71484375 C-36.273125 6.38484375 -37.593125 6.05484375 -38.953125 5.71484375 C-38.953125 4.72484375 -38.953125 3.73484375 -38.953125 2.71484375 C-37.6846875 3.20984375 -37.6846875 3.20984375 -36.390625 3.71484375 C-32.74323284 4.77590329 -29.73037836 4.86593388 -25.953125 4.71484375 C-25.953125 3.72484375 -25.953125 2.73484375 -25.953125 1.71484375 C-20.09628591 -4.44493529 -7.55350348 -1.69089865 0 0 Z " fill="#D48F7A" transform="translate(110.953125,84.28515625)"/>
<path d="M0 0 C0.92131876 11.56766882 -2.56169843 22.05278582 -10 31 C-10.66 31.33 -11.32 31.66 -12 32 C-12.44730469 31.07058594 -12.89460937 30.14117187 -13.35546875 29.18359375 C-13.96581395 27.93473358 -14.57650998 26.68604483 -15.1875 25.4375 C-15.62545898 24.52387695 -15.62545898 24.52387695 -16.07226562 23.59179688 C-18.31252447 19.03901277 -20.96757753 15.06941668 -24 11 C-20.89779023 9.35045833 -17.79290789 7.7060119 -14.6875 6.0625 C-13.80642578 5.59392578 -12.92535156 5.12535156 -12.01757812 4.64257812 C-11.17001953 4.19462891 -10.32246094 3.74667969 -9.44921875 3.28515625 C-8.27879028 2.66459351 -8.27879028 2.66459351 -7.0847168 2.03149414 C-4.69981582 0.85147229 -2.68657639 0 0 0 Z " fill="#F7E79E" transform="translate(146,99)"/>
<path d="M0 0 C7.33333333 4.66666667 14.66666667 9.33333333 22 14 C21.65066406 15.01320313 21.30132812 16.02640625 20.94140625 17.0703125 C20.48152771 18.42179229 20.02190591 19.77335947 19.5625 21.125 C19.33240234 21.79015625 19.10230469 22.4553125 18.86523438 23.140625 C17.53325481 27.07865153 16.56074966 30.86205422 16 35 C6.84524034 28.04238266 1.9704245 19.33415116 0 8 C-0.19394623 5.271823 -0.15498705 2.73810463 0 0 Z " fill="#F7E79E" transform="translate(56,100)"/>
<path d="M0 0 C2.5 1.1875 2.5 1.1875 4.5 3.1875 C4.5 4.5075 4.5 5.8275 4.5 7.1875 C6.48 7.5175 8.46 7.8475 10.5 8.1875 C8.6414153 10.0460847 7.15348327 11.11774927 4.875 12.375 C4.24335937 12.73980469 3.61171875 13.10460937 2.9609375 13.48046875 C0.04699689 14.31764851 -2.27844799 13.9714742 -5.24365234 13.50952148 C-9.30647571 12.92968335 -13.40364315 12.81691841 -17.5 12.625 C-18.37011719 12.58181641 -19.24023438 12.53863281 -20.13671875 12.49414062 C-22.25768219 12.38925782 -24.37882433 12.28799925 -26.5 12.1875 C-26.5 11.5275 -26.5 10.8675 -26.5 10.1875 C-27.11488281 10.00574219 -27.72976562 9.82398437 -28.36328125 9.63671875 C-29.17152344 9.38535156 -29.97976562 9.13398437 -30.8125 8.875 C-31.61300781 8.63136719 -32.41351563 8.38773438 -33.23828125 8.13671875 C-35.64816739 7.12531576 -36.91941979 6.25913426 -38.5 4.1875 C-38.5 3.1975 -38.5 2.2075 -38.5 1.1875 C-37.79875 1.47625 -37.0975 1.765 -36.375 2.0625 C-35.42625 2.43375 -34.4775 2.805 -33.5 3.1875 C-32.62730469 3.53554687 -31.75460938 3.88359375 -30.85546875 4.2421875 C-26.77959723 5.39045398 -23.1456788 5.48160318 -18.9375 5.4375 C-17.8247168 5.44910156 -17.8247168 5.44910156 -16.68945312 5.4609375 C-12.58145894 5.44630529 -9.15295339 5.29092806 -5.5 3.1875 C-5.17 2.1975 -4.84 1.2075 -4.5 0.1875 C-2.5 -0.8125 -2.5 -0.8125 0 0 Z " fill="#F4DF9C" transform="translate(120.5,93.8125)"/>
<path d="M0 0 C-1.5255515 4.11898905 -4.41115516 6.63803933 -8 9 C-14.67458618 11.86053693 -23.23414291 12.18739784 -30.2890625 10.4296875 C-33.3415372 9.19570837 -36.07853442 7.71265729 -38 5 C-38 4.01 -38 3.02 -38 2 C-37.29875 2.28875 -36.5975 2.5775 -35.875 2.875 C-34.92625 3.24625 -33.9775 3.6175 -33 4 C-32.12730469 4.34804687 -31.25460938 4.69609375 -30.35546875 5.0546875 C-26.27959723 6.20295398 -22.6456788 6.29410318 -18.4375 6.25 C-17.3247168 6.26160156 -17.3247168 6.26160156 -16.18945312 6.2734375 C-12.08145894 6.25880529 -8.65295339 6.10342806 -5 4 C-4.67 3.01 -4.34 2.02 -4 1 C-2 0 -2 0 0 0 Z " fill="#E6B88B" transform="translate(120,93)"/>
<path d="M0 0 C1.175625 0.5259375 1.175625 0.5259375 2.375 1.0625 C7.13169713 2.29268029 11.18890305 1.70359916 16 1 C16 1.66 16 2.32 16 3 C14.68 3.33 13.36 3.66 12 4 C12 4.66 12 5.32 12 6 C13.65 6.66 15.3 7.32 17 8 C17 8.66 17 9.32 17 10 C16.29875 9.855625 15.5975 9.71125 14.875 9.5625 C13.92625 9.376875 12.9775 9.19125 12 9 C10.96875 8.79375 9.9375 8.5875 8.875 8.375 C5.93580872 7.77902292 5.93580872 7.77902292 3 9 C3.185625 9.804375 3.37125 10.60875 3.5625 11.4375 C3.706875 12.283125 3.85125 13.12875 4 14 C3 15 3 15 -0.5625 15.0625 C-1.696875 15.041875 -2.83125 15.02125 -4 15 C-4.625 13.125 -4.625 13.125 -5 11 C-4.34 10.34 -3.68 9.68 -3 9 C-2.01 9 -1.02 9 0 9 C0 8.34 0 7.68 0 7 C1.32 6.67 2.64 6.34 4 6 C4 5.34 4 4.68 4 4 C2.68 3.67 1.36 3.34 0 3 C0 2.01 0 1.02 0 0 Z " fill="#7B7875" transform="translate(72,87)"/>
<path d="M0 0 C0.7425 0.309375 1.485 0.61875 2.25 0.9375 C3.1575 1.288125 4.065 1.63875 5 2 C5.639375 2.2475 6.27875 2.495 6.9375 2.75 C9.94565722 3.11462512 12.2154523 2.07584797 15 1 C15 1.99 15 2.98 15 4 C13.68 4.33 12.36 4.66 11 5 C11 5.66 11 6.32 11 7 C11.63808594 7.17015625 12.27617188 7.3403125 12.93359375 7.515625 C13.75988281 7.75796875 14.58617188 8.0003125 15.4375 8.25 C16.67306641 8.59804687 16.67306641 8.59804687 17.93359375 8.953125 C20 10 20 10 20.91015625 11.984375 C20.93980469 12.64953125 20.96945313 13.3146875 21 14 C19 16 19 16 15.875 16.125 C14.451875 16.063125 14.451875 16.063125 13 16 C11 12.25 11 12.25 11 10 C8.7193293 8.78702351 8.7193293 8.78702351 6 8 C3.86644906 8.81669817 3.86644906 8.81669817 2 10 C1.01 10 0.02 10 -1 10 C-1 9.34 -1 8.68 -1 8 C1 6.375 1 6.375 3 5 C2.01 4.34 1.02 3.68 0 3 C0 2.01 0 1.02 0 0 Z " fill="#787774" transform="translate(112,86)"/>
<path d="M0 0 C2.9375 1.875 2.9375 1.875 5 4 C5.99 4.66 6.98 5.32 8 6 C1.375 6.125 1.375 6.125 -2 5 C-4.31019336 4.87929731 -6.6241874 4.824637 -8.9375 4.8125 C-10.77634766 4.79123047 -10.77634766 4.79123047 -12.65234375 4.76953125 C-15.75643812 4.98323203 -17.41362551 5.36001818 -20 7 C-20 7.99 -20 8.98 -20 10 C-22.31 10.33 -24.62 10.66 -27 11 C-25.38405168 8.95880212 -23.7143618 6.95927063 -22 5 C-21.34 5 -20.68 5 -20 5 C-19.67 4.34 -19.34 3.68 -19 3 C-13.09831144 0.06932094 -6.5100709 -1.06030927 0 0 Z " fill="#ECCB92" transform="translate(105,79)"/>
<path d="M0 0 C-4.37666318 2.77083712 -8.10215746 1.74130926 -13.02734375 1.09375 C-16.99854772 0.96850835 -19.68849207 1.92268991 -22.75 4.4375 C-24.22378249 6.09517186 -24.22378249 6.09517186 -25 9 C-26.32 8.67 -27.64 8.34 -29 8 C-29 7.34 -29 6.68 -29 6 C-27.68 5.67 -26.36 5.34 -25 5 C-25 4.34 -25 3.68 -25 3 C-25.99 3 -26.98 3 -28 3 C-28 1 -28 1 -26.4140625 -0.60546875 C-19.18104513 -4.78376519 -7.74238771 -1.99803554 0 0 Z " fill="#D89C7F" transform="translate(113,85)"/>
<path d="M0 0 C0.33 0.66 0.66 1.32 1 2 C3.66694948 2.05455124 6.33275498 2.09393392 9 2.125 C9.74378906 2.14175781 10.48757812 2.15851563 11.25390625 2.17578125 C16.50548443 2.22144715 20.9516946 1.45712451 26 0 C26 0.66 26 1.32 26 2 C21.7055093 5.49512016 17.83167707 5.42694781 12.5625 5.3125 C11.82451172 5.31572266 11.08652344 5.31894531 10.32617188 5.32226562 C5.84716654 5.27847091 2.21573902 4.67694215 -2 3 C-1.34 2.67 -0.68 2.34 0 2 C0 1.34 0 0.68 0 0 Z " fill="#DEAA85" transform="translate(89,95)"/>
<path d="M0 0 C0.99 0.33 1.98 0.66 3 1 C3.66 2.65 4.32 4.3 5 6 C12.92 6 20.84 6 29 6 C28.67 6.66 28.34 7.32 28 8 C21.27519409 9.89362766 12.41651698 10.35722167 5.875 7.6875 C1.50232558 5.12093023 1.50232558 5.12093023 0 3 C0 2.01 0 1.02 0 0 Z " fill="#ECC992" transform="translate(82,95)"/>
<path d="M0 0 C-0.875 3.875 -0.875 3.875 -2 5 C-3.99958364 5.04080783 -6.00045254 5.04254356 -8 5 C-8.66 3.68 -9.32 2.36 -10 1 C-6.21812119 -0.83691257 -4.05431692 -1.15837626 0 0 Z " fill="#6FABFB" transform="translate(133,97)"/>
<path d="M0 0 C3.625 0.375 3.625 0.375 7 1 C6.67 2.65 6.34 4.3 6 6 C3.69 6 1.38 6 -1 6 C-1.625 4.125 -1.625 4.125 -2 2 C-1.34 1.34 -0.68 0.68 0 0 Z " fill="#6FABFB" transform="translate(69,96)"/>
<path d="M0 0 C-3.25607522 1.94070709 -3.74091883 2.06147689 -7.6875 1.125 C-8.38101563 0.92777344 -9.07453125 0.73054688 -9.7890625 0.52734375 C-16.5486165 -1.08491736 -21.89770711 -0.11606446 -28 3 C-28 1 -28 1 -26.4140625 -0.60546875 C-19.18104513 -4.78376519 -7.74238771 -1.99803554 0 0 Z " fill="#E2AE87" transform="translate(113,85)"/>
<path d="M0 0 C13.76700986 0.26064907 13.76700986 0.26064907 18.08203125 4.23046875 C11.45703125 4.35546875 11.45703125 4.35546875 8.08203125 3.23046875 C6.02309504 3.00721061 3.95969472 2.82341116 1.89453125 2.66796875 C0.26451172 2.54228516 0.26451172 2.54228516 -1.3984375 2.4140625 C-2.22988281 2.35347656 -3.06132813 2.29289062 -3.91796875 2.23046875 C-1.91796875 0.23046875 -1.91796875 0.23046875 0 0 Z " fill="#E7BD8D" transform="translate(94.91796875,80.76953125)"/>
<path d="M0 0 C-2 2 -2 2 -5.0390625 2.1953125 C-6.22242187 2.17210938 -7.40578125 2.14890625 -8.625 2.125 C-9.81351562 2.10695313 -11.00203125 2.08890625 -12.2265625 2.0703125 C-13.14179687 2.04710938 -14.05703125 2.02390625 -15 2 C-15 1.34 -15 0.68 -15 0 C-13.25093341 -0.19601608 -11.50068154 -0.38147403 -9.75 -0.5625 C-8.77546875 -0.66691406 -7.8009375 -0.77132812 -6.796875 -0.87890625 C-4.2368648 -0.98974468 -2.41851841 -0.77738092 0 0 Z " fill="#F1D697" transform="translate(109,104)"/>
<path d="M0 0 C-1.5830577 4.2742558 -4.50568404 6.26531794 -8 9 C-8.33 8.34 -8.66 7.68 -9 7 C-8.34 6.01 -7.68 5.02 -7 4 C-6.34 4 -5.68 4 -5 4 C-4.67 3.01 -4.34 2.02 -4 1 C-2 0 -2 0 0 0 Z " fill="#EAC992" transform="translate(120,93)"/>
<path d="M0 0 C0.33 0.66 0.66 1.32 1 2 C6.28 2 11.56 2 17 2 C16.67 2.66 16.34 3.32 16 4 C10.39 4 4.78 4 -1 4 C-1.33 3.34 -1.66 2.68 -2 2 C-1.34 2 -0.68 2 0 2 C0 1.34 0 0.68 0 0 Z " fill="#DB9E80" transform="translate(89,95)"/>
</svg>
