<?xml version="1.0" encoding="UTF-8"?>
<svg version="1.1" xmlns="http://www.w3.org/2000/svg" width="200" height="200">
<path d="M0 0 C1.2684375 0.10054687 1.2684375 0.10054687 2.5625 0.203125 C5.37942823 0.83512813 6.75011844 1.9841567 9 3.75 C11.14271734 4.55437947 11.14271734 4.55437947 13.375 5.125 C18.62663171 6.77749037 22.25517191 9.13275786 25.375 13.8125 C26 15.75 26 15.75 26 19.75 C26.5775 19.976875 27.155 20.20375 27.75 20.4375 C31.14222063 22.41629537 33.25493471 25.25986942 35 28.75 C35.06950541 30.29023996 35.08452357 31.83334988 35.0625 33.375 C35.05347656 34.19226563 35.04445313 35.00953125 35.03515625 35.8515625 C35.02355469 36.47804687 35.01195312 37.10453125 35 37.75 C35.89332031 38.09611328 35.89332031 38.09611328 36.8046875 38.44921875 C39.57607499 40.09133981 40.53150849 41.78014702 42.125 44.5625 C42.62257813 45.41457031 43.12015625 46.26664063 43.6328125 47.14453125 C47.23039418 54.00049404 48.16851051 60.02848253 47 67.75 C44.00708901 74.0626928 37.91392058 77.60969383 31.75 80.4296875 C9.71129403 88.18914856 -17.34181065 88.85143413 -38.875 79 C-43.91236856 76.09160526 -48.40418741 73.09020704 -51 67.75 C-52.9972722 58.28466651 -50.08610684 50.6824602 -45 42.75 C-42.921875 39.90625 -42.921875 39.90625 -41 37.75 C-40.34 37.75 -39.68 37.75 -39 37.75 C-39.04640625 37.16992188 -39.0928125 36.58984375 -39.140625 35.9921875 C-39.45200945 29.2529384 -37.81915283 26.00286865 -33.375 20.875 C-32 19.75 -32 19.75 -30 19.75 C-29.9071875 18.450625 -29.9071875 18.450625 -29.8125 17.125 C-28.78102778 12.8404231 -27.10213551 10.85213551 -24 7.75 C-20.76495932 5.7808448 -17.89818269 4.72115176 -14.25 3.6875 C-10.94569661 3.01797841 -10.94569661 3.01797841 -9 0.75 C-5.90596293 -0.34358207 -3.2457603 -0.29686832 0 0 Z M-7.6875 3.5625 C-10.64426709 5.1346616 -13.48192237 6.28298408 -16.6875 7.25 C-21.27103893 8.71199087 -24.55953803 10.62360377 -27.3125 14.6875 C-28.20514857 17.36544571 -28.55983283 18.95083587 -28 21.75 C-20.74129342 27.68894175 -13.40311829 26.96641217 -4.46582031 26.99023438 C-2.27109393 26.99990703 -0.07731811 27.03093857 2.1171875 27.0625 C9.25440743 27.11662843 15.51721569 27.10541098 22 23.75 C22.66 23.09 23.32 22.43 24 21.75 C23.80109258 16.47895338 22.79012856 13.43769266 19 9.75 C15.86401907 7.86841144 13.01762849 6.75503671 9.5 5.75 C6 4.75 6 4.75 2.8125 3.125 C-1.26086699 1.13357614 -3.87872618 1.43054484 -7.6875 3.5625 Z M-31 21.75 C-35.35278587 26.67552085 -38.09273445 29.82886472 -37.875 36.6875 C-37.01821011 41.97767944 -34.46637153 45.39642628 -30.5625 49 C-22.56254086 54.46338673 -13.56486011 53.93642959 -4.22436523 53.93530273 C-2.20339688 53.93748285 -0.18298102 53.95565832 1.83789062 53.97460938 C15.82848957 54.03324409 15.82848957 54.03324409 28 47.75 C31.22556722 44.3452346 32.9893045 41.34407045 34 36.75 C33.8050505 31.29141414 32.37611123 28.01978773 29 23.75 C28.01 23.09 27.02 22.43 26 21.75 C25.525625 22.36875 25.05125 22.9875 24.5625 23.625 C17.55957451 29.43230407 6.56467213 28.05038042 -2 28 C-3.31484375 28.00773437 -4.6296875 28.01546875 -5.984375 28.0234375 C-24.55598338 27.98614511 -24.55598338 27.98614511 -31 21.75 Z M-40 40.75 C-45.71403667 47.39732932 -49.82731468 54.56944047 -50.125 63.5 C-47.84378082 70.09018873 -43.84333993 73.5757713 -37.8125 76.9375 C-17.71826171 86.17936299 6.09936267 86.22728817 27 79.75 C34.28603246 77.04018943 41.0637659 73.7426041 45 66.75 C47.24505752 60.26427828 44.86982935 54.6759013 42 48.75 C40.17186276 45.92105771 38.19475935 43.30323671 36 40.75 C33.87938313 42.78977224 32.09820527 44.91681489 30.3125 47.25 C25.50172655 52.8943233 19.1659579 54.13241718 12 54.75 C7.39523397 54.91794596 2.79497662 54.93508897 -1.8125 54.9375 C-3.03259766 54.94974609 -4.25269531 54.96199219 -5.50976562 54.97460938 C-14.60676796 54.98927408 -24.13804653 54.86941156 -32 49.75 C-33.83363659 47.84301795 -35.37802458 45.85418432 -37 43.75 C-37.98702227 42.73718855 -38.98402634 41.733767 -40 40.75 Z " fill="#000000" transform="translate(102,60.25)"/>
<path d="M0 0 C3.3 0 6.6 0 10 0 C10 0.66 10 1.32 10 2 C6.7 2 3.4 2 0 2 C0 1.34 0 0.68 0 0 Z " fill="#000000" transform="translate(95,105)"/>
<path d="M0 0 C0.66 0 1.32 0 2 0 C2 0.99 2 1.98 2 3 C1.34 3 0.68 3 0 3 C0 2.01 0 1.02 0 0 Z " fill="#000000" transform="translate(111,94)"/>
<path d="M0 0 C0.66 0 1.32 0 2 0 C2 0.99 2 1.98 2 3 C1.34 3 0.68 3 0 3 C0 2.01 0 1.02 0 0 Z " fill="#000000" transform="translate(87,94)"/>
</svg>
