<svg width="17" height="19" viewBox="0 0 17 19" fill="none" xmlns="http://www.w3.org/2000/svg">
<rect x="1" width="15" height="15" rx="7.5" fill="#ABCDFE"/>
<path d="M12.2407 5.40271C12.3154 5.37071 12.4967 5.36005 12.7847 5.37071C13.0834 5.38138 13.2807 5.39738 13.3767 5.41871C13.4727 5.45071 13.622 5.55738 13.8247 5.73871C14.0274 5.90938 14.1287 6.02138 14.1287 6.07471C14.1287 6.11738 14.1554 6.19738 14.2087 6.31471C14.262 6.44271 14.2994 6.61338 14.3207 6.82671C14.3314 7.04005 14.374 7.20005 14.4487 7.30671C14.5767 7.49871 14.6567 7.78671 14.6887 8.17071C14.71 8.43738 14.7527 8.65071 14.8167 8.81071C14.8807 8.94938 14.9234 9.08805 14.9447 9.22671C14.9767 9.40805 15.0514 9.56271 15.1687 9.69071C15.2327 9.76538 15.286 9.88271 15.3287 10.0427C15.3714 10.2027 15.4514 10.352 15.5687 10.4907C15.6967 10.6187 15.7607 10.704 15.7607 10.7467C15.7607 10.7787 15.7927 10.8374 15.8567 10.9227C16.07 11.1787 16.166 11.3974 16.1447 11.5787C16.134 11.696 16.15 11.8027 16.1927 11.8987C16.2674 12.0267 16.2994 12.3894 16.2887 12.9867C16.278 13.5734 16.2354 13.9734 16.1607 14.1867C16.118 14.2934 16.0967 14.416 16.0967 14.5547C16.0967 14.6827 16.0594 14.8107 15.9847 14.9387C15.8994 15.056 15.8087 15.2427 15.7127 15.4987C15.6274 15.7547 15.526 15.9254 15.4087 16.0107C15.302 16.096 15.2274 16.1867 15.1847 16.2827C15.1634 16.3467 15.1047 16.432 15.0087 16.5387C14.9127 16.6347 14.8434 16.6827 14.8007 16.6827C14.7794 16.6827 14.71 16.7307 14.5927 16.8267C14.4754 16.9227 14.2354 17.0614 13.8727 17.2427C13.51 17.424 13.2754 17.5627 13.1687 17.6587C12.9234 17.8827 12.6674 18.016 12.4007 18.0587C12.2407 18.0907 12.0274 18.1707 11.7607 18.2987C11.5474 18.4054 11.3127 18.4694 11.0567 18.4907C10.8114 18.512 10.422 18.496 9.88871 18.4427C9.56871 18.4107 9.34471 18.416 9.21671 18.4587C9.00337 18.5334 8.72071 18.5334 8.36871 18.4587C8.17671 18.416 8.01137 18.4107 7.87271 18.4427C7.73404 18.4854 7.61137 18.4907 7.50471 18.4587C7.41937 18.4374 7.22737 18.4214 6.92871 18.4107C6.63004 18.4 6.42204 18.368 6.30471 18.3147C6.20871 18.2614 6.05937 18.2187 5.85671 18.1867C5.65404 18.1547 5.49404 18.112 5.37671 18.0587C5.23804 18.0054 5.07271 17.984 4.88071 17.9947C4.73137 18.0054 4.63004 18.0054 4.57671 17.9947C4.53404 17.984 4.47004 17.952 4.38471 17.8987C4.25671 17.8134 4.11804 17.7494 3.96871 17.7067C3.65937 17.6 3.29137 17.3654 2.86471 17.0027C2.67271 16.832 2.51804 16.7254 2.40071 16.6827C2.28337 16.6294 2.17137 16.5334 2.06471 16.3947C1.95804 16.2667 1.85671 16.16 1.76071 16.0747C1.67537 16 1.56337 15.8667 1.42471 15.6747C1.28604 15.4827 1.19004 15.328 1.13671 15.2107C1.12604 15.1787 1.09937 15.1147 1.05671 15.0187C1.01404 14.912 0.987373 14.8534 0.976707 14.8427C0.923373 14.7254 0.88604 14.576 0.864707 14.3947C0.843373 14.2027 0.80604 13.968 0.752707 13.6907C0.71004 13.424 0.704707 13.216 0.736707 13.0667C0.75804 12.9174 0.752707 12.784 0.720707 12.6667C0.699373 12.5494 0.720707 12.3894 0.784707 12.1867C0.848707 11.9734 0.891373 11.792 0.912707 11.6427C0.923373 11.536 0.95004 11.424 0.992707 11.3067C1.04604 11.1787 1.09404 11.104 1.13671 11.0827C1.15804 11.0614 1.18471 10.9974 1.21671 10.8907C1.24871 10.7734 1.30204 10.672 1.37671 10.5867C1.45137 10.4907 1.52604 10.368 1.60071 10.2187C1.66471 10.0694 1.76604 9.93605 1.90471 9.81871C2.18204 9.60538 2.35804 9.45071 2.43271 9.35471C2.50737 9.25871 2.53937 9.14671 2.52871 9.01871C2.50737 8.84805 2.56071 8.53338 2.68871 8.07471C2.82737 7.60538 2.96604 7.23205 3.10471 6.95471C3.17937 6.82671 3.21671 6.73605 3.21671 6.68271C3.21671 6.62938 3.27004 6.53871 3.37671 6.41071C3.49404 6.28271 3.55271 6.20271 3.55271 6.17071C3.55271 6.09605 3.60071 6.01605 3.69671 5.93071C3.80337 5.84538 3.91537 5.79205 4.03271 5.77071C4.51271 5.67471 4.83804 5.59471 5.00871 5.53071C5.12604 5.48805 5.29137 5.49338 5.50471 5.54671C5.71804 5.60005 5.86204 5.67471 5.93671 5.77071C6.20337 6.11205 6.34737 6.35738 6.36871 6.50671C6.39004 6.59205 6.42204 6.71471 6.46471 6.87471C6.50737 6.99205 6.56604 7.16271 6.64071 7.38671C6.71537 7.67471 6.85404 7.87205 7.05671 7.97871C7.27004 8.07471 7.49404 8.06405 7.72871 7.94671C7.81404 7.90405 7.93137 7.89338 8.08071 7.91471C8.23004 7.92538 8.35271 7.91471 8.44871 7.88271C8.54471 7.85071 8.71537 7.85071 8.96071 7.88271C9.53671 7.96805 9.88871 8.04271 10.0167 8.10671C10.1234 8.16005 10.214 8.18138 10.2887 8.17071C10.3527 8.14938 10.4434 8.05338 10.5607 7.88271C10.6887 7.71205 10.7634 7.57871 10.7847 7.48271C10.7954 7.38671 10.838 7.25871 10.9127 7.09871C10.998 6.93871 11.078 6.82138 11.1527 6.74671C11.206 6.66138 11.254 6.57071 11.2967 6.47471C11.4247 6.06938 11.59 5.81338 11.7927 5.70671C11.91 5.64271 12.0007 5.57871 12.0647 5.51471C12.118 5.47205 12.1767 5.43471 12.2407 5.40271ZM13.0407 6.87471C12.8914 6.74671 12.678 6.77338 12.4007 6.95471C12.1234 7.12538 11.9634 7.33338 11.9207 7.57871C11.8567 7.98405 11.7767 8.27738 11.6807 8.45871C11.5847 8.62938 11.3874 8.83205 11.0887 9.06671C10.8434 9.26938 10.63 9.39205 10.4487 9.43471C10.2674 9.46671 10.0007 9.44538 9.64871 9.37071C9.29671 9.28538 9.04071 9.23738 8.88071 9.22671C8.73137 9.20538 8.47537 9.19471 8.11271 9.19471C7.63271 9.20538 7.35537 9.22671 7.28071 9.25871C7.19537 9.29071 7.03004 9.30671 6.78471 9.30671C6.53937 9.30671 6.36871 9.28538 6.27271 9.24271C5.93137 9.10405 5.71804 8.78938 5.63271 8.29871C5.60071 8.08538 5.55271 7.90405 5.48871 7.75471C5.41404 7.59471 5.37671 7.48271 5.37671 7.41871C5.37671 7.35471 5.33404 7.25871 5.24871 7.13071C5.17404 7.00271 5.11004 6.92271 5.05671 6.89071C4.91804 6.81605 4.74204 6.84805 4.52871 6.98671C4.31537 7.11471 4.20871 7.25871 4.20871 7.41871C4.20871 7.45071 4.17137 7.51471 4.09671 7.61071C4.01137 7.71738 3.96337 7.81338 3.95271 7.89871C3.94204 7.97338 3.92071 8.14405 3.88871 8.41071C3.81404 8.96538 3.68071 9.44005 3.48871 9.83471C3.29671 10.2187 3.00337 10.6027 2.60871 10.9867C2.38471 11.2214 2.25137 11.3654 2.20871 11.4187C2.17671 11.472 2.16071 11.552 2.16071 11.6587C2.16071 11.7974 2.13937 11.904 2.09671 11.9787C2.03271 12.0747 2.00071 12.496 2.00071 13.2427C1.99004 13.808 2.03804 14.192 2.14471 14.3947C2.18737 14.5014 2.21937 14.6187 2.24071 14.7467C2.26204 14.864 2.31537 14.96 2.40071 15.0347C2.49671 15.1094 2.58737 15.2054 2.67271 15.3227C2.75804 15.44 2.86471 15.552 2.99271 15.6587C3.12071 15.7547 3.23804 15.8134 3.34471 15.8347C3.43004 15.8454 3.56871 15.9147 3.76071 16.0427C3.96337 16.16 4.12337 16.272 4.24071 16.3787C4.71004 16.8267 5.40871 17.0614 6.33671 17.0827C6.97671 17.0934 7.44604 17.1467 7.74471 17.2427C7.88337 17.2854 8.15004 17.2907 8.54471 17.2587C8.95004 17.2267 9.23271 17.232 9.39271 17.2747C9.73404 17.36 10.2034 17.3494 10.8007 17.2427C11.398 17.136 11.8514 16.9814 12.1607 16.7787C12.2994 16.6934 12.4594 16.6294 12.6407 16.5867C13.046 16.48 13.2967 16.3467 13.3927 16.1867C13.446 16.1014 13.5527 16.0054 13.7127 15.8987C13.9687 15.7387 14.2034 15.52 14.4167 15.2427C14.6407 14.9547 14.7527 14.7307 14.7527 14.5707C14.7527 14.4747 14.8114 14.304 14.9287 14.0587C15.014 13.888 15.062 13.7814 15.0727 13.7387C15.0834 13.6854 15.078 13.616 15.0567 13.5307C15.014 13.424 14.998 13.328 15.0087 13.2427C15.0407 12.5387 15.0354 12.1494 14.9927 12.0747C14.9607 12 14.9234 11.888 14.8807 11.7387C14.8487 11.5894 14.774 11.4667 14.6567 11.3707C14.55 11.2747 14.4754 11.1734 14.4327 11.0667C14.39 10.96 14.3314 10.864 14.2567 10.7787C14.182 10.6934 14.1234 10.5974 14.0807 10.4907C14.0487 10.3734 13.9954 10.24 13.9207 10.0907C13.7927 9.82405 13.7394 9.47738 13.7607 9.05071C13.7607 8.89071 13.6967 8.68805 13.5687 8.44271C13.4407 8.19738 13.3607 7.99471 13.3287 7.83471C13.3074 7.66405 13.2754 7.52538 13.2327 7.41871C13.19 7.31205 13.1687 7.21071 13.1687 7.11471C13.1687 7.02938 13.126 6.94938 13.0407 6.87471ZM5.12071 12.6027C5.30204 12.5067 5.46204 12.496 5.60071 12.5707C5.75004 12.6347 5.87271 12.736 5.96871 12.8747C6.06471 13.0027 6.10204 13.1574 6.08071 13.3387C6.07004 13.5094 5.99537 13.6534 5.85671 13.7707C5.80337 13.8134 5.68071 13.8347 5.48871 13.8347C5.30737 13.824 5.16871 13.7974 5.07271 13.7547C4.90204 13.6694 4.82204 13.4827 4.83271 13.1947C4.84337 12.896 4.93937 12.6987 5.12071 12.6027ZM11.0087 12.5547C11.2007 12.5227 11.3874 12.5867 11.5687 12.7467C11.75 12.896 11.8407 13.072 11.8407 13.2747C11.8407 13.36 11.798 13.4774 11.7127 13.6267C11.638 13.776 11.5687 13.8614 11.5047 13.8827C11.4407 13.904 11.318 13.904 11.1367 13.8827C10.9554 13.8507 10.838 13.8134 10.7847 13.7707C10.5927 13.6 10.5234 13.3707 10.5767 13.0827C10.63 12.784 10.774 12.608 11.0087 12.5547Z" fill="white"/>
</svg>
