<?xml version="1.0" encoding="UTF-8"?>
<svg version="1.1" xmlns="http://www.w3.org/2000/svg" width="200" height="200">
<path d="M0 0 C0.66 0 1.32 0 2 0 C2.21011719 0.59167969 2.42023438 1.18335938 2.63671875 1.79296875 C4.45377475 5.93369488 5.84940553 8.4209328 9.98046875 10.5 C12.25415508 11.29539775 14.53568551 12.06869909 16.82421875 12.8203125 C21.75069087 14.65031813 25.43728578 17.4300879 28.17578125 21.93359375 C29 24 29 24 29 28 C29.5775 28.226875 30.155 28.45375 30.75 28.6875 C35.20551953 31.28655306 37.40595182 35.21785547 39 40 C39.226875 41.051875 39.45375 42.10375 39.6875 43.1875 C40.60833701 46.61836048 42.32239096 48.97754292 44.4375 51.8125 C49.22442665 58.37457862 52.10863507 65.76442518 51 74 C46.15609237 83.49405896 37.76893248 87.76662094 28 91 C7.69679167 97.07153359 -16.31888208 96.01256385 -35.6875 87.25 C-40.8375593 84.36338818 -45.36190775 81.42718641 -48 76 C-49.9972722 66.53466651 -47.08610684 58.9324602 -42 51 C-39.921875 48.15625 -39.921875 48.15625 -38 46 C-37.34 46 -36.68 46 -36 46 C-36.04640625 45.41992188 -36.0928125 44.83984375 -36.140625 44.2421875 C-36.45200945 37.5029384 -34.81915283 34.25286865 -30.375 29.125 C-29 28 -29 28 -27 28 C-26.9071875 26.700625 -26.9071875 26.700625 -26.8125 25.375 C-25.64745476 20.53558132 -23.31562672 17.46953234 -19.171875 14.83984375 C-16.46134804 13.43655912 -13.82655643 12.2318018 -10.8828125 11.40625 C-6.19897745 10.06296146 -4.40289046 8.64447153 -2 4.3125 C-1.30869566 2.88668479 -0.63336646 1.45247982 0 0 Z " fill="#0A0805" transform="translate(99,52)"/>
<path d="M0 0 C2.13521558 2.0013844 3.58971202 3.92312052 5.0625 6.4375 C8.75755166 11.73374071 14.64866238 13.35531881 20.76928711 14.53271484 C26.36878389 15.34261712 31.97624483 15.22634029 37.625 15.25 C38.83285156 15.270625 40.04070312 15.29125 41.28515625 15.3125 C51.08990278 15.35471635 62.36384058 14.89116826 70 8 C71.85192953 5.42705257 73.47598355 2.77829547 75 0 C77.5625 2.0625 77.5625 2.0625 80 5 C80.29357432 12.48614512 76.2705015 19.30903526 71.57421875 24.875 C65.97938966 30.69931996 60.27041464 35.39229047 53 39 C52.07574219 39.4846875 51.15148437 39.969375 50.19921875 40.46875 C36.57202022 46.96648705 21.99471357 44.06572249 8 40 C1.94406293 37.76351485 -2.83964931 35.04284932 -7 30 C-7.61875 29.278125 -8.2375 28.55625 -8.875 27.8125 C-10.97420469 22.56448827 -9.96628204 17.47856731 -7.94921875 12.3046875 C-5.76972111 7.78374813 -3.37543959 3.75048843 0 0 Z " fill="#76593A" transform="translate(62,100)"/>
<path d="M0 0 C0.515625 0.61875 1.03125 1.2375 1.5625 1.875 C8.11121248 7.58413396 18.83909919 6.30176047 27 6.25 C28.21945313 6.25773437 29.43890625 6.26546875 30.6953125 6.2734375 C42.32147315 6.63442258 42.32147315 6.63442258 52.3125 1.8125 C52.869375 1.214375 53.42625 0.61625 54 0 C56 -0.125 56 -0.125 58 1 C60.4661048 3.94562518 61.83742232 6.15098322 62.5625 9.9375 C61.06365386 18.09788455 54.48236469 22.26035323 48.23046875 26.984375 C40.10767958 32.05252399 33.46321543 32.44626089 24.0625 32.3125 C22.93392578 32.31572266 21.80535156 32.31894531 20.64257812 32.32226562 C10.97016919 32.26037121 2.35755086 31.8377239 -5 25 C-8.67130433 20.71681161 -9.14987243 15.49238374 -9 10 C-7.58435588 5.97659041 -4.8888449 0 0 0 Z " fill="#795C3E" transform="translate(73,82)"/>
<path d="M0 0 C3 1 3 1 4.21484375 3.37109375 C6.63392022 6.93354116 9.63726969 7.75904131 13.5625 9.0625 C20.51037763 11.39588882 20.51037763 11.39588882 22.5703125 13.9375 C23.12931164 16.62069588 22.70918455 17.59422526 21.3125 19.9375 C17.34038968 25.78654157 10.89226152 28.15479245 4.17578125 29.61328125 C-5.20316941 30.75536749 -15.44519939 31.45562532 -24 27 C-25 26 -25 26 -25.4375 22.875 C-24.94267143 18.4922327 -24.11761781 16.77667784 -21.17578125 13.6171875 C-17.54085638 10.91546596 -13.33445511 9.78514523 -9.08203125 8.33203125 C-4.61809386 6.40275033 -2.71764663 3.95999938 0 0 Z " fill="#795C3D" transform="translate(99,57)"/>
<path d="M0 0 C3.86144703 4.22920389 5.85668552 9.72499863 6.10546875 15.41015625 C5.74671548 20.40767275 4.82311315 23.5498735 1 27 C-10.01012511 35.53117199 -25.35149478 38.23531906 -39 38 C-36.80780549 35.80780549 -35.38355636 35.29027033 -32.5 34.25 C-20.07328834 29.34706498 -8.64647056 21.50359504 -2.875 9.0625 C-1.67012953 6.07670785 -0.71370509 3.13884587 0 0 Z " fill="#453421" transform="translate(142,106)"/>
<path d="M0 0 C3 1 3 1 4.3515625 3.109375 C4.77179688 3.98078125 5.19203125 4.8521875 5.625 5.75 C6.05039063 6.61109375 6.47578125 7.4721875 6.9140625 8.359375 C8.89943328 13.18711114 9.4562468 17.79878644 9 23 C4.15609237 32.49405896 -4.23106752 36.76662094 -14 40 C-34.30320833 46.07153359 -58.31888208 45.01256385 -77.6875 36.25 C-82.82199644 33.45066397 -86.83377608 29.95001204 -90 25 C-90 24.34 -90 23.68 -90 23 C-89.34 23 -88.68 23 -88 23 C-87.2575 24.299375 -87.2575 24.299375 -86.5 25.625 C-81.0373364 34.016918 -70.89817698 36.18401323 -61.734375 38.23828125 C-60.50203125 38.48964844 -59.2696875 38.74101562 -58 39 C-56.59041016 39.29003906 -56.59041016 39.29003906 -55.15234375 39.5859375 C-37.8938307 41.85285495 -15.86374457 41.17642263 -1 31 C2.20980392 28.25829249 4.41099908 25.89768386 6 22 C6.46324662 15.22947246 4.30894947 9.85058376 1.05859375 4.03125 C0 2 0 2 0 0 Z " fill="#130F09" transform="translate(141,103)"/>
<path d="M0 0 C0.99 0 1.98 0 3 0 C3.28875 1.0725 3.5775 2.145 3.875 3.25 C4.72820109 6.09400364 5.5636503 8.43508983 7 11 C6.01 11.495 6.01 11.495 5 12 C4.01 11.01 3.02 10.02 2 9 C1.443125 9.556875 0.88625 10.11375 0.3125 10.6875 C-0.450625 11.450625 -1.21375 12.21375 -2 13 C-2.78375 13.845625 -3.5675 14.69125 -4.375 15.5625 C-10.60924419 21.35144104 -16.78682933 22.16104256 -25 22 C-22 20 -22 20 -18.375 18.3125 C-11.1753875 14.73926059 -4.8858302 10.12402202 -1 3 C-0.67 2.01 -0.34 1.02 0 0 Z " fill="#3B2C1C" transform="translate(135,92)"/>
<path d="M0 0 C3.11130213 2.43070479 3.93506938 3.58877276 4.5625 7.5625 C4 11 4 11 1.86328125 12.640625 C-5.01454009 15.90594809 -13.45094876 16.35111866 -21 16 C-21.33 15.34 -21.66 14.68 -22 14 C-20.88625 13.773125 -19.7725 13.54625 -18.625 13.3125 C-12.86051397 11.83547867 -6.32953683 9.8790686 -2.4765625 5.1171875 C-1.23485122 3.02507396 -1.23485122 3.02507396 0 0 Z " fill="#493623" transform="translate(122,72)"/>
<path d="M0 0 C0.66 0 1.32 0 2 0 C2.31517578 0.88751953 2.31517578 0.88751953 2.63671875 1.79296875 C4.52628477 6.09893147 5.98236112 8.46038035 10.2265625 10.7109375 C13.45986383 11.9295892 16.68310889 13.03358517 20 14 C17 16 17 16 14.44140625 15.53125 C8.24961003 13.31329315 5.06505698 11.86358727 2 6 C1.34 6 0.68 6 0 6 C-0.763125 7.051875 -1.52625 8.10375 -2.3125 9.1875 C-6.01631245 13.75309059 -10.57960811 14.87897754 -15.99609375 16.74609375 C-20.13575244 18.47409172 -21.58277852 20.29359374 -24 24 C-24.98290968 25.01680311 -25.97334787 26.02738219 -27 27 C-26.58048624 22.24551073 -24.48593191 19.12353305 -21 16 C-17.81864704 13.9742667 -14.5169881 12.4254284 -10.8828125 11.40625 C-6.19897745 10.06296146 -4.40289046 8.64447153 -2 4.3125 C-1.30869566 2.88668479 -0.63336646 1.45247982 0 0 Z " fill="#1B150F" transform="translate(99,52)"/>
<path d="M0 0 C1.5 1 1.5 1 3 3 C3.59395522 6.65510906 3.69506728 9.85313899 1.75 13.0625 C0 14 0 14 -2 14.0625 C-5.06065594 12.43652653 -5.74404422 10.13988946 -7 7 C-7 6.01 -7 5.02 -7 4 C-5.68 3.67 -4.36 3.34 -3 3 C-2.67 3.66 -2.34 4.32 -2 5 C-1.34 5 -0.68 5 0 5 C0 3.35 0 1.7 0 0 Z " fill="#020101" transform="translate(114,93)"/>
<path d="M0 0 C1 2 1 2 1 5 C1.66 5 2.32 5 3 5 C3.33 4.34 3.66 3.68 4 3 C5.32 3.33 6.64 3.66 8 4 C7.5205537 8.21912747 6.83374881 10.79663178 4 14 C1.5625 13.625 1.5625 13.625 -1 13 C-2.5635348 9.87293041 -2.39958487 6.42017557 -2 3 C-1.34 2.01 -0.68 1.02 0 0 Z " fill="#020101" transform="translate(85,93)"/>
<path d="M0 0 C0.79501741 2.28004993 1.20132852 3.49832893 0.28515625 5.78125 C-3.04811846 10.46700359 -6.50785377 13.17297555 -12 15 C-15 15.25 -15 15.25 -17 15 C-14.4755378 12.9740851 -11.94545237 10.95739233 -9.39453125 8.96484375 C-8.54246094 8.29582031 -7.69039062 7.62679687 -6.8125 6.9375 C-5.95269531 6.26589844 -5.09289062 5.59429687 -4.20703125 4.90234375 C-1.81420142 3.01172746 -1.81420142 3.01172746 0 0 Z " fill="#473522" transform="translate(134,98)"/>
<path d="M0 0 C0.33 0.99 0.66 1.98 1 3 C-2.12402854 8.55382851 -4.69661515 11.2705948 -10.75 13.1875 C-12.35875 13.5896875 -12.35875 13.5896875 -14 14 C-14 14.66 -14 15.32 -14 16 C-16.31 16 -18.62 16 -21 16 C-21.33 15.34 -21.66 14.68 -22 14 C-20.88625 13.773125 -19.7725 13.54625 -18.625 13.3125 C-12.86051397 11.83547867 -6.32953683 9.8790686 -2.4765625 5.1171875 C-1.23485122 3.02507396 -1.23485122 3.02507396 0 0 Z " fill="#37291A" transform="translate(122,72)"/>
<path d="M0 0 C0.886875 -0.00257812 1.77375 -0.00515625 2.6875 -0.0078125 C5 0.125 5 0.125 7 1.125 C6.67 2.115 6.34 3.105 6 4.125 C4.20841511 4.15196365 2.41671527 4.17137917 0.625 4.1875 C-0.37273437 4.19910156 -1.37046875 4.21070312 -2.3984375 4.22265625 C-5 4.125 -5 4.125 -7 3.125 C-7 2.465 -7 1.805 -7 1.125 C-4.51245214 -0.11877393 -2.77344699 -0.00806235 0 0 Z " fill="#473522" transform="translate(100,109.875)"/>
<path d="M0 0 C1.0528418 0.15662109 1.0528418 0.15662109 2.12695312 0.31640625 C3.85708829 0.57533804 5.58504118 0.84877657 7.3125 1.125 C7.3125 1.785 7.3125 2.445 7.3125 3.125 C1.02989294 3.35768915 -4.56769467 2.52954548 -10.6875 1.125 C-6.83513991 -1.44324006 -4.32308834 -0.70235049 0 0 Z " fill="#261C12" transform="translate(88.6875,142.875)"/>
<path d="M0 0 C4.83628305 0.99043705 9.47618873 1.95698846 14 4 C13.01 4.66 12.02 5.32 11 6 C8.30078125 5.3203125 8.30078125 5.3203125 5.3125 4.125 C4.31863281 3.73570313 3.32476562 3.34640625 2.30078125 2.9453125 C1.54152344 2.63335937 0.78226562 2.32140625 0 2 C0 1.34 0 0.68 0 0 Z " fill="#211910" transform="translate(105,62)"/>
<path d="M0 0 C0.66 0 1.32 0 2 0 C2.598125 0.9075 3.19625 1.815 3.8125 2.75 C5.94224941 5.91419912 7.93373561 7.78547572 11 10 C8.13144287 9.91563067 6.44317685 9.41307819 4.33203125 7.4453125 C0 2.48559976 0 2.48559976 0 0 Z " fill="#120D09" transform="translate(51,126)"/>
<path d="M0 0 C0.66 0 1.32 0 2 0 C3.65 3.3 5.3 6.6 7 10 C6.01 10.495 6.01 10.495 5 11 C2 6.25 2 6.25 2 4 C1.01 4 0.02 4 -1 4 C-0.67 2.68 -0.34 1.36 0 0 Z " fill="#0B0805" transform="translate(99,52)"/>
<path d="M0 0 C0.33 0 0.66 0 1 0 C1.28875 1.0725 1.5775 2.145 1.875 3.25 C2.72820109 6.09400364 3.5636503 8.43508983 5 11 C4.01 11.495 4.01 11.495 3 12 C2.54625 11.525625 2.0925 11.05125 1.625 10.5625 C0.06741796 8.90972192 0.06741796 8.90972192 -2 8 C-2 7.34 -2 6.68 -2 6 C-1.34 6 -0.68 6 0 6 C0 4.02 0 2.04 0 0 Z " fill="#2D2216" transform="translate(137,92)"/>
<path d="M0 0 C0.33 0 0.66 0 1 0 C1.45732667 5.71658336 0.52273754 8.48649253 -3 13 C-3.66 12.34 -4.32 11.68 -5 11 C-3.625 8.5 -3.625 8.5 -2 6 C-1.34 6 -0.68 6 0 6 C0 4.02 0 2.04 0 0 Z " fill="#2B2015" transform="translate(149,119)"/>
<path d="M0 0 C0.33 0.99 0.66 1.98 1 3 C0.071875 3.433125 -0.85625 3.86625 -1.8125 4.3125 C-4.47184073 5.72038627 -6.08105905 6.76123556 -8 9 C-6.68994234 5.06982701 -4.75047804 0 0 0 Z " fill="#9E9A96" transform="translate(73,82)"/>
<path d="M0 0 C0.66 0.66 1.32 1.32 2 2 C-0.31 4.64 -2.62 7.28 -5 10 C-5.33 9.34 -5.66 8.68 -6 8 C-4.02 5.36 -2.04 2.72 0 0 Z " fill="#9C9793" transform="translate(62,100)"/>
</svg>
