<?xml version="1.0" encoding="UTF-8"?>
<svg version="1.1" xmlns="http://www.w3.org/2000/svg" width="200" height="200">
<path d="M0 0 C1.4818428 -0.00855011 1.4818428 -0.00855011 2.99362183 -0.01727295 C5.06588695 -0.02665129 7.13816651 -0.03322809 9.21044922 -0.03710938 C12.36582253 -0.04687078 15.52055864 -0.07798463 18.67578125 -0.109375 C20.70051701 -0.11590156 22.72525737 -0.12115339 24.75 -0.125 C26.15029953 -0.1435202 26.15029953 -0.1435202 27.57888794 -0.16241455 C34.73223513 -0.13824099 40.00934287 1.20839108 46.1796875 5.015625 C48.2421875 7.203125 48.2421875 7.203125 49.3671875 10.140625 C49.2421875 13.203125 49.2421875 13.203125 47.4296875 15.953125 C43.22259356 18.92283837 39.2801895 19.54769561 34.2421875 20.203125 C34.23960937 20.80640625 34.23703125 21.4096875 34.234375 22.03125 C34.11286004 24.54255926 33.89600257 26.77227409 33.2421875 29.203125 C27.07999569 34.56155266 21.04997645 34.68137988 13.2421875 34.203125 C9.5546875 33.203125 9.5546875 33.203125 7.2421875 32.203125 C7.0875 33.37875 7.0875 33.37875 6.9296875 34.578125 C6.2421875 37.203125 6.2421875 37.203125 3.2421875 39.203125 C-2.9450271 40.91352798 -9.52251704 40.38910602 -15.89233398 40.38842773 C-18.1569371 40.39058839 -20.42103148 40.40869237 -22.68554688 40.42773438 C-47.53432311 40.52881345 -47.53432311 40.52881345 -54.7578125 35.203125 C-55.2734375 32.73828125 -55.2734375 32.73828125 -54.7578125 30.203125 C-50.06268831 23.56090519 -42.37609076 20.93845246 -34.7578125 19.203125 C-31.09109301 18.67739851 -27.45843119 18.34881865 -23.7578125 18.203125 C-24.90121094 17.99816406 -26.04460937 17.79320313 -27.22265625 17.58203125 C-28.71357926 17.3101019 -30.20446266 17.03795526 -31.6953125 16.765625 C-32.45005859 16.63091797 -33.20480469 16.49621094 -33.98242188 16.35742188 C-39.64453125 15.31640625 -39.64453125 15.31640625 -40.7578125 14.203125 C-41.1328125 11.890625 -41.1328125 11.890625 -40.7578125 9.203125 C-37.0453445 5.56756311 -33.55643719 4.2815323 -28.5703125 3.015625 C-27.33925781 2.69207031 -26.10820313 2.36851563 -24.83984375 2.03515625 C-16.67638833 0.21338889 -8.331329 0.0380933 0 0 Z " fill="#6FACFE" transform="translate(105.7578125,108.796875)"/>
<path d="M0 0 C0.99 0 1.98 0 3 0 C4.94369088 2.51959929 5.91295451 4.40518917 6.375 7.5625 C5.92892596 10.46198126 4.84617664 11.76920323 3 14 C3 14.66 3 15.32 3 16 C3.61875 16.268125 4.2375 16.53625 4.875 16.8125 C7 18 7 18 9 21 C9.375 24.5 9.375 24.5 9 28 C6.74640305 30.33130719 5.08784275 30.97071908 2 32 C1.06619039 36.53140653 1.06619039 36.53140653 2 41 C2.99 41 3.98 41 5 41 C4.67 41.99 4.34 42.98 4 44 C-0.875 42.25 -0.875 42.25 -2 40 C-2.35152436 36.96306008 -2.4117177 34.03224519 -2 31 C0.24061675 28.52759532 1.82929529 28.05690157 5 27 C6.27083333 24.1875 6.27083333 24.1875 5.375 22.125 C3.97653271 19.77371014 3.97653271 19.77371014 1.3125 17.5 C-1 15 -1 15 -1 12.9375 C0.12322087 10.76125956 1.51222558 8.94057534 3 7 C3 6.34 3 5.68 3 5 C2.01 4.67 1.02 4.34 0 4 C0 2.68 0 1.36 0 0 Z " fill="#A2805B" transform="translate(101,61)"/>
<path d="M0 0 C-0.96734522 2.67880215 -1.85350875 4.8140688 -3.625 7.0625 C-5.38583134 9.14770106 -5.38583134 9.14770106 -5 13 C-3.02 13.66 -1.04 14.32 1 15 C1 17.31 1 19.62 1 22 C-0.134375 22.391875 -1.26875 22.78375 -2.4375 23.1875 C-6.20339051 24.58610882 -6.20339051 24.58610882 -6.9375 27.6875 C-6.958125 28.450625 -6.97875 29.21375 -7 30 C-6.01 30.61875 -5.02 31.2375 -4 31.875 C-2.515 32.926875 -2.515 32.926875 -1 34 C-1 34.66 -1 35.32 -1 36 C-4.375 35.6875 -4.375 35.6875 -8 35 C-10.50944357 31.23583464 -10.75765443 28.42581062 -10 24 C-7.67461607 21.42546779 -5.37577742 20.6028174 -2 20 C-2 19.01 -2 18.02 -2 17 C-2.804375 16.690625 -3.60875 16.38125 -4.4375 16.0625 C-7 15 -7 15 -8 14 C-8.48007642 9.27924859 -8.70849935 6.30119738 -5.6875 2.5 C-3 0 -3 0 0 0 Z " fill="#A2805B" transform="translate(86,71)"/>
<path d="M0 0 C-0.33 0.99 -0.66 1.98 -1 3 C-1.66 3 -2.32 3 -3 3 C-3.78282648 4.79199472 -3.78282648 4.79199472 -4 7 C-3.525625 7.61875 -3.05125 8.2375 -2.5625 8.875 C-1 11 -1 11 -0.4375 13.9375 C-1.25556794 18.39142543 -3.36708197 19.42668306 -7 22 C-6.1028125 22.433125 -6.1028125 22.433125 -5.1875 22.875 C-3 24 -3 24 0 26 C0.4375 28.9375 0.4375 28.9375 0 32 C-1.8125 33.875 -1.8125 33.875 -4 35 C-4.99 35 -5.98 35 -7 35 C-7 34.01 -7 33.02 -7 32 C-5.68 31.67 -4.36 31.34 -3 31 C-3 29.68 -3 28.36 -3 27 C-5.31 26.67 -7.62 26.34 -10 26 C-10.375 22.75 -10.375 22.75 -10 19 C-7 16.5625 -7 16.5625 -4 15 C-5.22007944 12.3094472 -5.22007944 12.3094472 -7 10 C-7.40930274 6.3162753 -7.47354054 4.6205014 -5.1875 1.625 C-3 0 -3 0 0 0 Z " fill="#A2805B" transform="translate(133,69)"/>
<path d="M0 0 C0 0.66 0 1.32 0 2 C1.093125 2.103125 2.18625 2.20625 3.3125 2.3125 C6.85559629 2.97307727 7.93243723 3.2027092 10 6 C6.6325319 6 4.00700022 5.68568426 0.75 5 C-0.14203125 4.814375 -1.0340625 4.62875 -1.953125 4.4375 C-2.96632812 4.2209375 -2.96632812 4.2209375 -4 4 C-4 3.01 -4 2.02 -4 1 C-2 0 -2 0 0 0 Z " fill="#E2E4E6" transform="translate(66,137)"/>
</svg>
