<?xml version="1.0" encoding="UTF-8"?>
<svg version="1.1" xmlns="http://www.w3.org/2000/svg" width="200" height="200">
<path d="M0 0 C1.2684375 0.10054687 1.2684375 0.10054687 2.5625 0.203125 C5.37942823 0.83512813 6.75011844 1.9841567 9 3.75 C11.14271734 4.55437947 11.14271734 4.55437947 13.375 5.125 C18.62663171 6.77749037 22.25517191 9.13275786 25.375 13.8125 C26 15.75 26 15.75 26 19.75 C26.5775 19.976875 27.155 20.20375 27.75 20.4375 C32.20551953 23.03655306 34.40595182 26.96785547 36 31.75 C36.226875 32.801875 36.45375 33.85375 36.6875 34.9375 C37.60833701 38.36836048 39.32239096 40.72754292 41.4375 43.5625 C47.25140281 51.55963188 49.03651253 61.00271839 50 70.75 C49.67 71.08 49.34 71.41 49 71.75 C51.31 72.08 53.62 72.41 56 72.75 C56.33 73.74 56.66 74.73 57 75.75 C57.66 75.75 58.32 75.75 59 75.75 C59 77.07 59 78.39 59 79.75 C53.62684181 83.77986864 48.49605542 83.91249888 41.98046875 84.03125 C41.20367264 84.04965942 40.42687653 84.06806885 39.62654114 84.08703613 C37.14693575 84.14562822 34.66726164 84.19847374 32.1875 84.25 C28.93085912 84.31810526 25.67441265 84.39185908 22.41796875 84.46875 C21.67918991 84.48232544 20.94041107 84.49590088 20.179245 84.5098877 C15.71237338 84.61546419 11.42537971 85.08125229 7 85.75 C5.54322811 85.83069493 4.0840031 85.88036685 2.625 85.8828125 C1.48804687 85.88474609 1.48804687 85.88474609 0.328125 85.88671875 C-0.82429688 85.88091797 -0.82429688 85.88091797 -2 85.875 C-3.15242188 85.88080078 -3.15242188 85.88080078 -4.328125 85.88671875 C-5.08609375 85.88542969 -5.8440625 85.88414062 -6.625 85.8828125 C-7.29789063 85.88168457 -7.97078125 85.88055664 -8.6640625 85.87939453 C-11 85.75 -11 85.75 -14.25390625 85.25488281 C-18.28760303 84.71123807 -22.2511789 84.57971833 -26.3125 84.5390625 C-27.89844807 84.51100781 -29.48438545 84.48234345 -31.0703125 84.453125 C-33.53873546 84.41187002 -36.00695557 84.37492592 -38.47558594 84.34863281 C-40.87996051 84.32088635 -43.28346563 84.27504307 -45.6875 84.2265625 C-46.41686768 84.22330963 -47.14623535 84.22005676 -47.89770508 84.21670532 C-53.7550841 84.07761033 -57.77150485 82.36424757 -63 79.75 C-63 78.43 -63 77.11 -63 75.75 C-62.34 75.75 -61.68 75.75 -61 75.75 C-60.67 74.76 -60.34 73.77 -60 72.75 C-56.535 72.255 -56.535 72.255 -53 71.75 C-53.33 70.76 -53.66 69.77 -54 68.75 C-53.56277273 67.10198953 -53.11339987 65.4559371 -52.59375 63.83203125 C-51.93604082 61.52572207 -51.57031666 59.24183763 -51.1875 56.875 C-49.78205485 49.6043113 -46.05341268 43.1519239 -41 37.75 C-40.34 37.75 -39.68 37.75 -39 37.75 C-39.04640625 37.16992188 -39.0928125 36.58984375 -39.140625 35.9921875 C-39.45200945 29.2529384 -37.81915283 26.00286865 -33.375 20.875 C-32 19.75 -32 19.75 -30 19.75 C-29.9071875 18.450625 -29.9071875 18.450625 -29.8125 17.125 C-28.78102778 12.8404231 -27.10213551 10.85213551 -24 7.75 C-20.76495932 5.7808448 -17.89818269 4.72115176 -14.25 3.6875 C-10.94569661 3.01797841 -10.94569661 3.01797841 -9 0.75 C-5.90596293 -0.34358207 -3.2457603 -0.29686832 0 0 Z " fill="#16120D" transform="translate(102,60.25)"/>
<path d="M0 0 C2.13521558 2.0013844 3.58971202 3.92312052 5.0625 6.4375 C8.44688594 11.12814016 12.46517323 12.68982361 18 14 C21.93345405 14.55585264 25.87978487 14.95418258 29.8425293 15.22973633 C34.19005101 15.57397918 35.99654189 15.9914813 39 19 C42.64734979 18.77669287 44.38372835 18.61627165 47 16 C49.36269778 15.50030964 51.74112929 15.07375341 54.125 14.6875 C61.26236406 13.37477417 67.07408591 11.8771965 71.5859375 5.8984375 C72.82028718 3.96848744 73.94975206 2.03485539 75 0 C83.64377027 7.40894595 85.72794854 16.68918232 86.8359375 27.55859375 C87 31 87 31 86 34 C88.64 34.33 91.28 34.66 94 35 C94 35.66 94 36.32 94 37 C94.99 37 95.98 37 97 37 C97 37.66 97 38.32 97 39 C88.21429417 44.05178085 78.71009526 43.10212975 68.875 43 C66.39327387 42.97438879 63.91149489 42.95339204 61.4296875 42.9375 C60.33897949 42.92589844 59.24827148 42.91429687 58.12451172 42.90234375 C54.99215335 43.00024525 52.08414081 43.46768296 49 44 C47.27239586 44.08579743 45.54223178 44.13052276 43.8125 44.1328125 C42.86632812 44.13410156 41.92015625 44.13539063 40.9453125 44.13671875 C39.97335938 44.13285156 39.00140625 44.12898438 38 44.125 C36.54207031 44.13080078 36.54207031 44.13080078 35.0546875 44.13671875 C34.10851562 44.13542969 33.16234375 44.13414062 32.1875 44.1328125 C31.33542969 44.13168457 30.48335937 44.13055664 29.60546875 44.12939453 C27 44 27 44 24.11645508 43.49121094 C20.6617737 42.94668928 17.44505632 42.93751868 13.94921875 43.0078125 C12.5970128 43.02533533 11.24479876 43.04224298 9.89257812 43.05859375 C7.79281503 43.08941865 5.69347127 43.12486769 3.59399414 43.17138672 C-5.37081411 43.35900998 -12.82610439 43.0869478 -21 39 C-21 38.34 -21 37.68 -21 37 C-20.01 37 -19.02 37 -18 37 C-18 36.34 -18 35.68 -18 35 C-15.36 34.67 -12.72 34.34 -10 34 C-10.20625 33.0925 -10.4125 32.185 -10.625 31.25 C-12.10561657 20.47198229 -7.99091997 10.39313509 -1.6875 1.875 C-1.130625 1.25625 -0.57375 0.6375 0 0 Z " fill="#E4B481" transform="translate(62,100)"/>
<path d="M0 0 C0.515625 0.61875 1.03125 1.2375 1.5625 1.875 C8.11121248 7.58413396 18.83909919 6.30176047 27 6.25 C28.21945313 6.25773437 29.43890625 6.26546875 30.6953125 6.2734375 C42.32147315 6.63442258 42.32147315 6.63442258 52.3125 1.8125 C52.869375 1.214375 53.42625 0.61625 54 0 C56 -0.125 56 -0.125 58 1 C62.00485394 5.57697593 63.26038351 10.03200984 63 16 C61.08890986 22.37030046 57.87022622 26.03984551 52.4375 29.75 C47.39174731 31.58481916 42.33330164 31.7497318 37 32 C37.33 30.35 37.66 28.7 38 27 C27.605 27.495 27.605 27.495 17 28 C18.98 28.33 20.96 28.66 23 29 C23.495 30.485 23.495 30.485 24 32 C3.15614003 32.579891 3.15614003 32.579891 -5 25 C-8.67130433 20.71681161 -9.14987243 15.49238374 -9 10 C-7.58435588 5.97659041 -4.8888449 0 0 0 Z " fill="#E1B280" transform="translate(73,82)"/>
<path d="M0 0 C3.4375 1.8125 3.4375 1.8125 5.1484375 2.9375 C7.24834479 4.14251009 9.22761275 4.687781 11.5625 5.3125 C16.49712753 6.87569536 19.51606447 9.4430055 22 14 C22.6875 17.75 22.6875 17.75 22 21 C17.05368866 25.12192612 11.64260636 25.16543763 5.453125 25.203125 C4.35807648 25.21167511 4.35807648 25.21167511 3.24090576 25.22039795 C1.69772785 25.2298259 0.15453001 25.23637315 -1.38867188 25.24023438 C-3.72823042 25.24990997 -6.06689849 25.28094045 -8.40625 25.3125 C-9.91145316 25.31903408 -11.41666256 25.32428296 -12.921875 25.328125 C-13.611745 25.3404718 -14.30161499 25.3528186 -15.01239014 25.36553955 C-19.83867612 25.34383037 -26.3814177 24.6185823 -30 21 C-30.60449855 16.68215323 -30.34603198 13.84652664 -27.75 10.375 C-23.45959828 5.80746707 -17.74268644 4.13551153 -12 2 C-11.29746094 1.63261719 -10.59492187 1.26523437 -9.87109375 0.88671875 C-6.67290384 -0.62891614 -3.42161853 -0.53583837 0 0 Z " fill="#E4B683" transform="translate(104,62)"/>
<path d="M0 0 C6.06586069 6.64356171 6.94824731 16.38317704 7 25 C6.505 26.485 6.505 26.485 6 28 C8.64 28.33 11.28 28.66 14 29 C14 29.66 14 30.32 14 31 C14.99 31 15.98 31 17 31 C17 31.66 17 32.32 17 33 C8.21429417 38.05178085 -1.28990474 37.10212975 -11.125 37 C-13.60672613 36.97438879 -16.08850511 36.95339204 -18.5703125 36.9375 C-19.66102051 36.92589844 -20.75172852 36.91429687 -21.87548828 36.90234375 C-25.00535624 37.00016741 -27.92366459 37.43700872 -31 38 C-33.67810075 38.11196073 -36.31732686 38.04625299 -39 38 C-36.80780549 35.80780549 -35.38355636 35.29027033 -32.5 34.25 C-20.07328834 29.34706498 -8.64647056 21.50359504 -2.875 9.0625 C-1.67012953 6.07670785 -0.71370509 3.13884587 0 0 Z " fill="#A88663" transform="translate(142,106)"/>
<path d="M0 0 C0.66 0 1.32 0 2 0 C1.54625 1.155 1.0925 2.31 0.625 3.5 C-2.07944491 11.53643107 -3 20.55393175 -3 29 C-5.64 29 -8.28 29 -11 29 C-11 29.66 -11 30.32 -11 31 C-11.99 31 -12.98 31 -14 31 C-14 31.66 -14 32.32 -14 33 C-5.05425079 36.15149101 3.45278439 36.33498299 12.8125 36.125 C14.88805078 36.08967765 16.96353264 36.05891867 19.03923035 36.03366089 C20.90885731 36.0092571 22.77830482 35.97207132 24.64770508 35.93408203 C27.87916233 35.9976239 30.82340708 36.44035678 34 37 C35.72760414 37.08579743 37.45776822 37.13052276 39.1875 37.1328125 C40.13367188 37.13410156 41.07984375 37.13539063 42.0546875 37.13671875 C43.02664062 37.13285156 43.99859375 37.12898438 45 37.125 C46.45792969 37.13080078 46.45792969 37.13080078 47.9453125 37.13671875 C48.89148438 37.13542969 49.83765625 37.13414062 50.8125 37.1328125 C51.66457031 37.13168457 52.51664062 37.13055664 53.39453125 37.12939453 C56.05994868 37.05119449 56.05994868 37.05119449 58.88793945 36.49121094 C62.31882252 35.94967672 65.50869418 35.93726032 68.98046875 36.0078125 C70.32355996 36.02534354 71.66665944 36.04225039 73.00976562 36.05859375 C75.09179465 36.08933741 77.17339165 36.12468348 79.25512695 36.17138672 C87.94129354 36.35538501 95.73044747 35.91327421 104 33 C104 32.34 104 31.68 104 31 C103.01 31 102.02 31 101 31 C101 30.34 101 29.68 101 29 C98.36 29 95.72 29 93 29 C93 26 93 23 93 20 C93.99 20 94.98 20 96 20 C96.38218767 21.65614657 96.71395102 23.32457024 97 25 C96.505 25.495 96.505 25.495 96 26 C98.31 26.33 100.62 26.66 103 27 C103.495 28.485 103.495 28.485 104 30 C104.66 30 105.32 30 106 30 C106 31.32 106 32.64 106 34 C100.62684181 38.02986864 95.49605542 38.16249888 88.98046875 38.28125 C88.20367264 38.29965942 87.42687653 38.31806885 86.62654114 38.33703613 C84.14693575 38.39562822 81.66726164 38.44847374 79.1875 38.5 C75.93085912 38.56810526 72.67441265 38.64185908 69.41796875 38.71875 C68.67918991 38.73232544 67.94041107 38.74590088 67.179245 38.7598877 C62.71237338 38.86546419 58.42537971 39.33125229 54 40 C52.54322811 40.08069493 51.0840031 40.13036685 49.625 40.1328125 C48.48804687 40.13474609 48.48804687 40.13474609 47.328125 40.13671875 C46.55984375 40.13285156 45.7915625 40.12898438 45 40.125 C43.84757812 40.13080078 43.84757812 40.13080078 42.671875 40.13671875 C41.91390625 40.13542969 41.1559375 40.13414062 40.375 40.1328125 C39.70210937 40.13168457 39.02921875 40.13055664 38.3359375 40.12939453 C36 40 36 40 32.74609375 39.50488281 C28.71239697 38.96123807 24.7488211 38.82971833 20.6875 38.7890625 C19.10155193 38.76100781 17.51561455 38.73234345 15.9296875 38.703125 C13.46126454 38.66187002 10.99304443 38.62492592 8.52441406 38.59863281 C6.12003949 38.57088635 3.71653437 38.52504307 1.3125 38.4765625 C0.58313232 38.47330963 -0.14623535 38.47005676 -0.89770508 38.46670532 C-6.7550841 38.32761033 -10.77150485 36.61424757 -16 34 C-16 32.68 -16 31.36 -16 30 C-15.34 30 -14.68 30 -14 30 C-13.67 29.01 -13.34 28.02 -13 27 C-9.535 26.505 -9.535 26.505 -6 26 C-6.33 25.01 -6.66 24.02 -7 23 C-6.56391927 21.3563111 -6.11660937 19.71443082 -5.6015625 18.09375 C-4.92111902 15.7254532 -4.49356328 13.36314421 -4.0625 10.9375 C-3.29007221 6.8899784 -2.08087839 3.5942445 0 0 Z " fill="#0D0A07" transform="translate(55,106)"/>
<path d="M0 0 C0.33 0 0.66 0 1 0 C1.185625 0.94875 1.37125 1.8975 1.5625 2.875 C2.54776444 6.42337991 4.23846829 8.87581842 6.4375 11.8125 C11.13378528 18.24054048 13.6359083 24.94516154 13 33 C12.01 33.495 12.01 33.495 11 34 C10.85304688 33.10539062 10.70609375 32.21078125 10.5546875 31.2890625 C9.06020177 23.23258195 7.1047971 16.52674616 2 10 C1.01 9.505 1.01 9.505 0 9 C-0.52787109 9.90492187 -0.52787109 9.90492187 -1.06640625 10.828125 C-4.2395815 15.96485778 -7.06733954 20.05894498 -13 22 C-16.85371648 22.83938245 -20.68044482 23.56135841 -24.57421875 24.19140625 C-27.93023928 24.98353424 -29.39898874 25.86919444 -32 28 C-35.37036311 27.75925978 -36.58798021 27.41201979 -39 25 C-41.84420655 24.62978303 -44.64448317 24.35158279 -47.5 24.125 C-63.65852421 22.53087118 -63.65852421 22.53087118 -68.9296875 16.9609375 C-70.41283759 15.02669107 -71.75127136 13.09136667 -73 11 C-72.67 10.34 -72.34 9.68 -72 9 C-71.34 10.0725 -70.68 11.145 -70 12.25 C-66.45602584 17.20955591 -62.01857189 19.17675312 -56.25 20.75 C-51.16831145 21.14089912 -46.09367339 21.07417971 -41 21 C-41 20.34 -41 19.68 -41 19 C-42.98 19 -44.96 19 -47 19 C-47.33 18.34 -47.66 17.68 -48 17 C-40.74 17 -33.48 17 -26 17 C-26.495 19.475 -26.495 19.475 -27 22 C-24.6209755 21.60046917 -22.24833244 21.18111095 -19.875 20.75 C-19.20984375 20.64042969 -18.5446875 20.53085938 -17.859375 20.41796875 C-12.14684764 19.35387052 -7.70304197 17.34902341 -4.1875 12.5 C-3.14488188 10.30501448 -2.44095607 8.38116277 -2 6 C-1.34 6 -0.68 6 0 6 C0 4.02 0 2.04 0 0 Z " fill="#100C09" transform="translate(137,92)"/>
<path d="M0 0 C1.03125 0.00064453 2.0625 0.00128906 3.125 0.00195312 C10.70189473 0.04646491 10.70189473 0.04646491 14.125 1.1875 C13.875 3.5625 13.875 3.5625 13.125 6.1875 C7.98877085 10.1384455 -0.64150945 9.64230403 -6.875 9.1875 C-7.205 8.8575 -7.535 8.5275 -7.875 8.1875 C-9.85009873 7.9780639 -11.83071682 7.81946178 -13.8125 7.6875 C-19.65491747 7.29754127 -19.65491747 7.29754127 -21.875 6.1875 C-21.545 4.8675 -21.215 3.5475 -20.875 2.1875 C-13.79236487 0.32481113 -7.30536193 -0.088748 0 0 Z " fill="#010100" transform="translate(142.875,146.8125)"/>
<path d="M0 0 C0.845625 0.06703125 1.69125 0.1340625 2.5625 0.203125 C5.37942823 0.83512813 6.75011844 1.9841567 9 3.75 C11.14271734 4.55437947 11.14271734 4.55437947 13.375 5.125 C18.62663171 6.77749037 22.25517191 9.13275786 25.375 13.8125 C26 15.75 26 15.75 26 19.75 C26.5775 19.976875 27.155 20.20375 27.75 20.4375 C31.14222063 22.41629537 33.25493471 25.25986942 35 28.75 C35.06950541 30.29023996 35.08452357 31.83334988 35.0625 33.375 C35.05347656 34.19226563 35.04445312 35.00953125 35.03515625 35.8515625 C35.02355469 36.47804687 35.01195312 37.10453125 35 37.75 C34.67 37.75 34.34 37.75 34 37.75 C33.89042969 37.14671875 33.78085938 36.5434375 33.66796875 35.921875 C32.78331609 31.46265023 32.072371 28.24133069 29 24.75 C29 24.09 29 23.43 29 22.75 C27.68 22.42 26.36 22.09 25 21.75 C24.773125 22.36875 24.54625 22.9875 24.3125 23.625 C22.56325393 26.45711269 21.14537591 26.73648998 18 27.75 C15.9040014 28.02876518 13.79737389 28.23588744 11.6875 28.375 C10.61886719 28.44976562 9.55023438 28.52453125 8.44921875 28.6015625 C7.23685547 28.67503906 7.23685547 28.67503906 6 28.75 C6.33 28.09 6.66 27.43 7 26.75 C9.58203125 26.1875 9.58203125 26.1875 12.8125 25.75 C16.62166414 25.23035763 19.65854331 24.6917666 23 22.75 C23.41993066 18.55069337 23.29560786 16.26986211 21.1875 12.5625 C18.03338514 9.16437052 14.05917637 8.04207813 9.71875 6.70703125 C7 5.75 7 5.75 4.39453125 4.1640625 C0.97297002 2.14349943 -2.17858267 2.07563224 -6 2.75 C-8.19117043 3.68907304 -10.19705691 4.74295315 -12.23828125 5.97265625 C-14 6.75 -14 6.75 -17 5.75 C-15.75443908 4.93071114 -14.50333365 4.11984814 -13.25 3.3125 C-12.20585938 2.63380859 -12.20585938 2.63380859 -11.140625 1.94140625 C-7.3292015 -0.17991522 -4.31071513 -0.39427272 0 0 Z " fill="#110D09" transform="translate(102,60.25)"/>
<path d="M0 0 C3.11130213 2.43070479 3.93506938 3.58877276 4.5625 7.5625 C4 11 4 11 1.75 12.875 C-1.96316184 14.39402075 -5.09851624 15.12804154 -9.109375 15.09765625 C-9.86347656 15.09443359 -10.61757812 15.09121094 -11.39453125 15.08789062 C-12.17183594 15.07951172 -12.94914062 15.07113281 -13.75 15.0625 C-14.54277344 15.05798828 -15.33554688 15.05347656 -16.15234375 15.04882812 C-18.10159508 15.03708565 -20.05080738 15.01915146 -22 15 C-22 14.67 -22 14.34 -22 14 C-20.88625 13.773125 -19.7725 13.54625 -18.625 13.3125 C-12.86051397 11.83547867 -6.32953683 9.8790686 -2.4765625 5.1171875 C-1.23485122 3.02507396 -1.23485122 3.02507396 0 0 Z " fill="#A88663" transform="translate(122,72)"/>
<path d="M0 0 C0.33 0 0.66 0 1 0 C0.86806939 5.96086505 0.46634665 10.82888926 -3.4375 15.53125 C-9.62928402 21.35152698 -16.81361476 21.72712049 -25 22 C-24.67 21.34 -24.34 20.68 -24 20 C-22.95199219 19.71640625 -21.90398437 19.4328125 -20.82421875 19.140625 C-16.72116467 17.91683359 -14.20496149 16.33055285 -10.8125 13.75 C-9.80832031 13.00234375 -8.80414063 12.2546875 -7.76953125 11.484375 C-4.03433869 8.13376503 -1.58874352 4.76623055 0 0 Z " fill="#9F7F5E" transform="translate(135,92)"/>
<path d="M0 0 C1.01320312 0.00451172 2.02640625 0.00902344 3.0703125 0.01367188 C5.54693827 0.02535407 8.02343657 0.04173418 10.5 0.0625 C10.5 1.0525 10.5 2.0425 10.5 3.0625 C7.42082853 6.14167147 -0.58554249 5.18143404 -4.6796875 5.1953125 C-6.5 5.0625 -6.5 5.0625 -7.5 4.0625 C-9.68292774 3.82768307 -11.87203174 3.64886677 -14.0625 3.5 C-15.85880859 3.37431641 -15.85880859 3.37431641 -17.69140625 3.24609375 C-18.61824219 3.18550781 -19.54507813 3.12492188 -20.5 3.0625 C-20.17 2.4025 -19.84 1.7425 -19.5 1.0625 C-13.02095881 -0.14096676 -6.57089413 -0.05605093 0 0 Z " fill="#DEAF7E" transform="translate(143.5,148.9375)"/>
<path d="M0 0 C0.33 0 0.66 0 1 0 C1.185625 0.94875 1.37125 1.8975 1.5625 2.875 C2.54776444 6.42337991 4.23846829 8.87581842 6.4375 11.8125 C11.13378528 18.24054048 13.6359083 24.94516154 13 33 C12.01 33.495 12.01 33.495 11 34 C10.77957031 32.65808594 10.77957031 32.65808594 10.5546875 31.2890625 C9.08438618 23.36295538 7.30139602 16.27353466 2 10 C-0.08234622 8.73034493 -0.08234622 8.73034493 -2 8 C-2 7.34 -2 6.68 -2 6 C-1.34 6 -0.68 6 0 6 C0 4.02 0 2.04 0 0 Z " fill="#221A12" transform="translate(137,92)"/>
<path d="M0 0 C0.66 0 1.32 0 2 0 C1.54625 1.155 1.0925 2.31 0.625 3.5 C-2.07944491 11.53643107 -3 20.55393175 -3 29 C-4.32 28.67 -5.64 28.34 -7 28 C-7 25.37199693 -6.72093246 23.46333679 -6.125 20.9375 C-5.34156551 17.5736624 -4.67351942 14.21161645 -4.0625 10.8125 C-3.28404054 6.82055987 -2.05298732 3.546069 0 0 Z " fill="#070504" transform="translate(55,106)"/>
<path d="M0 0 C1.9375 0.375 1.9375 0.375 4 1 C4.33 1.66 4.66 2.32 5 3 C5.99 2.67 6.98 2.34 8 2 C8.33 1.34 8.66 0.68 9 0 C9.99 0 10.98 0 12 0 C10.84826645 2.46800047 9.95216435 4.04783565 8 6 C9.32 7.32 10.64 8.64 12 10 C11.01 10.33 10.02 10.66 9 11 C6.8125 9.5625 6.8125 9.5625 5 8 C2.525 9.485 2.525 9.485 0 11 C0.165 10.4225 0.33 9.845 0.5 9.25 C1.25873146 5.83570843 1.10189513 3.30568539 0 0 Z " fill="#0B0906" transform="translate(107,93)"/>
<path d="M0 0 C1.65 0 3.3 0 5 0 C5 0.99 5 1.98 5 3 C5.66 3 6.32 3 7 3 C7 2.01 7 1.02 7 0 C8.65 0 10.3 0 12 0 C12 0.99 12 1.98 12 3 C11.34 3 10.68 3 10 3 C9.67 4.32 9.34 5.64 9 7 C7.68 7.33 6.36 7.66 5 8 C2.74754119 5.31158141 1.11786042 3.35358125 0 0 Z " fill="#ED9A81" transform="translate(97,111)"/>
<path d="M0 0 C0.78375 0.495 1.5675 0.99 2.375 1.5 C4.78552327 3.16537965 4.78552327 3.16537965 7 3 C7.33 2.34 7.66 1.68 8 1 C8.99 1 9.98 1 11 1 C10.34 2.65 9.68 4.3 9 6 C9.99 6.99 10.98 7.98 12 9 C11.67 9.66 11.34 10.32 11 11 C9.35 10.01 7.7 9.02 6 8 C5.01 8.99 4.02 9.98 3 11 C2.01 10.67 1.02 10.34 0 10 C1.32 8.68 2.64 7.36 4 6 C3.34 5.38125 2.68 4.7625 2 4.125 C0 2 0 2 0 0 Z " fill="#090705" transform="translate(81,93)"/>
<path d="M0 0 C1.36328125 1.37890625 1.36328125 1.37890625 3.23828125 3.81640625 C1.08324846 3.35461351 -0.61678947 2.90439903 -2.51171875 1.75390625 C-5.92513015 0.3316515 -9.16086798 0.24990712 -12.76171875 0.81640625 C-14.95652542 1.75144866 -16.95742216 2.808544 -19 4.0390625 C-20.76171875 4.81640625 -20.76171875 4.81640625 -23.76171875 3.81640625 C-22.51615783 2.99711739 -21.2650524 2.18625439 -20.01171875 1.37890625 C-18.96757813 0.70021484 -18.96757813 0.70021484 -17.90234375 0.0078125 C-12.69717894 -2.88922266 -5.10473537 -3.42956722 0 0 Z " fill="#0E0B08" transform="translate(108.76171875,62.18359375)"/>
<path d="M0 0 C0.66 0.33 1.32 0.66 2 1 C1.09507813 1.65355469 1.09507813 1.65355469 0.171875 2.3203125 C-4.54781053 5.83723946 -8.11154958 8.85102316 -11 14 C-11.33 13.01 -11.66 12.02 -12 11 C-9.09664625 5.75162976 -5.76758185 1.92252728 0 0 Z " fill="#1E1912" transform="translate(84,65)"/>
<path d="M0 0 C5.66573973 0.23125468 8.40408437 1.67001251 12.6171875 5.4296875 C14 7 14 7 15 10 C12.52722205 8.90098758 10.75126419 7.78487714 8.6875 6 C5.43935262 3.58277404 2.91252314 2.92059368 -1 2 C-0.67 1.34 -0.34 0.68 0 0 Z " fill="#1C160F" transform="translate(112,65)"/>
<path d="M0 0 C0.66 0.33 1.32 0.66 2 1 C2.6875 3.5 2.6875 3.5 3 6 C2.67 6.33 2.34 6.66 2 7 C3.65 7.33 5.3 7.66 7 8 C7 8.33 7 8.66 7 9 C4.36 9.33 1.72 9.66 -1 10 C-1 8.68 -1 7.36 -1 6 C-1.020625 5.113125 -1.04125 4.22625 -1.0625 3.3125 C-1 1 -1 1 0 0 Z " fill="#050402" transform="translate(149,125)"/>
<path d="M0 0 C0.66 0.66 1.32 1.32 2 2 C1.06862408 3.29608947 0.1296434 4.58671632 -0.8125 5.875 C-1.33457031 6.59429687 -1.85664062 7.31359375 -2.39453125 8.0546875 C-4 10 -4 10 -7 12 C-7.99 11.67 -8.98 11.34 -10 11 C-8.63875 10.2265625 -8.63875 10.2265625 -7.25 9.4375 C-3.48237384 6.96443733 -1.9915852 3.98317039 0 0 Z " fill="#917457" transform="translate(122,72)"/>
<path d="M0 0 C0.33 0.99 0.66 1.98 1 3 C-0.11375 3.6496875 -0.11375 3.6496875 -1.25 4.3125 C-3.61833926 5.76579909 -5.80924065 7.29607606 -8 9 C-6.68994234 5.06982701 -4.75047804 0 0 0 Z " fill="#F5EAB2" transform="translate(73,82)"/>
<path d="M0 0 C0.33 0 0.66 0 1 0 C1.28875 1.0725 1.5775 2.145 1.875 3.25 C2.72820109 6.09400364 3.5636503 8.43508983 5 11 C4.01 11.495 4.01 11.495 3 12 C2.54625 11.525625 2.0925 11.05125 1.625 10.5625 C0.06741796 8.90972192 0.06741796 8.90972192 -2 8 C-2 7.34 -2 6.68 -2 6 C-1.34 6 -0.68 6 0 6 C0 4.02 0 2.04 0 0 Z " fill="#4C3C2A" transform="translate(137,92)"/>
<path d="M0 0 C0.57234375 0.21527344 1.1446875 0.43054687 1.734375 0.65234375 C0.30425527 1.51881042 -1.13503119 2.37016204 -2.578125 3.21484375 C-3.77888672 3.92833984 -3.77888672 3.92833984 -5.00390625 4.65625 C-7.265625 5.65234375 -7.265625 5.65234375 -10.265625 4.65234375 C-9.02618224 3.78292881 -7.77355441 2.93228918 -6.515625 2.08984375 C-5.81953125 1.61417969 -5.1234375 1.13851562 -4.40625 0.6484375 C-2.265625 -0.34765625 -2.265625 -0.34765625 0 0 Z " fill="#050403" transform="translate(95.265625,61.34765625)"/>
<path d="M0 0 C1.98 0 3.96 0 6 0 C6.33 0.66 6.66 1.32 7 2 C5.35 2 3.7 2 2 2 C2 2.66 2 3.32 2 4 C1.01 4 0.02 4 -1 4 C-0.67 2.68 -0.34 1.36 0 0 Z " fill="#201912" transform="translate(42,133)"/>
<path d="M0 0 C3 1 3 1 4.25 2.8125 C5.11637742 5.33943414 4.88492145 6.52221994 4 9 C0 2.25 0 2.25 0 0 Z " fill="#19130D" transform="translate(141,103)"/>
</svg>
