<svg width="5" height="8" viewBox="0 0 5 8" fill="none" xmlns="http://www.w3.org/2000/svg">
<path d="M2.12 7.62V6.61H1.01V5.74H2.12V5.11C1.8 5.04333 1.51 4.91 1.25 4.71C0.996667 4.50333 0.793333 4.25333 0.64 3.96C0.493333 3.66 0.42 3.33667 0.42 2.99C0.42 2.60333 0.52 2.25 0.72 1.93C0.92 1.60333 1.18333 1.34333 1.51 1.15C1.84333 0.95 2.20333 0.85 2.59 0.85C2.98333 0.85 3.34333 0.95 3.67 1.15C4.00333 1.34333 4.26667 1.60333 4.46 1.93C4.66 2.25 4.76 2.60333 4.76 2.99C4.76 3.33 4.68667 3.65 4.54 3.95C4.39333 4.24333 4.19333 4.49333 3.94 4.7C3.68667 4.90667 3.39333 5.04333 3.06 5.11V5.74H4.1V6.61H3.06V7.62H2.12ZM2.59 4.27C2.82333 4.27 3.03667 4.21333 3.23 4.1C3.42333 3.98 3.57667 3.82333 3.69 3.63C3.80333 3.43667 3.86 3.22333 3.86 2.99C3.86 2.76333 3.80333 2.55667 3.69 2.37C3.57667 2.18333 3.42333 2.03667 3.23 1.93C3.03667 1.81667 2.82333 1.76 2.59 1.76C2.36333 1.76 2.15333 1.81667 1.96 1.93C1.76667 2.03667 1.61 2.18333 1.49 2.37C1.37667 2.55667 1.32 2.76333 1.32 2.99C1.32 3.22333 1.37667 3.43667 1.49 3.63C1.61 3.82333 1.76667 3.98 1.96 4.1C2.15333 4.21333 2.36333 4.27 2.59 4.27Z" fill="#C76B6B"/>
</svg>
