<svg width="10" height="9" viewBox="0 0 10 9" fill="none" xmlns="http://www.w3.org/2000/svg">
<path d="M4.2545 9C3.63583 9 3.05983 8.84533 2.5265 8.536C2.00383 8.22667 1.5825 7.80533 1.2625 7.272C0.953167 6.73867 0.7985 6.15733 0.7985 5.528C0.7985 4.89867 0.953167 4.328 1.2625 3.816C1.5825 3.29333 2.00383 2.87733 2.5265 2.568C3.05983 2.25867 3.63583 2.104 4.2545 2.104C4.58517 2.104 4.89983 2.14667 5.1985 2.232C5.49717 2.30667 5.78517 2.43467 6.0625 2.616L6.9585 1.608L5.1185 0.695999L9.1985 0.247999L9.2145 4.312L8.0945 2.6L7.1505 3.672C7.3425 3.93867 7.4865 4.232 7.5825 4.552C7.6785 4.86133 7.7265 5.18667 7.7265 5.528C7.7265 6.15733 7.5665 6.73867 7.2465 7.272C6.93717 7.80533 6.51583 8.22667 5.9825 8.536C5.45983 8.84533 4.88383 9 4.2545 9ZM4.2545 7.56C4.62783 7.56 4.96917 7.46933 5.2785 7.288C5.58783 7.10667 5.83317 6.86133 6.0145 6.552C6.2065 6.24267 6.3025 5.90133 6.3025 5.528C6.3025 5.16533 6.2065 4.83467 6.0145 4.536C5.83317 4.23733 5.58783 3.99733 5.2785 3.816C4.96917 3.63467 4.62783 3.544 4.2545 3.544C3.89183 3.544 3.55583 3.63467 3.2465 3.816C2.93717 3.99733 2.6865 4.23733 2.4945 4.536C2.31317 4.83467 2.2225 5.16533 2.2225 5.528C2.2225 5.90133 2.31317 6.24267 2.4945 6.552C2.6865 6.86133 2.93717 7.10667 3.2465 7.288C3.55583 7.46933 3.89183 7.56 4.2545 7.56Z" fill="#6EA8FE"/>
</svg>
