<svg width="53" height="15" viewBox="0 0 53 15" fill="none" xmlns="http://www.w3.org/2000/svg">
<rect x="0.5" y="0.5" width="52" height="14" rx="7" fill="#9E6EBE" fill-opacity="0.2"/>
<rect x="0.5" y="0.5" width="52" height="14" rx="7" stroke="url(#paint0_linear_5011_1816)"/>
<path d="M14.6875 9.11719V9.82031H8.23438V9.11719H11V7.48438H11.8594V9.11719H14.6875ZM11.8828 4.57812C11.8828 5.64844 12.9531 6.70312 14.4375 6.9375L14.0625 7.65625C12.8672 7.42969 11.8906 6.74609 11.4219 5.82031C10.9531 6.74219 9.98438 7.4375 8.79688 7.65625L8.42188 6.9375C9.89844 6.70312 10.9531 5.64062 10.9609 4.57812V4.0625H11.8828V4.57812ZM21.0625 3.63281V7.3125H20.1953V6.14844H18.9531V5.46875H20.1953V4.91406H18.9531V4.24219H20.1953V3.63281H21.0625ZM21.0625 7.59375V9.39844H17.2734V9.92969H21.2891V10.6094H16.4219V8.76562H20.2031V8.27344H16.4141V7.59375H21.0625ZM17.7109 4.48438C17.7109 5.375 18.2812 6.24219 19.3672 6.59375L18.9141 7.26562C18.1328 6.99609 17.5742 6.44922 17.2734 5.76562C16.9688 6.5 16.3828 7.08594 15.5625 7.36719L15.1172 6.69531C16.2422 6.33594 16.8359 5.42188 16.8359 4.48438V3.8125H17.7109V4.48438ZM30.3984 6.98438V7.67188H23.9609V6.98438H30.3984ZM27.1719 8.13281C28.6953 8.125 29.6094 8.58594 29.6172 9.41406C29.6094 10.2344 28.6953 10.6953 27.1719 10.6953C25.6328 10.6953 24.7109 10.2344 24.7109 9.41406C24.7109 8.58594 25.6328 8.125 27.1719 8.13281ZM27.1719 8.78906C26.1406 8.78906 25.5859 9 25.5938 9.41406C25.5859 9.82031 26.1406 10.0234 27.1719 10.0234C28.1797 10.0234 28.7422 9.82031 28.75 9.41406C28.7422 9 28.1797 8.78906 27.1719 8.78906ZM27.1719 3.79688C28.7188 3.79688 29.7109 4.32031 29.7188 5.16406C29.7109 6.02344 28.7188 6.53125 27.1719 6.53125C25.625 6.53125 24.625 6.02344 24.625 5.16406C24.625 4.32031 25.625 3.79688 27.1719 3.79688ZM27.1719 4.47656C26.1406 4.47656 25.5234 4.71094 25.5312 5.16406C25.5234 5.61719 26.1406 5.85156 27.1719 5.85156C28.2031 5.85156 28.8203 5.61719 28.8203 5.16406C28.8203 4.71094 28.2031 4.47656 27.1719 4.47656ZM36.7969 3.64062V8.98438H35.9219V8.36719H34.5391V7.75781H35.9219V3.64062H36.7969ZM36.9609 9.85156V10.5547H31.7812V8.46875H32.6484V9.85156H36.9609ZM30.8438 6.8125C32.1484 6.80469 33.8984 6.78906 35.3984 6.60156L35.4453 7.22656C34.8633 7.32422 34.2617 7.39062 33.6641 7.42969V8.78906H32.7969V7.47656C32.1367 7.50391 31.5078 7.50781 30.9531 7.50781L30.8438 6.8125ZM33.1484 3.89844C34.1797 3.89844 34.8984 4.40625 34.9062 5.14844C34.8984 5.90625 34.1797 6.39062 33.1484 6.39062C32.1016 6.39062 31.3828 5.90625 31.3828 5.14844C31.3828 4.40625 32.1016 3.89844 33.1484 3.89844ZM33.1484 4.53906C32.5859 4.53906 32.2031 4.76562 32.2031 5.14844C32.2031 5.53125 32.5859 5.75781 33.1484 5.75781C33.6875 5.75781 34.0703 5.53125 34.0781 5.14844C34.0703 4.76562 33.6875 4.53906 33.1484 4.53906ZM43.3828 3.64062V5.5H44.3359V6.21875H43.3828V8.09375H42.5156V3.64062H43.3828ZM41.0469 8.17969C42.5156 8.17969 43.4141 8.63281 43.4219 9.4375C43.4141 10.2188 42.5156 10.6875 41.0469 10.6875C39.5703 10.6875 38.6641 10.2188 38.6641 9.4375C38.6641 8.63281 39.5703 8.17969 41.0469 8.17969ZM41.0469 8.83594C40.0625 8.83594 39.5078 9.04688 39.5156 9.4375C39.5078 9.8125 40.0625 10.0156 41.0469 10.0156C42 10.0156 42.5547 9.8125 42.5625 9.4375C42.5547 9.04688 42 8.83594 41.0469 8.83594ZM37.7734 7.0625C38.2852 7.0625 38.8789 7.05859 39.5 7.03906V6.5C38.6836 6.375 38.1484 5.87891 38.1562 5.19531C38.1484 4.40625 38.875 3.86719 39.9219 3.85938C40.9609 3.86719 41.6875 4.40625 41.6953 5.19531C41.6875 5.87109 41.168 6.35938 40.375 6.49219V7.00781C40.9648 6.97656 41.5547 6.92578 42.1016 6.85156L42.1797 7.46094C40.7109 7.71875 39.0703 7.74219 37.8672 7.74219L37.7734 7.0625ZM39.9219 4.51562C39.3438 4.51562 38.9609 4.76562 38.9688 5.19531C38.9609 5.625 39.3438 5.89844 39.9219 5.89844C40.4844 5.89844 40.8672 5.625 40.875 5.19531C40.8672 4.76562 40.4844 4.51562 39.9219 4.51562Z" fill="#9E6EBE"/>
<defs>
<linearGradient id="paint0_linear_5011_1816" x1="0" y1="7.5" x2="53" y2="7.5" gradientUnits="userSpaceOnUse">
<stop stop-color="#C76B6B"/>
<stop offset="1" stop-color="#9E6EBE"/>
</linearGradient>
</defs>
</svg>
