<svg width="46" height="15" viewBox="0 0 46 15" fill="none" xmlns="http://www.w3.org/2000/svg">
<rect x="0.5" y="0.5" width="45" height="14" rx="7" fill="#FFBA74" fill-opacity="0.2"/>
<rect x="0.5" y="0.5" width="45" height="14" rx="7" stroke="url(#paint0_linear_5011_1814)"/>
<path d="M14.6875 9.11719V9.82031H8.23438V9.11719H11V7.48438H11.8594V9.11719H14.6875ZM11.8828 4.57812C11.8828 5.64844 12.9531 6.70312 14.4375 6.9375L14.0625 7.65625C12.8672 7.42969 11.8906 6.74609 11.4219 5.82031C10.9531 6.74219 9.98438 7.4375 8.79688 7.65625L8.42188 6.9375C9.89844 6.70312 10.9531 5.64062 10.9609 4.57812V4.0625H11.8828V4.57812ZM21.5859 7.30469V7.99219H15.1328V7.30469H17.9219V6.78125H15.9609V3.82031H20.8125V4.49219H16.8281V4.97656H20.6406V5.61719H16.8281V6.11719H20.8672V6.78125H18.7891V7.30469H21.5859ZM18.3594 8.38281C19.9141 8.38281 20.7969 8.79688 20.8047 9.53125C20.7969 10.2891 19.9141 10.6875 18.3594 10.6875C16.7812 10.6875 15.8984 10.2891 15.8984 9.53125C15.8984 8.79688 16.7812 8.38281 18.3594 8.38281ZM18.3594 9.03125C17.2969 9.03125 16.7656 9.19531 16.7656 9.53125C16.7656 9.875 17.2969 10.0391 18.3594 10.0391C19.4062 10.0391 19.9297 9.875 19.9375 9.53125C19.9297 9.19531 19.4062 9.03125 18.3594 9.03125ZM26.5 5.30469C26.5 6.14844 27.0859 6.96094 28.2031 7.30469L27.7812 7.98438C26.9805 7.74219 26.4023 7.23047 26.0781 6.57812C25.7656 7.28125 25.1836 7.83594 24.3594 8.10156L23.9375 7.42188C25.0469 7.07031 25.6328 6.21094 25.6328 5.30469V5.19531H24.1562V4.50781H25.6328V3.67969H26.5078V4.50781H27.9766V5.19531H26.5V5.30469ZM29.875 3.64062V8.88281H29.0078V6.4375H27.7422V5.74219H29.0078V3.64062H29.875ZM30.0547 9.85156V10.5547H25.2422V8.42969H26.1094V9.85156H30.0547ZM37 3.63281V10.6953H36.1719V7.11719H35.4453V10.3516H34.625V3.75781H35.4453V6.39844H36.1719V3.63281H37ZM33.0703 5.4375C33.0703 6.69531 33.4922 7.85156 34.5391 8.39062L34.0312 9.05469C33.3594 8.69531 32.918 8.07422 32.6719 7.30469C32.4297 8.18359 31.9883 8.89062 31.2891 9.30469L30.7578 8.64062C31.8047 8.04688 32.2266 6.8125 32.2266 5.4375V5.10156H30.9688V4.40625H34.2266V5.10156H33.0703V5.4375Z" fill="#E6923D"/>
<defs>
<linearGradient id="paint0_linear_5011_1814" x1="0" y1="7.5" x2="46" y2="7.5" gradientUnits="userSpaceOnUse">
<stop stop-color="#FFBA74"/>
<stop offset="1" stop-color="#78C77A"/>
</linearGradient>
</defs>
</svg>
