<?xml version="1.0" encoding="UTF-8"?>
<svg version="1.1" xmlns="http://www.w3.org/2000/svg" width="200" height="200">
<path d="M0 0 C8.27509364 3.44020747 14.02705364 13.18979412 19.515625 19.97265625 C24.24309469 25.7333308 29.13215316 31.35791018 34 37 C36.46800047 35.84826645 38.04783565 34.95216435 40 33 C42.10677231 33.24975683 44.21055735 33.52491497 46.3125 33.8125 C51.1161685 33.88610064 53.95685094 33.4824034 57.39453125 30.16015625 C60.26020593 26.97010611 62.83949271 23.56650282 65.39013672 20.12207031 C67.99323494 16.69074945 70.84794573 13.48573109 73.6875 10.25 C76.2846871 7.2520993 78.79504203 4.30743695 81 1 C86.99725275 3.10714286 86.99725275 3.10714286 89 6 C88.61742952 9.86728853 86.60722468 11.81495593 84 14.5625 C79.09175263 19.86091012 74.50573778 25.35730034 70 31 C69.36191406 31.78117187 68.72382812 32.56234375 68.06640625 33.3671875 C67.50824219 34.07101563 66.95007813 34.77484375 66.375 35.5 C65.88773437 36.1084375 65.40046875 36.716875 64.8984375 37.34375 C64.60195312 37.8903125 64.30546875 38.436875 64 39 C64.33 39.99 64.66 40.98 65 42 C65.7425 41.9175 66.485 41.835 67.25 41.75 C70 42 70 42 72.3125 43.875 C74 46 74 46 74 48 C74.763125 48.04125 75.52625 48.0825 76.3125 48.125 C79 49 79 49 80.75 51.875 C81.55779844 53.89449609 82.31218442 55.93655325 83 58 C84.7015625 57.9690625 84.7015625 57.9690625 86.4375 57.9375 C90 58 90 58 91 59 C91 69.51751491 84.32574691 79.94904938 78 88 C78.89364515 89.20995254 79.79005779 90.41786111 80.6875 91.625 C81.22890625 92.35460937 81.7703125 93.08421875 82.328125 93.8359375 C83.79204367 95.73082289 85.32482662 97.48330725 86.9375 99.25 C89 102 89 102 89.0625 104.1875 C87.67313403 106.55759489 86.41689336 107.68797217 84 109 C80.93765644 108.80577102 79.9460552 107.94780426 77.7109375 105.78515625 C76.94007813 104.88667969 76.16921875 103.98820312 75.375 103.0625 C74.59898437 102.16660156 73.82296875 101.27070313 73.0234375 100.34765625 C72.35570312 99.57292969 71.68796875 98.79820312 71 98 C70.34 97.34 69.68 96.68 69 96 C67.77265137 96.48460693 67.77265137 96.48460693 66.52050781 96.97900391 C62.51560083 98.14048248 58.80353926 98.32362729 54.671875 98.3359375 C53.48830414 98.3459227 53.48830414 98.3459227 52.28082275 98.35610962 C50.61676346 98.36619545 48.95266405 98.3709279 47.28857422 98.37060547 C44.77111371 98.37496345 42.25543048 98.41128168 39.73828125 98.44921875 C31.11584964 98.50759111 23.72931945 98.35854595 16 94 C15.40832031 94.74765625 14.81664063 95.4953125 14.20703125 96.265625 C13.41683594 97.25046875 12.62664062 98.2353125 11.8125 99.25 C10.64654297 100.71179688 10.64654297 100.71179688 9.45703125 102.203125 C7.144288 104.83575483 4.80196947 106.90972082 2 109 C0.02 107.35 -1.96 105.7 -4 104 C-3.40674464 100.79088808 -2.42413843 98.98744159 -0.27734375 96.546875 C0.26083984 95.928125 0.79902344 95.309375 1.35351562 94.671875 C1.91748047 94.03765625 2.48144531 93.4034375 3.0625 92.75 C3.63033203 92.1003125 4.19816406 91.450625 4.78320312 90.78125 C6.1825444 89.18200283 7.59045241 87.59025881 9 86 C8.60167969 85.16597656 8.20335938 84.33195312 7.79296875 83.47265625 C-1.03222342 64.72717508 -1.03222342 64.72717508 1 59 C5.455 58.505 5.455 58.505 10 58 C10.33 56.68 10.66 55.36 11 54 C11.639375 53.690625 12.27875 53.38125 12.9375 53.0625 C15.26697674 52.15027284 15.26697674 52.15027284 16 49.4375 C16.33 48.633125 16.66 47.82875 17 47 C18.33333333 46.66666667 19.66666667 46.33333333 21 46 C22.14806726 43.50497871 22.14806726 43.50497871 23 41 C22.45472656 40.40574219 21.90945312 39.81148437 21.34765625 39.19921875 C16.5366548 33.91122912 11.91547168 28.51714466 7.41796875 22.9609375 C3.02132454 17.57700161 -1.49658545 12.29466869 -6 7 C-4.47427344 3.67364118 -3.06655496 2.04436998 0 0 Z " fill="#C76C6C" transform="translate(58,45)"/>
<path d="M0 0 C3.94902882 3.84683584 7.5932531 7.88418125 11.1875 12.0625 C12.03090942 13.03908569 12.03090942 13.03908569 12.89135742 14.03540039 C17.99865202 19.96489066 23.02000979 25.96330758 28 32 C27 34 27 34 24.46020508 35.10400391 C20.47794709 36.13518198 16.72093322 36.32381955 12.63671875 36.3359375 C11.84529984 36.3425943 11.05388092 36.3492511 10.23847961 36.35610962 C8.57022409 36.36619443 6.90192856 36.37092794 5.23364258 36.37060547 C2.70520188 36.37496945 0.17852209 36.41130539 -2.34960938 36.44921875 C-10.81542897 36.50635872 -17.51150192 36.44218057 -25 32 C-25 28.56972892 -24.65893665 28.24708171 -22.47265625 25.8125 C-21.9317334 25.20116211 -21.39081055 24.58982422 -20.83349609 23.95996094 C-20.24906738 23.31317383 -19.66463867 22.66638672 -19.0625 22 C-17.86722033 20.65216619 -16.67321776 19.3031988 -15.48046875 17.953125 C-14.88927246 17.28603516 -14.29807617 16.61894531 -13.68896484 15.93164062 C-10.62516275 12.4276218 -7.71887206 8.80085955 -4.8046875 5.171875 C-3.27957887 3.33646289 -1.72268343 1.64778415 0 0 Z " fill="#E5E4E4" transform="translate(100,107)"/>
<path d="M0 0 C0.721875 0.00257812 1.44375 0.00515625 2.1875 0.0078125 C2.909375 0.00523438 3.63125 0.00265625 4.375 0 C6.1875 0.1328125 6.1875 0.1328125 7.1875 1.1328125 C7.1875 11.65032741 0.51324691 22.08186188 -5.8125 30.1328125 C-8.64761599 29.79184087 -9.70485399 29.24465826 -11.71484375 27.15625 C-12.38644531 26.28226563 -13.05804688 25.40828125 -13.75 24.5078125 C-18.20805546 18.8420564 -22.88045025 13.40645104 -27.64624023 7.99755859 C-31.8125 3.23736011 -31.8125 3.23736011 -31.8125 2.1328125 C-30.93924072 2.10775635 -30.06598145 2.0827002 -29.16625977 2.05688477 C-25.93647448 1.96193541 -22.70685846 1.86269221 -19.47729492 1.76049805 C-18.07760801 1.71709816 -16.67786641 1.67542686 -15.27807617 1.63549805 C-13.26988505 1.57791805 -11.26188851 1.5136725 -9.25390625 1.44921875 C-8.04420166 1.41256104 -6.83449707 1.37590332 -5.58813477 1.33813477 C-2.75149286 1.12829961 -2.53133229 0.18548556 0 0 Z " fill="#E5E5E4" transform="translate(141.8125,102.8671875)"/>
<path d="M0 0 C0.33 0.33 0.66 0.66 1 1 C2.48638992 1.15655027 3.97949127 1.25066943 5.47265625 1.31640625 C6.82133789 1.37924805 6.82133789 1.37924805 8.19726562 1.44335938 C9.61555664 1.50233398 9.61555664 1.50233398 11.0625 1.5625 C12.01189453 1.60568359 12.96128906 1.64886719 13.93945312 1.69335938 C16.29281353 1.79979276 18.64628354 1.90181008 21 2 C17.90369209 6.89807144 14.38141152 11.2111231 10.5625 15.5625 C9.72235352 16.53219727 9.72235352 16.53219727 8.86523438 17.52148438 C5.69845733 21.15385525 2.452437 24.63790714 -1 28 C-5.74981943 21.21454367 -11.70203216 11.59385202 -10.6328125 3.07421875 C-10.42398438 2.38972656 -10.21515625 1.70523438 -10 1 C-6.61905851 -0.04028969 -3.52637472 -0.15672777 0 0 Z " fill="#E5E4E4" transform="translate(69,103)"/>
<path d="M0 0 C0.99 0.66 1.98 1.32 3 2 C3 2.66 3 3.32 3 4 C4.11375 3.87625 4.11375 3.87625 5.25 3.75 C8 4 8 4 10.3125 5.875 C12 8 12 8 12 10 C12.763125 10.04125 13.52625 10.0825 14.3125 10.125 C17 11 17 11 18.8125 13.8125 C20 17 20 17 20 21 C15.64009127 21.07418046 11.28051721 21.12861544 6.92016602 21.16479492 C5.43702801 21.17987768 3.95393456 21.20034689 2.47094727 21.22631836 C0.33859255 21.26272616 -1.79317235 21.27973073 -3.92578125 21.29296875 C-5.20880127 21.3086792 -6.49182129 21.32438965 -7.8137207 21.34057617 C-11 21 -11 21 -12.94213867 19.48168945 C-13.29123291 18.99273193 -13.64032715 18.50377441 -14 18 C-12.44904419 14.37830859 -10.23134948 11.87481981 -7.5625 9 C-4.87341115 6.09383478 -2.31438774 3.21484084 0 0 Z " fill="#A27F5B" transform="translate(120,83)"/>
<path d="M0 0 C1.69528255 1.64391035 3.35505508 3.30631597 5 5 C5.63550781 5.65097656 6.27101563 6.30195312 6.92578125 6.97265625 C7.56902344 7.66230469 8.21226563 8.35195312 8.875 9.0625 C9.79925781 10.03896484 9.79925781 10.03896484 10.7421875 11.03515625 C12 13 12 13 11.7578125 15.18359375 C11 17 11 17 10 18 C8.29227642 18.08713831 6.58101351 18.10700007 4.87109375 18.09765625 C3.31938477 18.09282227 3.31938477 18.09282227 1.73632812 18.08789062 C0.64771484 18.07951172 -0.44089844 18.07113281 -1.5625 18.0625 C-3.2012207 18.05573242 -3.2012207 18.05573242 -4.87304688 18.04882812 C-7.58208495 18.03699826 -10.29101599 18.02051543 -13 18 C-13.58203125 16.109375 -13.58203125 16.109375 -14 14 C-12.6875 12.25 -12.6875 12.25 -11 11 C-10.34 11 -9.68 11 -9 11 C-8.7525 10.195625 -8.505 9.39125 -8.25 8.5625 C-7.8375 7.716875 -7.425 6.87125 -7 6 C-5.67696283 5.6278958 -4.34262065 5.29369827 -3 5 C-1.77472052 3.04978917 -1.77472052 3.04978917 -1 1 C-0.67 0.67 -0.34 0.34 0 0 Z " fill="#A27F5B" transform="translate(82,86)"/>
<path d="M0 0 C-2.06312314 3.66415876 -4.35872176 6.70548128 -7.1875 9.8125 C-8.26064453 10.99779297 -8.26064453 10.99779297 -9.35546875 12.20703125 C-9.89816406 12.79871094 -10.44085938 13.39039062 -11 14 C-14.24838923 12.91720359 -15.04282583 12.10963155 -17.1875 9.5625 C-17.71730469 8.94503906 -18.24710937 8.32757813 -18.79296875 7.69140625 C-20 6 -20 6 -20 4 C-14.55030271 -2.89226422 -8.06325041 -1.1156004 0 0 Z " fill="#A27F5B" transform="translate(112,79)"/>
</svg>
