<svg width="50" height="20" viewBox="0 0 50 20" fill="none" xmlns="http://www.w3.org/2000/svg">
<rect width="50" height="20" rx="10" fill="#C76B6B" fill-opacity="0.2"/>
<path d="M19.1406 6.58789C20.4785 6.58789 21.4648 7.44727 21.4746 8.67773C21.4648 9.9082 20.4785 10.7676 19.1406 10.7676C17.8027 10.7676 16.8066 9.9082 16.8164 8.67773C16.8066 7.44727 17.8027 6.58789 19.1406 6.58789ZM19.1406 7.37891C18.3203 7.37891 17.7148 7.89648 17.7246 8.67773C17.7148 9.46875 18.3203 9.98633 19.1406 9.97656C19.9609 9.98633 20.5664 9.46875 20.5664 8.67773C20.5664 7.89648 19.9609 7.37891 19.1406 7.37891ZM23.5547 6.08008V8.27734H24.8242V9.03906H23.5547V11.2168H22.627V6.08008H23.5547ZM23.5547 11.6465V14.8398H22.627V12.3984H17.7734V11.6465H23.5547ZM32.1777 6.08008V9.74219H33.4961V10.5234H32.1777V14.8301H31.25V6.08008H32.1777ZM25.2148 12.4473C25.9033 12.4473 26.7041 12.4473 27.5391 12.418V11.5293C26.5527 11.3926 25.9082 10.7969 25.918 9.94727C25.9082 8.96094 26.7578 8.30664 28.0078 8.30664C29.248 8.30664 30.1074 8.96094 30.1172 9.94727C30.1074 10.7969 29.4531 11.3975 28.4668 11.5391V12.3789C29.2432 12.3496 30.0244 12.2861 30.752 12.1836L30.8105 12.8672C28.916 13.209 26.8652 13.2188 25.3613 13.2188L25.2148 12.4473ZM30.625 7.11523V7.85742H25.3809V7.11523H27.5391V6.09961H28.4668V7.11523H30.625ZM28.0078 9.0293C27.2754 9.0293 26.7871 9.39062 26.7871 9.94727C26.7871 10.5039 27.2754 10.8457 28.0078 10.8457C28.7402 10.8457 29.2285 10.5039 29.2285 9.94727C29.2285 9.39062 28.7402 9.0293 28.0078 9.0293Z" fill="#C76B6B"/>
</svg>
