<svg width="50" height="20" viewBox="0 0 50 20" fill="none" xmlns="http://www.w3.org/2000/svg">
<rect width="50" height="20" rx="10" fill="#6EA8FE" fill-opacity="0.2"/>
<path d="M24.7949 7.32031V8.08203H23.5547V9.19531H24.7949V9.9668H23.5547V11.2461H22.627V6.08008H23.5547V7.32031H24.7949ZM19.1406 6.58789C20.4785 6.58789 21.4648 7.4375 21.4746 8.66797C21.4648 9.88867 20.4785 10.7383 19.1406 10.748C17.8027 10.7383 16.8066 9.88867 16.8164 8.66797C16.8066 7.4375 17.8027 6.58789 19.1406 6.58789ZM19.1406 7.36914C18.3203 7.36914 17.7148 7.89648 17.7246 8.66797C17.7148 9.44922 18.3203 9.95703 19.1406 9.9668C19.9609 9.95703 20.5664 9.44922 20.5664 8.66797C20.5664 7.89648 19.9609 7.36914 19.1406 7.36914ZM20.7324 11.4805C22.5195 11.4805 23.6328 12.0957 23.6328 13.1504C23.6328 14.1953 22.5195 14.8203 20.7324 14.8105C18.9258 14.8203 17.793 14.1953 17.793 13.1504C17.793 12.0957 18.9258 11.4805 20.7324 11.4805ZM20.7324 12.2324C19.4629 12.2324 18.7109 12.5645 18.7207 13.1504C18.7109 13.7461 19.4629 14.0684 20.7324 14.0684C21.9922 14.0684 22.7246 13.7461 22.7246 13.1504C22.7246 12.5645 21.9922 12.2324 20.7324 12.2324ZM32.9004 7.31055V8.0625H25.7031V7.31055H28.8477V6.20703H29.7656V7.31055H32.9004ZM33.3301 13.0918V13.8438H25.3223V13.0918H28.8477V11.9297C27.3145 11.8369 26.3867 11.2314 26.3867 10.2598C26.3867 9.20508 27.5 8.58984 29.3066 8.58984C31.0938 8.58984 32.2168 9.20508 32.2168 10.2598C32.2168 11.2314 31.2842 11.8369 29.7656 11.9297V13.0918H33.3301ZM29.3066 9.32227C28.0566 9.32227 27.3242 9.6543 27.334 10.2598C27.3242 10.8652 28.0566 11.1973 29.3066 11.207C30.5371 11.1973 31.2695 10.8652 31.2695 10.2598C31.2695 9.6543 30.5371 9.32227 29.3066 9.32227Z" fill="#6EA8FE"/>
</svg>
