<svg width="17" height="20" viewBox="0 0 17 20" fill="none" xmlns="http://www.w3.org/2000/svg">
<g clip-path="url(#clip0_4147_1965)">
<path d="M15.3184 9.42578C15.4811 9.42578 15.6341 9.45508 15.7773 9.51367C15.9206 9.57227 16.0443 9.6569 16.1484 9.76758C16.2526 9.87825 16.3372 10.0052 16.4023 10.1484C16.4674 10.2917 16.5 10.4447 16.5 10.6074V18.2441C16.5 18.4069 16.4707 18.5599 16.4121 18.7031C16.3535 18.8464 16.2689 18.9701 16.1582 19.0742C16.0475 19.1784 15.9206 19.263 15.7773 19.3281C15.6341 19.3932 15.4811 19.4258 15.3184 19.4258H1.43164C1.26888 19.4258 1.11589 19.3965 0.972656 19.3379C0.829427 19.2793 0.705729 19.1947 0.601562 19.084C0.497396 18.9733 0.41276 18.8464 0.347656 18.7031C0.282552 18.5599 0.25 18.4069 0.25 18.2441V10.6074C0.25 10.4447 0.279297 10.2917 0.337891 10.1484C0.396484 10.0052 0.48112 9.88151 0.591797 9.77734C0.702474 9.67318 0.829427 9.58854 0.972656 9.52344C1.11589 9.45833 1.26888 9.42578 1.43164 9.42578H1.86133L6.22656 5.07031C6.10938 4.88151 6.02148 4.67969 5.96289 4.46484C5.9043 4.25 5.875 4.02865 5.875 3.80078C5.875 3.45573 5.9401 3.13346 6.07031 2.83398C6.20052 2.53451 6.37956 2.26758 6.60742 2.0332C6.83529 1.79883 7.09896 1.61979 7.39844 1.49609C7.69792 1.3724 8.02344 1.30729 8.375 1.30078C8.72005 1.30078 9.04232 1.36589 9.3418 1.49609C9.64128 1.6263 9.9082 1.80534 10.1426 2.0332C10.377 2.26107 10.556 2.52474 10.6797 2.82422C10.8034 3.1237 10.8685 3.44922 10.875 3.80078C10.875 4.02865 10.8457 4.25 10.7871 4.46484C10.7285 4.67969 10.6406 4.88151 10.5234 5.07031L14.8887 9.42578H15.3184ZM8.375 2.55078C8.19922 2.55078 8.03646 2.58333 7.88672 2.64844C7.73698 2.71354 7.60677 2.80143 7.49609 2.91211C7.38542 3.02279 7.29427 3.15625 7.22266 3.3125C7.15104 3.46875 7.11849 3.63151 7.125 3.80078C7.125 3.97656 7.15755 4.13932 7.22266 4.28906C7.28776 4.4388 7.37565 4.56901 7.48633 4.67969C7.59701 4.79036 7.73047 4.88151 7.88672 4.95312C8.04297 5.02474 8.20573 5.05729 8.375 5.05078C8.55078 5.05078 8.71354 5.01823 8.86328 4.95312C9.01302 4.88802 9.14323 4.80013 9.25391 4.68945C9.36458 4.57878 9.45573 4.44531 9.52734 4.28906C9.59896 4.13281 9.63151 3.97005 9.625 3.80078C9.625 3.625 9.59245 3.46224 9.52734 3.3125C9.46224 3.16276 9.37435 3.03255 9.26367 2.92188C9.153 2.8112 9.01953 2.72005 8.86328 2.64844C8.70703 2.57682 8.54427 2.54427 8.375 2.55078ZM3.63867 9.42578H13.1113L9.64453 5.94922C9.26042 6.18359 8.83724 6.30078 8.375 6.30078C8.14714 6.30078 7.92578 6.27148 7.71094 6.21289C7.49609 6.1543 7.29427 6.06641 7.10547 5.94922L3.63867 9.42578ZM15.25 10.6758H1.5V18.1758H15.25V10.6758ZM12.75 14.4258H4V13.1758H12.75V14.4258Z" fill="#737373"/>
</g>
<defs>
<clipPath id="clip0_4147_1965">
<rect width="17" height="19" fill="white" transform="translate(0 0.675781)"/>
</clipPath>
</defs>
</svg>
