<svg width="24" height="24" viewBox="0 0 24 24" fill="none" xmlns="http://www.w3.org/2000/svg">
<path fill-rule="evenodd" clip-rule="evenodd" d="M14.062 5.61998C11.6966 5.37292 9.31292 5.3545 6.944 5.56498L5.362 5.70598C4.72719 5.76291 4.13008 6.03209 3.66706 6.47008C3.20403 6.90807 2.9021 7.48931 2.81 8.11998C2.43353 10.6929 2.43353 13.307 2.81 15.88C2.90231 16.5107 3.20444 17.092 3.66764 17.53C4.13083 17.9679 4.72807 18.2371 5.363 18.294L6.945 18.434C9.31389 18.6448 11.6976 18.6267 14.063 18.38L14.671 18.316C15.2745 18.2527 15.842 17.998 16.2905 17.5893C16.739 17.1805 17.0451 16.639 17.164 16.044L20.211 17.662C20.3204 17.7201 20.4425 17.7502 20.5663 17.7496C20.6902 17.749 20.812 17.7178 20.9209 17.6587C21.0297 17.5995 21.1222 17.5144 21.1901 17.4108C21.258 17.3072 21.2992 17.1884 21.31 17.065L21.335 16.781C21.6126 13.5994 21.6126 10.3996 21.335 7.21798L21.31 6.93398C21.2991 6.81052 21.2578 6.69169 21.1898 6.58809C21.1218 6.4845 21.0291 6.39938 20.9202 6.34034C20.8112 6.2813 20.6893 6.25018 20.5654 6.24977C20.4415 6.24936 20.3194 6.27966 20.21 6.33798L17.164 7.95598C17.0451 7.3609 16.739 6.81944 16.2905 6.41069C15.842 6.00193 15.2745 5.74729 14.671 5.68398L14.062 5.61998ZM7.078 7.05898C9.35004 6.85602 11.6364 6.87377 13.905 7.11198L14.513 7.17598C14.8101 7.20743 15.0882 7.33681 15.3037 7.54375C15.5191 7.75069 15.6596 8.02342 15.703 8.31898C16.061 10.76 16.061 13.239 15.703 15.681C15.6596 15.9765 15.5191 16.2493 15.3037 16.4562C15.0882 16.6631 14.8101 16.7925 14.513 16.824L13.905 16.888C11.6364 17.1262 9.35004 17.1439 7.078 16.941L5.496 16.799C5.19702 16.7723 4.91572 16.6457 4.69748 16.4396C4.47923 16.2335 4.33675 15.9599 4.293 15.663C3.93757 13.2339 3.93757 10.766 4.293 8.33698C4.33638 8.03975 4.47872 7.76584 4.69701 7.55952C4.91531 7.3532 5.19681 7.22653 5.496 7.19998L7.078 7.05898ZM17.36 9.54998C17.509 11.18 17.509 12.82 17.36 14.45L19.907 15.803C20.0892 13.2709 20.0892 10.729 19.907 8.19698L17.36 9.54998Z" fill="black"/>
</svg>
