<svg width="42" height="18" viewBox="0 0 42 18" fill="none" xmlns="http://www.w3.org/2000/svg">
<rect width="42" height="18" rx="9" fill="#C76B6B" fill-opacity="0.2"/>
<path d="M19.9941 5.04102V13.8789H18.9004V5.04102H19.9941ZM15.2383 5.68555C16.5664 5.68555 17.5332 6.89648 17.543 8.80078C17.5332 10.7246 16.5664 11.9258 15.2383 11.9258C13.9004 11.9258 12.9336 10.7246 12.9336 8.80078C12.9336 6.89648 13.9004 5.68555 15.2383 5.68555ZM15.2383 6.66211C14.4863 6.66211 13.9785 7.45312 13.9785 8.80078C13.9785 10.1582 14.4863 10.9492 15.2383 10.9492C15.9805 10.9492 16.4883 10.1582 16.4883 8.80078C16.4883 7.45312 15.9805 6.66211 15.2383 6.66211ZM24.418 6.44727C24.418 7.56055 25.1406 8.60547 26.498 9.03516L25.9121 9.88477C24.96 9.5625 24.2764 8.91797 23.9004 8.09766C23.5098 9.03516 22.7969 9.77246 21.7812 10.1289L21.1953 9.2793C22.6211 8.78125 23.3242 7.60938 23.334 6.34961V5.50977H24.418V6.44727ZM28.2559 5.04102V7.18945H29.4863V8.08789H28.2559V10.3242H27.1719V5.04102H28.2559ZM25.3848 10.5195C27.2109 10.5098 28.334 11.1348 28.3438 12.1797C28.334 13.2441 27.2109 13.8594 25.3848 13.8594C23.5391 13.8594 22.3965 13.2441 22.3965 12.1797C22.3965 11.1348 23.5391 10.5098 25.3848 10.5195ZM25.3848 11.3691C24.1738 11.3691 23.4805 11.6621 23.4805 12.1797C23.4805 12.7266 24.1738 13 25.3848 13C26.5957 13 27.2695 12.7266 27.2695 12.1797C27.2695 11.6621 26.5957 11.3691 25.3848 11.3691Z" fill="#C76B6B"/>
</svg>
