<svg width="19" height="22" viewBox="0 0 19 22" fill="none" xmlns="http://www.w3.org/2000/svg">
<path d="M11.086 1C11.5556 1.00011 12.0101 1.16543 12.37 1.467L12.5 1.586L16.914 6C17.246 6.33202 17.4506 6.77028 17.492 7.238L17.5 7.414V19C17.5002 19.5046 17.3096 19.9906 16.9665 20.3605C16.6234 20.7305 16.1532 20.9572 15.65 20.995L15.5 21H3.5C2.99542 21.0002 2.50943 20.8096 2.13945 20.4665C1.76947 20.1234 1.54284 19.6532 1.505 19.15L1.5 19V3C1.49984 2.49542 1.69041 2.00943 2.0335 1.63945C2.37659 1.26947 2.84684 1.04284 3.35 1.005L3.5 1H11.086ZM9.5 3H3.5V19H15.5V9H11C10.6022 9 10.2206 8.84196 9.93934 8.56066C9.65804 8.27936 9.5 7.89782 9.5 7.5V3ZM11.5 3.414V7H15.086L11.5 3.414Z" fill="#737373"/>
</svg>
