<svg width="44" height="16" viewBox="0 0 44 16" fill="none" xmlns="http://www.w3.org/2000/svg">
<rect x="0.5" y="1" width="43" height="14" rx="7" fill="#FEDCDC"/>
<rect x="0.5" y="1" width="43" height="14" rx="7" stroke="url(#paint0_linear_4780_618)"/>
<path d="M14.1172 4.14062V9.24219H13.2422V4.14062H14.1172ZM14.3125 10.3516V11.0547H9.44531V8.72656H10.3203V10.3516H14.3125ZM10.2656 4.60156C11.3359 4.60156 12.1641 5.34375 12.1641 6.36719C12.1641 7.41406 11.3359 8.14062 10.2656 8.14062C9.1875 8.14062 8.35938 7.41406 8.35938 6.36719C8.35938 5.34375 9.1875 4.60156 10.2656 4.60156ZM10.2656 5.35938C9.66406 5.35938 9.20312 5.75781 9.21094 6.36719C9.20312 6.99219 9.66406 7.38281 10.2656 7.38281C10.8516 7.38281 11.3125 6.99219 11.3125 6.36719C11.3125 5.75781 10.8516 5.35938 10.2656 5.35938ZM21.0469 4.13281V11.1953H20.1719V4.13281H21.0469ZM18.9375 4.88281C18.9375 6.98438 18.125 8.77344 15.6484 9.94531L15.1953 9.25C17.043 8.37109 17.9023 7.17578 18.0547 5.57031H15.5547V4.88281H18.9375ZM25.7109 5.10156C25.7109 6.19531 26.7812 7.28906 28.2578 7.54688L27.8672 8.27344C26.6836 8.02344 25.7148 7.30859 25.2578 6.35938C24.7891 7.30078 23.8203 8.01953 22.6406 8.27344L22.2578 7.54688C23.7188 7.28125 24.7812 6.1875 24.7891 5.10156V4.57812H25.7109V5.10156ZM28.5156 9.57812V10.2969H22.0625V9.57812H28.5156ZM32.6016 4.74219V5.45312H30.1484V6.71094H32.4766V7.39844H30.1484V8.85156C31.2344 8.84375 32.082 8.80469 33.0703 8.64062L33.1484 9.34375C32.0625 9.51562 31.1172 9.55469 29.8516 9.55469H29.2656V4.74219H32.6016ZM34.5078 4.13281V6.86719H35.5938V7.59375H34.5078V11.1953H33.6406V4.13281H34.5078Z" fill="#9E2D2D"/>
<defs>
<linearGradient id="paint0_linear_4780_618" x1="0" y1="8" x2="44" y2="8" gradientUnits="userSpaceOnUse">
<stop stop-color="#C76B6B"/>
<stop offset="1" stop-color="#850E69"/>
</linearGradient>
</defs>
</svg>
