<svg width="44" height="15" viewBox="0 0 44 15" fill="none" xmlns="http://www.w3.org/2000/svg">
<rect x="0.5" y="0.5" width="43" height="14" rx="7" fill="#FEDCDC"/>
<rect x="0.5" y="0.5" width="43" height="14" rx="7" stroke="url(#paint0_linear_4700_11364)"/>
<path d="M14.1172 3.64062V8.74219H13.2422V3.64062H14.1172ZM14.3125 9.85156V10.5547H9.44531V8.22656H10.3203V9.85156H14.3125ZM10.2656 4.10156C11.3359 4.10156 12.1641 4.84375 12.1641 5.86719C12.1641 6.91406 11.3359 7.64062 10.2656 7.64062C9.1875 7.64062 8.35938 6.91406 8.35938 5.86719C8.35938 4.84375 9.1875 4.10156 10.2656 4.10156ZM10.2656 4.85938C9.66406 4.85938 9.20312 5.25781 9.21094 5.86719C9.20312 6.49219 9.66406 6.88281 10.2656 6.88281C10.8516 6.88281 11.3125 6.49219 11.3125 5.86719C11.3125 5.25781 10.8516 4.85938 10.2656 4.85938ZM21.0469 3.63281V10.6953H20.1719V3.63281H21.0469ZM18.9375 4.38281C18.9375 6.48438 18.125 8.27344 15.6484 9.44531L15.1953 8.75C17.043 7.87109 17.9023 6.67578 18.0547 5.07031H15.5547V4.38281H18.9375ZM25.7109 4.60156C25.7109 5.69531 26.7812 6.78906 28.2578 7.04688L27.8672 7.77344C26.6836 7.52344 25.7148 6.80859 25.2578 5.85938C24.7891 6.80078 23.8203 7.51953 22.6406 7.77344L22.2578 7.04688C23.7188 6.78125 24.7812 5.6875 24.7891 4.60156V4.07812H25.7109V4.60156ZM28.5156 9.07812V9.79688H22.0625V9.07812H28.5156ZM32.6016 4.24219V4.95312H30.1484V6.21094H32.4766V6.89844H30.1484V8.35156C31.2344 8.34375 32.082 8.30469 33.0703 8.14062L33.1484 8.84375C32.0625 9.01562 31.1172 9.05469 29.8516 9.05469H29.2656V4.24219H32.6016ZM34.5078 3.63281V6.36719H35.5938V7.09375H34.5078V10.6953H33.6406V3.63281H34.5078Z" fill="#9E2D2D"/>
<defs>
<linearGradient id="paint0_linear_4700_11364" x1="0" y1="7.5" x2="44" y2="7.5" gradientUnits="userSpaceOnUse">
<stop stop-color="#C76B6B"/>
<stop offset="1" stop-color="#850E69"/>
</linearGradient>
</defs>
</svg>
