<?xml version="1.0" encoding="UTF-8"?>
<svg version="1.1" xmlns="http://www.w3.org/2000/svg" width="200" height="200">
<path d="M0 0 C0.66 0 1.32 0 2 0 C2.21011719 0.59167969 2.42023438 1.18335938 2.63671875 1.79296875 C4.45377475 5.93369488 5.84940553 8.4209328 9.98046875 10.5 C12.25415508 11.29539775 14.53568551 12.06869909 16.82421875 12.8203125 C21.75069087 14.65031813 25.43728578 17.4300879 28.17578125 21.93359375 C29 24 29 24 29 28 C29.5775 28.226875 30.155 28.45375 30.75 28.6875 C35.20551953 31.28655306 37.40595182 35.21785547 39 40 C39.226875 41.051875 39.45375 42.10375 39.6875 43.1875 C40.60833701 46.61836048 42.32239096 48.97754292 44.4375 51.8125 C49.22442665 58.37457862 52.10863507 65.76442518 51 74 C46.15609237 83.49405896 37.76893248 87.76662094 28 91 C7.69679167 97.07153359 -16.31888208 96.01256385 -35.6875 87.25 C-40.8375593 84.36338818 -45.36190775 81.42718641 -48 76 C-49.9972722 66.53466651 -47.08610684 58.9324602 -42 51 C-39.921875 48.15625 -39.921875 48.15625 -38 46 C-37.34 46 -36.68 46 -36 46 C-36.04640625 45.41992188 -36.0928125 44.83984375 -36.140625 44.2421875 C-36.45200945 37.5029384 -34.81915283 34.25286865 -30.375 29.125 C-29 28 -29 28 -27 28 C-26.9071875 26.700625 -26.9071875 26.700625 -26.8125 25.375 C-25.64745476 20.53558132 -23.31562672 17.46953234 -19.171875 14.83984375 C-16.46134804 13.43655912 -13.82655643 12.2318018 -10.8828125 11.40625 C-6.19897745 10.06296146 -4.40289046 8.64447153 -2 4.3125 C-1.30869566 2.88668479 -0.63336646 1.45247982 0 0 Z " fill="#0C0906" transform="translate(99,52)"/>
<path d="M0 0 C2.13521558 2.0013844 3.58971202 3.92312052 5.0625 6.4375 C8.75755166 11.73374071 14.64866238 13.35531881 20.76928711 14.53271484 C26.36878389 15.34261712 31.97624483 15.22634029 37.625 15.25 C38.83285156 15.270625 40.04070312 15.29125 41.28515625 15.3125 C51.08990278 15.35471635 62.36384058 14.89116826 70 8 C71.85192953 5.42705257 73.47598355 2.77829547 75 0 C77.5625 2.0625 77.5625 2.0625 80 5 C80.29357432 12.48614512 76.2705015 19.30903526 71.57421875 24.875 C65.97938966 30.69931996 60.27041464 35.39229047 53 39 C52.07574219 39.4846875 51.15148437 39.969375 50.19921875 40.46875 C36.57202022 46.96648705 21.99471357 44.06572249 8 40 C1.94406293 37.76351485 -2.83964931 35.04284932 -7 30 C-7.61875 29.278125 -8.2375 28.55625 -8.875 27.8125 C-10.97420469 22.56448827 -9.96628204 17.47856731 -7.94921875 12.3046875 C-5.76972111 7.78374813 -3.37543959 3.75048843 0 0 Z " fill="#937049" transform="translate(62,100)"/>
<path d="M0 0 C0.515625 0.61875 1.03125 1.2375 1.5625 1.875 C8.11121248 7.58413396 18.83909919 6.30176047 27 6.25 C28.21945313 6.25773437 29.43890625 6.26546875 30.6953125 6.2734375 C42.32147315 6.63442258 42.32147315 6.63442258 52.3125 1.8125 C52.869375 1.214375 53.42625 0.61625 54 0 C56 -0.125 56 -0.125 58 1 C60.4661048 3.94562518 61.83742232 6.15098322 62.5625 9.9375 C61.06365386 18.09788455 54.48236469 22.26035323 48.23046875 26.984375 C40.10767958 32.05252399 33.46321543 32.44626089 24.0625 32.3125 C22.93392578 32.31572266 21.80535156 32.31894531 20.64257812 32.32226562 C10.97016919 32.26037121 2.35755086 31.8377239 -5 25 C-8.67130433 20.71681161 -9.14987243 15.49238374 -9 10 C-7.58435588 5.97659041 -4.8888449 0 0 0 Z " fill="#906E48" transform="translate(73,82)"/>
<path d="M0 0 C3 1 3 1 4.21484375 3.37109375 C6.63392022 6.93354116 9.63726969 7.75904131 13.5625 9.0625 C20.51037763 11.39588882 20.51037763 11.39588882 22.5703125 13.9375 C23.12931164 16.62069588 22.70918455 17.59422526 21.3125 19.9375 C17.34038968 25.78654157 10.89226152 28.15479245 4.17578125 29.61328125 C-5.20316941 30.75536749 -15.44519939 31.45562532 -24 27 C-25 26 -25 26 -25.4375 22.875 C-24.94801124 18.5395281 -24.2204822 16.82250247 -21.31640625 13.6875 C-17.71559879 11.0643148 -13.60101557 9.64477342 -9.38256836 8.30444336 C-4.21761473 6.551732 -2.51865557 4.60901185 0 0 Z " fill="#95724B" transform="translate(99,57)"/>
<path d="M0 0 C3.86144703 4.22920389 5.85668552 9.72499863 6.10546875 15.41015625 C5.74671548 20.40767275 4.82311315 23.5498735 1 27 C-10.01012511 35.53117199 -25.35149478 38.23531906 -39 38 C-36.80780549 35.80780549 -35.38355636 35.29027033 -32.5 34.25 C-20.07328834 29.34706498 -8.64647056 21.50359504 -2.875 9.0625 C-1.67012953 6.07670785 -0.71370509 3.13884587 0 0 Z " fill="#55402A" transform="translate(142,106)"/>
<path d="M0 0 C3 1 3 1 4.3515625 3.109375 C4.77179688 3.98078125 5.19203125 4.8521875 5.625 5.75 C6.05039063 6.61109375 6.47578125 7.4721875 6.9140625 8.359375 C8.89943328 13.18711114 9.4562468 17.79878644 9 23 C4.15609237 32.49405896 -4.23106752 36.76662094 -14 40 C-34.30320833 46.07153359 -58.31888208 45.01256385 -77.6875 36.25 C-82.82199644 33.45066397 -86.83377608 29.95001204 -90 25 C-90 24.34 -90 23.68 -90 23 C-89.34 23 -88.68 23 -88 23 C-87.2575 24.299375 -87.2575 24.299375 -86.5 25.625 C-81.0373364 34.016918 -70.89817698 36.18401323 -61.734375 38.23828125 C-60.50203125 38.48964844 -59.2696875 38.74101562 -58 39 C-56.59041016 39.29003906 -56.59041016 39.29003906 -55.15234375 39.5859375 C-37.8938307 41.85285495 -15.86374457 41.17642263 -1 31 C2.20980392 28.25829249 4.41099908 25.89768386 6 22 C6.46324662 15.22947246 4.30894947 9.85058376 1.05859375 4.03125 C0 2 0 2 0 0 Z " fill="#120E09" transform="translate(141,103)"/>
<path d="M0 0 C0.99 0 1.98 0 3 0 C3.28875 1.0725 3.5775 2.145 3.875 3.25 C4.72820109 6.09400364 5.5636503 8.43508983 7 11 C6.01 11.495 6.01 11.495 5 12 C4.01 11.01 3.02 10.02 2 9 C1.443125 9.556875 0.88625 10.11375 0.3125 10.6875 C-0.450625 11.450625 -1.21375 12.21375 -2 13 C-2.78375 13.845625 -3.5675 14.69125 -4.375 15.5625 C-10.60924419 21.35144104 -16.78682933 22.16104256 -25 22 C-22 20 -22 20 -18.375 18.3125 C-11.1753875 14.73926059 -4.8858302 10.12402202 -1 3 C-0.67 2.01 -0.34 1.02 0 0 Z " fill="#483623" transform="translate(135,92)"/>
<path d="M0 0 C3.11130213 2.43070479 3.93506938 3.58877276 4.5625 7.5625 C4 11 4 11 1.86328125 12.640625 C-5.01454009 15.90594809 -13.45094876 16.35111866 -21 16 C-21.33 15.34 -21.66 14.68 -22 14 C-20.88625 13.773125 -19.7725 13.54625 -18.625 13.3125 C-12.86051397 11.83547867 -6.32953683 9.8790686 -2.4765625 5.1171875 C-1.23485122 3.02507396 -1.23485122 3.02507396 0 0 Z " fill="#5A442D" transform="translate(122,72)"/>
<path d="M0 0 C2.82757593 0.68965267 4.46785831 1.34115791 6.3125 3.625 C7.3666188 7.2665013 7.30169073 10.19869683 7 14 C5.75 16.0625 5.75 16.0625 4 17 C2 17.125 2 17.125 0 16 C-2.65510444 11.25874208 -3.6489887 7.51640398 -3 2 C-2.01 1.34 -1.02 0.68 0 0 Z " fill="#020101" transform="translate(110,90)"/>
<path d="M0 0 C2.625 0.9375 2.625 0.9375 5 2 C5.34469404 7.63000273 4.7166373 11.14886197 2 16 C0 17.125 0 17.125 -2 17 C-3.75 16.0625 -3.75 16.0625 -5 14 C-5.51782249 8.64916763 -5.43887357 5.36472414 -2 1 C-1.34 0.67 -0.68 0.34 0 0 Z " fill="#020101" transform="translate(88,90)"/>
<path d="M0 0 C3.80148599 0.21722777 4.96820273 0.96892539 7.75 3.6875 C10.08360192 6.68578111 10.40611147 9.26698638 11 13 C12.83284443 14.12516085 12.83284443 14.12516085 15 15 C18.52510225 19.02868828 20.13860686 21.29751986 20.0625 26.625 C20.05347656 27.44226563 20.04445312 28.25953125 20.03515625 29.1015625 C20.02355469 29.72804688 20.01195312 30.35453125 20 31 C19.67 31 19.34 31 19 31 C18.89042969 30.39671875 18.78085938 29.7934375 18.66796875 29.171875 C17.78331609 24.71265023 17.072371 21.49133069 14 18 C14 17.34 14 16.68 14 16 C12.68 15.67 11.36 15.34 10 15 C9.773125 15.61875 9.54625 16.2375 9.3125 16.875 C7.5654955 19.70348348 6.15778883 20.06701694 3 21 C-1.64946929 21.94887128 -6.14778197 22.12204829 -10.875 22.0625 C-11.90753906 22.05573242 -11.90753906 22.05573242 -12.9609375 22.04882812 C-14.64066335 22.03716336 -16.32034375 22.01923271 -18 22 C-15.14049615 19.14049615 -12.20822602 19.66585526 -8.375 19.5625 C-2.34150812 19.3099822 2.48373899 18.6432084 8 16 C8.45437533 11.4562467 8.38294905 9.53819867 5.6875 5.75 C4.800625 4.8425 3.91375 3.935 3 3 C2.401875 2.38125 1.80375 1.7625 1.1875 1.125 C0.795625 0.75375 0.40375 0.3825 0 0 Z " fill="#0B0805" transform="translate(117,67)"/>
<path d="M0 0 C0.66 0 1.32 0 2 0 C2.495 0.86625 2.99 1.7325 3.5 2.625 C8.87093602 10.87600315 18.86397037 13.18977283 27.92578125 15.1875 C33.58237268 16.35197343 39.27371145 17.25479806 45 18 C45 18.66 45 19.32 45 20 C31.43401741 20.39899949 14.97110498 17.30343977 4.71484375 7.90625 C0 2.73210736 0 2.73210736 0 0 Z " fill="#19130C" transform="translate(51,126)"/>
<path d="M0 0 C0.66 0 1.32 0 2 0 C2.31517578 0.88751953 2.31517578 0.88751953 2.63671875 1.79296875 C4.52628477 6.09893147 5.98236112 8.46038035 10.2265625 10.7109375 C13.45986383 11.9295892 16.68310889 13.03358517 20 14 C17 16 17 16 14.44140625 15.53125 C8.26565315 13.31903993 5.01036786 11.88985016 2 6 C1.34 5.67 0.68 5.34 0 5 C-0.2475 5.5775 -0.495 6.155 -0.75 6.75 C-3.40685636 11.53234145 -6.07843904 13.19414903 -11.25 14.75 C-12.82997089 15.17924065 -14.41235914 15.60005994 -16 16 C-16.66 15.34 -17.32 14.68 -18 14 C-17.11957031 13.74347656 -16.23914063 13.48695312 -15.33203125 13.22265625 C-7.06689975 10.60429606 -7.06689975 10.60429606 -1.6875 4.1875 C-1.08277062 2.80943639 -0.5036111 1.41814414 0 0 Z " fill="#241C12" transform="translate(99,52)"/>
<path d="M0 0 C0.79501741 2.28004993 1.20132852 3.49832893 0.28515625 5.78125 C-3.04811846 10.46700359 -6.50785377 13.17297555 -12 15 C-15 15.25 -15 15.25 -17 15 C-14.4755378 12.9740851 -11.94545237 10.95739233 -9.39453125 8.96484375 C-8.54246094 8.29582031 -7.69039062 7.62679687 -6.8125 6.9375 C-5.95269531 6.26589844 -5.09289062 5.59429687 -4.20703125 4.90234375 C-1.81420142 3.01172746 -1.81420142 3.01172746 0 0 Z " fill="#58432C" transform="translate(134,98)"/>
<path d="M0 0 C0.33 0.99 0.66 1.98 1 3 C-2.12402854 8.55382851 -4.69661515 11.2705948 -10.75 13.1875 C-12.35875 13.5896875 -12.35875 13.5896875 -14 14 C-14 14.66 -14 15.32 -14 16 C-16.31 16 -18.62 16 -21 16 C-21.33 15.34 -21.66 14.68 -22 14 C-20.88625 13.773125 -19.7725 13.54625 -18.625 13.3125 C-12.86051397 11.83547867 -6.32953683 9.8790686 -2.4765625 5.1171875 C-1.23485122 3.02507396 -1.23485122 3.02507396 0 0 Z " fill="#433221" transform="translate(122,72)"/>
<path d="M0 0 C1.32 0.33 2.64 0.66 4 1 C3.34 1 2.68 1 2 1 C1.7525 1.5775 1.505 2.155 1.25 2.75 C-1.40685636 7.53234145 -4.07843904 9.19414903 -9.25 10.75 C-10.82997089 11.17924065 -12.41235914 11.60005994 -14 12 C-14.66 11.34 -15.32 10.68 -16 10 C-15.09636719 9.69707031 -14.19273438 9.39414063 -13.26171875 9.08203125 C-11.49248047 8.45361328 -11.49248047 8.45361328 -9.6875 7.8125 C-8.51574219 7.40644531 -7.34398438 7.00039063 -6.13671875 6.58203125 C-2.65442387 4.82570569 -1.6209889 3.48190757 0 0 Z " fill="#251C12" transform="translate(97,56)"/>
<path d="M0 0 C1.0528418 0.15662109 1.0528418 0.15662109 2.12695312 0.31640625 C3.85708829 0.57533804 5.58504118 0.84877657 7.3125 1.125 C7.3125 1.785 7.3125 2.445 7.3125 3.125 C1.02989294 3.35768915 -4.56769467 2.52954548 -10.6875 1.125 C-6.83513991 -1.44324006 -4.32308834 -0.70235049 0 0 Z " fill="#291F14" transform="translate(88.6875,142.875)"/>
<path d="M0 0 C0.99 0.33 1.98 0.66 3 1 C2.52949219 1.37511719 2.05898437 1.75023438 1.57421875 2.13671875 C-2.06639484 5.12910715 -4.85453304 7.70906609 -7 12 C-7.33 11.01 -7.66 10.02 -8 9 C-5.89463891 5.25713584 -3.82045201 2.09508659 0 0 Z " fill="#18120C" transform="translate(80,67)"/>
<path d="M0 0 C0.66 0 1.32 0 2 0 C3.65 3.3 5.3 6.6 7 10 C6.01 10.495 6.01 10.495 5 11 C2 6.25 2 6.25 2 4 C1.01 4 0.02 4 -1 4 C-0.67 2.68 -0.34 1.36 0 0 Z " fill="#0C0906" transform="translate(99,52)"/>
<path d="M0 0 C0.33 0 0.66 0 1 0 C1.28875 1.0725 1.5775 2.145 1.875 3.25 C2.72820109 6.09400364 3.5636503 8.43508983 5 11 C4.01 11.495 4.01 11.495 3 12 C2.54625 11.525625 2.0925 11.05125 1.625 10.5625 C0.06741796 8.90972192 0.06741796 8.90972192 -2 8 C-2 7.34 -2 6.68 -2 6 C-1.34 6 -0.68 6 0 6 C0 4.02 0 2.04 0 0 Z " fill="#34281A" transform="translate(137,92)"/>
<path d="M0 0 C0.33 0 0.66 0 1 0 C1.45732667 5.71658336 0.52273754 8.48649253 -3 13 C-3.66 12.34 -4.32 11.68 -5 11 C-3.625 8.5 -3.625 8.5 -2 6 C-1.34 6 -0.68 6 0 6 C0 4.02 0 2.04 0 0 Z " fill="#2D2216" transform="translate(149,119)"/>
<path d="M0 0 C0.99 0.33 1.98 0.66 3 1 C3.33 2.65 3.66 4.3 4 6 C2.68 6 1.36 6 0 6 C0 4.02 0 2.04 0 0 Z " fill="#FBFAFA" transform="translate(111,92)"/>
<path d="M0 0 C0.66 0 1.32 0 2 0 C2 1.98 2 3.96 2 6 C0.68 6 -0.64 6 -2 6 C-1.125 1.125 -1.125 1.125 0 0 Z " fill="#FBFAFA" transform="translate(87,92)"/>
</svg>
