<svg width="19" height="20" viewBox="0 0 19 20" fill="none" xmlns="http://www.w3.org/2000/svg">
<path d="M15.7938 17.3008C14.1444 17.3008 12.5149 16.9414 10.9052 16.2225C9.29549 15.5037 7.8309 14.4843 6.51146 13.1643C5.19201 11.8444 4.17287 10.3798 3.45404 8.77057C2.73521 7.16138 2.37553 5.53186 2.375 3.88203C2.375 3.64453 2.45417 3.44661 2.6125 3.28828C2.77083 3.12995 2.96875 3.05078 3.20625 3.05078H6.4125C6.59722 3.05078 6.76215 3.11359 6.90729 3.2392C7.05243 3.36481 7.13819 3.51311 7.16458 3.68411L7.67917 6.45495C7.70556 6.66606 7.69896 6.84418 7.65938 6.98932C7.61979 7.13446 7.54722 7.25981 7.44167 7.36536L5.52187 9.30495C5.78576 9.79314 6.099 10.2647 6.46158 10.7197C6.82417 11.1746 7.22343 11.6134 7.65938 12.0362C8.0684 12.4452 8.49722 12.8247 8.94583 13.1746C9.39444 13.5245 9.86944 13.8444 10.3708 14.1341L12.2312 12.2737C12.35 12.1549 12.5052 12.066 12.6968 12.0069C12.8883 11.9478 13.0762 11.9312 13.2604 11.957L15.9917 12.5112C16.1764 12.564 16.3281 12.6598 16.4469 12.7986C16.5656 12.9374 16.625 13.0923 16.625 13.2633V16.4695C16.625 16.707 16.5458 16.9049 16.3875 17.0633C16.2292 17.2216 16.0313 17.3008 15.7938 17.3008Z" fill="#737373"/>
</svg>
