<svg width="42" height="18" viewBox="0 0 42 18" fill="none" xmlns="http://www.w3.org/2000/svg">
<rect width="42" height="18" rx="9" fill="#6EA8FE" fill-opacity="0.2"/>
<path d="M20.043 5.04102V10.2852H18.959V8.12695H17.4551V7.23828H18.959V5.04102H20.043ZM17.0547 10.5098C18.9297 10.5098 20.0723 11.125 20.0723 12.1895C20.0723 13.2539 18.9297 13.8691 17.0547 13.8691C15.1895 13.8691 14.0469 13.2539 14.0566 12.1895C14.0469 11.125 15.1895 10.5098 17.0547 10.5098ZM17.0547 11.3398C15.8242 11.3398 15.1309 11.6328 15.1309 12.1895C15.1309 12.7363 15.8242 13.0293 17.0547 13.0293C18.2852 13.0293 18.9883 12.7363 18.9883 12.1895C18.9883 11.6328 18.2852 11.3398 17.0547 11.3398ZM15.8926 6.55469C15.8926 7.62891 16.6055 8.71289 17.9727 9.17188L17.4258 10.0312C16.4443 9.69922 15.7461 9.02539 15.3652 8.19531C14.9746 9.1377 14.2373 9.88965 13.1875 10.2656L12.6211 9.40625C14.0371 8.91797 14.7891 7.72656 14.7891 6.56445V6.49609H12.9531V5.61719H17.7188V6.49609H15.8926V6.55469ZM24.418 6.44727C24.418 7.56055 25.1406 8.60547 26.498 9.03516L25.9121 9.88477C24.96 9.5625 24.2764 8.91797 23.9004 8.09766C23.5098 9.03516 22.7969 9.77246 21.7812 10.1289L21.1953 9.2793C22.6211 8.78125 23.3242 7.60938 23.334 6.34961V5.50977H24.418V6.44727ZM28.2559 5.04102V7.18945H29.4863V8.08789H28.2559V10.3242H27.1719V5.04102H28.2559ZM25.3848 10.5195C27.2109 10.5098 28.334 11.1348 28.3438 12.1797C28.334 13.2441 27.2109 13.8594 25.3848 13.8594C23.5391 13.8594 22.3965 13.2441 22.3965 12.1797C22.3965 11.1348 23.5391 10.5098 25.3848 10.5195ZM25.3848 11.3691C24.1738 11.3691 23.4805 11.6621 23.4805 12.1797C23.4805 12.7266 24.1738 13 25.3848 13C26.5957 13 27.2695 12.7266 27.2695 12.1797C27.2695 11.6621 26.5957 11.3691 25.3848 11.3691Z" fill="#6EA8FE"/>
</svg>
