<svg width="10" height="8" viewBox="0 0 10 8" fill="none" xmlns="http://www.w3.org/2000/svg">
<path d="M5 1.27295C3.18182 1.27295 1.62909 2.40386 1 4.00022C1.62909 5.59659 3.18182 6.72749 5 6.72749C6.81818 6.72749 8.37091 5.59659 9 4.00022C8.37091 2.40386 6.81818 1.27295 5 1.27295ZM5 5.8184C3.99636 5.8184 3.18182 5.00386 3.18182 4.00022C3.18182 2.99659 3.99636 2.18204 5 2.18204C6.00364 2.18204 6.81818 2.99659 6.81818 4.00022C6.81818 5.00386 6.00364 5.8184 5 5.8184ZM5 2.90931C4.39636 2.90931 3.90909 3.39659 3.90909 4.00022C3.90909 4.60386 4.39636 5.09113 5 5.09113C5.60364 5.09113 6.09091 4.60386 6.09091 4.00022C6.09091 3.39659 5.60364 2.90931 5 2.90931Z" fill="#737373"/>
</svg>
