<svg width="20" height="21" viewBox="0 0 20 21" fill="none" xmlns="http://www.w3.org/2000/svg">
<path d="M14.1666 3.45935C15.4235 4.18506 16.4691 5.22646 17.1998 6.48043C17.9305 7.73441 18.3211 9.15749 18.3328 10.6088C18.3445 12.0601 17.977 13.4893 17.2666 14.7549C16.5563 16.0206 15.5277 17.0787 14.2827 17.8246C13.0377 18.5705 11.6194 18.9784 10.1684 19.0077C8.71732 19.0371 7.28375 18.687 6.00959 17.9921C4.73543 17.2971 3.66485 16.2815 2.90385 15.0456C2.14284 13.8098 1.7178 12.3966 1.67079 10.946L1.66663 10.676L1.67079 10.406C1.71746 8.96684 2.13625 7.56432 2.88633 6.33518C3.6364 5.10604 4.69217 4.09223 5.9507 3.39259C7.20923 2.69294 8.62758 2.33135 10.0675 2.34305C11.5073 2.35475 12.9196 2.73935 14.1666 3.45935ZM9.99996 5.67602C9.79585 5.67604 9.59885 5.75098 9.44632 5.88661C9.29379 6.02225 9.19634 6.20914 9.17246 6.41185L9.16663 6.50935V10.676L9.17413 10.7852C9.19313 10.9298 9.24973 11.0668 9.33829 11.1827L9.41079 11.266L11.9108 13.766L11.9891 13.8343C12.1353 13.9477 12.315 14.0093 12.5 14.0093C12.6849 14.0093 12.8646 13.9477 13.0108 13.8343L13.0891 13.7652L13.1583 13.6868C13.2717 13.5407 13.3332 13.361 13.3332 13.176C13.3332 12.991 13.2717 12.8113 13.1583 12.6652L13.0891 12.5869L10.8333 10.3302V6.50935L10.8275 6.41185C10.8036 6.20914 10.7061 6.02225 10.5536 5.88661C10.4011 5.75098 10.2041 5.67604 9.99996 5.67602Z" fill="#737373"/>
</svg>
