<svg width="37" height="16" viewBox="0 0 37 16" fill="none" xmlns="http://www.w3.org/2000/svg">
<rect x="0.5" y="1" width="36" height="14" rx="7" fill="#FEF9C3"/>
<rect x="0.5" y="1" width="36" height="14" rx="7" stroke="url(#paint0_linear_4780_615)"/>
<path d="M11.5625 4.84375V5.53125H10.4141C10.4258 6.15625 10.9102 6.79297 11.7812 7.07812L11.4062 7.71094C10.7344 7.50391 10.2695 7.08203 10.0156 6.5625C9.75781 7.12891 9.29297 7.60156 8.625 7.84375L8.23438 7.1875C9.09766 6.86328 9.57422 6.17188 9.59375 5.53125H8.42969V4.84375H9.59375V4.16406H10.4141V4.84375H11.5625ZM14.2734 4.14062V7.86719H13.4453V6.34375H12.7656V7.82031H11.9453V4.27344H12.7656V5.64844H13.4453V4.14062H14.2734ZM14.2734 8.14062V9.91406H10.3672V10.4609H14.5234V11.1094H9.5V9.28125H13.4141V8.79688H9.49219V8.14062H14.2734ZM21.0156 4.14062V9.33594H20.1562V4.14062H21.0156ZM21.2109 10.3516V11.0547H16.3125V8.91406H17.1875V10.3516H21.2109ZM18.7656 4.61719V6.79688H16.375V7.6875C17.6523 7.68359 18.4922 7.64453 19.4688 7.46875L19.5625 8.16406C18.5 8.35938 17.5703 8.39844 16.125 8.39844H15.5234V6.14062H17.9062V5.3125H15.5078V4.61719H18.7656ZM27.9844 4.13281V11.2031H27.1172V7.34375H25.7578V6.63281H27.1172V4.13281H27.9844ZM24.6562 6.00781C24.6562 7.22656 25.3125 8.52344 26.4531 9.01562L25.9375 9.71094C25.1172 9.32031 24.5312 8.53516 24.2266 7.60156C23.9102 8.59766 23.3125 9.4375 22.4922 9.85156L21.9688 9.17188C23.1016 8.64062 23.7656 7.29688 23.7734 6.00781V5.53906H22.2578V4.82812H26.1719V5.53906H24.6562V6.00781Z" fill="#854D0E"/>
<defs>
<linearGradient id="paint0_linear_4780_615" x1="0" y1="8" x2="37" y2="8" gradientUnits="userSpaceOnUse">
<stop stop-color="#CEB46C"/>
<stop offset="1" stop-color="#854D0E"/>
</linearGradient>
</defs>
</svg>
