<svg width="37" height="15" viewBox="0 0 37 15" fill="none" xmlns="http://www.w3.org/2000/svg">
<rect x="0.5" y="0.5" width="36" height="14" rx="7" fill="#FEF9C3"/>
<rect x="0.5" y="0.5" width="36" height="14" rx="7" stroke="url(#paint0_linear_4700_11362)"/>
<path d="M11.5625 4.34375V5.03125H10.4141C10.4258 5.65625 10.9102 6.29297 11.7812 6.57812L11.4062 7.21094C10.7344 7.00391 10.2695 6.58203 10.0156 6.0625C9.75781 6.62891 9.29297 7.10156 8.625 7.34375L8.23438 6.6875C9.09766 6.36328 9.57422 5.67188 9.59375 5.03125H8.42969V4.34375H9.59375V3.66406H10.4141V4.34375H11.5625ZM14.2734 3.64062V7.36719H13.4453V5.84375H12.7656V7.32031H11.9453V3.77344H12.7656V5.14844H13.4453V3.64062H14.2734ZM14.2734 7.64062V9.41406H10.3672V9.96094H14.5234V10.6094H9.5V8.78125H13.4141V8.29688H9.49219V7.64062H14.2734ZM21.0156 3.64062V8.83594H20.1562V3.64062H21.0156ZM21.2109 9.85156V10.5547H16.3125V8.41406H17.1875V9.85156H21.2109ZM18.7656 4.11719V6.29688H16.375V7.1875C17.6523 7.18359 18.4922 7.14453 19.4688 6.96875L19.5625 7.66406C18.5 7.85938 17.5703 7.89844 16.125 7.89844H15.5234V5.64062H17.9062V4.8125H15.5078V4.11719H18.7656ZM27.9844 3.63281V10.7031H27.1172V6.84375H25.7578V6.13281H27.1172V3.63281H27.9844ZM24.6562 5.50781C24.6562 6.72656 25.3125 8.02344 26.4531 8.51562L25.9375 9.21094C25.1172 8.82031 24.5312 8.03516 24.2266 7.10156C23.9102 8.09766 23.3125 8.9375 22.4922 9.35156L21.9688 8.67188C23.1016 8.14062 23.7656 6.79688 23.7734 5.50781V5.03906H22.2578V4.32812H26.1719V5.03906H24.6562V5.50781Z" fill="#854D0E"/>
<defs>
<linearGradient id="paint0_linear_4700_11362" x1="0" y1="7.5" x2="37" y2="7.5" gradientUnits="userSpaceOnUse">
<stop stop-color="#CEB46C"/>
<stop offset="1" stop-color="#854D0E"/>
</linearGradient>
</defs>
</svg>
