<svg width="20" height="20" viewBox="0 0 20 20" fill="none" xmlns="http://www.w3.org/2000/svg">
<path d="M15.4109 9.82902L18.5809 12.999L20.0009 11.589L15.4109 6.99902L10.8209 11.589L12.2409 12.999L15.4109 9.82902ZM8.00092 10.999V2.99902C8.00092 1.33902 6.66092 -0.000976562 5.00092 -0.000976562C3.34092 -0.000976562 2.00092 1.33902 2.00092 2.99902V10.999C-0.209078 12.659 -0.659078 15.789 1.00092 17.999C2.66092 20.209 5.79092 20.659 8.00092 18.999C10.2109 17.339 10.6609 14.209 9.00092 11.999C8.71993 11.6172 8.38278 11.28 8.00092 10.999ZM5.00092 1.99902C5.55092 1.99902 6.00092 2.44902 6.00092 2.99902V5.99902H4.00092V2.99902C4.00092 2.44902 4.45092 1.99902 5.00092 1.99902Z" fill="#C76B6B"/>
</svg>
