<svg width="24" height="24" viewBox="0 0 24 24" fill="none" xmlns="http://www.w3.org/2000/svg">
<path d="M17.4109 12.169L14.2409 8.99902L12.8309 10.409L17.4109 14.999L22.0009 10.409L20.5809 8.99902M10.0009 12.999V4.99902C10.0009 3.33902 8.66092 1.99902 7.00092 1.99902C5.34092 1.99902 4.00092 3.33902 4.00092 4.99902V12.999C1.79092 14.659 1.34092 17.789 3.00092 19.999C4.66092 22.209 7.79092 22.659 10.0009 20.999C12.2109 19.339 12.6609 16.209 11.0009 13.999C10.7199 13.6172 10.3828 13.28 10.0009 12.999ZM7.00092 3.99902C7.55092 3.99902 8.00092 4.44902 8.00092 4.99902V7.99902H6.00092V4.99902C6.00092 4.44902 6.45092 3.99902 7.00092 3.99902Z" fill="#6EA8FE"/>
</svg>
