<svg width="51" height="50" viewBox="0 0 51 50" fill="none" xmlns="http://www.w3.org/2000/svg">
<circle cx="25.5" cy="25" r="24" fill="white" stroke="#6EA8FE" stroke-width="2"/>
<path d="M38.3571 27.1429H27.6429V37.8571C27.6429 38.4255 27.4171 38.9705 27.0152 39.3724C26.6134 39.7742 26.0683 40 25.5 40C24.9317 40 24.3866 39.7742 23.9848 39.3724C23.5829 38.9705 23.3571 38.4255 23.3571 37.8571V27.1429H12.6429C12.0745 27.1429 11.5295 26.9171 11.1276 26.5152C10.7258 26.1134 10.5 25.5683 10.5 25C10.5 24.4317 10.7258 23.8866 11.1276 23.4848C11.5295 23.0829 12.0745 22.8571 12.6429 22.8571H23.3571V12.1429C23.3571 11.5745 23.5829 11.0295 23.9848 10.6276C24.3866 10.2258 24.9317 10 25.5 10C26.0683 10 26.6134 10.2258 27.0152 10.6276C27.4171 11.0295 27.6429 11.5745 27.6429 12.1429V22.8571H38.3571C38.9255 22.8571 39.4705 23.0829 39.8724 23.4848C40.2742 23.8866 40.5 24.4317 40.5 25C40.5 25.5683 40.2742 26.1134 39.8724 26.5152C39.4705 26.9171 38.9255 27.1429 38.3571 27.1429Z" fill="#6EA8FE"/>
</svg>
