<?xml version="1.0" encoding="UTF-8"?>
<svg version="1.1" xmlns="http://www.w3.org/2000/svg" width="200" height="200">
<path d="M0 0 C2.10546875 0.80688477 2.10546875 0.80688477 4.1875 1.94140625 C4.96295166 2.35712891 5.73840332 2.77285156 6.53735352 3.20117188 C7.75636353 3.8750293 7.75636353 3.8750293 9 4.5625 C9.83781006 5.01560547 10.67562012 5.46871094 11.53881836 5.93554688 C13.23105746 6.85154882 14.92111246 7.77159798 16.60888672 8.69580078 C18.75285798 9.86519985 20.90549306 11.01464981 23.06640625 12.15234375 C31.73207938 16.73207938 31.73207938 16.73207938 34 19 C33.54545455 24.45454545 33.54545455 24.45454545 31 27 C24.89346938 26.8140143 20.49555839 24.45692035 15.25 21.5 C13.75622812 20.67523365 12.26147535 19.85224069 10.765625 19.03125 C10.11368164 18.66580078 9.46173828 18.30035156 8.79003906 17.92382812 C6.8501494 16.86445375 6.8501494 16.86445375 4 16 C4 16.66 4 17.32 4 18 C11.26 21.96 18.52 25.92 26 30 C26 35.625 26 35.625 23 39 C23.928125 38.95875 24.85625 38.9175 25.8125 38.875 C29 39 29 39 32 41 C32.4140625 43.4296875 32.4140625 43.4296875 32 46 C30.4609375 47.6953125 30.4609375 47.6953125 28.375 49.125 C27.64925781 49.6303125 26.92351562 50.135625 26.17578125 50.65625 C24 52 24 52 20.5625 53.625 C17.83400304 54.73564371 17.83400304 54.73564371 17.125 57.1875 C17.08375 57.785625 17.0425 58.38375 17 59 C18.98 59.495 18.98 59.495 21 60 C21 60.66 21 61.32 21 62 C19.02 61.34 17.04 60.68 15 60 C14.0625 57.9375 14.0625 57.9375 14 55 C15.6674117 53.00521689 17.46817668 51.34846557 19.43359375 49.6484375 C21.34441987 48.01653946 21.34441987 48.01653946 21 45 C17.60085025 46.13304992 16.94745549 47.12518475 15 50 C9.73877829 48.48968084 5.32767414 46.09625809 0.625 43.375 C-0.11105469 42.95476562 -0.84710938 42.53453125 -1.60546875 42.1015625 C-3.4063765 41.07247236 -5.20357318 40.03689244 -7 39 C-6.78545098 40.93832984 -6.78545098 40.93832984 -6 43 C-4.33635098 44.30197151 -4.33635098 44.30197151 -2.21875 45.21875 C-1.45949219 45.59386719 -0.70023438 45.96898437 0.08203125 46.35546875 C0.87996094 46.73316406 1.67789063 47.11085937 2.5 47.5 C4.07911308 48.24746386 5.6524058 49.00738555 7.21875 49.78125 C8.2696582 50.2772168 8.2696582 50.2772168 9.34179688 50.78320312 C11 52 11 52 11.85742188 53.93554688 C12.09347535 57.3534718 9.97676267 59.36431644 8 62 C2.01743254 61.35517237 -2.88077431 57.95070565 -8.02539062 55.0625 C-8.76337891 54.65773437 -9.50136719 54.25296875 -10.26171875 53.8359375 C-10.93162842 53.46001465 -11.60153809 53.0840918 -12.29174805 52.69677734 C-13.13733276 52.35187256 -13.13733276 52.35187256 -14 52 C-14.99 52.495 -14.99 52.495 -16 53 C-16.33 53.99 -16.66 54.98 -17 56 C-13.35206816 57.27253436 -9.8063457 58.32829194 -6 59 C-5.92265625 59.63035156 -5.8453125 60.26070312 -5.765625 60.91015625 C-5.51296875 61.59980469 -5.2603125 62.28945312 -5 63 C-3.07944033 63.95933301 -3.07944033 63.95933301 -0.75 64.4375 C3.63735747 65.73408328 6.26342233 67.16879126 9 71 C9.0625 73.6875 9.0625 73.6875 8 76 C5.9375 77.3125 5.9375 77.3125 4 78 C4 79.98 4 81.96 4 84 C1.525 84.495 1.525 84.495 -1 85 C-0.67 84.34 -0.34 83.68 0 83 C0.66 83 1.32 83 2 83 C1.67 81.02 1.34 79.04 1 77 C0.3296875 76.93683594 -0.340625 76.87367187 -1.03125 76.80859375 C-5.11809912 75.69546511 -8.06658265 73.48628868 -11.5 71.0625 C-17.408928 66.91016398 -17.408928 66.91016398 -24 64 C-24.23203125 64.64582031 -24.4640625 65.29164062 -24.703125 65.95703125 C-27.50001908 72.51962307 -31.27631424 78.64418201 -34.78857422 84.84472656 C-35.81721237 86.67479862 -36.8197002 88.51953027 -37.81640625 90.3671875 C-38.55697266 91.70136719 -38.55697266 91.70136719 -39.3125 93.0625 C-39.92544922 94.19365234 -39.92544922 94.19365234 -40.55078125 95.34765625 C-42 97 -42 97 -44.40234375 97.87109375 C-48.23989498 98.06152862 -50.22358551 96.7175126 -53.30078125 94.56640625 C-55 93 -55 93 -56.4375 89.9375 C-55.81701043 84.35309384 -53.17315978 80.70932078 -50.21875 76.00585938 C-47.77327574 71.98101632 -45.55861029 67.82575945 -43.3125 63.6875 C-42.79921143 62.74656494 -42.28592285 61.80562988 -41.75708008 60.83618164 C-38.59446556 55.01534982 -35.51724966 49.15608405 -32.48754883 43.26513672 C-28.09091305 34.7229778 -23.55722751 26.30914732 -18.625 18.0625 C-18.14933594 17.26440918 -17.67367187 16.46631836 -17.18359375 15.64404297 C-7.37130171 -0.51394354 -7.37130171 -0.51394354 0 0 Z M-1 27 C-1 28.32 -1 29.64 -1 31 C4.28 33.97 9.56 36.94 15 40 C15.33 38.68 15.66 37.36 16 36 C10.55371798 32.37903866 5.04083144 29.50302969 -1 27 Z " fill="#A2805B" transform="translate(104,48)"/>
<path d="M0 0 C-1.017017 3.05105101 -1.82646048 3.82646048 -4 6 C-4 6.66 -4 7.32 -4 8 C-3.09507813 7.93039063 -3.09507813 7.93039063 -2.171875 7.859375 C4.30064755 7.56706753 4.30064755 7.56706753 7.625 9.625 C9 12 9 12 9 15.125 C8 18 8 18 6.23535156 19.16748047 C3.73775504 20.09766878 1.89339826 20.22940254 -0.765625 20.1953125 C-1.65507813 20.18886719 -2.54453125 20.18242187 -3.4609375 20.17578125 C-4.38132812 20.15902344 -5.30171875 20.14226562 -6.25 20.125 C-7.18585938 20.11597656 -8.12171875 20.10695312 -9.0859375 20.09765625 C-11.39088657 20.07413636 -13.6953116 20.04126853 -16 20 C-16.33 20.99 -16.66 21.98 -17 23 C-17.66 23 -18.32 23 -19 23 C-19.6875 20.6875 -19.6875 20.6875 -20 18 C-18.8984375 16.37109375 -18.8984375 16.37109375 -17 15 C-14.15234375 14.5234375 -14.15234375 14.5234375 -10.9375 14.375 C-6.81519723 14.27920728 -6.81519723 14.27920728 -3 13 C-6.28463659 10.81024227 -9.20696275 10.00193437 -13 9 C-13 6.75 -13 6.75 -12 4 C-8.07706062 1.19020589 -4.83245843 0 0 0 Z " fill="#E6E6E6" transform="translate(94,122)"/>
<path d="M0 0 C0 0.66 0 1.32 0 2 C-2.08203125 3.65625 -2.08203125 3.65625 -4.8125 5.5 C-5.70582031 6.1084375 -6.59914063 6.716875 -7.51953125 7.34375 C-9.34586946 8.56322622 -11.17277634 9.7818509 -13 11 C-10.36 11.66 -7.72 12.32 -5 13 C-4.67 14.32 -4.34 15.64 -4 17 C-7.26613695 18.91302307 -9.99445248 19.35674661 -13.75 19.625 C-14.73484375 19.69976562 -15.7196875 19.77453125 -16.734375 19.8515625 C-17.48203125 19.90054688 -18.2296875 19.94953125 -19 20 C-18.67 18.68 -18.34 17.36 -18 16 C-20.64 15.67 -23.28 15.34 -26 15 C-25.67 13.35 -25.34 11.7 -25 10 C-24.26394531 9.84144531 -23.52789062 9.68289062 -22.76953125 9.51953125 C-16.63791557 8.05345141 -13.29555602 6.78647671 -9 2 C-5.75209015 0.63587786 -3.51806773 0 0 0 Z " fill="#E6E6E6" transform="translate(132,127)"/>
<path d="M0 0 C0.82951172 0.70769531 0.82951172 0.70769531 1.67578125 1.4296875 C4.26227548 3.17720125 6.12677501 3.6276887 9.1875 4.125 C13.91388401 4.91388401 13.91388401 4.91388401 15 6 C15.2890625 8.3671875 15.2890625 8.3671875 15 11 C13.4609375 12.6953125 13.4609375 12.6953125 11.375 14.125 C10.64925781 14.6303125 9.92351562 15.135625 9.17578125 15.65625 C7 17 7 17 3.5625 18.625 C0.83400304 19.73564371 0.83400304 19.73564371 0.125 22.1875 C0.08375 22.785625 0.0425 23.38375 0 24 C1.32 24.33 2.64 24.66 4 25 C4 25.66 4 26.32 4 27 C2.02 26.34 0.04 25.68 -2 25 C-2.9375 22.9375 -2.9375 22.9375 -3 20 C-1.3325883 18.00521689 0.46817668 16.34846557 2.43359375 14.6484375 C4.34441987 13.01653946 4.34441987 13.01653946 4 10 C3.154375 9.21625 2.30875 8.4325 1.4375 7.625 C0.633125 6.75875 -0.17125 5.8925 -1 5 C-0.8125 2.1875 -0.8125 2.1875 0 0 Z " fill="#E5E5E5" transform="translate(121,83)"/>
<path d="M0 0 C0.66 0 1.32 0 2 0 C2.11601563 0.94552734 2.11601563 0.94552734 2.234375 1.91015625 C2.48703125 2.59980469 2.7396875 3.28945312 3 4 C4.92055967 4.95933301 4.92055967 4.95933301 7.25 5.4375 C11.63735747 6.73408328 14.26342233 8.16879126 17 12 C17.0625 14.6875 17.0625 14.6875 16 17 C13.9375 18.3125 13.9375 18.3125 12 19 C12 20.98 12 22.96 12 25 C10.35 25.33 8.7 25.66 7 26 C7.33 25.34 7.66 24.68 8 24 C8.66 24 9.32 24 10 24 C10.16810286 19.84449723 10.0762765 16.03217462 9 12 C6.8180186 9.82639473 4.76851603 8.57388235 2.03125 7.18359375 C0 6 0 6 -1 3 C-0.67 2.01 -0.34 1.02 0 0 Z " fill="#E4E3E3" transform="translate(96,107)"/>
<path d="M0 0 C0.99 0.33 1.98 0.66 3 1 C3 2.32 3 3.64 3 5 C4.98 5.66 6.96 6.32 9 7 C9.25 9.75 9.25 9.75 9 13 C7.0625 15.1875 7.0625 15.1875 5 17 C4.67 17.99 4.34 18.98 4 20 C5.65 20.33 7.3 20.66 9 21 C9.25 23.25 9.25 23.25 9 26 C7.125 28.3125 7.125 28.3125 5 30 C4.34 30 3.68 30 3 30 C4.20381448 27.50638429 5.45428722 25.31856917 7 23 C6.030625 22.855625 5.06125 22.71125 4.0625 22.5625 C1 22 1 22 0 21 C-0.375 18.75 -0.375 18.75 0 16 C2.5 13.1875 2.5 13.1875 5 11 C4.175 10.29875 3.35 9.5975 2.5 8.875 C0 6 0 6 -0.3125 2.6875 C-0.209375 1.800625 -0.10625 0.91375 0 0 Z " fill="#E6E6E6" transform="translate(135,102)"/>
</svg>
