<svg width="24" height="24" viewBox="0 0 24 24" fill="none" xmlns="http://www.w3.org/2000/svg">
<path d="M11 22.9498V20.9498C8.91667 20.7165 7.129 19.8541 5.637 18.3628C4.145 16.8715 3.28267 15.0838 3.05 12.9998H1.05V10.9998H3.05C3.28334 8.91647 4.146 7.1288 5.638 5.6368C7.13 4.1448 8.91734 3.28247 11 3.0498V1.0498H13V3.0498C15.0833 3.28314 16.871 4.1458 18.363 5.6378C19.855 7.12981 20.7173 8.91714 20.95 10.9998H22.95V12.9998H20.95C20.7167 15.0831 19.8543 16.8708 18.363 18.3628C16.8717 19.8548 15.084 20.7171 13 20.9498V22.9498H11ZM12 18.9998C13.9333 18.9998 15.5833 18.3165 16.95 16.9498C18.3167 15.5831 19 13.9331 19 11.9998C19 10.0665 18.3167 8.41647 16.95 7.0498C15.5833 5.68314 13.9333 4.9998 12 4.9998C10.0667 4.9998 8.41667 5.68314 7.05 7.0498C5.68334 8.41647 5 10.0665 5 11.9998C5 13.9331 5.68334 15.5831 7.05 16.9498C8.41667 18.3165 10.0667 18.9998 12 18.9998ZM12 15.9998C10.9 15.9998 9.95834 15.6081 9.175 14.8248C8.39167 14.0415 8 13.0998 8 11.9998C8 10.8998 8.39167 9.95814 9.175 9.1748C9.95834 8.39147 10.9 7.9998 12 7.9998C13.1 7.9998 14.0417 8.39147 14.825 9.1748C15.6083 9.95814 16 10.8998 16 11.9998C16 13.0998 15.6083 14.0415 14.825 14.8248C14.0417 15.6081 13.1 15.9998 12 15.9998Z" fill="#262627"/>
</svg>
