<?xml version="1.0" encoding="UTF-8"?>
<svg version="1.1" xmlns="http://www.w3.org/2000/svg" width="200" height="200">
<path d="M0 0 C0.66 0 1.32 0 2 0 C3.33716308 1.91478114 4.43799583 3.92406359 5.5859375 5.95703125 C8.26697184 9.83045932 11.52476747 11.34360973 15.875 12.875 C23.4093484 15.82899563 27.13559395 19.7167763 30.7734375 26.79296875 C31.92151418 28.85877552 33.12798211 30.48528238 34.6875 32.25 C37.74805238 35.8895758 38.74564348 38.90431037 39.8125 43.5 C40.73616655 47.09345547 40.73616655 47.09345547 43.375 49.3125 C48.83349 54.90095404 50.6203982 62.82438016 51.3125 70.4375 C50.82084289 76.04239107 47.93964539 79.28660515 44 83.0625 C29.11513096 95.10915249 7.1658391 95.31821826 -11 94 C-23.29362763 92.56290558 -36.04622695 89.12893578 -45.25 80.4375 C-48.7083549 76.00674702 -48.81038612 71.80359898 -48.4921875 66.32421875 C-47.35646952 58.65361556 -45.29185136 51.83988566 -39 47 C-37.515 46.505 -37.515 46.505 -36 46 C-36.04640625 45.41992188 -36.0928125 44.83984375 -36.140625 44.2421875 C-36.40480378 38.5246039 -35.74054608 35.57177855 -32 31 C-29.60536924 28.06464616 -27.48817156 25.19308848 -25.5625 21.9375 C-22.09028883 16.37987671 -18.6911083 14.16657191 -12.5 12.125 C-6.23828663 9.98438735 -3.88278798 7.40694968 -0.6875 1.625 C-0.460625 1.08875 -0.23375 0.5525 0 0 Z " fill="#93714B" transform="translate(99,52)"/>
<path d="M0 0 C2.13521558 2.0013844 3.58971202 3.92312052 5.0625 6.4375 C8.75755166 11.73374071 14.64866238 13.35531881 20.76928711 14.53271484 C26.36878389 15.34261712 31.97624483 15.22634029 37.625 15.25 C38.83285156 15.270625 40.04070312 15.29125 41.28515625 15.3125 C51.08990278 15.35471635 62.36384058 14.89116826 70 8 C71.85192953 5.42705257 73.47598355 2.77829547 75 0 C77.5625 2.0625 77.5625 2.0625 80 5 C80.29357432 12.48614512 76.2705015 19.30903526 71.57421875 24.875 C65.97938966 30.69931996 60.27041464 35.39229047 53 39 C52.07574219 39.4846875 51.15148437 39.969375 50.19921875 40.46875 C36.57202022 46.96648705 21.99471357 44.06572249 8 40 C1.94406293 37.76351485 -2.83964931 35.04284932 -7 30 C-7.61875 29.278125 -8.2375 28.55625 -8.875 27.8125 C-10.97420469 22.56448827 -9.96628204 17.47856731 -7.94921875 12.3046875 C-5.76972111 7.78374813 -3.37543959 3.75048843 0 0 Z " fill="#937049" transform="translate(62,100)"/>
<path d="M0 0 C3 1 3 1 4.23046875 3.3828125 C6.60407811 6.89344886 9.4542674 7.61599778 13.3125 8.875 C18.55280248 10.78550742 22.88542698 12.50875022 26.171875 17.19921875 C27.63758744 20.38645194 27.71836684 22.60408402 27 26 C18.2890105 32.39113163 6.43548652 31.14923233 -3.8125 30.8125 C-4.8859668 30.7825293 -5.95943359 30.75255859 -7.06542969 30.72167969 C-20.89297332 30.10702668 -20.89297332 30.10702668 -25 26 C-25.58598446 21.81439668 -25.3856984 18.87262838 -22.9375 15.4375 C-19.26987812 11.4782359 -14.41128899 9.90222214 -9.38256836 8.30444336 C-4.21761473 6.551732 -2.51865557 4.60901185 0 0 Z " fill="#937049" transform="translate(99,57)"/>
<path d="M0 0 C0.66 0 1.32 0 2 0 C3.33716308 1.91478114 4.43799583 3.92406359 5.5859375 5.95703125 C8.26697184 9.83045932 11.52476747 11.34360973 15.875 12.875 C23.40520678 15.82737182 27.12883033 19.71192783 30.76953125 26.78125 C32.49342229 29.88972655 34.65919712 32.33408561 37 35 C38.20272819 37.40545638 38.10071472 38.94996953 38.0625 41.625 C38.05347656 42.44226563 38.04445313 43.25953125 38.03515625 44.1015625 C38.02355469 44.72804687 38.01195312 45.35453125 38 46 C37.67 46 37.34 46 37 46 C36.89042969 45.39671875 36.78085938 44.7934375 36.66796875 44.171875 C35.78331609 39.71265023 35.072371 36.49133069 32 33 C32 32.34 32 31.68 32 31 C30.68 30.67 29.36 30.34 28 30 C27.773125 30.61875 27.54625 31.2375 27.3125 31.875 C25.5654955 34.70348348 24.15778883 35.06701694 21 36 C14.39434228 37.28739062 7.89493639 37.18402644 1.1875 37.1875 C-0.04548828 37.19974609 -1.27847656 37.21199219 -2.54882812 37.22460938 C-18.15691798 37.24960899 -18.15691798 37.24960899 -24.5625 33.5 C-26 32 -26 32 -26 30 C-31.44919422 33.98580683 -31.44919422 33.98580683 -34 40 C-34.07366124 46.27172839 -33.40414199 51.25707786 -29 56 C-20.40554568 61.69909444 -10.95540403 61.21410401 -0.99755859 61.24023438 C1.22987616 61.24991256 3.45637594 61.28097115 5.68359375 61.3125 C19.14613273 61.47948509 19.14613273 61.47948509 30.875 55.625 C31.926875 54.325625 31.926875 54.325625 33 53 C34.1446875 51.6078125 34.1446875 51.6078125 35.3125 50.1875 C35.869375 49.465625 36.42625 48.74375 37 48 C36.65286258 51.93422406 35.34542449 54.61548052 32.71875 57.578125 C24.05156205 64.74825321 11.93989609 64.20574913 1.375 64.25 C0.16714844 64.270625 -1.04070312 64.29125 -2.28515625 64.3125 C-12.08990278 64.35471635 -23.36384058 63.89116826 -31 57 C-32.85192953 54.42705257 -34.47598355 51.77829547 -36 49 C-42.00109982 54.16761373 -44.81092378 60.31276923 -46 68.125 C-46.22456066 72.04570774 -45.85706834 75.07637527 -43.52734375 78.41015625 C-36.18329342 86.05473038 -25.97597627 87.96515128 -16 90 C-14.59041016 90.29003906 -14.59041016 90.29003906 -13.15234375 90.5859375 C4.1061693 92.85285495 26.13625543 92.17642263 41 82 C44.20416076 79.26311268 46.42961179 76.90110013 48 73 C48.23003231 66.55909533 46.49587432 60.85987883 44 55 C46.65848752 55.99418645 47.77544216 56.54166739 49.046875 59.13671875 C52.39192682 71.27182342 52.39192682 71.27182342 49.4375 77.0625 C40.21169979 88.18077205 27.18036614 92.59529915 13 94 C-6.45396596 95.31855821 -27.08753624 94.39272934 -43.28515625 82.29296875 C-47.35511797 78.44956553 -48.46940083 75.2655515 -48.6875 69.6875 C-48.25559387 62.25007641 -46.70571928 54.4625053 -41.4375 48.875 C-39 47 -39 47 -36 46 C-36.04640625 45.41992188 -36.0928125 44.83984375 -36.140625 44.2421875 C-36.40480378 38.5246039 -35.74054608 35.57177855 -32 31 C-29.60536924 28.06464616 -27.48817156 25.19308848 -25.5625 21.9375 C-22.09028883 16.37987671 -18.6911083 14.16657191 -12.5 12.125 C-6.23828663 9.98438735 -3.88278798 7.40694968 -0.6875 1.625 C-0.460625 1.08875 -0.23375 0.5525 0 0 Z M0 5 C-0.54914063 5.92941406 -1.09828125 6.85882813 -1.6640625 7.81640625 C-4.44666005 11.60874238 -7.07255695 12.57048189 -11.375 13.9375 C-16.60638379 15.82240608 -20.89482118 17.52215776 -24.171875 22.19921875 C-25.63758744 25.38645194 -25.71836684 27.60408402 -25 31 C-16.07698453 38.43584622 2.47637853 36.6602207 13.36328125 35.72265625 C18.599917 34.99182243 22.66426477 34.18106853 27 31 C27.71836684 27.60408402 27.63758744 25.38645194 26.171875 22.19921875 C22.52546138 16.99500184 17.23539698 15.16406652 11.38256836 13.30444336 C6.38893294 11.60986831 4.636937 9.46298491 2 5 C1.34 5 0.68 5 0 5 Z " fill="#0F0A07" transform="translate(99,52)"/>
<path d="M0 0 C0.33 0 0.66 0 1 0 C1.3403125 1.5778125 1.3403125 1.5778125 1.6875 3.1875 C2.57059522 6.40820021 3.16070886 7.16070886 5.6875 9.6875 C6.450625 10.450625 7.21375 11.21375 8 12 C7.76216797 12.90105469 7.76216797 12.90105469 7.51953125 13.8203125 C6.80034072 16.83766824 7.76709667 18.37696707 9 21.1875 C11.03783396 26.48728345 11.67737481 30.52353786 10 36 C6.86427567 41.86244114 0.25705292 45.59103613 -5.9296875 47.63867188 C-15.19546457 50.30476811 -24.34107221 52.16653324 -34 52 C-31.80780549 49.80780549 -30.38355636 49.29027033 -27.5 48.25 C-15.06458932 43.3436328 -3.72060701 35.49196976 2.1875 23.125 C3.66889722 19.61780518 4.39116619 16.81547347 4 13 C2.10415891 10.68622853 2.10415891 10.68622853 0 9 C-0.556875 9.556875 -1.11375 10.11375 -1.6875 10.6875 C-2.450625 11.450625 -3.21375 12.21375 -4 13 C-4.78375 13.845625 -5.5675 14.69125 -6.375 15.5625 C-12.60924419 21.35144104 -18.78682933 22.16104256 -27 22 C-24 20 -24 20 -20.375 18.3125 C-12.51179118 14.40261716 -6.74962895 9.34033566 -2 2 C-1.34 1.34 -0.68 0.68 0 0 Z " fill="#5A442D" transform="translate(137,92)"/>
<path d="M0 0 C3 1 3 1 4.23046875 3.3828125 C6.60407811 6.89344886 9.4542674 7.61599778 13.3125 8.875 C18.55280248 10.78550742 22.88542698 12.50875022 26.171875 17.19921875 C27.63758744 20.38645194 27.71836684 22.60408402 27 26 C20.22865893 31.14325906 10.25811096 31.38409818 2 31 C1.67 30.34 1.34 29.68 1 29 C2.11375 28.773125 3.2275 28.54625 4.375 28.3125 C9.59687212 26.97905765 14.5529679 25.08450159 19 22 C20.73920313 18.89050521 20.73920313 18.89050521 21 16 C17.77484237 14.26337666 14.48670834 13.1094072 11 12 C11 13.32 11 14.64 11 16 C10.34 16 9.68 16 9 16 C8.71125 15.360625 8.4225 14.72125 8.125 14.0625 C7.17176549 11.84793921 7.17176549 11.84793921 5 11 C5 11.66 5 12.32 5 13 C4.34 13 3.68 13 3 13 C2.67 14.65 2.34 16.3 2 18 C1.34 18 0.68 18 0 18 C-0.495 15.525 -0.495 15.525 -1 13 C-1.66 13 -2.32 13 -3 13 C-3 12.34 -3 11.68 -3 11 C-4.70840281 12.63412443 -5.93453047 13.86906094 -7 16 C-7.66 16 -8.32 16 -9 16 C-9 14.68 -9 13.36 -9 12 C-9.60328125 12.20496094 -10.2065625 12.40992187 -10.828125 12.62109375 C-11.62734375 12.89050781 -12.4265625 13.15992187 -13.25 13.4375 C-14.03890625 13.70433594 -14.8278125 13.97117187 -15.640625 14.24609375 C-17.74821988 14.91954708 -19.84753973 15.49150595 -22 16 C-18.69183552 11.71163863 -15.56057428 10.33542908 -10.4375 8.5625 C-5.00021503 6.72460193 -5.00021503 6.72460193 -1.1875 2.6875 C-0.795625 1.800625 -0.40375 0.91375 0 0 Z " fill="#A25A4C" transform="translate(99,57)"/>
<path d="M0 0 C2.13521558 2.0013844 3.58971202 3.92312052 5.0625 6.4375 C8.75755166 11.73374071 14.64866238 13.35531881 20.76928711 14.53271484 C26.36878389 15.34261712 31.97624483 15.22634029 37.625 15.25 C38.83285156 15.270625 40.04070312 15.29125 41.28515625 15.3125 C51.08990278 15.35471635 62.36384058 14.89116826 70 8 C71.85192953 5.42705257 73.47598355 2.77829547 75 0 C76.68762851 1.6454378 78.3540349 3.31288577 80 5 C80 5.33 80 5.66 80 6 C79.113125 6.226875 78.22625 6.45375 77.3125 6.6875 C73.5358773 8.18389767 71.73346231 10.04490561 69 13 C68.01 13.66 67.02 14.32 66 15 C65.27034634 17.56282742 65.27034634 17.56282742 65 20 C64.505 19.690625 64.01 19.38125 63.5 19.0625 C57.92329319 16.69239961 52.81510211 16.83697958 47 18 C45.33372702 18.03622333 43.66594626 18.04899842 42 18 C41.01 20.31 40.02 22.62 39 25 C38.34 25 37.68 25 37 25 C36.01 22.69 35.02 20.38 34 18 C33.38511719 18.01160156 32.77023438 18.02320312 32.13671875 18.03515625 C31.32847656 18.04417969 30.52023438 18.05320312 29.6875 18.0625 C28.48673828 18.07990234 28.48673828 18.07990234 27.26171875 18.09765625 C25 18 25 18 22 17 C17.91435293 17.37142246 14.54280318 17.87431809 11 20 C10.979375 19.278125 10.95875 18.55625 10.9375 17.8125 C9.7150876 14.1452628 7.88762004 13.19939618 4.69140625 11.2109375 C3 10 3 10 1 7 C-1.56282742 6.27034634 -1.56282742 6.27034634 -4 6 C-2.68 4.02 -1.36 2.04 0 0 Z " fill="#A15A4B" transform="translate(62,100)"/>
<path d="M0 0 C0.33 0 0.66 0 1 0 C1.3403125 1.5778125 1.3403125 1.5778125 1.6875 3.1875 C2.56870068 6.40777014 3.13320943 7.13011153 5.6875 9.625 C8 12 8 12 8.0625 14.25 C1.74950707 30.5895111 -8.34349084 42.38906006 -24.33203125 50.12890625 C-27.98383673 51.63976455 -30.25285169 52.18591067 -34 51 C-33.24976562 50.70867187 -32.49953125 50.41734375 -31.7265625 50.1171875 C-17.78865058 44.53500111 -4.56251263 37.25426372 2.1875 23.125 C3.66889722 19.61780518 4.39116619 16.81547347 4 13 C2.10415891 10.68622853 2.10415891 10.68622853 0 9 C-0.556875 9.556875 -1.11375 10.11375 -1.6875 10.6875 C-2.450625 11.450625 -3.21375 12.21375 -4 13 C-4.78375 13.845625 -5.5675 14.69125 -6.375 15.5625 C-12.60924419 21.35144104 -18.78682933 22.16104256 -27 22 C-24 20 -24 20 -20.375 18.3125 C-12.51179118 14.40261716 -6.74962895 9.34033566 -2 2 C-1.34 1.34 -0.68 0.68 0 0 Z " fill="#3D2D1E" transform="translate(137,92)"/>
<path d="M0 0 C1.9375 0.375 1.9375 0.375 4 1 C5.55938978 4.11877956 5.3607834 6.57255771 5 10 C-1.68769391 15.1878802 -11.79423325 15.38166357 -20 15 C-20.33 14.34 -20.66 13.68 -21 13 C-19.88625 12.773125 -18.7725 12.54625 -17.625 12.3125 C-11.0704048 10.64172083 -4.62245862 8.52912667 -0.875 2.6875 C-0.58625 1.800625 -0.2975 0.91375 0 0 Z " fill="#5C452E" transform="translate(121,73)"/>
<path d="M0 0 C0.66 0 1.32 0 2 0 C3.1484375 1.64453125 3.1484375 1.64453125 4.375 3.8125 C8.37358495 10.37665101 12.83377794 11.84094592 20 14 C17 16 17 16 14.44140625 15.53125 C8.26565315 13.31903993 5.01036786 11.88985016 2 6 C1.34 5.67 0.68 5.34 0 5 C-0.2475 5.763125 -0.495 6.52625 -0.75 7.3125 C-2.62018317 11.33339382 -4.95926499 12.59992179 -9.05859375 14.17578125 C-10.17363281 14.55089844 -11.28867188 14.92601563 -12.4375 15.3125 C-18.0983575 17.41474238 -20.70945627 19.01111112 -24 24 C-25.31543863 25.35099103 -26.64175118 26.69205669 -28 28 C-26.52715084 22.37639412 -24.11994183 17.94668639 -19.140625 14.83984375 C-16.50219517 13.49506266 -13.83779024 12.31883515 -11.0703125 11.265625 C-5.24237655 9.01449094 -2.49669653 5.61756719 0 0 Z " fill="#312018" transform="translate(99,52)"/>
<path d="M0 0 C0.66 0 1.32 0 2 0 C2.495 0.86625 2.99 1.7325 3.5 2.625 C8.87093602 10.87600315 18.86397037 13.18977283 27.92578125 15.1875 C33.58237268 16.35197343 39.27371145 17.25479806 45 18 C45 18.66 45 19.32 45 20 C31.43401741 20.39899949 14.97110498 17.30343977 4.71484375 7.90625 C0 2.73210736 0 2.73210736 0 0 Z " fill="#19130C" transform="translate(51,126)"/>
<path d="M0 0 C3.08191267 1.73357588 4.34580799 4.06168146 6 7.125 C5.67 8.115 5.34 9.105 5 10.125 C4.01 8.475 3.02 6.825 2 5.125 C1.34 5.785 0.68 6.445 0 7.125 C-2.125 6.75 -2.125 6.75 -4 6.125 C-4 7.115 -4 8.105 -4 9.125 C-4.66 9.125 -5.32 9.125 -6 9.125 C-6 10.115 -6 11.105 -6 12.125 C-6.66 12.125 -7.32 12.125 -8 12.125 C-8.66 11.135 -9.32 10.145 -10 9.125 C-13.56769552 8.38893501 -13.56769552 8.38893501 -17 8.125 C-14.68672916 5.81172916 -13.76664438 5.76143048 -10.625 5.25 C-6.2419982 4.38742525 -3.85237904 0.24077369 0 0 Z " fill="#A15A4B" transform="translate(129,81.875)"/>
<path d="M0 0 C0.58265625 0.62390625 1.1653125 1.2478125 1.765625 1.890625 C4.38858947 4.3668502 6.27023504 4.92148453 9.75 5.75 C10.73484375 5.99234375 11.7196875 6.2346875 12.734375 6.484375 C13.48203125 6.65453125 14.2296875 6.8246875 15 7 C15 7.33 15 7.66 15 8 C13.88625 8.103125 12.7725 8.20625 11.625 8.3125 C10.42875 8.539375 9.2325 8.76625 8 9 C7.01 10.485 7.01 10.485 6 12 C5.34 12 4.68 12 4 12 C4 11.01 4 10.02 4 9 C3.34 9 2.68 9 2 9 C2 8.01 2 7.02 2 6 C0.35 6.33 -1.3 6.66 -3 7 C-3.33 6.34 -3.66 5.68 -4 5 C-5.32 6.65 -6.64 8.3 -8 10 C-7.61508669 5.50934475 -5.14531178 0 0 0 Z " fill="#A25A4C" transform="translate(73,82)"/>
<path d="M0 0 C0.79501741 2.28004993 1.20132852 3.49832893 0.28515625 5.78125 C-3.04811846 10.46700359 -6.50785377 13.17297555 -12 15 C-15 15.25 -15 15.25 -17 15 C-14.4755378 12.9740851 -11.94545237 10.95739233 -9.39453125 8.96484375 C-8.54246094 8.29582031 -7.69039062 7.62679687 -6.8125 6.9375 C-5.95269531 6.26589844 -5.09289062 5.59429687 -4.20703125 4.90234375 C-1.81420142 3.01172746 -1.81420142 3.01172746 0 0 Z " fill="#58432C" transform="translate(134,98)"/>
<path d="M0 0 C0.33 1.32 0.66 2.64 1 4 C0.34 4 -0.32 4 -1 4 C-1.21914062 4.56332031 -1.43828125 5.12664062 -1.6640625 5.70703125 C-3.43085964 8.7395164 -5.65448954 10.4811879 -8.375 12.6875 C-9.80972656 13.86892578 -9.80972656 13.86892578 -11.2734375 15.07421875 C-13.68162943 16.77513368 -15.13113863 17.59890327 -18 18 C-18 18.66 -18 19.32 -18 20 C-20.31 20 -22.62 20 -25 20 C-22 18 -22 18 -18.375 16.3125 C-10.55608157 12.42464001 -4.66016425 7.36606608 0 0 Z " fill="#473623" transform="translate(135,94)"/>
<path d="M0 0 C-0.79664062 0.30292969 -1.59328125 0.60585937 -2.4140625 0.91796875 C-11.36610908 4.45740322 -16.96834386 7.67841485 -22 16 C-22.33 15.34 -22.66 14.68 -23 14 C-20.38493598 8.24685915 -16.70422744 3.59607646 -10.82421875 1.0625 C-4.15145168 -1.38381723 -4.15145168 -1.38381723 0 0 Z " fill="#1C140D" transform="translate(94,64)"/>
<path d="M0 0 C3.465 1.98 3.465 1.98 7 4 C6.67 4.99 6.34 5.98 6 7 C6.66 7 7.32 7 8 7 C8.33 6.34 8.66 5.68 9 5 C9.33 5.99 9.66 6.98 10 8 C9.67 8.66 9.34 9.32 9 10 C7.02 10 5.04 10 3 10 C0.96564469 6.27034861 0 4.33094958 0 0 Z " fill="#050403" transform="translate(107,96)"/>
<path d="M0 0 C0.6875 1.625 0.6875 1.625 1 4 C-0.4375 7.25 -0.4375 7.25 -2 10 C-3.98 10 -5.96 10 -8 10 C-8.33 8.68 -8.66 7.36 -9 6 C-8.34 5.67 -7.68 5.34 -7 5 C-7 5.66 -7 6.32 -7 7 C-6.34 7 -5.68 7 -5 7 C-5.33 6.01 -5.66 5.02 -6 4 C-4.02 2.68 -2.04 1.36 0 0 Z " fill="#050403" transform="translate(92,96)"/>
<path d="M0 0 C0.66 0 1.32 0 2 0 C0.94779669 4.52447424 -0.547565 7.10674127 -4.26953125 9.96484375 C-7.06992117 11.64002057 -9.82243283 12.30093522 -13 13 C-13 13.66 -13 14.32 -13 15 C-15.31 15 -17.62 15 -20 15 C-20.33 14.34 -20.66 13.68 -21 13 C-19.88625 12.773125 -18.7725 12.54625 -17.625 12.3125 C-11.0704048 10.64172083 -4.62245862 8.52912667 -0.875 2.6875 C-0.58625 1.800625 -0.2975 0.91375 0 0 Z " fill="#433321" transform="translate(121,73)"/>
<path d="M0 0 C1.0528418 0.15662109 1.0528418 0.15662109 2.12695312 0.31640625 C3.85708829 0.57533804 5.58504118 0.84877657 7.3125 1.125 C7.3125 1.785 7.3125 2.445 7.3125 3.125 C1.02989294 3.35768915 -4.56769467 2.52954548 -10.6875 1.125 C-6.83513991 -1.44324006 -4.32308834 -0.70235049 0 0 Z " fill="#291F14" transform="translate(88.6875,142.875)"/>
<path d="M0 0 C2.71815409 0.9966565 3.79387661 1.59347887 5.125 4.21875 C6.07875955 7.25034287 6.20133813 9.64446773 6.125 12.8125 C6.10695312 13.78832031 6.08890625 14.76414062 6.0703125 15.76953125 C6.03550781 16.87361328 6.03550781 16.87361328 6 18 C5.67 18 5.34 18 5 18 C4.70996094 16.67935547 4.70996094 16.67935547 4.4140625 15.33203125 C4.15367187 14.17058594 3.89328125 13.00914063 3.625 11.8125 C3.36976563 10.66394531 3.11453125 9.51539062 2.8515625 8.33203125 C2.10527548 5.41192652 1.19568212 2.76046611 0 0 Z " fill="#0E0B07" transform="translate(143,107)"/>
<path d="M0 0 C2.64 0 5.28 0 8 0 C8.33 0.99 8.66 1.98 9 3 C5.7 3 2.4 3 -1 3 C-0.67 2.01 -0.34 1.02 0 0 Z " fill="#000000" transform="translate(96,109)"/>
<path d="M0 0 C1.32 0.33 2.64 0.66 4 1 C3.34 1 2.68 1 2 1 C1.731875 1.78375 1.46375 2.5675 1.1875 3.375 C0 6 0 6 -3 8 C-3.66 7.34 -4.32 6.68 -5 6 C-3.35 4.02 -1.7 2.04 0 0 Z " fill="#3E251D" transform="translate(97,56)"/>
<path d="M0 0 C0.33 0 0.66 0 1 0 C1.45732667 5.71658336 0.52273754 8.48649253 -3 13 C-3.66 12.34 -4.32 11.68 -5 11 C-3.625 8.5 -3.625 8.5 -2 6 C-1.34 6 -0.68 6 0 6 C0 4.02 0 2.04 0 0 Z " fill="#2D2216" transform="translate(149,119)"/>
<path d="M0 0 C0.66 0 1.32 0 2 0 C3.5625 2.8125 3.5625 2.8125 5 6 C4.67 6.99 4.34 7.98 4 9 C3.34 7.35 2.68 5.7 2 4 C1.01 4 0.02 4 -1 4 C-0.67 2.68 -0.34 1.36 0 0 Z " fill="#0B0805" transform="translate(99,52)"/>
<path d="M0 0 C0.99 0.33 1.98 0.66 3 1 C0.03 4.96 0.03 4.96 -3 9 C-3.33 8.34 -3.66 7.68 -4 7 C-3.22265625 5.2734375 -3.22265625 5.2734375 -2.0625 3.375 C-1.381875 2.26125 -0.70125 1.1475 0 0 Z " fill="#291B14" transform="translate(75,71)"/>
</svg>
