<svg width="36" height="44" viewBox="0 0 36 44" fill="none" xmlns="http://www.w3.org/2000/svg">
<path d="M36 18C36 32 18 44 18 44C18 44 0 32 0 18C0 13.2261 1.89642 8.6477 5.2721 5.27208C8.6477 1.89642 13.2261 0 18 0C22.7739 0 27.3523 1.89642 30.7279 5.27208C34.1036 8.6477 36 13.2261 36 18Z" fill="#6EA8FE"/>
<path d="M13.1505 9.73669C12.7034 10.1838 11.7294 10.8795 11.9812 11.6578C12.0495 11.8691 12.3388 11.3784 12.4545 11.1887C12.585 10.9747 12.8856 10.3131 12.8721 10.5634C12.8396 11.1649 13.1339 11.546 13.3668 12.0689C13.4979 12.3633 13.6032 12.6727 13.7545 12.9577C13.8527 13.143 14.2524 13.0477 14.4098 13.0434C14.7576 13.034 15.1201 12.9907 15.4678 13.022C15.6933 13.0423 15.917 13.1883 16.1167 13.2811C16.638 13.5236 17.1559 13.5563 17.7122 13.6688C18.3962 13.8071 18.7107 14.497 19.0807 15.0308C19.5664 15.7316 19.9622 16.5036 20.4707 17.1853C20.6838 17.4711 20.9302 17.763 21.2374 17.9521C21.457 18.0872 21.7107 18.1234 21.9463 18.2176C22.3166 18.3658 22.5427 19.0046 22.6166 19.3527C22.7636 20.0452 22.2298 20.2811 21.6421 20.4535C21.0659 20.6225 20.4776 20.7476 19.901 20.9161C19.4968 21.0342 19.1161 21.1991 18.7188 21.3316C18.6219 21.3639 18.5145 21.5304 18.5389 21.6314C18.6421 22.059 19.2905 22.2305 19.6183 22.3724C19.8861 22.4884 20.1742 22.5815 20.4321 22.7194C20.4654 22.7371 20.4881 22.7765 20.5306 22.7643C20.5917 22.7469 20.3814 22.7653 20.3486 22.7708C19.4826 22.9151 18.5795 22.719 17.7058 22.6872C17.1326 22.6664 16.5939 22.5225 16.0332 22.4174C15.7747 22.3689 15.514 22.2727 15.2493 22.2653C15.0548 22.2599 14.8805 22.2394 14.6904 22.1882C14.3749 22.1033 14.0247 22.0845 13.7373 21.9184C13.4246 21.7376 13.1819 21.4454 12.9278 21.1945C12.468 20.7405 11.9108 20.4038 11.4543 19.9524C11.1772 19.6783 10.8959 19.4137 10.7197 19.0614C10.6325 18.887 10.4746 18.7221 10.4221 18.5346C10.2715 17.9968 10.9328 19.5371 11.0774 20.0766C11.1643 20.4006 11.1845 20.6956 11.1845 21.0296C11.1845 21.0431 11.1873 21.5049 11.0688 21.3123C10.9667 21.1463 10.9215 20.9587 10.8847 20.7705C10.8379 20.5313 10.7075 20.3851 10.572 20.1879C10.272 19.7516 10.1822 19.0963 10.1822 18.5731C10.1822 18.0952 10.2304 17.6171 10.4221 17.1725C10.6153 16.7242 10.941 16.2956 11.2102 15.8896C11.565 15.3545 11.945 14.7956 12.1011 14.1656C12.1856 13.8246 12.1868 13.4467 12.1868 13.0969C12.1868 13.0555 12.189 12.9393 12.2103 12.9749C12.4011 13.2929 12.4551 13.7697 12.5637 14.1185C12.7411 14.688 12.9455 15.2487 13.1205 15.819C13.3901 16.6975 13.5531 17.591 13.7459 18.4875C13.8178 18.8221 13.8839 19.2039 14.0693 19.5005C14.2026 19.7137 14.3216 19.3585 14.3841 19.2542C14.6569 18.7988 14.8995 18.3296 15.0651 17.8236C15.1566 17.5442 15.3543 17.0212 15.1829 16.7313C14.9546 16.3449 13.958 16.4411 13.6431 16.6071C13.0574 16.9158 12.7038 17.7797 13.1334 18.3525C13.2586 18.5195 13.3965 18.5082 13.5596 18.3932C13.9881 18.0911 14.3303 17.5899 14.3627 17.0568C14.4089 16.2954 13.7289 15.6592 13.0263 16.1959C12.2749 16.7698 12.8698 17.8586 13.596 18.0891C14.6899 18.4364 16.4323 18.0578 16.9155 16.9026C17.195 16.2346 16.7765 15.6046 16.1702 15.3328C15.7161 15.1292 15.203 15.0665 14.7139 15.0073C14.5071 14.9823 13.8124 14.7994 13.6988 15.1165C13.5627 15.4963 13.8741 15.9492 14.0629 16.2387C14.637 17.1194 15.3436 17.9154 16.0332 18.7059C16.5629 19.3131 17.2417 20.2616 18.1149 20.3893C18.7623 20.4839 19.1651 19.8542 19.0914 19.2649C19.0587 19.0025 18.9386 18.7314 18.6374 18.7359C17.9703 18.7459 17.1671 19.0076 16.6478 19.4255C16.4293 19.6013 16.2721 19.8617 16.2259 20.1387C16.2152 20.2028 16.181 20.5563 16.3501 20.4878C16.7426 20.3287 17.1363 20.0804 17.5152 19.8924C17.9452 19.679 18.3423 19.4768 18.7616 19.2413C19.1414 19.028 19.6473 18.7901 19.9502 18.4575C20.1489 18.2394 19.3579 18.4449 19.0657 18.4853C18.0098 18.6314 16.9149 18.7771 15.909 19.1471C15.8274 19.1771 15.5991 19.3035 15.6734 19.2585C15.9715 19.0778 16.2087 18.6901 16.4401 18.4446C16.8782 17.98 17.3389 17.5418 17.8322 17.1361C18.0413 16.964 18.257 16.7579 18.0035 17.1382C17.5688 17.7902 17.1142 18.4291 16.6757 19.0786C16.5429 19.2752 16.1658 19.8349 16.0203 20.068C15.9724 20.1448 15.925 20.2222 15.8854 20.3036C15.8209 20.4361 15.8737 20.4021 15.9646 20.3379C17.1402 19.5071 18.089 18.3797 19.1514 17.4209C19.3375 17.253 18.8987 17.8564 18.7402 18.0506C18.5767 18.2508 18.4229 18.4047 18.2005 18.526" stroke="white" stroke-width="3" stroke-linecap="round"/>
<path d="M23.1649 7.446C23.2529 7.41667 23.4876 7.40933 23.8689 7.424C24.2649 7.424 24.5363 7.446 24.6829 7.49C24.8296 7.534 25.0423 7.67333 25.3209 7.908C25.5996 8.128 25.7389 8.27467 25.7389 8.348C25.7389 8.40667 25.7756 8.51667 25.8489 8.678C25.9223 8.854 25.9663 9.096 25.9809 9.404C26.0103 9.72667 26.0763 9.96867 26.1789 10.13C26.3109 10.306 26.3989 10.504 26.4429 10.724C26.4869 10.944 26.5089 11.318 26.5089 11.846C26.5236 12.4033 26.5603 12.7773 26.6189 12.968C26.6776 13.1587 26.8169 13.3347 27.0369 13.496C27.1543 13.5987 27.2643 13.7527 27.3669 13.958C27.4696 14.1633 27.5943 14.3393 27.7409 14.486C27.8876 14.6473 27.9609 14.75 27.9609 14.794C27.9609 14.838 28.0489 14.9773 28.2249 15.212C28.4009 15.4467 28.4889 15.6667 28.4889 15.872C28.4889 16.0773 28.5183 16.2387 28.5769 16.356C28.6503 16.488 28.6869 16.9207 28.6869 17.654C28.6869 18.3873 28.6503 18.908 28.5769 19.216C28.5036 19.4947 28.4596 19.7367 28.4449 19.942C28.4449 20.1327 28.3643 20.3673 28.2029 20.646C28.0563 20.9247 27.9463 21.1813 27.8729 21.416C27.8143 21.6507 27.7043 21.8413 27.5429 21.988C27.3669 22.1493 27.2423 22.3107 27.1689 22.472C27.0663 22.6333 26.9489 22.7507 26.8169 22.824C26.6849 22.912 26.5163 23.0367 26.3109 23.198C26.0763 23.3593 25.7389 23.55 25.2989 23.77C24.8589 23.99 24.5729 24.1513 24.4409 24.254C24.0449 24.5913 23.6709 24.7893 23.3189 24.848C23.0403 24.9067 22.7836 25.002 22.5489 25.134C22.1529 25.3687 21.6469 25.464 21.0309 25.42C20.7083 25.4053 20.2609 25.398 19.6889 25.398C18.9116 25.398 18.1563 25.3907 17.4229 25.376C17.2323 25.376 17.0709 25.3833 16.9389 25.398C16.6896 25.4127 16.3156 25.3907 15.8169 25.332C15.3329 25.288 15.0396 25.2367 14.9369 25.178C14.7756 25.1047 14.5703 25.046 14.3209 25.002C14.0863 24.958 13.8956 24.9067 13.7489 24.848C13.6023 24.7893 13.3676 24.76 13.0449 24.76C12.7369 24.76 12.4949 24.7087 12.3189 24.606C12.1723 24.5033 11.9889 24.4153 11.7689 24.342C11.6223 24.298 11.3803 24.1807 11.0429 23.99C10.7203 23.7993 10.5149 23.66 10.4269 23.572C10.2069 23.308 9.89893 23.0807 9.50293 22.89C9.32693 22.802 9.23893 22.7433 9.23893 22.714C9.23893 22.67 9.0996 22.5013 8.82093 22.208C8.3516 21.6947 8.0216 21.2473 7.83093 20.866C7.64026 20.47 7.50093 19.9347 7.41293 19.26C7.3396 18.732 7.30293 18.204 7.30293 17.676C7.30293 17.1333 7.3396 16.796 7.41293 16.664C7.4716 16.5467 7.52293 16.3267 7.56693 16.004C7.61093 15.6813 7.6696 15.4833 7.74293 15.41C7.81626 15.3367 7.90426 15.1827 8.00693 14.948C8.09493 14.7133 8.18293 14.552 8.27093 14.464C8.3736 14.3613 8.45426 14.222 8.51293 14.046C8.5716 13.8847 8.7036 13.694 8.90893 13.474C9.30493 13.0927 9.5396 12.8433 9.61293 12.726C9.70093 12.6087 9.74493 12.484 9.74493 12.352C9.74493 12.132 9.8476 11.67 10.0529 10.966C10.2729 10.2473 10.4416 9.80733 10.5589 9.646C10.6176 9.54333 10.6616 9.41867 10.6909 9.272C10.7203 9.14 10.7863 9.01533 10.8889 8.898C10.9916 8.79533 11.0943 8.64867 11.1969 8.458C11.2996 8.25267 11.4169 8.12067 11.5489 8.062C11.6956 7.98867 12.0403 7.90067 12.5829 7.798C12.7589 7.76867 12.9569 7.71 13.1769 7.622C13.3823 7.534 13.5436 7.51933 13.6609 7.578C13.7929 7.622 13.9469 7.67333 14.1229 7.732C14.2403 7.76133 14.3576 7.842 14.4749 7.974C14.6069 8.106 14.6729 8.216 14.6729 8.304C14.6729 8.33333 14.7316 8.40667 14.8489 8.524C14.9663 8.656 15.0323 8.77333 15.0469 8.876C15.1056 9.184 15.2083 9.56533 15.3549 10.02C15.5163 10.4747 15.6263 10.7387 15.6849 10.812C15.8169 10.944 16.0149 11.0247 16.2789 11.054C16.5429 11.0687 16.7629 11.032 16.9389 10.944C17.0123 10.9 17.2029 10.8707 17.5109 10.856C17.7749 10.856 17.9949 10.8487 18.1709 10.834C18.3029 10.8193 18.6036 10.8487 19.0729 10.922C19.5423 10.9953 19.8576 11.054 20.0189 11.098C20.2096 11.1567 20.3489 11.1713 20.4369 11.142C20.5249 11.1273 20.6569 11.0027 20.8329 10.768C21.0236 10.5187 21.1409 10.3133 21.1849 10.152C21.2876 9.77067 21.4489 9.46267 21.6689 9.228C21.7423 9.14 21.7936 9.04467 21.8229 8.942C21.8523 8.81 21.9329 8.62667 22.0649 8.392C22.1969 8.14267 22.2996 7.996 22.3729 7.952C22.7836 7.65867 23.0476 7.49 23.1649 7.446ZM13.3749 9.602C13.2576 9.47 13.1329 9.41133 13.0009 9.426C12.8689 9.426 12.6929 9.49933 12.4729 9.646C12.3116 9.76333 12.2016 9.90267 12.1429 10.064C12.0843 10.2253 11.9963 10.3867 11.8789 10.548C11.7616 10.724 11.7029 10.878 11.7029 11.01C11.7029 11.406 11.6223 11.934 11.4609 12.594C11.4316 12.7553 11.3583 12.9387 11.2409 13.144C11.1383 13.3493 11.0429 13.4887 10.9549 13.562C10.8816 13.6207 10.8156 13.7527 10.7569 13.958C10.6983 14.1633 10.5663 14.376 10.3609 14.596C9.77426 15.212 9.43693 15.5787 9.34893 15.696C9.2756 15.7987 9.23893 15.9233 9.23893 16.07C9.23893 16.2313 9.20226 16.4 9.12893 16.576C9.07026 16.752 9.0556 16.928 9.08493 17.104C9.11426 17.28 9.10693 17.4853 9.06293 17.72C9.01893 17.9547 9.0116 18.3213 9.04093 18.82C9.08493 19.304 9.15093 19.6413 9.23893 19.832C9.31226 20.008 9.35626 20.1693 9.37093 20.316C9.40026 20.4627 9.45893 20.5653 9.54693 20.624C9.66426 20.7267 9.8916 20.9687 10.2289 21.35C10.4196 21.57 10.6396 21.7167 10.8889 21.79C11.2849 21.9073 11.7176 22.1787 12.1869 22.604C12.4949 22.8827 12.9203 23.1027 13.4629 23.264C14.0203 23.44 14.5849 23.5133 15.1569 23.484C15.3769 23.484 15.6703 23.4987 16.0369 23.528C16.4036 23.572 16.6383 23.616 16.7409 23.66C17.1369 23.8213 17.4156 23.8653 17.5769 23.792C17.7236 23.748 17.9876 23.7187 18.3689 23.704C18.7503 23.6893 19.0216 23.7113 19.1829 23.77C19.3443 23.814 19.6009 23.8287 19.9529 23.814C20.3196 23.7993 20.5323 23.7627 20.5909 23.704C20.6936 23.572 20.6056 23.4253 20.3269 23.264C20.1509 23.176 20.0189 23.0733 19.9309 22.956C19.5936 22.4867 19.3296 22.1567 19.1389 21.966C18.9483 21.7753 18.8529 21.636 18.8529 21.548C18.8529 21.46 18.8163 21.3573 18.7429 21.24C18.6696 21.1227 18.6183 21.02 18.5889 20.932C18.5743 20.844 18.5229 20.7487 18.4349 20.646C18.3469 20.558 18.2589 20.4407 18.1709 20.294C18.1123 20.162 18.0389 20.0227 17.9509 19.876C17.8629 19.7293 17.8189 19.546 17.8189 19.326C17.8189 19.106 17.7823 18.9447 17.7089 18.842C17.6356 18.7247 17.5989 18.6147 17.5989 18.512C17.5989 18.4093 17.5696 18.2773 17.5109 18.116C17.4523 17.94 17.4156 17.4853 17.4009 16.752C17.3716 15.5053 17.3643 14.728 17.3789 14.42C17.4083 14.0973 17.4889 13.8113 17.6209 13.562C17.7969 13.2247 17.7969 12.9753 17.6209 12.814C17.4449 12.638 17.1369 12.5867 16.6969 12.66C15.8756 12.836 15.2523 12.8287 14.8269 12.638C14.4163 12.4473 14.1596 12.0733 14.0569 11.516C14.0129 11.208 13.9469 10.9293 13.8589 10.68C13.7563 10.3867 13.6829 10.174 13.6389 10.042C13.5949 9.88067 13.5069 9.734 13.3749 9.602ZM21.8889 17.698C21.8009 17.6247 21.7423 17.5953 21.7129 17.61C21.4636 17.654 21.3023 17.7273 21.2289 17.83C21.1703 17.918 21.1556 18.0793 21.1849 18.314C21.1996 18.4607 21.2436 18.5633 21.3169 18.622C21.3903 18.666 21.5443 18.6953 21.7789 18.71C22.0869 18.7247 22.2409 18.622 22.2409 18.402C22.2409 18.2847 22.1969 18.1527 22.1089 18.006C22.0356 17.8593 21.9623 17.7567 21.8889 17.698ZM13.5509 17.258C13.8443 17.1847 14.1009 17.2507 14.3209 17.456C14.5409 17.6613 14.6509 17.9033 14.6509 18.182C14.6509 18.4607 14.5483 18.71 14.3429 18.93C14.2696 19.0033 14.0863 19.0327 13.7929 19.018C13.5143 18.9887 13.3236 18.93 13.2209 18.842C12.9569 18.6513 12.8689 18.358 12.9569 17.962C13.0449 17.566 13.2429 17.3313 13.5509 17.258Z" fill="#262627"/>
</svg>
