<svg width="24" height="24" viewBox="0 0 24 24" fill="none" xmlns="http://www.w3.org/2000/svg">
<g clip-path="url(#clip0_5545_1416)">
<path d="M20.0119 12.4942L19.8769 12.7413L20.1383 12.846C20.2704 12.8989 20.3992 12.9582 20.5243 13.0234L20.6399 12.8017C20.9071 12.9409 21.1587 13.106 21.3914 13.2934L21.2346 13.4881C21.4556 13.6661 21.6585 13.8654 21.8402 14.083L22.0321 13.9227C22.2238 14.1523 22.3932 14.401 22.5369 14.6655L22.3172 14.7848C22.4515 15.032 22.5619 15.2936 22.6456 15.5667L22.8846 15.4934C22.9713 15.7763 23.0308 16.0709 23.0602 16.3741L22.8114 16.3982C22.8249 16.5378 22.8317 16.6794 22.8313 16.8227V16.8233C22.8313 16.9905 22.8241 17.1582 22.8095 17.3259L23.0586 17.3476C23.0285 17.6928 22.9681 18.0384 22.8752 18.3804L22.6339 18.3148C22.5475 18.6328 22.4317 18.9476 22.2843 19.2558L22.5098 19.3637C22.3624 19.6719 22.1848 19.9737 21.9752 20.2661L21.7721 20.1204C21.5826 20.3846 21.3655 20.6413 21.1191 20.8879L21.2959 21.0646C21.0574 21.3031 20.7929 21.5321 20.5011 21.7493L20.3518 21.5488C20.0907 21.7431 19.8064 21.9283 19.4976 22.1025L19.6205 22.3202C19.3274 22.4856 19.0135 22.6411 18.678 22.7853L18.5793 22.5556C18.2773 22.6854 17.9569 22.8061 17.6173 22.9166L17.6947 23.1543C17.3745 23.2585 17.0381 23.3537 16.685 23.4389L16.6263 23.1959C16.3041 23.2737 15.9674 23.3433 15.6158 23.4039L15.6582 23.6503C15.3247 23.7077 14.9783 23.7572 14.6187 23.7982L14.5904 23.5498C14.2573 23.5877 13.9125 23.6182 13.5556 23.6409L13.5715 23.8904C13.2328 23.912 12.8835 23.9265 12.5236 23.9337L12.5186 23.6838C12.3467 23.6872 12.1723 23.6889 11.9954 23.6889C11.8357 23.6889 11.6682 23.6873 11.4937 23.6836L11.4884 23.9335C11.171 23.9267 10.831 23.913 10.4744 23.8896L10.4908 23.6402C10.1696 23.6191 9.83514 23.5901 9.49175 23.5512L9.46357 23.7996C9.13544 23.7624 8.79912 23.7161 8.45846 23.6591L8.49973 23.4125C8.17534 23.3582 7.84732 23.2941 7.51904 23.2186L7.46299 23.4622C7.13563 23.3869 6.80769 23.3004 6.48243 23.2011L6.55539 22.962C6.39681 22.9136 6.23901 22.8622 6.08238 22.8076C5.91187 22.7479 5.7473 22.6859 5.58846 22.6219L5.49496 22.8537C5.14404 22.7122 4.81964 22.5605 4.5198 22.4004L4.63751 22.1799C4.31173 22.006 4.01655 21.8225 3.7491 21.6322L3.60416 21.8359C3.2947 21.6157 3.02018 21.3861 2.77674 21.1508L2.95049 20.971C2.68709 20.7164 2.46199 20.4555 2.26966 20.1935L2.06813 20.3414C1.84273 20.0343 1.66001 19.7253 1.5122 19.4219L1.73694 19.3124C1.57524 18.9806 1.45713 18.6559 1.37151 18.3494L1.13073 18.4166C1.02256 18.0294 0.964171 17.6702 0.934981 17.3597L1.18388 17.3363C1.16578 17.1436 1.15942 16.9708 1.15942 16.8233C1.15942 16.6733 1.16712 16.5251 1.18211 16.3792L0.933421 16.3536C0.966005 16.0365 1.03121 15.729 1.1256 15.4346L1.36367 15.5109C1.45495 15.2262 1.57514 14.9543 1.72078 14.6988L1.50359 14.575C1.65953 14.3015 1.84301 14.0457 2.0502 13.8115L2.23745 13.9771C2.4339 13.755 2.65289 13.5535 2.89075 13.3761L2.74129 13.1757C2.99165 12.989 3.26181 12.8275 3.54797 12.6951L3.65295 12.922C3.78681 12.8601 3.92436 12.8048 4.06516 12.7568L4.34103 12.6627L4.20597 12.4044C4.1185 12.2371 4.0453 12.072 3.98409 11.9118L3.75054 12.001C3.59399 11.591 3.51203 11.211 3.47058 10.8991L3.7184 10.8661C3.68912 10.6458 3.6813 10.4622 3.6813 10.3311C3.6813 10.2165 3.6868 10.1029 3.69749 9.99056L3.44862 9.96687C3.472 9.72124 3.51859 9.48173 3.58545 9.25129L3.82555 9.32094C3.85748 9.21089 3.89435 9.10302 3.9358 8.9977L3.94131 8.9837L3.94511 8.96914C3.98559 8.81366 4.03309 8.66556 4.08698 8.52423L3.85339 8.43516C3.97567 8.11448 4.12958 7.825 4.3093 7.5613L4.51589 7.70208C4.69268 7.44265 4.89684 7.2085 5.12307 6.99375L4.95095 6.81244C5.18852 6.58692 5.44761 6.38337 5.72156 6.19559L5.86291 6.40179C6.12342 6.22321 6.39938 6.05828 6.68565 5.9012L6.56539 5.68203C6.85263 5.52442 7.14765 5.37588 7.44441 5.23079L7.55421 5.45539C7.70142 5.38342 7.84916 5.31225 7.99733 5.24087C8.12784 5.17856 8.25968 5.11544 8.3918 5.05137L8.28272 4.82642C8.54403 4.69969 8.80592 4.56947 9.06258 4.43343L9.17966 4.65432C9.31075 4.58484 9.44086 4.51366 9.56918 4.44052L9.57079 4.43958C9.6305 4.40495 9.69245 4.37011 9.75646 4.33484L9.6358 4.11589C9.75924 4.04787 9.88842 3.97924 10.021 3.90884L10.1383 4.12966L10.1473 4.12487C10.2077 4.09279 10.2692 4.06014 10.3313 4.02699C10.4621 3.95814 10.5974 3.88689 10.7341 3.81364L10.6161 3.59326C10.8809 3.4514 11.1509 3.30227 11.4088 3.14631L11.5381 3.36024C11.8136 3.19366 12.0803 3.01675 12.3156 2.83011L12.1602 2.63424C12.4244 2.4247 12.643 2.20548 12.7839 1.97743L12.9966 2.10884C13.095 1.94956 13.1664 1.77751 13.1941 1.5939C13.2152 1.45742 13.2112 1.32027 13.1826 1.18333L12.9379 1.23446C12.8991 1.04897 12.8027 0.859365 12.6473 0.662643L12.8435 0.507693C12.8055 0.459597 12.7647 0.411587 12.7212 0.363621C12.7971 0.396426 12.8973 0.442193 13.0176 0.502642L13.1299 0.27926C13.37 0.399932 13.6845 0.575796 14.0356 0.817139L13.8939 1.02316C14.1466 1.19685 14.4189 1.40553 14.6957 1.65325L14.8624 1.46694C15.1077 1.68645 15.3566 1.93569 15.5992 2.21734L15.4097 2.38049C15.6212 2.626 15.8277 2.89686 16.0224 3.19497L16.2317 3.05828C16.4155 3.33971 16.5891 3.64469 16.7471 3.97472L16.5216 4.08266C16.6624 4.37683 16.7905 4.69176 16.9018 5.02866L17.1392 4.95026C17.2448 5.27019 17.3356 5.6091 17.4083 5.96789L17.1633 6.01753C17.1966 6.1817 17.2259 6.35027 17.2511 6.52333L17.2778 6.70708L17.4614 6.73462C17.6051 6.75617 17.7459 6.78609 17.8836 6.82388L17.9498 6.5828C18.2499 6.6652 18.5356 6.78259 18.8021 6.93033L18.6809 7.14899C18.9339 7.28917 19.1685 7.45858 19.3801 7.65271L19.5491 7.46846C19.7756 7.67619 19.9775 7.91037 20.1498 8.1661L19.9425 8.30581C20.1023 8.54297 20.2349 8.79986 20.3359 9.07202L20.5703 8.98503C20.6758 9.26916 20.749 9.56895 20.7856 9.87998L20.5373 9.90921C20.554 10.0506 20.5626 10.1945 20.5626 10.3405C20.5626 10.4892 20.5544 10.6797 20.5262 10.8996L20.7742 10.9313C20.7318 11.2631 20.6463 11.6575 20.4818 12.0771L20.2491 11.9858C20.1839 12.152 20.1057 12.3223 20.0119 12.4942ZM12.5817 0.266548L12.5817 0.267184L12.5809 0.2676L12.5813 0.266314L12.5817 0.265242L12.5817 0.266548ZM12.5802 0.26956L12.5806 0.26832L12.5817 0.268563L12.5817 0.271321L12.5817 0.271511L12.5817 0.271404L12.5802 0.26956ZM12.5789 0.267937L12.5798 0.268136L12.5793 0.2684L12.5789 0.267937ZM12.5816 0.24062L12.5734 0.261007L12.4463 0.100688C12.4842 0.0706446 12.5319 0.0539865 12.5805 0.0537143L12.5816 0.24062ZM12.3714 0.221802C12.3608 0.26942 12.3661 0.319758 12.388 0.363682L12.5683 0.273887L12.5713 0.26625L12.3714 0.221802Z" stroke="black" stroke-width="0.5" stroke-dasharray="1 1"/>
<circle cx="8.8125" cy="13.6875" r="1.3125" fill="#35220B"/>
<circle cx="9.1875" cy="13.3125" r="0.5625" fill="white"/>
<circle cx="14.8125" cy="13.6875" r="1.3125" fill="#35220B"/>
<circle cx="15.1875" cy="13.3125" r="0.5625" fill="white"/>
</g>
<defs>
<clipPath id="clip0_5545_1416">
<rect width="24" height="24" fill="white"/>
</clipPath>
</defs>
</svg>
