<svg width="25" height="24" viewBox="0 0 25 24" fill="none" xmlns="http://www.w3.org/2000/svg">
<path d="M20.4813 12.6139C20.9829 11.6952 21.0626 10.8186 21.0626 10.3405C21.0626 8.38583 19.6235 6.76864 17.7485 6.48739C17.0313 1.55145 12.9485 0.0842619 12.9016 0.0655119C12.8079 0.0326994 12.7001 0.0701994 12.6485 0.154574C12.5969 0.238949 12.6063 0.351449 12.6813 0.421762C13.0844 0.824887 13.2532 1.1952 13.1969 1.55614C13.0657 2.4327 11.6219 3.19676 10.4641 3.80614C10.1922 3.95145 9.92974 4.08739 9.69536 4.22332C9.1938 4.50926 8.65942 4.76707 8.13911 5.01551C6.34849 5.87801 4.51099 6.76395 3.95317 8.90614C3.77974 9.34676 3.6813 9.82957 3.6813 10.3311C3.6813 10.7389 3.75161 11.5968 4.23442 12.5202C2.44849 13.1296 1.15942 14.8264 1.15942 16.8233C1.15942 18.1593 1.6563 21.4358 6.25005 23.0436C8.37349 23.7843 10.6844 23.9389 12.2454 23.9389C20.4204 23.9389 23.3313 20.2639 23.3313 16.8233C23.336 14.9202 22.1547 13.2843 20.4813 12.6139Z" fill="#876C4F"/>
<circle cx="9.0625" cy="13.6875" r="1.3125" fill="#35220B"/>
<circle cx="9.4375" cy="13.3125" r="0.5625" fill="white"/>
<circle cx="15.0625" cy="13.6875" r="1.3125" fill="#35220B"/>
<circle cx="15.4375" cy="13.3125" r="0.5625" fill="white"/>
<path d="M8.68994 17.48C12.1459 16.616 11.8699 16.82 12.1099 16.76L15.1699 17.48" stroke="#35220B" stroke-linecap="round"/>
<path d="M13.3701 12.8C15.2421 11.648 16.0701 11.12 16.2501 11" stroke="#35220B" stroke-linecap="round"/>
<path d="M7.25 11C9.19954 12.2343 9.98231 12.7143 10.13 12.8" stroke="#35220B" stroke-linecap="round"/>
</svg>
