<svg width="25" height="24" viewBox="0 0 25 24" fill="none" xmlns="http://www.w3.org/2000/svg">
<g clip-path="url(#clip0_5545_1387)">
<path d="M20.7313 12.6139C21.2329 11.6952 21.3126 10.8186 21.3126 10.3405C21.3126 8.38583 19.8735 6.76864 17.9985 6.48739C17.2813 1.55145 13.1985 0.0842619 13.1516 0.0655119C13.0579 0.0326994 12.9501 0.0701994 12.8985 0.154574C12.8469 0.238949 12.8563 0.351449 12.9313 0.421762C13.3344 0.824887 13.5032 1.1952 13.4469 1.55614C13.3157 2.4327 11.8719 3.19676 10.7141 3.80614C10.4422 3.95145 10.1797 4.08739 9.94536 4.22332C9.4438 4.50926 8.90942 4.76707 8.38911 5.01551C6.59849 5.87801 4.76099 6.76395 4.20317 8.90614C4.02974 9.34676 3.9313 9.82957 3.9313 10.3311C3.9313 10.7389 4.00161 11.5968 4.48442 12.5202C2.69849 13.1296 1.40942 14.8264 1.40942 16.8233C1.40942 18.1593 1.9063 21.4358 6.50005 23.0436C8.62349 23.7843 10.9344 23.9389 12.4954 23.9389C20.6704 23.9389 23.5813 20.2639 23.5813 16.8233C23.586 14.9202 22.4047 13.2843 20.7313 12.6139Z" fill="#D1A97E"/>
<circle cx="9.3125" cy="13.6875" r="1.3125" fill="#35220B"/>
<circle cx="9.6875" cy="13.3125" r="0.5625" fill="white"/>
<circle cx="15.3125" cy="13.6875" r="1.3125" fill="#35220B"/>
<circle cx="15.6875" cy="13.3125" r="0.5625" fill="white"/>
<path d="M15 12C16.3 12.64 16.875 12.9333 17 13" stroke="#35220B" stroke-linecap="round"/>
<path d="M7 13C8.35385 12.3143 8.89744 12.0476 9 12" stroke="#35220B" stroke-linecap="round"/>
<ellipse cx="12.5" cy="17.5" rx="1.5" ry="0.5" fill="#35220B"/>
</g>
<defs>
<clipPath id="clip0_5545_1387">
<rect width="24" height="24" fill="white" transform="translate(0.5)"/>
</clipPath>
</defs>
</svg>
