<svg width="26" height="26" viewBox="0 0 26 26" fill="none" xmlns="http://www.w3.org/2000/svg">
<g clip-path="url(#clip0_5545_1359)">
<path d="M21.9171 13.6653C22.4605 12.67 22.5468 11.7204 22.5468 11.2024C22.5468 9.08481 20.9878 7.33285 18.9566 7.02817C18.1796 1.6809 13.7566 0.0914465 13.7058 0.071134C13.6042 0.0355871 13.4875 0.0762121 13.4316 0.167618C13.3757 0.259025 13.3859 0.3809 13.4671 0.457072C13.9039 0.89379 14.0867 1.29496 14.0257 1.68598C13.8835 2.63559 12.3195 3.46332 11.0652 4.12348C10.7707 4.2809 10.4863 4.42816 10.2324 4.57543C9.68901 4.8852 9.11011 5.16449 8.54644 5.43363C6.60659 6.36801 4.61597 7.32778 4.01167 9.64848C3.82378 10.1258 3.71714 10.6489 3.71714 11.1922C3.71714 11.634 3.79331 12.5633 4.31636 13.5637C2.38159 14.2239 0.985107 16.0621 0.985107 18.2254C0.985107 19.6727 1.52339 23.2223 6.49995 24.9641C8.80034 25.7664 11.3039 25.934 12.9949 25.934C21.8511 25.934 25.0046 21.9528 25.0046 18.2254C25.0097 16.1637 23.73 14.3914 21.9171 13.6653Z" fill="#A57655"/>
<circle cx="9.54688" cy="14.8281" r="1.42188" fill="#35220B"/>
<circle cx="9.95312" cy="14.4219" r="0.609375" fill="white"/>
<circle cx="16.0469" cy="14.8281" r="1.42188" fill="#35220B"/>
<circle cx="16.4531" cy="14.4219" r="0.609375" fill="white"/>
<path d="M9 19.5C13.5 20.5 12 20.5 16.5 19.5" stroke="#35220B" stroke-linecap="round"/>
</g>
<defs>
<clipPath id="clip0_5545_1359">
<rect width="26" height="26" fill="white"/>
</clipPath>
</defs>
</svg>
