<svg width="25" height="24" viewBox="0 0 25 24" fill="none" xmlns="http://www.w3.org/2000/svg">
<path d="M20.9813 12.6139C21.4829 11.6952 21.5626 10.8186 21.5626 10.3405C21.5626 8.38583 20.1235 6.76864 18.2485 6.48739C17.5313 1.55145 13.4485 0.0842619 13.4016 0.0655119C13.3079 0.0326994 13.2001 0.0701994 13.1485 0.154574C13.0969 0.238949 13.1063 0.351449 13.1813 0.421762C13.5844 0.824887 13.7532 1.1952 13.6969 1.55614C13.5657 2.4327 12.1219 3.19676 10.9641 3.80614C10.6922 3.95145 10.4297 4.08739 10.1954 4.22332C9.6938 4.50926 9.15942 4.76707 8.63911 5.01551C6.84849 5.87801 5.01099 6.76395 4.45317 8.90614C4.27974 9.34676 4.1813 9.82957 4.1813 10.3311C4.1813 10.7389 4.25161 11.5968 4.73442 12.5202C2.94849 13.1296 1.65942 14.8264 1.65942 16.8233C1.65942 18.1593 2.1563 21.4358 6.75005 23.0436C8.87349 23.7843 11.1844 23.9389 12.7454 23.9389C20.9204 23.9389 23.8313 20.2639 23.8313 16.8233C23.836 14.9202 22.6547 13.2843 20.9813 12.6139Z" fill="#B3765D"/>
<path d="M9 18H17" stroke="#35220B" stroke-linecap="round"/>
<path d="M8 14L11 12" stroke="#35220B" stroke-linecap="round"/>
<path d="M11 14L8 12" stroke="#35220B" stroke-linecap="round"/>
<path d="M15 14L18 12" stroke="#35220B" stroke-linecap="round"/>
<path d="M18 14L15 12" stroke="#35220B" stroke-linecap="round"/>
<ellipse cx="13.5" cy="8.5" rx="10.5" ry="8.5" fill="#C76B6B" fill-opacity="0.3" style="mix-blend-mode:color-burn"/>
</svg>
